<svg xmlns="http://www.w3.org/2000/svg" xml:space="preserve" viewBox="0 0 218 218"><g transform="matrix(1.25 0 0 -1.25 -290.13 583.79)"><ellipse cx="319.47" cy="-379.99" fill="#fff" rx="83.236" ry="82.919" transform="scale(1 -1)"/><path fill="#c00" d="M319.46 466.38c-47.641 0-86.4-38.759-86.4-86.4s38.759-86.4 86.4-86.4 86.4 38.759 86.4 86.4-38.759 86.4-86.4 86.4m0-3.79c45.553 0 82.612-37.058 82.612-82.61s-37.06-82.612-82.612-82.612-82.611 37.06-82.611 82.612 37.059 82.61 82.611 82.61m0-1.562c-44.692 0-81.05-36.357-81.05-81.048 0-44.693 36.358-81.048 81.05-81.048s81.048 36.355 81.048 81.048c0 44.691-36.355 81.048-81.048 81.048m0-.718c44.295 0 80.33-36.035 80.33-80.33s-36.035-80.33-80.33-80.33-80.331 36.035-80.331 80.33 36.036 80.33 80.331 80.33m-3.462-2.335v-.048c.83-.317.708-1.509.701-2.244l-.05-6.156c-.006-.751.082-1.944-.737-2.245v-.049l2.693-.023c1.224-.01 2.514-.069 3.66.476 1.1.512 1.976 1.586 1.986 2.843.014 1.6-1.173 2.59-2.638 2.912.931.4 1.641 1.014 1.648 2.106.013 1.456-1.237 2.38-3.393 2.396zm15.366-.739c-2.853-.012-5.274-1.966-5.72-4.644-.559-3.303 1.752-6.039 4.937-6.573 3.204-.538 6.328 1.387 6.881 4.673.485 2.902-1.466 5.878-4.853 6.428-.42.081-.838.118-1.245.116m-11.527-.298c.855-.07 1.654-.653 1.643-1.638-.01-1.338-1.533-1.684-2.593-1.675l-.54.005.027 3.2 1.095.106q.184.017.368.002m-13.634-.025a8.4 8.4 0 0 1-1.84-.164c-1.955-.391-3.866-1.57-3.464-3.59.68-3.393 6.098-1.842 6.597-4.342.224-1.119-1.044-1.94-1.958-2.125-1.248-.248-2.664.002-3.77.63l.864-1.91c.98-.152 1.986-.102 2.961.094 2.5.5 3.973 2.458 3.63 4.174-.591 2.96-6.095 1.828-6.535 4.02-.219 1.107.864 1.688 1.778 1.869.895.181 1.963.01 2.715-.505l-.361 1.81a8 8 0 0 1-.618.039m25.192-.866q.437.01.906-.067c2.546-.428 3.664-2.95 3.27-5.298-.406-2.401-2.263-3.927-4.712-3.518-2.53.425-3.735 3.014-3.355 5.268.357 2.127 1.85 3.568 3.89 3.615m10.725-1.525c-1.178-.044-2.205-.533-2.607-1.755-1.087-3.289 4.392-4.615 3.593-7.034-.36-1.085-1.865-1.173-2.749-.88-1.21.397-2.321 1.316-2.97 2.408l-.192-2.089c.776-.617 1.678-1.069 2.625-1.38 2.419-.798 4.664.181 5.215 1.84.945 2.867-4.403 4.596-3.7 6.721.352 1.071 1.583 1.044 2.467.752.87-.287 1.712-.961 2.111-1.781l.58 1.754c-.668.478-1.42.85-2.197 1.104-.71.233-1.47.366-2.176.34m-48.508-.96-2.425-.882.017-.047c.82.036.764-.714.75-1.344l-.236-7.333c-.02-.997.032-1.95-.697-2.72l.017-.047 2.825 1.028-.017.047c-.838.007-.894.492-.883 1.469l.011 2.453 3.869 1.405 1.615-1.86c.806-.925.99-1.048.358-1.659l.019-.047 3.147 1.145-.019.047c-1.036.127-1.626.885-2.297 1.633zm25.872-.954c1.436.07 2.964-.629 2.953-2.214-.012-1.549-1.372-2.158-2.711-2.019l-1.42.142.032 4.036zm29.786-.342-1.343-1.516.04-.02c.662.214 1.403.061 2.038-.238l1.302-.612-3.103-6.59c-.314-.665-.731-1.785-1.603-1.718l-.022-.044 2.927-1.378.018.046c-.567.826-.279 1.395.12 2.237l3.17 6.738 1.33-.625c.489-.231 1.044-.582.99-1.19l.045-.021 1.302 1.536-.046.02c-.232.002-.478.098-.73.216l-5.507 2.595-.37.176c-.177.12-.37.21-.513.365zm-56.197-.38 2.91-3.32-3.023-1.099zm-5.933-.689-.044-.022c-.144-.186-.366-.322-.614-.45l-5.4-2.814-.363-.189c-.203-.07-.392-.165-.604-.186l-.044-.02.394-1.99.042.024c.23.655.8 1.151 1.423 1.478l1.272.663 3.366-6.46c.338-.653.978-1.664.397-2.314l.022-.045 2.868 1.492-.025.044c-1 .05-1.279.623-1.709 1.448l-3.44 6.605 1.302.678c.48.251 1.095.48 1.547.072l.044.022zm72.247-4.908c-1.916.055-3.757-.815-4.828-2.43-1.85-2.79-.86-6.232 1.837-8.018 2.708-1.797 6.341-1.31 8.186 1.467 1.624 2.45 1.052 5.966-1.814 7.847a6.2 6.2 0 0 1-3.381 1.134m-81.434-.28-2.59-1.707.029-.042c.864.198 1.423-.86 1.837-1.488l3.386-5.14c.404-.615 1.15-1.571.631-2.266l.025-.04 2.593 1.706-.027.04c-.853-.189-1.426.861-1.831 1.475l-3.386 5.14c-.404.617-1.149 1.57-.638 2.279zm41.508-.829c-35.952 0-65.2-29.248-65.2-65.2 0-35.953 29.248-65.202 65.2-65.202 35.953 0 65.2 29.249 65.2 65.202 0 35.952-29.247 65.2-65.2 65.2m40.152-.192c.795.014 1.62-.226 2.412-.752 2.15-1.426 2.142-4.183.822-6.17-1.342-2.028-3.662-2.663-5.731-1.29-2.14 1.416-2.185 4.27-.919 6.176.85 1.283 2.09 2.012 3.416 2.036m-40.152-.528c35.555 0 64.48-28.926 64.48-64.48s-28.925-64.481-64.48-64.481c-35.554 0-64.48 28.926-64.48 64.48s28.926 64.48 64.48 64.48m0-1.561c-34.693 0-62.92-28.226-62.92-62.92s28.227-62.918 62.92-62.918c34.695 0 62.917 28.224 62.917 62.919 0 34.693-28.222 62.919-62.917 62.919m-46.76-.58a8.2 8.2 0 0 1-2.12-1.249c-1.55-1.252-2.696-3.184-1.404-4.787 2.175-2.692 6.26 1.192 7.86-.79.718-.89-.026-2.203-.75-2.79-.991-.799-2.362-1.234-3.635-1.19l1.65-1.291c.941.319 1.809.829 2.583 1.453 1.983 1.601 2.38 4.023 1.281 5.383-1.898 2.352-6.246-1.205-7.653.537-.706.875-.018 1.893.706 2.478.711.574 1.735.918 2.641.81zm96.936-2.428-.033-.035c.27-.942-.183-1.413-.816-2.072l-4.514-4.697c-.633-.663-1.086-1.13-2.062-.896l-.033-.036 2.083-2.003.036.034c-.274.965.188 1.426.821 2.086l4.379 4.556-.882-9.003c-.129-1.171-.135-1.907.432-2.995l6.346 6.604c.633.661 1.086 1.133 2.038.899l.033.033-2.072 1.992-.033-.035c.283-.955-.182-1.414-.812-2.071l-4.291-4.465.919 9.582.06.393c.01.175.02.278.108.464l.008.011zm-50.184-.83a58.7 58.7 0 0 0 25.323-5.714l-.011-.022c8.624-4.094 10.133-16.625 10.147-16.752l.026-.238.003.011.81-.807.219-.025c.127-.014 12.61-1.512 16.792-10.256l.062.03a58.7 58.7 0 0 0 5.703-25.304 58.7 58.7 0 0 0-5.71-25.322l-.021.01c-4.1-8.626-16.63-10.134-16.756-10.148l-.244-.026.02-.006-.809-.808-.023-.22c-.016-.125-1.51-12.606-10.256-16.792l.028-.06a58.7 58.7 0 0 0-25.303-5.705 58.7 58.7 0 0 0-25.32 5.713l.009.02c-8.63 4.097-10.134 16.63-10.148 16.756l-.027.235c0-.006-.002-.007-.003-.013l-.81.81-.22.024c-.125.016-12.61 1.51-16.791 10.256l-.061-.03a58.7 58.7 0 0 0-5.705 25.306 58.7 58.7 0 0 0 5.712 25.32l.024-.011c4.093 8.629 16.624 10.133 16.75 10.147l.244.028-.018.005.808.808.025.22c.014.126 1.51 12.611 10.256 16.794l-.03.061a58.7 58.7 0 0 0 25.305 5.705m-35.556-22.78-.083-.733-.708-.08c.37-.092.473-.108.764-.4.291-.29.348-.578.303-.656a2.16 2.16 0 0 1 .34-2.615 2.16 2.16 0 1 1 3.053 3.055 2.16 2.16 0 0 1-2.624.334c-.077-.045-.392.066-.64.307-.29.282-.292.37-.404.79zm-.742-71.853.732-.081.08-.716c.094.377.106.48.4.77.291.291.58.347.658.3a2.16 2.16 0 0 1 2.615.34 2.165 2.165 0 0 1 0 3.059 2.162 2.162 0 0 1-3.389-2.628c.045-.075-.065-.39-.307-.64-.283-.287-.371-.29-.791-.402zm71.853-.744.08.736.709.078c-.369.093-.474.109-.765.402-.288.289-.343.578-.301.658a2.16 2.16 0 0 1-.336 2.614 2.163 2.163 0 0 1-3.058-3.058 2.16 2.16 0 0 1 2.627-.333c.075.047.391-.063.64-.305.288-.286.29-.37.404-.792m.743 71.855-.734.083-.078.714c-.098-.378-.106-.478-.402-.772-.289-.289-.58-.344-.658-.298a2.161 2.161 0 1 1 .777-.772c-.047.078.063.392.305.639.286.29.37.293.792.405zm-36.347 22.395-.018-.05c-3.754-1.499-5.967-5.444-7.035-7.351l-.348-.583c-8.654 3.4-13.327-.625-13.522-.805l-.607-.548.715-.4c5.277-2.95 8.202-6.553 6.476-15.336-.24.046-.425.209-.608.412-.763.147-.29-.72-.789-.962-.382-.192-.523.243-.951.147-.43-.194-.556-1.1-.747-1.052 0 0-1.576 1.086-1.836.75 0-.725-.272-1.157-.181-1.831-.282-.576-.858.037-1.146-.347-.046-.435-.218-.74-.53-1.052-.45-.266-.753-.219-1.229-.339-.716-.074-.318-.799-.736-1.169-.874-.772-1.695.059-2.6.204-.622.12.167-1.638.05-2.216-.217-.505-.694-.505-1.169-.46-.787-.527.781-1.363-.125-1.821-.379-.314-1.209-.05-1.592-.435-.069-.53-.035-.784-.39-1.194-.595-.937-1.538-.49-2.229-.345-.263 0-.382-.312-.31-.506.358-.698.833-1.04.642-1.834-.356-.312-.785-.569-1.261-.593-.384-.696.685-.566.47-1.36-.31-.599-1.28-.762-1.828-.665-.642-.575.453-1.013.264-1.782-.011-.06-.045-.11-.067-.166-8.067-1.718-11.996 1.356-14.927 6.602l-.4.715-.549-.608c-.127-.14-2.204-2.502-2.204-6.939 0-1.834.405-4.05 1.4-6.58l-.583-.35c-1.908-1.067-5.852-3.28-7.353-7.034l-.05-.019.02-.046-.02-.049.05-.019c1.5-3.753 5.445-5.969 7.351-7.035l.585-.347c-.995-2.534-1.4-4.75-1.4-6.585 0-4.437 2.077-6.8 2.204-6.939l.549-.608.4.716c2.927 5.24 6.503 8.156 14.83 6.51.282-.229.73-.527.947-.791.358-.722-.699-.63-.46-1.302.548-.17 1.033-.408 1.46-.865.166-.46-.142-.864-.405-1.23-.119-.311-.664-.686-.545-1 .47-.612 1.937.056 2.558-.11.215-.148.344-.524.276-.86.022-.482-.764-1.11-.072-1.444.593.072 1.169-.024 1.499-.507.12-.529.082-.775-.061-1.209.476-.553 1.043.354 1.567-.22.453-.483-.288-1.243-.314-1.725-.071-.24-.07-.813.167-1.008.43-.192.857.195 1.334.195.498-.024.926.693 1.333.288.357-.408.158-.91.11-1.364.213-1.036.96-.11 1.53-.258.598-.192.195-1.025.241-1.39.312-.718 1.307-.052 1.877-.123.453-.169.389-.74.508-1.173.048-.527-.252-1.587.153-1.964.382-.36 1.63 1.012 2.369 1.036.263-.047.55-.442.672-.688.236-.387-.112-1.064.603-.968.476.262.776.514 1.397.514.02-.335-.28-.874-.02-1.258l.323-.033c1.476-8.327-1.374-11.518-6.528-14.4l-.714-.402.606-.55c.197-.175 4.867-4.202 13.522-.801.14-.234.347-.585.347-.585 1.069-1.906 3.282-5.851 7.036-7.35l.018-.05.047.02q.024-.008.049-.02l.018.05c3.753 1.499 5.97 5.441 7.036 7.35l.347.585c8.656-3.401 13.325.626 13.522.801l.605.55-.714.402c-4.997 2.792-7.8 5.866-6.622 13.631.099.258.135.573.16.856.315.99 1.242-.096 1.835.166-.023.413-.12.988.24 1.326.262.286.667.166 1.05.194.522-.075 1.512-1.204 2.035-.77-.073.624-.486 1.683-.419 2.306.172.314.478.558.861.486.597-.052 1.355-.521 1.808.15.12.625-.333 1.17.314 1.53.832.098 1.115-.657 1.947-.533 1.004.53-.115 1.042.005 1.717.19.817 1.586.397 1.586.397.028.22.657-.11.13.731.044.434-.336 1.037.187 1.3.167.05.429.17.596 0 .213-.047.602-.211.878.03.244.218-.044 1.36-.044 1.36.879 1.438 2.538.043 2.833.885.19.536-.9 1.285-.45 1.936.284.36.626.38 1.006.38.185.408-.435.75-.287 1.228.166.58.642.49 1.115.539.882.529.141 1.061.406 1.87.333 1.036 1.794.152 2.078.628-.143.431-.124.937-.364 1.37-.033.048-.098.118-.146.174 8.436 1.534 11.715-1.356 14.612-6.54l.4-.716.551.608c.124.138 2.202 2.502 2.202 6.939 0 1.833-.406 4.05-1.4 6.584.234.14.584.344.584.344 1.91 1.069 5.852 3.284 7.35 7.04l.05.018-.02.047.02.048-.05.019c-1.498 3.754-5.444 5.967-7.35 7.036l-.584.347c.994 2.53 1.4 4.747 1.4 6.58 0 4.438-2.078 6.8-2.202 6.94l-.551.608-.4-.716c-2.861-5.118-6.366-7.685-13.398-6.744a.66.66 0 0 1-.19.441c-.5-.014-.62-.074-1.042-.036-.743.184-.947.252-1.073.661.17.48.424 1.547.258 1.619-.427-.05-.973-.09-1.383.148-.068.12-.01.615.06.735.598.84-.599.28-.787.667.047.577.77.976.869 1.531.096.264.336.625.022.867-.81.215-1.642.22-2.497.172 0 0-.194.813.02 1.222-.068.818-.664.629-1.184.8-.666.264-.49.733-.49 1.19-.432.479-.736.159-1.188.615-.945.956.29 1.919-.422 2.295-.593.317-1.87-.493-2.563-.272 0 0 .303.985-.1 1.49-.119.46-1.104-.46-1.789.335-.098.385-.448.693-.253 1.028-.434.481-.67.131-1.173.347-.211 0-.29.26-.34.453.027.651.127 1.645-.466 1.863-.715-.53-1.128-.528-1.96-.697-.616.24-.519.686-.589 1.167-.333.58-.747-.188-1.225-.114-.164.145-.45.549-.355.836-.11.756-.388.38-.701.122-1.499 8.174 1.403 11.712 6.589 14.609l.714.4-.605.548c-.197.178-4.866 4.206-13.522.805l-.347.584c-1.067 1.907-3.282 5.851-7.036 7.35l-.018.05-.049-.02-.047.02zm.047-1.303c3.148-1.458 5.112-4.948 6.077-6.67.565-1.011.822-1.474 1.398-1.235 6.577 2.741 10.6.922 12.055-.005-4.073-2.45-6.817-5.523-6.817-11.278 0-.676.042-1.39.114-2.114-.529.104-1.805-.942-2.45-1.164-.54-.06-.656.38-.762.828h2.14l-.112.825h-6.341a1.1 1.1 0 0 0-.147.441c-.21.217-.306.627-.639.627-.928-.458-.403-1.453-1.57-1.55-.546-.096-.625.532-.96.773-.45.072-1.328-.869-1.328-.869-.427.145-.217 1.091-.79 1.019-.05.255.013-.63-1.19-.628-.36.312-1 .386-1.359.673-.213.202-.362.606-.587.85h14.986l.037.825h-23.469l.072-.825h7.74c-.283-.378-.438-.894-.682-1.336h-7.094l-.075-.825h2.253c-.29-.27-.575-.566-.706-.78-.405-.146-1.027-.313-1.383.024-.33.096-.854.477-1.27.761q.147 1.295.147 2.442c0 5.757-2.743 8.832-6.816 11.281 1.457.926 5.478 2.746 12.056.005.574-.24.834.224 1.399 1.232.963 1.723 2.924 5.214 6.073 6.673m-.164-1.362-1.22-.822h2.876l-1.251.822zm-54.266-.994c-.88.075-1.873-.341-2.801-1.345l-2.633-2.857.034-.034c.792.402 1.592-.489 2.144-1l4.522-4.173c.542-.5 1.508-1.236 1.158-2.047l.037-.032 2.114 2.291-.034.034c-.781-.414-1.592.466-2.144.975l-5.377 4.961c.207.323.416.62.657.907.707.837 1.9 1.115 2.762.32 1.13-1.042.542-2.57-.2-3.663l2.71-.456 3.164-.21c.777-.05 1.299.203 1.886.84l1.018 1.103c-1.064-.284-2.387-.465-3.475-.392l-3.767.275c.681 1.196.706 2.883-.351 3.858-.41.378-.896.6-1.424.645m51.655-1.166-.61-.823h6.79l-.627.823zm-1.583-2.162-.478-.822h9.713l-.516.822zm64.064-.8-.036-.03c.284-.844-.714-1.504-1.303-1.975l-4.787-3.869c-.57-.463-1.447-1.3-2.188-.848l-.042-.031 1.953-2.414.04.032c-.275.83.712 1.504 1.284 1.963l4.789 3.87c.572.463 1.448 1.3 2.204.86l.038.03zm-76.352-1.361-.736-.206.736-.618s8.016-.02 7.983 0c-.956.617-2.316.824-2.316.824zm11.073 0-.404-.824h12.067l-.444.824zm16.74 0s-.884-.06-2.391-.824c-.01-.004 7.98 0 7.98 0l.63.582-.59.242zm-45.082-.474c-2.572-4.208-3.551-8.731-3.864-10.622-1.882-.31-6.367-1.275-10.545-3.787a60 60 0 0 0 2.286 3.04c2.398 1.34 6.202 2.126 6.24 2.135l.476.095.09.477c.007.039.727 3.75 2.122 6.254a60 60 0 0 0 3.195 2.408m67.836-.005a60 60 0 0 0 3.04-2.285c1.34-2.397 2.125-6.202 2.134-6.241l.095-.477.477-.089c.038-.006 3.747-.726 6.251-2.119a60 60 0 0 0 2.41-3.196c-4.208 2.571-8.728 3.55-10.617 3.862-.311 1.882-1.278 6.368-3.79 10.545m-96.227-1.25-.03-.04c-.028-.24-.215-.445-.376-.672l-3.017-4.266.04-.028c.732.5 1.652-.269 2.263-.703l5.025-3.555c.6-.425 1.642-1.043 1.4-1.893l.04-.028 3.935 5.559-1.322 1.834-.027-.039c.115-1.083-.259-2.201-.96-3.023l-1.358-1.58-3.158 2.238.697.986c.292.41.677.981 1.214.921l.028.04-1.413 1-.028-.04c-.034-.216-.185-.43-.336-.643l-1.123-1.586-2.478 1.756c.223.483.537.959.869 1.425.435.612.874 1.12 1.647 1.194l.026.039zm77.52-.432-30.232-.024.653-.8h28.805zm48.235-1.182-.043-.023c.193-.87-.858-1.434-1.491-1.845l-5.158-3.358c-.614-.401-1.575-1.143-2.273-.605l-.042-.026 3.714-5.708 2.192.55-.028.044c-1.045.292-1.948 1.047-2.452 2.004l-.969 1.846 3.244 2.11.661-1.014c.274-.423.662-.988.411-1.467l.025-.04 1.449.943-.025.042c-.188.11-.334.328-.477.55l-1.056 1.629 2.545 1.657c.366-.386.691-.856 1.003-1.336.41-.627.723-1.225.503-1.97l.027-.04 1.601 1.042-.025.04c-.213.117-.335.368-.485.6zm-76.858-.98.369-.823h25.973l.477.824zm52.852-.545a60 60 0 0 0 4.35-4.328 30 30 0 0 1-3.39.942 33 33 0 0 1-.96 3.386m-79.05-.142a30 30 0 0 1-.942-3.392 32 32 0 0 1-3.386-.958 60 60 0 0 0 4.328 4.35M307 422.301l.219-.822h24.428l.219.822zm45.872-.744c-.134-.006-.239-.105-.208-.264.122-.607-.095-1.264-.198-1.157a2.163 2.163 0 0 1-3.06-3.057 2.165 2.165 0 0 1 3.06 0c.659.66 1.39 2.526.783 4.182-.08.216-.243.303-.377.296m-66.942-.1c-.134.007-.296-.08-.376-.298-.604-1.654.125-3.52.784-4.181a2.163 2.163 0 1 1 0 3.058c-.105-.106-.322.549-.2 1.156.032.158-.074.259-.208.265m-32.98-.467-1.148-2.145.045-.023c.836.7 1.757-.42 2.572-1.357l4.123-4.722-7.489 1.058c-.379.055-1.229.159-1.548.327l-.164.11-1.123-2.105.043-.022c.828.372 1.778.141 2.66.022l7.051-.972c1.362-.191 1.656.077 2.857.732zm54.664-.851.122-.822h23.541l.058.822zm80.673-3.131-.04-.02c-.098-.978-.693-1.247-1.525-1.626l-5.935-2.689c-.832-.379-1.425-.649-2.248-.069l-.042-.022 1.19-2.63.049.02c.105.996.706 1.25 1.534 1.63l5.756 2.609-4.153-8.036c-.553-1.037-.836-1.721-.71-2.94l8.341 3.787c.834.376 1.43.645 2.224.076l.047.017-1.188 2.62-.042-.023c-.092-.988-.691-1.244-1.523-1.622l-5.636-2.556 4.398 8.56.202.343c.074.157.12.251.272.392l.017.008zm-72.238-.76s1.413-1.63 2.46-1.414c.758.65 1.287.201 1.787-.086.956.736 1.03.293 2.14-.18l.924.482.666.865c.406-.194.497-.77.856-1.13.288-.24.545-.696.997-.48.358.023.547.528.952.335.408-.36.978-.528 1.451-.312.502-.287.971-1.134 1.683-1.06l1.6 1.011c.45-.023.191-.67.331-.982.263-.455.712-.673 1.14-.865 1.119.727 1.168-.335 1.238-.335.403-.096 1.119.36 1.168-.361.024-.481.52-.747.876-1.008.617.094 2.061 1.003 2.131.884.05-.36-.224-.958-.253-1.294.24-.48.19-.955.719-1.242l1.09-.055c.24-.504.426-1.128 1.07-1.248 1.817.087.381-1.248 1.26-1.56.931-.675 2.453.287 2.453.287a3.73 3.73 0 0 1-.048-2.232c.406-.648.85-.433 1.447-.721.068-.338-.191-.744.264-.938.258.025 1.376-.322 1.542-.56-.075-.458-.314-1.295-.145-1.702.45-.338.698-.19 1.275-.211.262.022 1.228.377 1.462.089-.33-.53-1.34-1.317-1.248-1.966 0 0 .77-.428.842-.74-.263-.36-.164-.746 0-1.104.307-.194 1.306-.267 1.306-.364-.113-.433-.64-.765-.426-1.245.358-.913 1.477-.506 2.189-.842-.12-1.26-.741-1.333-.975-1.92.492-.517 1.171-.319 1.162-.696-.019-.777-.928-.999-.53-1.55.807.037.673-.253.793-.35-.164-.5-.382-1.055-.164-1.581.213-.529.927-.052 1.07-.53-.45-.649-.712-1.608-.405-2.354.143-.625 1.037-.799 1.37-1.182-.409-.48-1.203-.57-1.273-1.243.285-.65 1.4-.361 1.4-1.225-.312-.096-.27-.59-.46-.805 0-.672.569-.498.876-.956-.143-.883-1.606-.804-1.77-1.552-.187-.699 1.043-.987 1.043-1.681-.234-.53-1.118-.629-.951-1.299.192-.239.381-.477.381-.789-.617-.312-1.043-.94-1.069-1.61.17-.385.716-.602.64-1.033-.522-.071-.878-.554-1.091-.985-.12-.574.049-1.176.478-1.462.023-.431-.43-.1-.599-.411-.166-.264-.308-.65-.165-.961-.453-.047-.811-.385-1.142-.72-.187-.53.052-1.03.33-1.464.195-.216.723-.608.75-.97-.31-.526-1.177.205-1.673-.041-.216-.144-.548-.238-.642-.552-.094-.598.523-1.223 0-1.678-.497.143-.834-.239-1.165-.483-.143-.262-.33-.598-.164-.933.375-.459-.562-.437-.654-.798-.285-.263-.253-.648-.157-1.028.096-.267.543-.93.445-1.219-.256-.166-.97.399-1.202.305-1.15-.222-.952-.222-1.573-.961-.167-.433.476-.911-.119-1.15-.333.044-.778.152-1.108.005-.33-.286-.63-.704-.367-1.181.167-.218.287-.51.219-.77-.481-.41-1.053.35-1.602.11-.457-.312-.448-.878-.28-1.337 0-.382.728-.875.132-1.238-.353.072-.486.565-.845.685-.358.457-.822.356-1.225.237a1.36 1.36 0 0 1-.418-.716c-.234-.483.59-1.635-.314-1.565-.289.363-.682.436-.989.584-.5-.124-1.021-.268-1.284-.77-.146-.53.17-1.304.197-1.764-.073-.166-.134-.576-.253-.525-.642.598-1.8.952-2.513.928-.595-.215.238-1.476-.617-1.305-.218.408-.645.285-.952.261-.212-.276-.156-.781-.295-1.095l-.473-.267c-.016 0-.026-.005-.043-.003-.21.309-.518.405-.736.717-.64.148-1.38.12-1.95-.216-.689-.215-.141-1.393-1.021-1.058-.332.221-.762.29-1.168.266-.283-.14-.835-.459-.98-.794-.116-.12-.872.58-1.229.653l-1.167-.409c-.478-.41-.617-.985-1.045-1.369-.668.408-1.282 1.414-2.213.817-.546-.626-1.188.359-1.878-.098-.357-.454-.548.218-.878.29-1.023.43-2.29-.252-3.1-.95 0 0-.514 1.116-1.013 1.355-.38.052-.62-.214-1-.193-.26.17-.451.364-.76.432a1.34 1.34 0 0 1-1.022-.525c-.762.12-.62 1.247-1.497 1.247-.405.12-.784-.074-1.144-.165-.284-.267-.508-1.09-1.033-.899-.117.1-.075.617-.133.858-.262.48-.425.928-1.092 1.048-.334.021-.982-.625-1.338-.456-.404.24.22.934-.09 1.225-.331.168-.688.408-1.09.333-.31.024-.435-.672-.77-.581-.236.094-.089.605-.206.776-.24.386-.593.673-.998.818-.641.023-1.303-.373-1.802-.661-.715-.047-.196.946-.41 1.332-.048.647-.57 1.177-1.14 1.463-.357.119-.623-.236-1.05-.306-.168.309.003 1.028-.187 1.318-.476.333-.882.672-1.497.433-.217.14-.073.379-.119.574a1.26 1.26 0 0 1-1.072 1.125c-.473.028-1.48-.469-1.862-.877-.593.148.557 1.145.46 1.481-.07.55-.214 1.125-.69 1.44-.285.05-.546.384-.856.145-.452.07 0 .457-.047.72a1.65 1.65 0 0 1-.831 1.08c-.381 0-.716.191-1.094.17.048.38.262.812.214 1.222-.143.41-.357.797-.784.96l-1.507-.082c-.168.289.389.659.555.9.048.649.096 1.42-.547 1.778-.26.072-.547.192-.784.311.26.431.26 1.132 0 1.538-.26.192-.547.363-.856.504-.048.576.404 1.2-.049 1.728l-.547.552-1.21.17c-.024.167.237.286.377.431.453.385.74.89.572 1.516.167.768-1.544.692-.572 1.49.358.621-.333 1.102-.615 1.51.236.192.117.578.117.861-.26.654-.833 1.013-1.355 1.467.143.312.572.483.785.842.31.574.165 1.418-.238 1.922-.832.501.548.77.5 1.344-.024.671-.143 1.367-.667 1.728 0 .262.856.672.881 1.44.021.65-.498 1.155-1.023 1.587-.072.478.595.359.858.625l.664.575c.237.6-.047 1.273-.405 1.776.452.31.715.793.69 1.392-.095.385-.57.624-.524 1.033.43.456 1.214.89.904 1.656-.14.361-.497.722-.45 1.107.88.24 1.757.89 1.972 1.848.071.361-.428 1.01.24 1.058.618.167 1.116.767 1.234 1.415 0 .265-.5.65 0 .818l.784.334c.69.578-.62 1.348-.525 2.07.332.12 1.696.161 2.078.186l.35.458.156 1.122c.524.407 1.438.487 1.866 1.21.071.334-.095.67.045.984.407.263 1.155.139 1.274.739.165.6-.322 1.174-.49 1.703.026.07 1.952-.449 2.807.151.308.313.302.606.253 1.063.334.287 1.127.233 1.506.378.476.311.239.84.644 1.13.499.049 1.087-.244 1.3.286 0 .43-.31 1.311-.122 1.72.525-.215 1.246-.59 1.722-.903.308.07.663.191.831.528.023.191-.094.456.119.552.357-.144.76-.118 1.092.073.191.215.192.6.477.697.428-.072.81-.457 1.237-.122.33.482.405 1.104.713 1.562.832-.577 2.138-.89 3.042-.29 0 .338.288.555.502.772.712.503 1.21-.579 1.948-.049l.545.48c.595-.265 1.166-.312 1.856-.167l.738.55c.143.313.393.816.606 1.08zm-4.926-1.255h.975a.4.4 0 0 0-.261-.082c-.278-.147-.498-.054-.714.082m14.57 0h.465a.46.46 0 0 0-.407-.034c-.019.009-.04.024-.058.034m1.61 0h.508c-.087-.043-.178-.094-.246-.106a.31.31 0 0 0-.263.106m32.066-.885c-1.254.018-2.428-.517-2.923-1.013a2.16 2.16 0 1 1 3.056-3.056 2.16 2.16 0 0 1 0 3.056c-.107.107.551.323 1.156.202.318-.065.403.425-.031.586-.414.15-.84.219-1.258.225m-79.938-.102a3.8 3.8 0 0 1-1.258-.227c-.435-.159-.35-.646-.033-.582.607.12 1.265-.097 1.158-.204a2.161 2.161 0 1 1 3.055 0c-.494.497-1.668 1.032-2.922 1.013m40.02-.011c-18.756 0-34.015-15.257-34.015-34.011s15.26-34.009 34.014-34.009 34.01 15.254 34.01 34.009c0 18.754-15.255 34.011-34.01 34.011m0-.589c17.941 0 32.62-14.212 33.383-31.969h-1.702l-.19 2.087c-.382-.045-1.123.21-1.385-.054-.026-.72.062-1.554-.062-2.225-.303-.216-.36-.626-.764-.552l-1.117.936-.099 5.331s-.706.24-.87 0c-.071-1.44-.077-4.998-.077-4.998-1.045.239-2.21-.41-3.02.814h-4.545c-.541 1.273-1.117 4.233-1.117 4.233-.141.025-.285.094-.425-.049l-.527-3.867c-.188-.455-.69-.24-1.044-.287-.26.07-.095.669-.142.886-.236.38-.854.141-1.283.215-.454-.097-.143-.814-.283-1.075-.218-.313-.485-.17-.792-.122l-.023 1.536-1.692 2.066c-.258.024-.778-.049-.99.073l-.928 6.146h-.445l-1.131-4.794s-4.322-.201-4.606.136l-.027 2.306c-.523.53-1.281.746-1.853 1.247 0 .505-.047 1.034.05 1.514.07.168.33.12.283.36.047.263-.19.313-.356.435-1.331.07-2.757-.074-4.041.094.189.409.427.793.783 1.128.334.24.81.456 1.212.24.571-.166.785-.793 1.047-1.248.24-.025.452 0 .595.24.187.79-.475 1.393-1.07 1.848.367.713.073 1.13-.381 1.537l-.213 3.435c-.118.07-.263.119-.406.023l-.31-3.398c-.473-.442-.593-.9-.424-1.524-.74-.385-1.31-1.201-1.428-2.017.026-.529-.571-.193-.833-.358-.143-.339.262-.339.356-.578l-.069-1.85c-.502-.217-1.023-.598-1.525-.889-.664-.432-.256-1.136-.373-1.688l-2.597-.018v.745c-.142.313-.476.119-.784.169-.262-.17-.177-.535-.225-.822-.12-.313-.648-.11-.911-.183 0 0-2.763-3.054-2.811-3.006l-.64 5.139-.12.145c-.119.05-.286.049-.33-.12l-1.452-7.567s-.167.89-.286 1.323c-.643.144-1.401.07-2.07.049-.592-.24-.262-.843-.379-1.32h-.476c-.191 1.99.023 3.286-.049 5.35l-.094.15c-.237.021-.853.119-.995-.171l-.117-4.156-1.908.026-1.047-1.2c-.64.19-.237-.553-.426-.818h-2.116c-.405-.407-.575-.121-.955-.17l.029 2.188s-1.07.142-1.355-.026V382.3c-.096-.144-.192 0-.311-.047l-2.211-1.636c-.212-.119-.403.026-.522.194l-.05 1.969c-.33.266-.757.024-1.162.143-.311-.335-.096-.957-.191-1.39l-1.966-.035c.796 17.728 15.464 31.906 33.384 31.906zm-5.603-1.655a.212.212 0 1 1 0-.423h9.316a.212.212 0 0 1 0 .423zm11.275 0a.212.212 0 0 1 0-.423h1.872a.21.21 0 0 1 .21.21.21.21 0 0 1-.21.213zm-77.406-1.14-1.16-2.877.043-.019c.6.656 1.662.103 2.358-.178l5.711-2.303c.682-.275 1.838-.636 1.806-1.503l.044-.019 1.162 2.878-.045.02c-.593-.641-1.663-.108-2.344.17l-5.709 2.304c-.682.273-1.84.636-1.822 1.508zm62.29-.12a.21.21 0 0 1-.211-.212.21.21 0 0 1 .21-.21h16.558c.12 0 .211.093.211.21 0 .118-.09.211-.21.211zm18.004 0a.211.211 0 1 1 0-.423h2.404c.12 0 .21.094.21.211 0 .118-.09.211-.21.211zm-21.158-1.33c-.118 0-.21-.096-.21-.213s.092-.21.21-.21h25.578a.212.212 0 0 1 0 .423zm-2.778-1.352a.212.212 0 0 1 0-.423h31.233a.212.212 0 0 1 0 .423zm-3.09-1.4a.21.21 0 0 1-.211-.21.21.21 0 0 1 .21-.213h1.295a.211.211 0 1 1 0 .423zm2.376 0a.21.21 0 0 1-.21-.21.21.21 0 0 1 .21-.213h31.52a.212.212 0 0 1 0 .423zm32.662 0a.21.21 0 0 1-.212-.21.21.21 0 0 1 .212-.213h1.541a.21.21 0 0 1 .21.212.21.21 0 0 1-.21.211zm-90.444-.822-.745-2.775.047-.014c.699.71 1.326.525 2.208.288l5.978-1.604-8.836-3.818-.375-.136a1 1 0 0 0-.458-.132l-.017.005-.616-2.301.049-.014c.692.693 1.323.526 2.206.286l6.292-1.69c.883-.233 1.514-.403 1.78-1.371l.047-.014.75 2.793-.049.011c-.713-.703-1.339-.518-2.223-.28l-6.103 1.637 8.312 3.57c1.085.45 1.737.801 2.416 1.817l-8.847 2.377c-.882.236-1.514.405-1.767 1.353zm53.677-.66a.21.21 0 0 1-.212-.212.21.21 0 0 1 .212-.21h11.314a.21.21 0 0 1 .211.21.21.21 0 0 1-.21.211zm12.333 0a.21.21 0 0 1-.21-.212.21.21 0 0 1 .21-.21h15.117a.21.21 0 0 1 .211.21.21.21 0 0 1-.21.211zm19.314 0a.21.21 0 0 1-.21-.212.21.21 0 0 1 .21-.21h1.72a.21.21 0 0 1 0 .421zm4.438 0a.213.213 0 0 1-.214-.212c0-.117.097-.21.214-.21h4.205a.21.21 0 0 1 .21.21.21.21 0 0 1-.21.211zm56.372-.738q-.34.002-.713-.102c-3.333-.938-1.369-6.222-3.823-6.91-1.101-.312-2.013.892-2.266 1.785-.345 1.226-.204 2.658.335 3.81l-1.833-1.01c-.084-.989.047-1.986.317-2.944.691-2.455 2.758-3.77 4.44-3.297 2.907.818 1.354 6.217 3.507 6.82 1.088.307 1.752-.729 2.005-1.623.246-.88.157-1.956-.297-2.747l1.773.502a8 8 0 0 1-.31 2.438c-.474 1.68-1.546 3.277-3.135 3.278m-94.442-.942a.212.212 0 1 1 0-.424h15.197a.212.212 0 0 1 0 .424zm16.717 0a.212.212 0 0 1 0-.423h.948a.212.212 0 0 1 0 .423zm1.937 0a.212.212 0 0 1 0-.423h2.582a.212.212 0 0 1 0 .423zm4.882 0a.212.212 0 0 1 0-.424h3.586a.212.212 0 0 1 0 .424zm5.595 0a.213.213 0 0 1-.214-.211c0-.117.097-.213.214-.213h4.544a.212.212 0 0 1 0 .424zm7.502 0a.21.21 0 0 1-.211-.211.21.21 0 0 1 .21-.213h7.204c.118 0 .21.096.21.213s-.092.21-.21.21zm-37.958-1.441a.21.21 0 0 1-.211-.211.21.21 0 0 1 .21-.212h12.898a.21.21 0 0 1 .21.212.21.21 0 0 1-.21.211zm14.305 0a.21.21 0 0 1-.211-.211.21.21 0 0 1 .21-.212h3.07a.21.21 0 0 1 .21.212.21.21 0 0 1-.21.211zm4.95 0a.21.21 0 0 1-.211-.211.21.21 0 0 1 .21-.212h2.985a.212.212 0 1 1 0 .423zm5.118 0a.212.212 0 1 1 0-.423l4.268-.003c.118 0 .214.095.214.212s-.096.211-.214.211zm5.063 0a.21.21 0 0 1-.211-.211.21.21 0 0 1 .21-.212h17.026a.21.21 0 0 1 .21.212.21.21 0 0 1-.21.211zm-31.202-1.62a.212.212 0 1 1 0-.423h1.81a.212.212 0 0 1 0 .423zm2.803 0a.212.212 0 1 1 0-.424h1.273c.118 0 .213.094.213.211a.21.21 0 0 1-.213.213zm7.94 0a.212.212 0 0 1 0-.424h6.379a.212.212 0 0 1 0 .423zm7.476 0a.212.212 0 1 1 0-.423h5.634a.212.212 0 0 1 0 .423zm8.06 0c-.117 0-.212-.096-.212-.213s.095-.21.213-.21h23.384a.212.212 0 0 1 0 .423zm-49.747-.67c2.854-4.746 6.411-7.56 13.484-6.604.031-.593.396-1.192.665-1.723h.449l-.808-.824h-1.224c.191-.33.765-.936 1.057-1.339h.387v-.822h-.587l-.003-.003c-.428-.289-1.5.41-1.382-.482.029-.156.481-.5.864-.854h.704v-.821h-.229c-.344-.886-2.239-1.05-2.193-1.211.014-.048.045-.085.065-.128h1.07l.112-.822h-.33c.443-.31.842-.639.7-1.286-.006-.021-.02-.034-.027-.053h.499l-.916-.822h-.63a.57.57 0 0 1-.142-.353s.71-.457 1.008-.986h.386v-.822h-.431a2.46 2.46 0 0 0-1.39-1.011.46.46 0 0 1-.009-.303h-16.48l.84-.825h17.276c.093-.067.157-.141.138-.242-.145-.347-.716-.76-1.158-1.094h-14.528l1.325-.825h13.431c.329-.22.638-.52.906-.703.21-.16.215-.4.199-.633h-12.256l.772-.403-.183-.422h10.978c-.193-.107-.332-.242-.25-.54.5-.19 1.335.191 1.548-.526a.47.47 0 0 0-.106-.272H271.59l-.295-.823h12.269c.373-.192 1.211-.523 1.446-.855.024-.157-.025-.32-.1-.482h-13.983l-.11-.822h13.475c-.323-.325-.627-.582-.583-.65.036-.44 1.994-.211 2.326-1.153.013-.05.014-.1.02-.15-8.361 1.583-12.337-1.374-15.344-6.374-.564.886-1.45 2.694-1.45 5.492 0 1.8.372 3.992 1.445 6.566a.7.7 0 0 1 .062.275c0 .399-.46.656-1.293 1.123-1.723.963-5.213 2.927-6.672 6.077 1.46 3.148 4.95 5.11 6.672 6.073.833.466 1.293.724 1.293 1.124q0 .125-.062.275c-1.072 2.575-1.445 4.765-1.445 6.565 0 2.798.886 4.605 1.45 5.493zm12.548-19.956c.054.081.114.158.157.246.052.19-.006.387-.112.576H264.29l-.167-.375.167-.447zm-.82 2.161c.27.316.851.315 1.046.822H266.22l-.839-.822zm.373 2.161c-.337.236-.685.47-.852.822h-12.688l-1.325-.822zm1.276 2.161a1 1 0 0 1 .043.136c-.02.196-.255.443-.518.686H272.14l.183-.419-.772-.403zm.046 2.161c.21.194.356.454.26.744-.014.022-.043.054-.06.078h-13.108l.364-.822zm-.857 2.16c-.066.116-.086.197-.028.221.596.073 1.36-.12 1.624.578l-.013.025h-14.153l.22-.823zm84.91 9.15c.562-.887 1.448-2.693 1.448-5.491 0-1.8-.371-3.99-1.444-6.566a.7.7 0 0 1-.06-.275c0-.4.456-.655 1.288-1.123 1.723-.963 5.214-2.924 6.677-6.074-1.46-3.15-4.953-5.113-6.674-6.076-.832-.467-1.292-.725-1.292-1.124q-.001-.125.061-.275c1.071-2.574 1.444-4.765 1.444-6.565 0-2.798-.886-4.607-1.449-5.493-2.975 4.945-6.895 7.89-15.372 6.424.253.24.52.54.86.481.54.34-.75.556.036.844.58.093.739.31.72.578h-.62v.822h.3c-.147.296-.266.586-.147.81.192.268.66.322.97.465.11.084.267.059.41.062h-.908v.824h.923c-.134.113-.282.218-.405.339-.307.246-.118.606-.043.997l.002.002h-.328v.825h1.315c.039.018.07.034.11.054.068.34-.335.558-.574.746-.126.25-.062.406.07.536h-.518l.772.825h.509c.236.21.725.133.498.565-.389.152-1.116.369-1.368.77h-.483l.254.826h.682l1.18.956c.047.177.014.281-.055.358h17.636l.165.447-.165.375h-18.395c.03.446.686.74.648 1.276-.016.016-.077.043-.108.063h16.766l-.842.822h-17.277a.36.36 0 0 0-.09.195c.401.235.863.952.984 1.144h14.655l-1.327.822H355.63c-.29.199-.589.404-.817.73a1.6 1.6 0 0 0 0 .609h12.533l-.772.403.185.418h-11.167c.238.107.423.236.265.543-.216.097-1.067.652-1.425.772l-.01.025h12.888l.364.821h-13.36c.2.238.596.32.596.643-.187.17-.425.17-.665.24l-.241.456h13.969l.222.824h-13.883c.02.013.028.032.052.044.02.459-.516.59-.802.807-.215.241-.15.42-.105.71.033.086.084.17.144.254 7.564-1.2 11.558 1.48 14.586 6.511zm-12.337-21.268-.54-.44a.54.54 0 0 1 .087-.385h17.283l.842.825zm.418-2.161a.33.33 0 0 1-.096-.136c-.06-.34-.453-.479-.667-.689h14.12l1.327.825zm-.37-2.16c-.406-.197-.773-.305-.987-.826h11.847l-.184.422.772.403zm-.54-2.163c.211-.179.373-.379.242-.716-.06-.09-.156-.105-.257-.108h12.26l-.293.824zm-1.248-2.161c.14-.285.303-.576.32-.822h13.652l-.11.822zm-60.777 29.262a.211.211 0 1 1 0-.423h5.926a.212.212 0 0 1 0 .423zm7.12 0a.212.212 0 0 1 0-.424h1.56a.212.212 0 0 1 0 .423zm4.956 0a.212.212 0 0 1 0-.424h11.812a.212.212 0 0 1 0 .423zm15.286 0a.212.212 0 1 1 0-.423h11.27a.212.212 0 0 1 0 .423zm15.817 0a.212.212 0 0 1 0-.424h8.56c.12 0 .21.094.21.211a.21.21 0 0 1-.21.213zm-43.133-1.62a.21.21 0 0 1-.21-.213.21.21 0 0 1 .21-.211h1.003a.21.21 0 0 1 .211.21.21.21 0 0 1-.21.213zm1.874 0a.21.21 0 0 1-.21-.213.21.21 0 0 1 .21-.211h.745a.21.21 0 0 1 .21.21.21.21 0 0 1-.21.213zm1.536 0a.212.212 0 1 1 0-.424h9.19a.21.21 0 0 1 .21.21.21.21 0 0 1-.21.213zm10.838 0a.212.212 0 1 1 0-.423h2.37a.21.21 0 0 1 .21.21.21.21 0 0 1-.21.212zm17.697 0a.21.21 0 0 1-.211-.213.21.21 0 0 1 .21-.211h11.2a.21.21 0 0 1 .212.21.21.21 0 0 1-.211.213zm18.833 0a.212.212 0 1 1 0-.423h2.115a.207.207 0 0 1 .211.21.21.21 0 0 1-.21.212zm-50.903-1.143a.212.212 0 0 1 0-.423h.437c.118 0 .211.095.211.212s-.093.211-.21.211zm1.287 0a.212.212 0 1 1 0-.423h.861c.118 0 .211.095.211.212s-.093.211-.211.211zm1.59 0a.212.212 0 0 1 0-.423h1.615a.212.212 0 0 1 0 .423zm2.55 0a.212.212 0 0 1 0-.423h10.843c.118 0 .21.095.21.212s-.092.211-.21.211zm11.624 0a.212.212 0 0 1 0-.423h1.353a.212.212 0 0 1 0 .423zm2.272 0a.212.212 0 0 1 0-.423h1.367a.212.212 0 1 1 0 .423zm14.869 0a.212.212 0 0 1 0-.423h1.617c.12 0 .212.095.212.212s-.092.211-.212.211zm3.389 0a.212.212 0 0 1 0-.423h5.037c.114 0 .211.095.211.212s-.097.211-.21.211zm6.483 0a.212.212 0 0 1 0-.423h1.026c.118 0 .211.095.211.212s-.093.211-.21.211zm-66.758-.589-.116-.822h2.8l-.81.822zm95.905 0-.811-.822h2.8l-.114.822zm29.472-.267-.047-.01c-.16-.873-1.354-.971-2.093-1.102l-6.059-1.078c-.725-.131-1.895-.44-2.331.312l-.045-.006.542-3.056.048.008c.162.858 1.353.971 2.075 1.1l6.063 1.083c.724.129 1.893.437 2.343-.313l.05.008-.546 3.055zm-102.08-.644a.212.212 0 0 1 0-.423h.62c.118 0 .21.095.21.212s-.092.211-.21.211zm2.448 0a.212.212 0 1 1 0-.423h.544a.212.212 0 0 1 0 .423zm1.577 0a.21.21 0 0 1-.214-.21c0-.118.096-.213.214-.213h.514a.212.212 0 1 1 0 .423zm1.617 0a.213.213 0 0 1-.214-.21c0-.118.097-.213.214-.213h.612a.212.212 0 1 1 0 .423zm2.133 0a.212.212 0 0 1 0-.423h.614a.212.212 0 0 1 0 .423zm1.576 0a.212.212 0 1 1 0-.423h.32a.212.212 0 0 1 0 .423zm4.895 0a.21.21 0 0 1-.212-.21c0-.118.094-.213.212-.213h2.383c.118 0 .214.095.214.212s-.096.211-.214.211zm3.382 0a.21.21 0 0 1-.213-.21c0-.118.095-.213.213-.213h1.276a.212.212 0 0 1 0 .423zm11.01 0a.21.21 0 0 1-.21-.21.21.21 0 0 1 .21-.213h2.848a.212.212 0 0 1 0 .423zm7.321 0a.21.21 0 0 1-.211-.21c0-.118.097-.213.211-.213h.502c.117 0 .214.095.214.212s-.097.211-.214.211zm1.311 0a.212.212 0 0 1 0-.423h9.46c.116 0 .209.095.209.212s-.093.211-.21.211zm10.419 0a.21.21 0 0 1-.21-.21.21.21 0 0 1 .21-.213h.939a.212.212 0 1 1 0 .423zm-71.022-1.251.075-.824h6.106l-1.545.824zm93.219 0-1.544-.824h6.106l.074.824zm-65.803-.25a.212.212 0 1 1 0-.424h.784a.21.21 0 0 1 .211.213.21.21 0 0 1-.21.21zm9.745 0a.21.21 0 0 1-.212-.211.21.21 0 0 1 .212-.213h.907a.21.21 0 0 1 .21.213.21.21 0 0 1-.21.21zm14.978 0a.21.21 0 0 1-.21-.211.21.21 0 0 1 .21-.213h1.996a.21.21 0 0 1 .21.213.21.21 0 0 1-.21.21zm8.94 0a.21.21 0 0 1-.212-.211.21.21 0 0 1 .211-.213h.463a.21.21 0 0 1 .21.213.21.21 0 0 1-.21.21zm1.785 0a.212.212 0 1 1 0-.424h1.311a.212.212 0 1 1 0 .424zm2.25 0a.212.212 0 0 1 0-.424h1.338c.12 0 .21.094.21.213 0 .117-.09.21-.21.21zm2.108 0a.21.21 0 0 1-.21-.211.21.21 0 0 1 .21-.213h.6a.21.21 0 0 1 .211.213.21.21 0 0 1-.21.21zm1.702 0a.21.21 0 0 1-.211-.211.21.21 0 0 1 .21-.213h.6a.21.21 0 0 1 .212.213.21.21 0 0 1-.211.21zm1.784 0a.21.21 0 0 1-.21-.211.21.21 0 0 1 .21-.213h.48a.212.212 0 1 1 0 .424zm1.436 0a.21.21 0 0 1-.211-.211.21.21 0 0 1 .211-.213h.358a.21.21 0 0 1 .21.213c0 .117-.091.21-.21.21zm1.333 0a.21.21 0 0 1-.211-.211.21.21 0 0 1 .21-.213h2.45a.21.21 0 0 1 .212.213.21.21 0 0 1-.211.21zm-23.086-.1c-.026-.432.07-.83-.094-1.211-.855.262-1.711 1.223-2.71.575-.332-.142-.642-.481-1.021-.455-.048.432-.142.676.095 1.06zm-78.595-.838-.313-3.086.05-.009c.392.782 1.567.565 2.297.492l4.34-.44c2.16-.222 3.07-1.25 2.902-2.928-.156-1.675-1.25-2.513-3.414-2.314l-4.339.403c-.733.069-1.928.08-2.162.922l-.049.005-.286-3.09.047-.003c.386.8 1.562.575 2.294.508l4.342-.401c1.17-.108 2.257-.245 3.28.532.865.655 1.338 2.254 1.439 3.327.109 1.073-.05 2.733-.772 3.542-.853.96-1.945 1.036-3.114 1.153l-4.337.441c-.731.074-1.93.081-2.157.94l-.048.007zm10.428-6.083c-.007-.066-.004-.05.002-.023.002-.034.004-.01.005.028.005.034.006.047 0 .023 0 .024-.001.034-.006-.028zm81.034 5.88a.212.212 0 1 1 0-.423h1.114c.118 0 .208.093.208.21s-.09.213-.208.213zm4.822 0a.212.212 0 0 1 0-.423h.53a.212.212 0 0 1 0 .423zm1.46 0c-.116 0-.209-.096-.209-.213s.093-.21.21-.21h.742a.21.21 0 0 1 .214.21.21.21 0 0 1-.214.213zm1.649 0a.212.212 0 0 1 0-.423h.533a.21.21 0 0 1 .21.21.21.21 0 0 1-.21.213zm4.184 0a.212.212 0 0 1 0-.423h.738c.12 0 .21.093.21.21a.21.21 0 0 1-.21.213zm-27.002-.098c.903-.383 2.498-1.208 2.402-1.208-1.665 0-3.122-.046-4.738.051zm-23.498-.968a1.5 1.5 0 0 1-.634-.184c-.261-.097-.404-.314-.356-.627.165-.48.712-.144.998-.386.071-.069 0-.141-.023-.215-.667.17-1.355-.263-1.95.17 0 .215.237.238.356.286.095.145.143.385.072.531-.331.241-.665.288-1.095.168-.33-.097-.496-.65-.9-.554-.382-.097-.668.336-1 .097-.024-.457-.452-.698-.785-.915-.143-.165-.379-.068-.525.026-.069.191.217.144.169.336-.049.12-.237.193-.356.12-.165-.095-.452-.215-.428-.456.024-.216.023-.457.214-.6.57-.506 1.402-.29 1.995 0 .596.193.787-.506 1.26-.648.288 0 .476.192.69.383.524.36 1.473.288 1.998.048.142-.239-.168-.335-.048-.6.07-.19.285-.241.453-.287.404-.17.95-.216 1.331.046.191.193.093.529.404.649.26.266-.238.385-.238.648.048.241.285.193.427.241.644-.145.097-.89.382-1.248.12-.12.285-.073.402.046.145.122.336 0 .43-.118.165 0 .308.072.451.168-.143 1.056 1.069.576 1.544 1.057.049.19.026.405-.119.551-.687.024-1.304.097-1.756.72l-1.475.122c-.588.162-1.245.472-1.887.425zm37.545-.314a.212.212 0 0 1 0-.423h1.499a.212.212 0 1 1 0 .423zm-17.544-.81h7.207s.19-1.222.023-1.655c-.213-.192-.5 0-.763-.072l-.07 1.415c-.166.194-.429.097-.619.097-.26-.313-.093-.79-.142-1.2l-5.73-.073c-.213.335.094 1.489.094 1.489zm15.86-.15a.212.212 0 0 1 0-.423h.604a.21.21 0 0 1 .211.21.214.214 0 0 1-.21.212zm-14.859-.048c-.335.051-.237-.568-.237-.785.139-.193.477-.097.71-.074l.013.645c-.072.24-.345.215-.486.215m3.232-.021c-.237-.05-.166-.548-.166-.718.166-.263.476-.12.713-.12v.484c.057.197-.311.33-.547.354m-1.597-.091c-.1 0-.191-.006-.256-.006-.048-.168-.143-.62.046-.763.262.074.762-.216.785.24.089.469-.277.529-.575.53zm76.692-.095q-.179.01-.37-.003c-3.453-.253-2.583-5.822-5.129-6.01-1.139-.084-1.794 1.276-1.864 2.205-.09 1.272.33 2.645 1.09 3.666l-2-.622c-.273-.953-.348-1.956-.273-2.952.183-2.54 1.947-4.245 3.693-4.116 3.01.221 2.567 5.822 4.801 5.985 1.12.083 1.569-1.062 1.635-1.994.065-.91-.233-1.948-.84-2.633l1.837.136c.19.801.24 1.64.182 2.453-.136 1.862-.969 3.778-2.762 3.885m-65.236-.006.487-3.597c-.096-.192-.315-.146-.503-.146-.45.577-.972 1.345-.522 2.09.216.552.538 1.653.538 1.653m-18.487-1.458v-2.092s-1.251-.299-2.203-.13c0 0 2.132 2.392 2.203 2.222m3.623-.16c.124-.009.224-.037.27-.093l-.023-1.846c-.232-.133-.99-.06-1.319-.082l.113 1.914s.587.136.96.108zm1.155-.275h5.11l-.024-1.739a317 317 0 0 0-4.992-.048c-.166.577-.072 1.162-.094 1.787m-9.553-.145c.014.013.51-4.586.51-4.586-.365-.192-.745-.096-1.196-.072-.026.013.715 4.802.686 4.658m10.825-.125a.7.7 0 0 1-.414-.137c.019-.362-.24-.747.019-1.082.215-.048.502-.048.717 0l.022 1.033c-.059.132-.196.186-.344.186m1.608-.015a.76.76 0 0 1-.455-.077c.022-.382-.191-.84.094-1.127.166 0 .383-.047.523.047.073.267.12.527.095.817.024.216-.1.313-.257.34m1.187-.027c-.14.012-.288-.036-.36-.119.12-.385-.333-1.036.379-1.058.334.142.146.65.289.936-.037.157-.168.229-.308.241m3.367-.088c.297-.012.592-.224.458-.585v-2.043c-.189-.19-.57-.092-.856-.07-.096.745-.023 1.656-.049 2.497.09.145.27.21.447.202m-1.392-.051a.2.2 0 0 0 .092-.03c.213-.382.07-.887.117-1.32-.096-.12-.284-.048-.403-.074-.143.458-.094.818-.047 1.297.053.072.147.133.241.127m2.713-.233 3.134-.06.975-1.415c-.071-.148-.168-.339-.355-.339l-.904 1.27h-2.732c-.189.074-.191.402-.118.544m.009-1.212c.76-.097 1.553.047 2.242-.122v-.464c-.806-.122-1.431 0-2.242-.024-.117.263-.117.348 0 .61m-8.525-.77.104-.074 5.8-.024c.321-.14.23-.565.132-.9l-1.347.663-1.347-.884c-.451.074-.966-.293-1.277.02 0 .239.476.312.24.623-.596.361-.859-.672-1.523-.337-.215.36-.833.46-.783.914zm-6.143-.188.053-1.778c-.189-.217-.45-.026-.687-.122-.262-.217-.31-.743-.763-.578-.214.24-.38.648-.785.53-.33.575-.401 1.271-.475 1.943zm3.474-.2a.23.23 0 0 0 .147-.092c.88-.816 1.736-1.755 2.522-2.69-.24-1.08.568-2.356-.691-3.007-.168-.072-.15.026-.195.218v2.74l-2.064 2.523c-.054.181.12.334.28.308m-2.553-.025h.143l.497-1.322c.262-.072.905.168 1.024.219.19-.025.214-.267.31-.41-.31-.577-1.904-.097-1.904-.097-.071.505-.142 1.103-.07 1.61m27.047-.028.073-.022.549-1.97c-.262-.242-.712-.119-1.05-.096l-.093.095zm-22.741-.207c.152.02.295-.211.439-.265l.618-.48c.046-.194-.097-.335-.214-.433-.358.24-.644.552-.978.842-.046.047 0 .144-.022.218.054.078.106.112.157.118m-12.448-.314c.38-.023.809.076 1.095-.165l-.05-1.586c-.07-.145-.262-.241-.427-.145l-.76.793c0 .385-.023.79.142 1.103m-3.47-.064c.374-.017.774-.126 1.048-.054.165-.096.044-.29.092-.433h-2.042c.178.432.527.505.901.487m21.72-.418c.128-.003.259-.032.39-.044l.713-.817c-.044-.383.236-.915-.261-1.057-.403.046-.832-.073-1.166.097l-.048 1.703c.118.096.243.12.371.118m11.19-.179c.286-.03.108-.896.108-.896h-3.497c-.462.14-.273.671-.273.846zm-4.584-.05c.1-.033.119-.21.028-.318l-2.356-1.175c-.546.192-.128 1.472-.128 1.472h2.33q.076.04.126.021m-3.738-.401c.185.006.353-.023.449-.203v-1.611c1.282-.671 2.138.53 3.21.865.168.048.311-.093.355-.215v-1.442l-3.475.003c-.452.626-1.638.764-1.28 1.821.045.265-.146.65.19.77.165-.037.367.005.551.012m-6.757-.031h1.782c.595-.055.273-.534.344-.99l-2.673-.028c.143.41.215.889.547 1.018m-3.68-.386a.36.36 0 0 0 .256-.175l.761-1.008-.025-2.327c-.095-.216-.403-.215-.57-.123-.308.529.142 1.489-.405 1.825-1.133-.156-.494-1.297-.684-1.85-.26-.096-.408-.068-.719-.02-.093.698-.048 1.436-.048 2.182l1.143 1.417c.094.06.196.09.291.079m-15.222-.01 2.414-.023v-1.337l-2.437-.027zm3.877-.187c.544-.097.622-.65 1.05-.986.094-.145.233-.311.16-.431l-1.806-.888c-.405.046-.17.552-.337.84.097.431.36.383.694.551.07.287-.096.745.239.914m-7.37-.317c.04 0 .072-.03.088-.105l1.357-1.345c.315-.323-.247-.66-.247-.66l-1.622.035-1.531 1.472c-.327.193 1.565.073 1.565.073.07.236.267.526.39.53m11.411-.09c.181-.367 0-1.213 0-1.213l-1.71-.028c-.164.074-.21.335-.115.48l1.067.746zm22.708-.17h1.331c.331-.17.211-.576.211-.865l-1.639-.12c-.31.145.097.985.097.985m9.536-.01c.235.002.45-.04.567-.255-.167-.623-.733-.467-1.16-.85-.332-.024-.739.13-.91.37 0 .432.5.531.813.722.2-.036.455.01.69.013m5.177-.255c.476.122 1.24-.985 1.169-1.153-.45-.361-.669-1.197-1.379-1.128h-1.93c-.168.097-.218.34.026.43zm3.33-.119 1.17-.865-1.128-1.229c-.811-.046-1.238-.018-2.02.029-.12.073 1.977 2.065 1.977 2.065m-6.396-.048-.07-2.256c-.164-.24-.427-.578-.734-.458-.501.457-.958.815-1.291 1.367 0 0 2.051 1.513 2.095 1.347m-31.556-.258c.805.053 1.209-.14 1.94-.175l.094-2.281c-.476-.265-.389-1.248-.959-.719-.333.289.072.914-.356 1.153-.308-.05-.738.142-.927-.172l.024-2.831c.094-.29.355-.217.568-.142.191.216.406.359.583.21l2.214-1.798c.133-.386.7-1.176.177-1.392l-2.167.05-.142 1.969-2.02.215.006 5.763c.384.087.697.132.965.15m-17.18-.094.942-.995-2.209-.022c-.315-.126 1.267 1.017 1.267 1.017m25.334-.172 5.258-.026.145-1.588s-1.236-.335-1.618-.023c-.094.455.212 1.127-.26 1.344-.286-.046-.898.118-1.089-.218l.025-.837h-2.484c-.357.382.023 1.348.023 1.348m-28.742-.026c.451-.12.74-.46.975-.797h-3.187c0 .077-.006.153-.006.23 0 .178.011.354.014.532zm44.488-.117c.337.003.67-.01.981-.082.256-.6-.527-.67-.79-1.123-.642-.243-1.378 1.172-1.188 1.197.321-.013.66.005.997.008m18.877-.002 1.252-.02c.002-.143.01-.285.01-.429 0-.795-.038-1.581-.093-2.362h-1.814c-.096 1.029-.07 1.897.645 2.81m-16.714-.005 1.167-.049a.37.37 0 0 0 0-.551l-.856-1.068c-.502-.169-1.671-.086-1.645.038.333.598.786 1.247 1.334 1.63m14.058-.335c.403-.145.734-.433 1.092-.697.092-.312-.121-1.178-.121-1.178-.543 0-1.237.17-1.71-.142-.312-.288-.358-.937-.86-.91-.14.383-.068.933-.045 1.365zm-19.777-.078c.23 0 .503-.055.728-.019.12-.026.194-.145.24-.242a11.6 11.6 0 0 0-1.094-1.797c-.068-.097-.343.128-.343.128v1.633c.052.247.24.298.47.297m7.952-.181a.4.4 0 0 0 .12-.028c.307-.41.789-.577.766-1.156l-.24-.165-1.457.025c-.523.454.36.79.505 1.199a.45.45 0 0 0 .306.125m-39.075-.088c.499-.478 1.594-.962 1.331-1.828-.237-.164-.618-.095-.878-.067-.12.239.116.67-.214.79-.334-.12-.978.24-1.047-.288l.025-1.174c1.616-.14 3.21.03 4.873-.022.475-.188-.025-1.3-.025-1.3-1.14.023-2.329-.047-3.445.072.07.192 0 .617-.144.736h-1.119c-.333-.239.119-.889-.404-1.008l-2.733.047s-.213.544-.048.975l2.473.096c.024.574-.048 1.458.072 1.964zm33-.286s1.223-1.237 1.06-1.289c0 0-2.002-.09-1.859.075.283.432.799 1.214.799 1.214m-28.764-.028 3.737-.022-.036-1s-2.05-.142-3.667-.043c-.117.43-.046.697-.034 1.065m23.195-.054 2.089-.029c.312-.432.097-.932.172-1.389-.047-.124-.12-.19-.24-.264h-3.28l-1.094-.939h-1.675c-.354.363 0 1.328 0 1.328h4.101c.073.262-.168.573-.262.861-.051.188.018.358.189.432m-31.577-.341c.476-.022.998.023 1.451-.073.095-.454.023-.983.046-1.49-.427-.215-1.64 0-1.64 0zm-3.35-.05c.151 0 .305-.072.353-.217-.142-.502.31-1.268-.378-1.46-.144-.075-.287.067-.311.191v1.269c.036.145.184.217.336.217m2.093-.013c.2.003.39-.009.544-.08v-.841c-.356-.216-.786-.096-1.14-.096-.191.262-.191.745 0 1.006.19-.011.398.008.597.011m-3.195-.148c.151-.468-.04-.56.125-1.066l-.006-.268c-.52.05-1.351.075-1.801-.024.022-.574.048-1.338-.07-1.889-.546-.235-.86-.155-1.359-.15a34 34 0 0 0-.289 3.375zm31.056-.358c-.143-.889.428-2-.547-2.722l-1.212-1.464c-.476.026-.81.457-1.214.672-.095.24-.046.552-.024.817.596.314 1.24.457 1.858.717.117.12-.43.53-.69.483-.336.457-.81.91-.858 1.44zm-4.184-.081c.476-.049.544-.625.783-.937-.24-.574-.998-.478-1.522-.649-.165.075-.26.217-.213.41zm30.089-.367-.036-1.681-1.669.021.069 1.62zm-7.74-.14c.177-.004.365-.014.571-.038.098-.045-.264-.584-.475-.464 0 0-.027-1.463-.14-2.136-.142-.072-1.788 1.247-1.788 1.247 0 .483-.043.95.219 1.353.64-.017 1.084.045 1.614.037m-2.7-.043c-.043-.551.097-.942-.118-1.42l-1.423-.79c-.122.02-.263.093-.288.238.218.886-.661 1.085-.9 1.785-.052.167 2.73.187 2.73.187m-23.83-.408 1.544-1.583c.023-.605-.663-.534-1.067-.728-.595.388-1.005.677-1.53 1.178-.093.58 1.054 1.133 1.054 1.133m-20.532-.144c.5-.457 1.712-.648 1.332-1.609-.43-.216-1.022-.097-1.498-.097-.26.267-.855.58-.758 1.035zm37.539-.042.947-1.08c-.047-.407-.67-.464-.67-.464l-1.257 1.108s.53.41.98.436m-23.27-.175c.189-.073.208-1.076.038-1.139-1.018-.368-1.384.207-2.55-.037-.45.244-.128 1.167-.128 1.167zm33.72-.103 4.496-.051c.072-.584-.099-.954-.047-1.454l-1.022-1.3c-.455-.15-.627-.047-1.122-.071l-.312.162v1.369c-.358-.045-1.015.12-1.397-.02 0-.218.049-.743-.24-.813-.262-.028-.526.025-.434.288l.024 1.854zm-13.84-.012c.315.009.63.016.951-.006.141-.075.238-.269.142-.435l-.996-.912c-.026-.314.116-.793-.29-.866-.546.288-1.089.893-1.57 1.324-.094.53.502.65.814.889.32-.013.633-.002.949.006m-36.923-.008c.696.006.963-.84 1.357-1.344-.026-.288-.308-.193-.428-.214l-1.292.026c-.12.41-.154 1.09.036 1.472q.178.06.327.06m54.127-.643c-.17-.003-.353-.051-.51-.006-.523-.068-.19-.695-.284-1.054.169-.407.642-.145.973-.213.45.096.165.67.238 1.006-.096.227-.249.27-.417.268zm-28.044-.053 1.237-1.032.022-1.486c-.31-.506-.428-1.133-.88-1.468-.45.143-.574.58-.954.866-.096.67-.026 1.438-.049 2.16zm12.486-.06a.6.6 0 0 0 .214-.079l1.589-1.323v-3.461l-.19-.166-2.424.097c0 .26-.165.718.144.864l1.78.022c.287.24 0 .94 0 .94l-2.09.096v2.183c.332.21.52.899.977.828zm5.901-.188.169-1.066-3.52-1.214.036 1.444c.405.455.744.462 1.239.795zm-11.998-.063h2.052c.14-.12.333-.29.216-.506l-1.454-1.775-1.96-.072c-.142.117-.4.356-.307.503.547.551.837 1.3 1.453 1.85m25.466-.26c.183.001.375-.006.585-.03.117-.478-.432-.814-.599-1.222l-2.53.031s.522.804.876 1.142c.645-.018 1.119.073 1.668.078m-10.314-.003 1.38-.818c.099-.07.047-.238.023-.336-.69-.094-1.424-.022-2.137-.046-.167-.722-.834-.482-1.261-.482-.24.096.092.408.116.603.668.433 1.168.716 1.88 1.08m53.498-.139c-.602.05-1.105-.338-1.154-.957-.043-.553.397-1.018.95-1.06.52-.04 1.024.365 1.065.906.047.54-.3 1.071-.86 1.111m-140.93-.176c-.519-.045-.955-.524-.912-1.061.043-.534.475-1.01 1.03-.963.6.052 1.039.511.989 1.125-.047.558-.553.94-1.107.899m103.49-.131q-.076-.517-.167-1.029l-3.325.008v1.018s2.116.003 3.492.003m41.76-.086c-.584.042-1.091-.343-1.135-.964-.04-.554.401-1.013.94-1.05.532-.047 1.038.36 1.08.895.035.536-.314 1.074-.886 1.119m-91.706-.002h3.542c.43-.068.195-.818.099-.863l-3.71-.028c-.19-.07-.237-.52-.165-.69l2.186-.193-.024-1.081c-.619-.286-.879.579-1.378.769-.64.073-1.107.032-1.725.151-.572.551-1.722 1.702-1.604 1.65h2.617zm25.087-.046c-.547-.286-.115-.768-.284-1.172.119-.459.665-.22 1-.289.424.164.167.597.237.886-.309.194-.57.552-.953.575m-82.967-.025c-.539-.044-.97-.52-.928-1.059.043-.537.473-1.005 1.044-.966.586.047 1.023.512.973 1.133-.045.55-.553.935-1.089.892m79.448-.278 1.853-1.253v-2.98c-.049-.19-.309-.315-.475-.17-.14.434-.045.962-.068 1.466-.218.243-1.074.026-1.074.026 0-.504.12-1.034-.047-1.54-.072-.12-.525.118-.525.118 0 .507.024 1.037-.023 1.47-.141.118-.38.045-.569.071l-.12-1.564c-.07-.192-.642.098-.642.098l-.038 2.12 2.475-.006c.178.244-.034.936-.034.936-.5 0-1.025-.119-1.524.05-.307.574.475.726.811 1.158m-32.286-.006h5.39c.286-.312.096-.75.074-1.137-.38-.551-.477-.571-.951-1.053-.525.192-1.001.842-1.453 1.2-.475-.145-1.568-.74-1.568-.74-.64.603-1.61 1.657-1.492 1.73m6.49-.039 1.74-1.54c.072-.12-.693-.457-1.17-.457-.237.218-.362.359-.48.696.047.432-.47.987-.09 1.301m-11.873-.239 2.753-.019.154-1.27c-.421-.34-1.92-.093-2.633-.175q-.153.726-.274 1.464m30.892-.13c.356-.072.737-.362.877-.676-.094-.598-.855-.216-1.283-.335-.165.098-.212.336-.095.507.096.195.238.476.501.504m-9.193-.462c.237.033.489-.12.489-.12v-4.568l-4.168-.068c-.12.097.07.73.07.73l1.498-.022c.294.21.223.513.507.946-.59.106-.95.072-1.454.072-.168.075-.044.56-.044.56h2.734l.146 2.36a.38.38 0 0 0 .222.11m27.862-.085 2.737-.017c.237-.366.093-.893.145-1.326-.24-.167-.641-.047-.951-.096zm-2.029-.18q.216-.009.46-.066l.039-.529-1.24-.807c-.667.143-1.127-.38-1.673.072-.067.265-.316.448-.128.521.937.21 1.532.859 2.543.81m-28.13-.098c.267.01.576-.005.742-.089v-1.058c-.332-.216-.807-.12-1.166-.092-.213.431-.094.741-.07 1.2 0 0 .226.03.494.04m38.113-.034 2.724-.009.044-1.581-2.832.028zm-2.657-.102h1.543l-.009-1.46h-2.604c-.015.2 1.07 1.46 1.07 1.46m9.43-.139c.434-.006.91-.03 1.413-.057-.08-.387-.174-.768-.267-1.149-.488-.014-4.112-.113-4.07-.002l1.29 1.181c.58.025 1.098.034 1.633.027zm-15.062-.293s1.4-.938 1.805-1.444l-.022-1.82c-.288-.192-.765-.097-1.119-.097-.26.335-.096 1.1-.148 1.504-.494.096-1.064.05-1.59.072-.284-.263.143-1.123-.35-1.294h-1.1c-.262.338.241 1.325-.568 1.061-.215-.167-.426-.672-.426-.672l-2.118 1.007c-.096.119-.048.569-.02.717 0 0 2.228-.57 3.278-.763zm-41.038-.296c.593-.119.852-.716 1.328-1.053l1.64-.165v-1.294c-.308-.434-1.092.067-1.355-.435-.284 0-.591-.118-.661-.051v1.395s-1.399-.12-1.755.649c.048.46.492.622.803.954m25.198-.112h1.766l-.025-1.69-1.74.048zm-5.95-.34c.524-.53.984-.68 1.39-1.253-.12-.53.236-1.157-.263-1.588h-.475c-.142.574.333 1.56-.405 1.706-.285.096-.475-.148-.593-.336v-1.23c-.405-.187-.716.03-1.094-.045 0 0 .087 1.062.039 1.636.31.438 1.401 1.11 1.401 1.11m-27.01-.04 2.41-.02s.266-.82-.045-1.228l-2.045.013q-.172.613-.32 1.234m29.683-.143 1.811-.023c.26-.433-.072-1.618-.072-1.618h-1.668c-.451.15-.07 1.641-.07 1.641m-18.306-.037h4.413l.058-2.554c-.07-.119-.187-.238-.378-.187h-2.047c-.451.359.048 1.2-.428 1.56-.331-.099-.95.239-.997-.288v-1.3c-.094-.19-.62.075-.62.075zm-6.873-.099c.498-.103.757.241.994-.436-.101-.363.13-.837-.267-1.106-.5.028-.626-.103-1.025.136.1.468-.268 1.24.298 1.406m10.266-.417c-.2-.006-.43-.061-.61-.014-.307-.408-.119-.822-.167-1.348l.168-.17c.309 0 .809-.193.998.17l.025 1.087c-.048.24-.215.281-.414.275m8.142-.328c.198.063.47-.104.433-.338-.045-.166 1.193.41 1.55-.239-.049-.262.071-.694-.31-.79l-1.165.021c-.141-.14-.074-.454-.356-.478-.144-.026-.287.12-.333.263l.022 1.415a.26.26 0 0 0 .16.146m39.184-.481c.542-.355 1.457-.24 2.433-.252-4.114-13.799-16.912-23.891-32.03-23.891-14.377 0-26.662 9.125-31.37 21.888h2.852l.309-.348 3.662-.022c-.048.277.118.396.272.64h1.5c.273-.15.177-.462.236-.51h2.425l.274-.441h3.969c.096.036.214-.062.19-.352h5.255c.072.342.19.58.405.649 1.356.026 2.853-.023 4.064.026.214.07.262-.192.428-.212l8.415-.032c.263.051.1.291.146.483.166.314.643.119.973.169.24.215-.164.459.167.647.855-.024 1.735.052 2.546-.067l-2.472-3.947c-.146-.143-.264-.383-.12-.575l-.312-.075c-.072-.093-.111-.34-.04-.436.569-.285.802-.998.872-1.572.659-.455 1.39.085 2.1.252 1.116-.46 2.31-.667 3.372-.208.63-.332 1.308-.43 2.046-.385.712.096 1.332.17 2.068.17-.026.144.033.547.117.69.86 1.42 1.847 2.453 3.21 3.175a.294.294 0 0 1-.045.403c-.143.028-.262-.021-.38-.045l-1.787 1.609c-.164.094.827-.092 1.069-.19 1.188.098 2-.046 3.117.245.12.19.192.43.33.389l2.452-.022.26.66c1.165.12 2.31-.02 3.354.1.047.408-.358.766-.12 1.124 1.356.03 2.586-.032 3.788.263m-18.902-.386 2.233-1.129c.167-.12-.144-.41-.144-.41l-2.16-.149c-.05.745.071 1.688.071 1.688m-2.783-.193 1.974-.286c.072-.482.118-.675-.024-1.132-.668-.096-1.404-.191-2.017-.14-.099.598.067 1.558.067 1.558m-39.85-.003c.602-.02 1.191-.028 1.841-.006.261-.195.144-.506.073-.77-.465-.235-1.309.03-1.675.06-.08.239-.164.475-.239.717zm59.631-.736-.698-.093c-.178-.023-.455-.157-.44-.335.018-.176.018-.283.196-.276l1.033.06c.012.011.173.08.173.387 0 .295-.442.231-.264.257m.091-.643c-.004-.004.009 0 .055.003zm-20.744-.057-.142-4.25h-2.163c-.143.044-.141.284-.043.383 1.303 1.14 2.409 3.963 2.348 3.867m6.905-.028c-.014.12 2.553-2.456 2.553-2.456s-2.59-1.922-2.553-1.678zm10.04-.047a.3.3 0 0 1-.177-.076l.087-1.56-.114-.168c-.429.02-.809.408-1.19.647-.099.288.072.672-.146.885-.164.12-.403.076-.494-.093v-2.161l-.12-.145c-.715.17-1.38.53-2.092.721-.164-.049-.215-.212-.24-.362.046-.213.307-.213.382-.36l-1.261-3.023c-.166-.075-.357-.194-.306-.41l1.304-1.577s3.883.602 5.207.147c.049-.02.97 1.632 2.462 2.073.036.009-.229.369-.417.489l-2.284 2.95c-.045.577-.1 1.164-.125 1.761-.07.129-.284.278-.475.263zm-20.141-.314a.34.34 0 0 1-.36-.298.32.32 0 0 1 .27-.353c1.219-.167 1.371.013 1.455.112.085.094.018.2-.034.32-.05.116-.249.17-.374.174zm23.2-.142a.33.33 0 0 1-.293-.217.32.32 0 0 1 .194-.42c.72-.265 2.29-.161 2.546.003.14.089.174.26.104.414-.07.147-.259.214-.414.165-.199-.063-1.464-.164-2.008.035a.3.3 0 0 1-.13.02zm-49.47-.162c-.12.002-.245-.07-.263-.194 0-.431.094-.962-.06-1.24l-2.137.798-.18-.228c-.049-.315.262-.34.427-.558a19 19 0 0 0-1.116-2.999l1.283-1.372c.832.314 1.925.436 2.781.049.514-.44 1.117-.168 1.522.119.07.17.048.363-.049.482.463.535.983 1.166 1.452 1.729.094.098.26.24.119.359-.261.169-.356-.262-.595-.311l-2.947 2.33c-.072.312.044.768-.12 1.007a.3.3 0 0 1-.116.029zm35.4-.052s.513-1.753-.438-1.467l-1.985-.067.052 1.506s1.592.004 2.372.028zm-3.135-.094.072-1.493c-.62-.143-1.43-.119-1.975-.068-.091.502-.144.892-.072 1.42.52.142 1.33.052 1.975.141m10.284-.08-1.828-.07c-.18-.009-.418-.15-.411-.33s.06-.312.243-.31l2.075.054c-.18-.002.22.094.213.277-.004.18-.474.37-.292.38m-49.594-.007a.33.33 0 1 1 0-.658h.32a.33.33 0 0 1 .331.328.33.33 0 0 1-.33.33zm3.265-.138a.4.4 0 0 1-.234-.065c-.159-.106-.975-.122-1.216.005a.326.326 0 0 1-.445-.136.33.33 0 0 1 .136-.447c.42-.221 1.708-.271 2.028.158.095.129.057.28-.051.396a.3.3 0 0 1-.218.09zm8.452-.04a.35.35 0 0 1-.24-.068c-.14-.105-.902-.133-1.433-.023a.33.33 0 0 1-.393-.253.33.33 0 0 1 .257-.392c.293-.061 1.574-.222 2.01.18.13.12.133.31.02.445a.32.32 0 0 1-.221.11m20.528-.041a4.4 4.4 0 0 1-.64-.003c-.174-.01-.288-.157-.288-.331.002-.173.159-.315.333-.325l.792-.04c.126-.004.342.023.403.138s.142.211.062.314c-.045.058-.161.207-.662.247m-5.302-.047a.3.3 0 0 1-.13-.003c-.577-.132-2.556-.263-3.12-.106a.33.33 0 0 1-.407-.227.33.33 0 0 1 .23-.408c.746-.21 2.851-.034 3.443.099.178.04.288.214.248.39a.34.34 0 0 1-.264.255m-46.325-.055-.075-.822h4.636l1.546.822zm91.6 0 1.544-.822h4.636l-.073.822zm23.645-.082-.759-2.886.052-.014c.405 1.04 1.117.28 1.55-.252l1.709-2.12-3.9-1.425c-.295-.091-.46-.204-.584-.696l-.477-1.83c.47.584 1.22.861 1.928 1.116l3.913 1.428 4.36-5.82.046-.009.8 3.066-.047.01c-.63-.864-1.187-.21-1.598.3l-2.328 2.954 4.653 1.603c.169.075.653.235.822.884l.473 1.814c-.565-.81-1.562-1.073-2.455-1.383l-4.417-1.543zm-66.197-.063c-.499-.004-.993-.056-1.186-.136a.33.33 0 0 1-.178-.431.324.324 0 0 1 .428-.178c.266.108 1.612.117 1.846.009.162-.07.363-.01.44.151.077.16.021.35-.134.435-.212.111-.717.154-1.216.15m-12.128-.072c-.187.02-.395.007-.553-.101-.11-.075-.052-.19-.023-.322.028-.131.246-.209.378-.232l.397-.068c.168-.03.36.068.403.23.046.166-.01.328-.172.389a2 2 0 0 1-.43.104m2.92-.036c-.185-.003-.398-.046-.565-.009l-.333-1.63c-.263-.047-.214.29-.383.41-.117.093-.33.067-.473.02-.143-1.008-1.165-.216-1.734-.478.14-.43.546-.817.759-1.251.665 0 1.397-.48 2.04-.46.88.46 1.79.22 2.666.147.882-.096.883.94 1.382 1.394.096.119.048.336-.072.456-.262.171-.475-.12-.666-.286-.57-.244-.38.86-1.094.478-.334-.096-.475-.722-.903-.478-.215.431-.215.957-.237 1.463-.049.193-.203.228-.388.225zm-60.943-.114a6.4 6.4 0 0 1-1.78-.194c-3.393-.837-4.91-3.67-3.984-7.41.203-.825.534-1.616 1.067-2.279l2.038-.353-.01.052c-.82.853-1.543 1.94-1.837 3.127-.603 2.442 1.082 4.545 3.41 5.117 2.299.57 4.278-.557 4.82-2.74.259-1.049.161-2.152-.177-3.16l1.822.45c-.009.997-.078 2.02-.317 2.986-.655 2.641-2.59 4.31-5.051 4.404zm98.455-.162-1.095-.005c-.18-.003-.199-.124-.199-.305 0-.18.273-.302.454-.305l.63-.009c-.184.002.456.06.515.232.11.33-.488.392-.305.392m-5.86-.29c.317-.381 1.095-.233 1.287-.62l.092-3.093c-.307-.127-.843-.066-1.24-.043-.167 1.273-.138 3.757-.138 3.757zm-46.827-.213 1.45-.579-.002-1.71h-1.969zm4.722-.108c-.165.01-.355-.092-.39-.253-.033-.164.016-.318.172-.372.461-.161.953-.156 1.222.01.121.076.082.194.05.335-.035.138-.252.216-.395.227zm4.289-.113a.4.4 0 0 1-.124-.022c-.204-.077-1.413-.113-1.723-.003a.33.33 0 0 1-.22-.62c.435-.155 1.925-.153 2.259.047.147.086.188.262.113.419a.34.34 0 0 1-.305.18zm-6.705-.018c.69-.678 1.499-1.18 2.14-1.879l-.476-.2-1.853.047v1.957c.046.075.117.096.19.075m23.016-.082c-.178.002-.169-.108-.178-.286-.007-.176.285-.294.46-.309l1.05-.073 1.145-.07c.18-.01.24.12.251.3.013.18-.216.329-.397.343l-.901.077zm-27.477-.005a.35.35 0 0 1-.244-.056c-.192-.127-1.28-.194-1.689-.03a.33.33 0 0 1-.428-.186.33.33 0 0 1 .184-.428c.564-.224 1.97-.185 2.354.14.132.111.142.298.037.438a.32.32 0 0 1-.214.122m25.078-.003c-.26-.013-.568-.083-.914-.16l-.919-.138c-.177-.024-.448-.17-.428-.349.022-.176.034-.285.211-.271l1.281.114.952.137c.124.016.348.069.387.188.04.12.133.216.044.303-.145.146-.355.19-.614.176m29.966-.297-.623-.008c-.18-.003-.422-.138-.42-.321 0-.181.053-.315.234-.313l.983.008c-.183 0 .298-.028.298.452 0 .18-.655.18-.472.182m-8.189-.168 1.244-.468c.119-.657.068-1.545.047-2.29-.9-.047-1.687-.142-2.455-.156zm-7.49-.016v-1.16c-.784.043-1.64-.191-2.4-.027-.02.41-.07.678.026 1.06.759.127 1.614.127 2.375.127m-4.9-.15 1.716-.022c.286-.338.046-.605.072-1.015a8.7 8.7 0 0 0-1.926 0c-.028.41-.17.753.139 1.037m16.612-.052 1.61-2.062c-.058-.187-.577-.236-.935-.427-.307-.12-.6-.099-.503.283 0 0-.093 1.866-.172 2.206m-73.74-.117.116-.825h1.875l.81.825zm66.235 0a.33.33 0 0 1-.184-.581c.373-.312 1.198-.347 1.542-.06a.32.32 0 0 1 .045.45.34.34 0 0 1-.46.06c-.104-.077-.552-.07-.702.053a.33.33 0 0 1-.241.078m28.975 0 .81-.825h1.876l.114.825zm-62.312-.484a.33.33 0 0 1-.316-.177.325.325 0 0 1 .135-.439c.31-.162 2.563-.463 2.93-.02.097.117.072.265-.018.387-.089.122-.282.145-.423.086-.29-.117-1.923.006-2.182.128a.3.3 0 0 1-.126.035m-10.52-.058a.3.3 0 0 1-.13-.006l-.42-.101a.33.33 0 0 1-.244-.397.337.337 0 0 1 .4-.246l.418.102a.333.333 0 0 1 .244.4.33.33 0 0 1-.267.248zm27.392-.037a.38.38 0 0 1-.24-.075c-.278-.217-2.44-.473-3.51-.213a.331.331 0 0 1-.158-.642c1.014-.244 3.66-.117 4.142.394.117.124.104.308-.012.436a.3.3 0 0 1-.222.1m1.01-.705a.34.34 0 0 1-.25-.056c-.29-.207-.659-.408-1.196-.324a.33.33 0 0 1-.377-.276.327.327 0 0 1 .274-.375c.784-.122 1.336.191 1.683.437a.33.33 0 0 1 .076.46.32.32 0 0 1-.21.134m-7.421-.006a.3.3 0 0 1-.15-.036c-.444-.27-1.77-.964-2.54-.933a.33.33 0 0 1-.024-.66c1.02-.039 2.457.768 2.784.96.284-.08 1.231-.34 1.231-.34.174-.05.267.069.316.242.05.174-.143.367-.316.417l-1.143.33a.5.5 0 0 1-.158.02m21.862-.016a.33.33 0 0 1-.102-.64c.416-.15 1.228-.245 1.732.017a.335.335 0 0 1 .14.447.336.336 0 0 1-.448.139c-.264-.14-.86-.107-1.192.017a.3.3 0 0 1-.13.02m-28.725-.417a.33.33 0 0 1-.327-.16.336.336 0 0 1 .12-.454c.726-.417 2.48-.405 2.979-.145a.329.329 0 1 1-.303.584c-.298-.152-1.813-.174-2.346.134a.3.3 0 0 1-.123.041m-14.188-.733c-.158.01-.361-.078-.4-.233-.039-.152-.027-.294.117-.362.442-.209 1.417-.23 1.672.03.092.09.025.203-.022.322-.046.122-.255.177-.386.187zm9.61-.243a.33.33 0 0 1-.141-.63c.528-.237 4.036-.35 4.43-.069.132.094.155.262.082.408-.072.143-.259.204-.414.158-.397-.127-3.415-.08-3.828.104a.3.3 0 0 1-.13.028m11.415-.02a.33.33 0 0 1-.117-.637c.745-.298 2.19-.268 2.574.053.134.11.143.294.043.432-.1.14-.306.171-.454.082-.191-.115-1.318-.193-1.918.046a.3.3 0 0 1-.128.023m-13.614-.09a1.1 1.1 0 0 1-.33-.076.326.326 0 0 1-.185-.425.33.33 0 0 1 .426-.186c.18.07.38-.001.427-.047a.336.336 0 0 1 .469 0 .33.33 0 0 1 0 .465c-.17.17-.478.293-.807.27m9.194-.197c-.077-.02-.09-.112-.125-.242-.046-.17.217-.352.388-.401l.953-.291.578-.21c.172-.063.314.037.376.208.064.17-.067.374-.235.435l-.466.175-1.367.323a.2.2 0 0 1-.102.003m10.208-.026a.35.35 0 0 1-.24-.075c-.22-.175-1.729-.504-2.377-.383a.323.323 0 0 1-.386-.256.33.33 0 0 1 .261-.388c.767-.148 2.558.18 2.947.54a.325.325 0 0 1-.205.562m2.638-.47a.33.33 0 0 1-.04-.646c1.002-.265 4.622-.321 5.498-.012a.33.33 0 1 1-.216.621c-.71-.248-4.15-.228-5.111.029a.3.3 0 0 1-.131.008m15.705 0a.3.3 0 0 1-.124-.048c-.377-.233-1.79-.264-2.608-.06a.329.329 0 1 1-.162-.64c.82-.205 2.482-.251 3.117.14a.331.331 0 0 1-.223.607m-38.538-.07-1.12-.229c-.178-.038-.38-.217-.344-.395.038-.176.123-.3.303-.264l1.439.292c-.178-.038-.028.19-.063.369-.038.178-.393.19-.215.228m33.76-.015a.33.33 0 0 1-.242-.067c-.302-.23-2.526-.354-3.028-.103a.329.329 0 1 1-.297-.586c.65-.328 3.184-.272 3.74.176a.32.32 0 0 1 .046.457.33.33 0 0 1-.218.123m-37.988-.056a.3.3 0 0 1-.122-.049c-.351-.228-.727-.128-.92-.051a.33.33 0 0 1-.245-.614c.25-.101.898-.29 1.521.11a.327.327 0 0 1 .098.455.33.33 0 0 1-.332.149m18.648-.367c-.177.03-.382.013-.54-.147-.082-.082.02-.18.05-.286.025-.113.243-.178.352-.216l.19-.06c.16-.053.364.011.432.168.07.154.039.323-.11.408a1.3 1.3 0 0 1-.374.133m-8.652-.054a.3.3 0 0 1-.13-.009c-.58-.164-1.357-.296-1.798-.162a.33.33 0 1 1-.187-.633c.705-.21 1.75.046 2.164.161a.329.329 0 0 1-.048.644zm14.423-.18a.33.33 0 0 1-.333-.148c-.094-.145-.499-.19-.795-.226l-1.002-.322c-.168-.052-.116-.144-.07-.313.045-.17.365-.19.538-.154l.609.134c.475.054 1.014.115 1.277.525a.33.33 0 0 1-.224.505m24.881-.28a.4.4 0 0 1-.242-.05c-.316-.194-2.575-.32-3.206-.066a.329.329 0 1 1-.247-.61c.766-.31 3.466-.241 3.9.19.117.12.106.293.006.422a.32.32 0 0 1-.211.114m-44.266-.193a.4.4 0 0 1-.125-.025c-.362-.15-3.425-.132-4.058-.04a.331.331 0 0 1-.095-.655c.359-.052 3.96-.194 4.481.123.148.09.185.27.108.422a.34.34 0 0 1-.311.175m35.656-.115-.9-.017-1.16-.072c-.177-.012-.166-.122-.159-.3.007-.18.3-.279.478-.279l.724.002 1.301.07c.178.008.187.129.183.307-.007.181-.287.292-.467.29zm-28.086-.003a.35.35 0 0 1-.245-.05c-.276-.183-2.486-.536-3.103-.458a.33.33 0 0 1-.085-.653c.653-.083 3.142.246 3.585.583a.324.324 0 0 1 .06.45.32.32 0 0 1-.212.128m19.41-.152a.37.37 0 0 1-.232-.084c-.132-.11-.887-.304-1.316-.25a.33.33 0 0 1-.08-.658c.52-.063 1.623.136 1.897.483.108.13.077.306-.042.425a.32.32 0 0 1-.228.084m-5.685-.031c-1.196-.401-2.393-.798-2.633-.77a.334.334 0 0 1-.374-.277.327.327 0 0 1 .265-.373c.498-.082 2.094.533 2.759.803.038-.094 1.393-.533 1.955-.397a.33.33 0 0 1-.152.642c-.253-.06-1.141.145-1.82.372m17.273-.025a.33.33 0 0 1-.243-.078c-.598-.51-2.889-1.038-3.937-1a.336.336 0 0 1-.342-.319.333.333 0 0 1 .32-.342c1.092-.037 3.6.486 4.39 1.16a.33.33 0 0 1-.188.579m-10.24-.17a.33.33 0 0 1-.228-.5c.17-.277 1.098-1.004 1.532-.81.136.062.176.2.152.346-.021.148-.176.258-.324.278-.169.021-.71.38-.801.533a.33.33 0 0 1-.331.153m-13.403-.013a.3.3 0 0 1-.122-.042c-.168-.099-1.218-.249-1.766-.06a.33.33 0 0 1-.417-.207.327.327 0 0 1 .202-.417c.684-.235 2.014-.11 2.364.145a.317.317 0 0 1 .07.438.33.33 0 0 1-.331.143m-16.652-.584a.3.3 0 0 1-.127-.031c-.317-.15-1.915-.248-2.456-.067a.327.327 0 0 1-.417-.208.326.326 0 0 1 .208-.414c.696-.235 2.453-.142 2.946.092.164.08.236.277.158.44a.33.33 0 0 1-.312.188m11.973-.031-1.72-.195-1.982-.24c-.18-.02-.225-.164-.205-.342.021-.18.267-.291.446-.27l1.77.194 1.973.256c.18.024.205.157.183.338s-.285.28-.465.259m29.433-.131a.33.33 0 0 1-.232-.1c-.432-.45-2.773-1.075-3.739-1a.333.333 0 0 1-.356-.305.333.333 0 0 1 .305-.353c1.1-.085 3.661.571 4.265 1.201a.329.329 0 0 1-.243.557m3.472-.018a.3.3 0 0 1-.12-.046c-.278-.173-.63-.306-1.329-.085a.33.33 0 0 1-.412-.217.33.33 0 0 1 .212-.414c.755-.236 1.331-.186 1.878.16.156.097.2.302.102.452a.33.33 0 0 1-.331.15m-27.74-.586a.33.33 0 0 1-.234-.09c-.148-.143-.985-.24-1.198-.164a.329.329 0 0 1-.219-.622c.361-.127 1.507-.058 1.884.319a.327.327 0 0 1-.232.558m16.049-.254a.4.4 0 0 1-.22-.097c-.35-.311-3.25-.823-3.793-.59a.333.333 0 0 1-.434-.177.33.33 0 0 1 .176-.433c.752-.321 4.252.213 4.602.848.077.14.016.291-.11.39a.3.3 0 0 1-.221.059m-10.88-.169a.34.34 0 0 1-.224-.116c-.092-.105-.564-.3-.751-.186a.33.33 0 0 1-.454-.107.325.325 0 0 1 .108-.452c.53-.329 1.362.02 1.611.333.112.14.088.34-.05.458a.33.33 0 0 1-.24.07m-10.59-.02a.3.3 0 0 1-.124-.036c-.39-.197-3.88-.612-5.111-.422a.327.327 0 0 1-.377-.273.33.33 0 0 1 .274-.377c1.257-.196 4.99.188 5.539.5.154.089.206.28.122.437a.33.33 0 0 1-.322.17m-11.28-.035a.3.3 0 0 1-.125-.032c-.204-.103-1.272-.192-1.661-.044a.33.33 0 0 1-.23-.62c.566-.211 1.829-.106 2.186.075a.329.329 0 0 1-.17.621m27.323-.093a.4.4 0 0 1-.225-.061c-.166-.11-.9-.218-1.07-.133a.33.33 0 0 1-.284-.598c.417-.197 1.638-.03 1.863.323.082.132.037.278-.075.386a.3.3 0 0 1-.21.083m-24.003-.249a.37.37 0 0 1-.233-.081c-.28-.228-2.752-.793-3.613-.625a.33.33 0 0 1-.386-.264.33.33 0 0 1 .263-.385c.889-.17 3.829.35 4.231.843.107.13.082.303-.037.423a.32.32 0 0 1-.225.09m37.605-.08a.33.33 0 0 1-.244-.06c-.368-.265-1.852-.627-2.614-.5a.33.33 0 0 1-.108-.652c.912-.15 2.578.232 3.11.619a.331.331 0 0 1-.144.594m-23.236-.457a.36.36 0 0 1-.233-.09c-.27-.236-2.234-.437-2.6-.318-.162.052-.354-.021-.422-.178-.067-.157-.02-.33.13-.411.384-.21 2.931-.068 3.39.478.11.13.086.314-.037.433a.32.32 0 0 1-.228.086m5.957-.244a.33.33 0 0 1-.212-.133c-.15-.218-1.302-.321-1.595-.19a.33.33 0 0 1-.436-.17.325.325 0 0 1 .165-.432c.44-.197 1.998-.169 2.406.412a.33.33 0 0 1-.08.46.34.34 0 0 1-.248.053m-69.99-.172a5.3 5.3 0 0 1-2.205-.442c-3.07-1.333-4.108-4.758-2.822-7.725 1.298-2.981 4.614-4.547 7.67-3.22 2.695 1.174 4.128 4.434 2.745 7.57-.968 2.382-3.156 3.786-5.389 3.817zm75.443-.328-1.476-.177c.18.023-.252-.145-.231-.326.02-.18.337-.307.156-.328l1.808.223c.18.023.223.164.2.344-.024.18-.277.285-.457.264m-18.312-.14a.35.35 0 0 1-.139-.052c-.356-.25-1.417-.871-2.05-.79a.326.326 0 0 1-.37-.279.33.33 0 0 1 .283-.37c.92-.122 2.066.606 2.373.812.553-.167 1.92-.544 2.428-.356a.33.33 0 1 1-.228.619c-.203-.075-1.187.11-2.15.406a.3.3 0 0 1-.147.01m30.167-.018a.32.32 0 0 1-.24-.07c-.361-.288-3.181-.632-4.014-.417a.33.33 0 0 1-.4-.24.33.33 0 0 1 .237-.4c.862-.218 3.944.025 4.59.541a.33.33 0 0 1-.173.586m-35.262-.158a.34.34 0 0 1-.175-.08c-.418-.367-.958-.657-1.109-.6a.33.33 0 0 1-.231-.62c.536-.199 1.225.294 1.584.585l.595-.325c-.16.087.14-.213.435.192.106.146-.278.474-.119.389l-.79.425a.3.3 0 0 1-.19.034m20.23-.02a.36.36 0 0 1-.221-.114c-.16-.181-1.295-.39-1.791-.292a.33.33 0 1 1-.128-.647c.529-.103 2.09.038 2.454.556.101.14.061.323-.075.433a.32.32 0 0 1-.239.064m5.114-.173c-1.332-.33-3.196-.873-3.587-.849a.326.326 0 0 1-.35-.304.33.33 0 0 1 .305-.352c.635-.043 3.098.738 3.586.895.544-.378 1.948-1.02 2.442-.86.162.052.24.215.2.384-.04.166-.221.273-.392.247-.241-.035-1.337.406-2.204.839m-10.77-.213a.4.4 0 0 1-.118-.04c-.233-.127-1.45-.254-1.686-.149-.142.066-.345.042-.435-.084-.093-.127-.113-.279-.006-.396.381-.41 2.247-.145 2.543.12.125.11.126.285.03.421a.33.33 0 0 1-.327.128zm63.294-.053-1.178-2.87.047-.016c.603.651 1.662.089 2.36-.195l5.693-2.34c.68-.282 1.833-.649 1.793-1.518l.046-.019 1.18 2.869-.045.019c-.597-.635-1.664-.092-2.34.187l-5.696 2.34c-.678.278-1.838.647-1.81 1.518zm-68.339-.306-.9-.155c.173.028-.172-.196-.135-.367.038-.176.305-.247.135-.294l1.383.366c.17.047.102.119.064.292-.037.174-.373.189-.546.158m-61.206-.264c1.655.094 3.15-.767 3.908-2.506 1.028-2.37-.478-4.678-2.665-5.63-2.231-.97-4.524-.24-5.514 2.039-1.022 2.349.489 4.772 2.585 5.681a4.9 4.9 0 0 0 1.686.416m57.545-.307a1 1 0 0 1-.323-.039l-.823-.228-1.157-.339c-.173-.052-.204-.204-.154-.378s.298-.245.473-.198l.972.271 1.234.51c.161.065.077.116.02.28-.028.083-.128.116-.241.121m4.761-.045a.3.3 0 0 1-.126-.034l-.481-.24a.33.33 0 0 1-.149-.441.333.333 0 0 1 .442-.15l.482.24a.33.33 0 0 1-.168.625m5.614-.198c-.18.005-.227-.124-.235-.305-.01-.18.235-.32.415-.33l1.281-.075c.96-.124 1.567-.18 1.893.074.138.107.157.294.056.439-.101.143-.31.174-.458.081-.164-.1-.939 0-1.405.061zm13.758-.005a.33.33 0 0 1-.321-.167.326.326 0 0 1 .128-.447c.642-.356 2.81-.609 3.386-.227.147.101.187.3.086.452a.33.33 0 0 1-.454.097c-.298-.182-2.154-.05-2.7.253a.3.3 0 0 1-.125.039m-16.513-.332-1.054-.104-1.086-.124c-.177-.02-.17-.133-.156-.312.015-.178.302-.269.48-.26l.737.038 1.445.212c.177.026.159.137.136.313-.021.178-.323.255-.502.237m-14.74-.012a.3.3 0 0 1-.13-.014c-.674-.214-1.543-.389-1.767-.305a.33.33 0 1 1-.23-.619c.544-.204 1.82.175 2.197.297a.328.328 0 0 1-.07.641m7.528-.303c-.403-.01-.78-.25-.833-.285a.33.33 0 0 1-.09-.457.326.326 0 0 1 .454-.093c.159.101.453.219.572.16a.33.33 0 0 1 .442.147.33.33 0 0 1-.145.442.84.84 0 0 1-.4.086m18.359-.047a.3.3 0 0 1-.205-.123c-.1-.136-.098-.307.027-.42.342-.311 1.914-.345 2.212-.052.112.11.105.27.019.401-.087.131-.282.166-.43.108-.192-.08-1.179-.063-1.38.047a.4.4 0 0 1-.243.04zm-4.724-.372a.32.32 0 0 1-.225-.112c-.145-.161-.934-.318-1.398-.182a.325.325 0 0 1-.41-.222.333.333 0 0 1 .222-.41c.63-.183 1.712-.042 2.08.382a.327.327 0 0 1-.269.544m10.336-.123a.56.56 0 0 1-.408-.086c-.103-.07-.044-.188-.028-.31.02-.127.22-.22.34-.257l.268-.086 1.111-.072c.176-.012.148.084.169.258.02.173-.28.303-.457.33l-.584.1c-.13.051-.271.104-.41.123m-18.82-.416a.34.34 0 0 1-.244-.07.98.98 0 0 0-.94-.128.33.33 0 0 1-.424-.196.33.33 0 0 1 .194-.425c.543-.202 1.15-.114 1.581.233a.33.33 0 0 1-.167.586m-8.778-.056a.34.34 0 0 1-.24-.078c-.314-.26-2.713-.56-3.197-.22a.33.33 0 0 1-.461-.08.33.33 0 0 1 .08-.46c.754-.527 3.49-.182 4.007.263a.328.328 0 0 1-.189.575m17.744-.627a.33.33 0 0 1-.244-.067c-.49-.389-2.342-.627-2.892-.445a.33.33 0 0 1-.21-.625c.75-.251 2.834.014 3.512.551.143.112.17.322.054.463a.33.33 0 0 1-.22.123m-7.098-.373c-.154-.02-.351-.141-.286-.04-.114-.18-1.087-.337-1.592-.084a.33.33 0 0 1-.443-.147.326.326 0 0 1 .149-.44c.548-.277 1.407-.245 1.922-.056l.568.467c-.125-.103-.07.17-.19.275-.03.027-.077.032-.128.025m10.253-.135a.328.328 0 0 1-.263-.548c.58-.649 3.1-1.247 3.91-.928a.327.327 0 0 1 .184.426.325.325 0 0 1-.425.185c-.554-.218-2.78.311-3.177.754a.34.34 0 0 1-.23.111m-19.822-.03a.5.5 0 0 1-.15-.026l-1.777-.66c-.139-.05-.307-.198-.294-.348.014-.145.049-.275.196-.301.376-.061 1.369.358 2.014.65.332-.164 1.495-.713 2.353-.47a.332.332 0 0 1-.181.638c-.583-.17-1.655.291-2.018.483a.3.3 0 0 1-.143.033m15.8-1.06a.33.33 0 0 1-.236-.09c-.18-.165-1.054-.329-1.47-.123a.33.33 0 0 1-.294-.59c.647-.323 1.815-.14 2.214.234a.328.328 0 0 1-.214.569m-9.244-.005a.33.33 0 0 1-.324-.17.333.333 0 0 1 .132-.449c.72-.394 1.947-.44 2.386-.09a.331.331 0 0 1-.41.519c-.153-.123-1.061-.177-1.659.15a.3.3 0 0 1-.125.04m43.234-.16a2.15 2.15 0 0 1-1.527-.63 2.17 2.17 0 0 1 0-3.06c.66-.66 2.528-1.39 4.183-.783.436.16.35.647.031.584-.607-.122-1.264.096-1.156.199a2.17 2.17 0 0 1 0 3.06 2.16 2.16 0 0 1-1.531.63m22.253-.03-1.48-2.598.04-.025c.667.898 1.158-.018 1.437-.648l1.098-2.488-4.136-.367c-.31-.014-.493-.075-.744-.515l-.939-1.646c.61.443 1.403.515 2.153.578l4.149.355 2.698-6.74.042-.029 1.57 2.754-.041.025c-.837-.671-1.207.102-1.463.7l-1.486 3.46 4.913.336c.183.028.689.058 1.022.644l.93 1.63c-.758-.64-1.793-.63-2.73-.695l-4.672-.35zm-99.397-.07a2.162 2.162 0 0 1-1.53-3.689c.106-.105-.55-.323-1.156-.201-.317.066-.404-.425.031-.585 1.655-.604 3.522.125 4.183.786a2.163 2.163 0 0 1 0 3.058 2.16 2.16 0 0 1-1.528.631m47.686-.251a.34.34 0 0 1-.33-.155c-.162-.262-1.581-.838-2.148-.822a.329.329 0 1 1-.023-.658c.665-.02 2.412.597 2.735 1.144a.327.327 0 0 1-.234.49m-3.377-.51a.38.38 0 0 1-.222-.117c-.168-.193-1.447-.509-1.98-.403a.33.33 0 1 1-.13-.647c.602-.12 2.327.158 2.662.686.094.142.046.32-.092.424a.3.3 0 0 1-.238.058m-11.295-.26a.33.33 0 0 1-.202-.614c.906-.518 3.29-.289 3.56-.263a.33.33 0 0 1-.067.656c-.935-.097-2.622-.13-3.167.182a.3.3 0 0 1-.124.039m-53.483-2.63-.04-.028c.067-.98-.476-1.343-1.236-1.852l-5.413-3.63c-.76-.509-1.3-.872-2.203-.434l-.04-.028 1.609-2.4.04.025c-.061 1.003.489 1.353 1.249 1.864l5.25 3.516-2.781-8.606c-.372-1.114-.54-1.837-.217-3.018l7.609 5.1c.757.511 1.301.874 2.181.443l.04.026-1.6 2.388-.041-.027c.075-.989-.475-1.337-1.235-1.848l-5.14-3.45 2.935 9.165.146.375a1 1 0 0 0 .201.428l.013.011zm46.298-.384c.146.008.307-.076.577-.338.295-.283.212-.77.239-1.214h1.312c.355.338.705.698 1.166.712.392-.137.627-.404.813-.712h1.896c.021 0 .042.004.061 0h1.919l.238-.824h-.063c.143-.318.24-.697.494-.92.43-.072.667.41.978.65.333.14.333.698.786.675.548 0 1.214.066 1.573-.536.025-.12.28-.389.397-.46.097-.048.602.56.96.56.333-.024.622-.264.742-.578.117-.049.307-.048.403.12.049.383.5.433.808.508.788-.075 1.075-.96 1.837-1.08.146.014.443.535.806 1.062h-.393l.276.823h.813c.124.104.25.191.378.23.3.069.537-.053.747-.23h1.218a.37.37 0 0 0 .179.134c.286.096.697.191.98.022a.63.63 0 0 0 .313-.156h.888c.115.446.38.817.725 1.167.263.338.668.167 1.031.263.216-.069.418-.312.611-.572-.309-1.585-.305-1.923-.305-3.305 0-5.756 2.744-8.829 6.817-11.28-1.455-.926-5.477-2.746-12.055-.006-.576.24-.836-.223-1.398-1.23-.963-1.723-2.926-5.214-6.077-6.673-3.15 1.461-5.11 4.953-6.073 6.675-.565 1.005-.823 1.467-1.397 1.228-6.579-2.74-10.602-.92-12.058.006 4.073 2.451 6.816 5.524 6.816 11.283 0 1.33-.055 2.295-.342 3.842.134.077.252.147.364.153zm23.341-1.552c-.02-.077-.044-.151-.054-.233-.317-.333-.558.01-.833.233h-1.472c-.207-.262-.135-.748-.606-.59-.198.15-.39.4-.613.59h-1.125c-.247-.207-.482-.513-.695-.824h6.426l.114.824zm-15.18-.85c-.15.335-.35.604-.834.547-.093-.24-.526-.288-.742-.24-.16.211-.314.479-.517.516h-.061a.34.34 0 0 1-.172-.056c-.375-.105-.591-.568-.896-.767zm-3.222 0h-.398l.047-.09a.5.5 0 0 1 .351.09m-.398 0c-.15.27-.273.56-.431.823h-1.978c-.342-.326-.688-.632-1.144-.584-.124.165-.156.37-.169.584h-.023l.073-.823zm-40.172 1.917c4.208-2.571 8.727-3.55 10.617-3.862.311-1.882 1.276-6.366 3.787-10.544q-1.556 1.094-3.037 2.282c-1.34 2.395-2.126 6.202-2.134 6.243l-.096.472-.476.092c-.04.007-3.754.727-6.258 2.126a59 59 0 0 0-2.403 3.19zm96.65-.005a60 60 0 0 0-2.286-3.037c-2.395-1.34-6.202-2.126-6.24-2.135l-.477-.097-.09-.475c-.006-.039-.723-3.751-2.121-6.256a59 59 0 0 0-3.192-2.405c2.57 4.208 3.548 8.728 3.86 10.617 1.882.311 6.368 1.278 10.546 3.788m-16.741-2.44a2.161 2.161 0 1 1 1.53-3.69c.105.107.323-.55.201-1.156-.066-.319.425-.403.585.031.604 1.654-.125 3.52-.786 4.18a2.16 2.16 0 0 1-1.53.635m-63.066-.102c-.553 0-1.106-.21-1.528-.631-.661-.66-1.392-2.53-.786-4.183.159-.436.647-.35.583-.031-.121.605.097 1.264.203 1.154a2.17 2.17 0 0 1 3.056 0 2.166 2.166 0 0 1 0 3.06 2.16 2.16 0 0 1-1.528.631m19.839-.708-.072-.823h23.469l-.037.823zm66.68-2.04-1.902-2.31.041-.028c.806.773 1.132-.216 1.306-.884l.663-2.64-4.14.34c-.306.04-.502.008-.823-.383l-1.2-1.463c.673.331 1.468.273 2.216.207l4.151-.35 1.522-7.1.04-.032 2.007 2.447-.036.033c-.935-.52-1.166.303-1.323.938l-.881 3.66 4.898-.5c.19-.002.69-.058 1.117.463l1.192 1.448c-.856-.502-1.872-.322-2.809-.228l-4.66.449zm-66.752-.12-.122-.823h23.72l-.058.822zm55.65-.112a60 60 0 0 0-4.328-4.35c.503 1.456.813 2.784.94 3.392.609.137 1.945.46 3.388.958m-87.728-.164a30 30 0 0 1 3.394-.944c.134-.604.457-1.94.956-3.382a60 60 0 0 0-4.35 4.326m31.598-1.889-.22-.822h24.867l-.22.822zm-39.902-1.569-.036-.032c.4-.774-.54-1.515-1.083-2.033l-4.444-4.264c-.695-.668-1.193-1.279-2.159-1.07l-.036-.038 2.714-2.83c2.532-2.637 5.864-2.859 8.186-.633 2.347 2.25 2.203 5.325-.375 8.011zm39.056-.592-.369-.822h26.894l-.48.822zm-38.384-2.065a6.5 6.5 0 0 0 1.147-.941c1.888-1.966 1.957-4.113-.106-6.09-2.04-1.956-4.462-1.273-6.146.485a5.6 5.6 0 0 0-.742.938zm37.023-.096-.653-.801 30.267-.02-.774.821zm62.016-2.122-2.26-1.96.032-.035c.928.631 1.083-.402 1.139-1.09l.21-2.715-4.024 1.032c-.295.092-.492.092-.874-.24l-1.434-1.243c.722.218 1.5.026 2.225-.164l4.036-1.046.302-7.253.03-.039 2.4 2.075-.035.035c-1.008-.351-1.096.5-1.145 1.147l-.252 3.757 4.745-1.31c.182-.034.67-.175 1.177.263l1.419 1.232c-.93-.35-1.898 0-2.807.248l-4.521 1.228zm-64.261-.039-.736-.615.736-.21h5.667s1.36.21 2.316.825c.033.021-7.983 0-7.983 0m10.595 0 .405-.825h11.292l.443.825zm14.827 0c1.507-.766 2.39-.825 2.39-.825h5.63l.59.246-.63.58s-7.99.004-7.98 0m-13.612-2.162.478-.824h8.719l.515.824zm-39.031-1.064-.03-.04c.446-.768-.398-1.617-.875-2.2l-3.901-4.759c-.465-.569-1.155-1.568-1.974-1.272l-.03-.045 2.4-1.962.032.037c-.435.76.396 1.613.86 2.183l3.902 4.765c.467.565 1.158 1.563 1.985 1.286l.031.038zm40.483-1.097.61-.824h5.627l.624.824zm-36.603-1.963-1.542-1.314.04-.023c.683.117 1.395-.13 1.983-.52l1.203-.786-3.99-6.093c-.402-.614-.975-1.662-1.827-1.475l-.028-.042 2.706-1.776.028.042c-.448.902-.086 1.427.425 2.203l4.078 6.225 1.23-.802c.452-.296.953-.72.817-1.317l.042-.028 1.502 1.338-.042.03c-.231.036-.458.164-.69.316l-5.096 3.34-.34.218c-.16.143-.34.263-.459.436zm38.603-.198 1.22-.82h.405l1.252.82zm40.016-1.12c-.943-.306-1.896-.68-2.747-1.2-2.862-1.74-3.73-4.89-1.973-7.775 1.819-2.986 4.972-3.584 8.265-1.585.726.443 1.384 1 1.852 1.703l-.274 2.053-.042-.026c-.577-1.034-1.387-2.052-2.433-2.685-2.152-1.31-4.659-.336-5.909 1.714-1.228 2.026-.75 4.248 1.177 5.42.919.56 2 .796 3.064.777zm-69.106-4.585-.023-.047c.602-.555.029-1.037-.43-1.468l-5.39-4.982c-.723-.687-1.365-1.392-2.424-1.418l-.022-.044 2.714-1.288.022.046c-.584.602-.277.98.426 1.654l1.757 1.72 3.715-1.77-.192-2.46c-.093-1.22-.052-1.439-.927-1.415l-.023-.045 3.023-1.44.022.045c-.638.828-.51 1.779-.45 2.783l.53 9.023zm59.452-1.017c-.98-.148-1.985-.359-2.91-.727-3.109-1.244-4.485-4.212-3.229-7.353 1.301-3.24 4.32-4.35 7.898-2.918.785.319 1.527.758 2.103 1.375l.072 2.068-.045-.018c-.738-.928-1.711-1.793-2.848-2.247-2.332-.94-4.644.44-5.54 2.665-.882 2.198-.043 4.313 2.05 5.15.998.405 2.105.463 3.15.264zm-58.692-.881-.322-4.402-2.906 1.381zm48.272-3.04c-.991.013-2.019-.029-2.99-.24-3.27-.717-5.122-3.412-4.398-6.712.748-3.414 3.538-5.013 7.302-4.186.827.18 1.633.492 2.306 1.007l.407 2.028-.046-.009c-.88-.797-1.981-1.488-3.181-1.753-2.456-.537-4.509 1.207-5.022 3.546-.506 2.318.673 4.264 2.874 4.747 1.055.23 2.152.1 3.15-.268zm-35.594-.406-.008-.045c.674-.53.39-1.145.25-1.583l-2.04-6.598c-.275-.848-.501-1.625-1.277-2.108l-.008-.044 2.625-.436.008.044c-.701.466-.47 1.156-.178 2.117l2.07 6.774 1.852-7.772c.237-.966.39-1.44 1.095-2.185l5.142 8.633-.373-7.92c-.09-.548-.267-1.017-.86-1.099l-.009-.05 3.11-.515.008.045c-.57.562-.577 1.007-.547 1.781l.251 8.088c.062.368.252.818.657.87l.008.044-2.786.467-.003-.017c-.055-.34-.223-.642-.408-.961l-3.808-6.384-1.847 7.609c-.06.239-.15.502-.106.762l.003.015zm19.628-1.875a10 10 0 0 1-.681-.005l-3.999-.167.002-.048c.843-.206.78-1.405.811-2.155l.257-6.151c.04-.961.17-1.742-.622-2.333l.002-.049 3.917.164c3.654.154 6.026 2.508 5.89 5.724-.125 3.041-2.248 4.926-5.576 5.02zm-.78-1.189c2.726.117 4.385-1.249 4.502-4.106.119-2.822-1.997-4.188-4.43-4.289-.408-.019-.8.001-1.194.067l-.339 8.09q.729.21 1.461.238"/></g></svg>