<svg xmlns="http://www.w3.org/2000/svg" xmlns:xlink="http://www.w3.org/1999/xlink" xml:space="preserve" width="167.968" height="169.997" viewBox="0 0 167.968 169.997"><path fill="#57068c" d="M100.421 25.105c.869.638 1.797.812 2.956.638 2.726-1.102 2.088-4.349 3.132-6.494.115-.29.521-.231.695-.116-.521-.348-1.565-.579-2.088-.579.29.115.639.231.639.579-.465 2.088-.639 4.349-2.029 5.973-.58.348-1.566.521-2.203.116-2.551-1.624-.232-4.465-.116-6.668 0-.465.406-.928.869-.813l-2.377-.579.696.579c-.058 2.437-2.319 5.161-.174 7.364m-39.02-5.682-2.319.813.754-.058c.928 1.564 1.333 3.305 1.972 4.985.174.638.812 1.74 0 2.146.754-.232 1.681-.521 2.203-.869-.232 0-.406.174-.696.116-.695-1.044-1.102-2.262-1.333-3.422 2.087.87 4.29 3.189 6.61 1.682-2.32.174-4.176-1.449-6.089-2.377.869-1.449 1.102-3.363 2.609-4.406-.638.116-1.218.521-1.855.695l.289.231c-.464 1.334-.984 2.841-1.738 3.827-.059-1.16-1.683-2.551-.407-3.363m48.471.465c-1.16 2.202-2.145 4.464-3.421 6.609h-.754c.696.29 1.45.869 2.146.985-.349-.174-.87-.579-.522-1.043l2.261-4.871 2.436 7.944.29.231 3.362-6.494.58-.116c-.638-.231-1.334-.695-1.914-.812l.522.406c-.464 1.971-1.507 3.711-2.319 5.508-.986-2.723-1.681-5.739-2.667-8.347m10.728 5.751c.037.035.082.067.115.104a1 1 0 0 0-.115-.104m-5.742 5.381c.754.405 1.449.87 2.261 1.16l-.58-.465c.639-1.971 2.03-3.479 2.842-5.275.271-.271.692-1.196 1.219-.801-.475-.471-1.206-.848-1.798-1.172l.405.639c-1.102 2.029-2.262 4.001-3.652 5.914zm10.089 1.624c1.276-.464 2.377-1.855 3.77-1.392l-1.74-1.275.348.58-5.044 3.188h-.348c.58-1.972 1.044-4.001 1.854-5.915l.639.117c-.639-.522-1.449-1.044-2.088-1.566l.349.465c-.116 2.782-1.508 5.334-1.798 8.059zm-88.42 1.564c1.681-.348 3.363.522 5.044.929.986.695 1.566 1.448 2.146 2.492 0 .175-.464.349-.231.465l1.797-1.683c-1.275 1.044-1.913-1.101-2.841-1.797-.464-1.566-1.16-3.711-.464-5.218l-1.333 1.333.231-.059c.695 1.103.753 2.553.928 3.827-1.275-.348-2.552-.754-3.71-1.274v-.349c-.639.35-1.103.754-1.567 1.334m89.695 3.189c-.349.406-.929.754-1.276.348l2.783 2.667h.348c.349-.231.813-.406.87-.87-.348.232-.638.464-1.044.349-.521-.349-1.391-.928-1.333-1.565l2.146-2.319 1.218 1.102c.174.348-.059.638-.232.87.406-.232.87-.58 1.102-.986-.753-.116-1.333-.869-1.797-1.391l1.971-2.087 1.102.984c.406.29.174.87.059 1.103l.985-.754-3.188-2.667c.058.289.406.464.348.812zM26.091 46.152l.638-.406 7.305 2.493.232-.116c-1.102-1.854-2.436-3.651-3.362-5.508 2.087.58 4.116 1.392 6.203 1.798-1.275-2.145-2.841-4.175-4.232-6.262-.231-.348-.058-.754 0-1.103-.348.58-1.044 1.219-1.218 1.74.174-.174.406-.464.638-.348 1.219 1.623 2.552 3.188 3.479 4.87-2.088-.522-4.117-1.392-6.204-1.797l3.363 5.218v.348c-1.798-.87-3.711-1.334-5.451-2.318-.057-.175.117-.406.175-.58-.58.581-1.218 1.275-1.566 1.971m58.502-6.494c0 .87-.58 1.913 0 2.609zm51.369 7.305c-.405.116-1.044.349-1.334.813.116.696.406 1.274.986 1.797.522.522 1.276.638 1.971.58 2.899-.58.755-4.175 2.667-5.508.58-.232 1.219.058 1.624.638.349.464.232 1.391-.174 1.739l1.044-.87c-.521-.985-1.16-2.261-2.608-2.087-3.189.638-.232 5.45-3.596 5.682-.405-.29-1.044-.521-1.159-1.044-.348-.638 0-1.45.579-1.74M25.917 48.587l-1.044-.754-2.087 3.711c.174-.174.464-.58.813-.521l5.102 3.131c.348.231.87.696.464 1.16.754-1.044 1.623-2.377 2.203-3.479-.231-.348-.58-.754-1.043-.87v.175c.057-.059.115 0 .173.058.58.406.232 1.218-.173 1.681-.928 1.74-2.378-.637-3.537-.927.463-.521.869-1.972 1.797-1.45l-1.102-.928c0 .812-.58 1.566-1.101 2.146-.754-.522-1.74-.986-2.378-1.566.347-.638 1.043-2.031 1.913-1.567m111.901 4.117c.464.754.813 1.623 1.334 2.146.058-.349-.348-.465-.174-.87 1.623-1.217 3.304-2.087 5.044-3.189.406-.23 1.217-.694 1.507 0-.406-.694-.753-1.449-1.217-2.028l.116.695c-1.914 1.333-4.001 2.609-6.03 3.596zm2.957 5.218 1.102 2.319.059-.058-.059-.116c-.058-.349-.231-.696.116-.928l5.914-2.899.173.174c.232.813 1.16 1.973.349 2.551l1.159-.521c-1.159-1.798-1.854-3.711-2.667-5.566a4.8 4.8 0 0 0-1.218.349c1.16-.059 1.393 1.448 1.856 2.203-1.856 1.101-3.827 1.797-5.683 2.782-.405.349-.927.059-1.101-.29M24.41 63.488c.522.174.29.754.232 1.044l1.044-2.088-.464.521c-1.914-.348-3.595-1.507-5.392-2.261 2.725-.986 5.566-1.565 8.233-2.725-2.145-1.103-4.407-2.146-6.494-3.363l-.058-.696c-.29.639-.812 1.393-.928 1.973.232-.175.29-.639.696-.58l5.102 2.318c-2.551.986-5.624 1.798-8.291 2.726 2.088 1.102 4.291 2.03 6.32 3.131m126.164-2.03-.754-1.854v.579c-.927 1.449-1.854 2.725-3.247 3.942-.985.116-2.261 1.45-3.015.349l-.116.058c.464.696.522 1.681.986 2.319l-.116-.696c.638-.811 1.971-.985 2.957-1.333 1.74.406 3.769.174 5.044 1.507-.116-.579-.463-1.101-.637-1.739l-.29.465c-1.334-.175-2.726-.29-3.886-.696l2.667-3.016zM38.025 127.782l-.164.005a.5.5 0 0 0 .164-.005m16.185-6.372c.406 0 .813.348.813.754l.116-1.217c-1.798.231-3.886.29-5.566-.059l-.29 1.102h.059c.348-1.102 1.738-.463 2.492-.521v5.218c-.115.405.116 1.16-.638 1.102l2.261.059-.694-.29c-.232-1.972-.175-4.176-.06-6.146h1.507m-26.032 3.245c.696.059 1.391 0 1.913-.464.464-.464.696-1.159.696-1.913-.58-1.972-3.131-1.102-4.522-1.333.116.29.637.057.753.521v5.623c.058.406-.463.696-.579.755l2.145-.059c-.232-.116-.58 0-.754-.29a56 56 0 0 1 0-6.261c.522-.117 1.334-.059 1.739.521.348.465.638 1.103.406 1.739-.231.755-1.101 1.161-1.797 1.161m4.059 3.131c1.391-.116 2.319.232 3.77 0l.058-1.102-.348.695c-.58.175-1.509.233-2.03-.057-.059-.986-.173-2.088.059-3.016.638.231 1.855-.29 1.913.696l.174-1.159c-.58.347-1.508.173-2.204.114l.059-2.667h1.392c.522-.057.58.523.696.813l.232-1.045-3.943-.115c.116.231.521.173.696.347.115 2.03.174 4.233-.059 6.204zm52.797.059h-.209a.5.5 0 0 0 .209 0m1.994 0h-.398a.95.95 0 0 0 .398 0m1.565-6.784c-1.797.058-3.77.116-5.509-.115-.058.405-.348.811-.115 1.159.29-1.159 1.681-.522 2.492-.58l-.058 5.565c-.097.242-.077.683-.37.755h1.595a1 1 0 0 1-.354-.175c-.29-1.972-.058-4.405 0-6.203h1.101c.58 0 1.276.115 1.276.754l.058-.059c-.058-.406.116-1.044-.116-1.101m27.831.231c.638-.057.928.639 1.102 1.044.927-2.029-2.088-1.391-2.783-.754-1.508 2.553 2.436 2.957 2.319 5.276-.348.754-1.16 1.16-1.914.87-.579-.232-.812-.87-.869-1.334v1.392c.522.29 1.275.349 1.913.232.58-.174 1.044-.522 1.334-1.044.927-2.377-2.32-2.84-2.494-4.813 0-.694.812-.869 1.392-.869m-52.078 6.545q.108.018.244.007zm-1.689-.046-.213-.006c.077.03.148.028.213.006m10.63-1.048h-.174v.29c-.29.695-1.16.637-1.854.637-.986-.637-.406-2.203-.465-3.246h1.275c.522-.116.58.638.696.638l.174-1.16c-.638.348-1.565.174-2.261.116.058-.869-.116-1.855.174-2.609.521 0 1.159-.058 1.681.058.232.175.29.406.232.696.348-.057.174-.87.231-1.102l-3.5.107c.167.022.312.105.428.298v5.567c-.05.293-.102.749-.431.814.818.008 1.721.056 2.575.056.929.347 1.277-.407 1.219-1.16"/><path fill="#57068c" d="m69.494 127.849-.208-.003a.5.5 0 0 0 .208.003m-.266-6.67.269-.01a.8.8 0 0 0-.269.01m12.582 5.566h-.059c-.115.058-.058.231-.058.347-.29.813-1.218.465-1.854.58-.986-.869-.29-2.145-.349-3.246h1.392c.231.174.464.405.464.695 0-.405.231-.87.058-1.218-.58.406-1.391.233-2.029.116l.116-2.609h.232c.694.232 1.797-.29 1.854.754l.059-1.102-3.77.058.696.348.058 4.523c-.174.521.232 1.739-.638 1.855h3.711zm42.731-4.522v-1.103c-1.797.059-3.769.174-5.508-.058-.29.29-.29.755-.231 1.102.115-.116.29-.347.405-.58.522-.174 1.508-.174 2.146 0l-.059 5.219c-.1.352.058.96-.347 1.044h1.507a.47.47 0 0 1-.348-.349c-.058-1.971-.174-4.116.058-6.029.985.058 2.029-.232 2.377.754m-1.565 5.624h-.522c.16.043.347.028.522 0m-2.029 0h-.232a.7.7 0 0 0 .232 0m-25.744 0h-.299c.092.014.19.021.299 0m2.087-5.568c-.695-1.739-2.957-.986-4.405-1.16l.637.348v5.973c-.034.141-.113.322-.246.406h1.629c-.155-.025-.288-.08-.396-.116-.232-1.972-.175-4.29-.059-6.32h1.103c.694.348 1.274 1.16 1.043 2.146-.29.694-1.102 1.274-1.798 1.217.696.174 1.218-.174 1.798-.464.636-.522.752-1.218.694-2.03m-4.015 5.568h-.333c.137.067.246.054.333 0m45.703.057c1.334-.059 2.203.23 3.711 0l.058-1.16-.058.406c-.348.811-1.393.521-2.088.521-.463-.927-.289-2.261-.116-3.246.58 0 1.102.059 1.566.232.231.115.174.463.348.463-.058-.405.174-.695.116-1.159-.639.349-1.508.174-2.146.116v-1.971c-.058-.29-.058-.813.405-.639.638.059 1.798-.231 1.74.754 0-.348.174-.754.116-1.102-1.219.116-2.552.058-3.827.058l.638.232c.232 1.913.116 4.058.058 6.03.059.407-.58.407-.521.465m-83.491 10.611c-.348-.116-.87-.059-.986-.522l-.694-6.262-.233-.174c-.869 1.914-1.797 3.886-2.84 5.682-1.044-1.855-1.798-3.884-2.899-5.682l-.928 6.726-.58.232c.639-.059 1.276.174 1.914 0l-.638-.232c.058-1.449.173-3.189.406-4.696 1.101 1.566 1.448 3.536 2.667 4.929.984-1.623 1.564-3.652 2.551-5.044.231 1.622.464 3.362.347 5.044.753.115 1.507.115 1.913-.001m14.263-6.958c-1.218.058-2.377.638-2.957 1.797-.521 1.044-.464 2.436-.058 3.479 1.102 1.856 3.073 2.087 5.16 1.798.812-.058.696-1.102.696-1.682l-.406.928c-.696.639-1.855.522-2.667.349-1.044-.465-2.146-1.45-2.319-2.667-.058-1.219.059-2.436.986-3.189.811-.521 1.971-.695 3.015-.406.695.175 1.333.813 1.333 1.623.116-.579-.058-1.217.116-1.738-.986-.235-1.971-.235-2.899-.292m6.726.869c.696-.521 1.564-.579 2.493-.521.928.116 1.798.696 1.798 1.682.173-.58 0-1.218.173-1.739-1.855-.232-3.42-.58-5.044.521-.813.754-1.159 1.739-1.217 2.841.115 1.044.463 2.029 1.217 2.726 1.102.812 2.667.812 3.943.754 1.158.29.869-1.16 1.043-1.74-.115.464-.348.813-.638 1.16-.58.464-1.565.232-2.319.174-1.043-.348-2.319-1.45-2.377-2.783-.174-1.104 0-2.32.928-3.075m12.059 6.204c.522-.29.639-.985.696-1.565-.348-.116-.232.231-.29.406-.174.754-.986.869-1.682.869-1.333.116-2.319-.58-3.073-1.508-.405-.928-.695-2.203-.289-3.247.289-.695.869-1.391 1.623-1.564 1.044-.232 2.377-.232 3.188.58.232.289.116.812.349.984l.058-1.738a8 8 0 0 0-4.059 0c-.985.348-1.797 1.391-2.029 2.318-.116.87-.174 2.029.348 2.783.985 1.913 3.479 1.856 5.16 1.682m6.726 0h1.797c-1.449-.58-1.913-2.436-2.783-3.769l1.914-2.899.579-.231c-.579.058-1.159-.116-1.797 0 .174.174.464 0 .521.29-.464.927-.812 1.738-1.565 2.377a11 11 0 0 1-1.218-2.493l.406-.174-2.146-.059c1.218.465 1.739 2.262 2.494 3.363-.87 1.276-1.334 2.899-2.783 3.595.637 0 1.333.058 1.854-.059-.174.059-.231-.115-.348-.115.174-1.044 1.044-2.03 1.565-2.958.582 1.044 1.452 1.914 1.51 3.132m7.422 0h1.739c-1.275-.58-1.913-2.493-2.783-3.826.87-.986 1.275-2.552 2.608-3.073h-1.797l.464.231c-.348.928-.928 1.623-1.449 2.493-.579-.87-1.159-1.508-1.333-2.551l.405-.174-2.203-.059c1.275.522 1.798 2.262 2.552 3.421-.929 1.102-1.393 3.016-2.842 3.537h1.855v-.059c-.116.059-.232-.115-.348-.115a8.9 8.9 0 0 1 1.624-2.899c.522 1.046 1.45 2.146 1.508 3.074m5.138-6.902c.064.002.135-.002.195.003a.4.4 0 0 0-.195-.003"/><path fill="#57068c" d="M110.104 138.63h1.797c-1.507-.638-1.913-2.552-2.783-3.826.87-.929 1.218-2.609 2.551-3.073-.578.058-1.217-.116-1.854 0l.464.231c-.232.928-.928 1.855-1.508 2.436l-1.102-1.972c-.294-.195-.171-.636.152-.699-.668-.02-1.484.104-2.064-.055v.175h.347c1.102.811 1.565 2.202 2.262 3.246-1.044 1.219-1.392 2.957-2.898 3.537.404.058 1.333 0 1.912 0l-.405-.348c.405-.928.985-1.971 1.624-2.726.635.986 1.331 1.972 1.505 3.074m3.711 0c.521-.059 1.739.174 2.319-.059-.349 0-.639 0-.813-.289a53 53 0 0 1 0-6.03c-.115-.405.348-.405.58-.521l-1.971-.059v.175h.231c.639.868.232 2.377.349 3.305-.347.926.523 2.956-.695 3.478M61.458 27.251c-1.739.579-3.247-.812-4.813-1.45.231-.811.464-1.854.058-2.667-1.391-2.145-3.768-.058-5.275.639l.638-.116c.87.986 1.333 2.377 2.029 3.537.231 1.101 1.508 2.261.754 3.363.695-.465 1.564-.754 2.145-1.219-1.507.639-1.449-1.564-2.145-2.377.29-.348.754-.464 1.159-.58 1.682.58 3.653 2.667 5.45.87m-6.841-.812-1.449-3.073c.231-.29.638-.522 1.043-.638.87-.173 1.509.464 1.855 1.102.232.638.58 1.623-.058 2.087-.464.174-.869.522-1.391.522m-2.956 2.03c-.695-1.565-2.146-2.552-3.942-2.378-1.508.175-2.957 1.276-3.537 2.726-.232 1.102-.232 2.493.405 3.479.639.87 1.624 1.566 2.667 1.797 1.74.232 3.132-.694 4.176-1.912.637-1.161.694-2.494.231-3.712m-.812 3.826c-.522.754-1.449.986-2.319 1.16-1.276-.058-2.319-.754-3.073-1.74-.521-.928-1.044-2.028-.638-3.188.348-1.043 1.45-1.507 2.377-1.797 1.739-.232 3.073 1.159 3.77 2.551.347.927.463 2.144-.117 3.014M76.591 7.77c.521-1.333.928-2.726 1.565-4h.174c.232.869.58 1.971 1.623 2.261C81.578 3.77 83.143.059 86.448 0c-.58.929-.812 2.319-.348 3.421 2.145 3.132 6.609 4.464 7.132 8.466.463 2.492.058 5.102-1.798 6.667-1.972.464-4.754.522-5.16 3.016-.348.927.521 1.391.87 2.087 1.623 3.305 2.667 7.305 1.797 11.306-.464 1.16-.406 2.726-.29 3.885-.232 3.247.058 6.609.29 9.856-.522 1.972.29 3.77.116 5.74.754.812.464 1.972 1.102 2.783 1.623 2.377 2.261 5.16 3.652 7.596.174 2.841.116 6.029-1.275 8.465-.116.116-.231.116-.348.232.058-1.566-.058-3.131.058-4.64-.115-.115-.29-.464-.464-.231-.406.406.059 1.392-.812 1.45l-.579-.116c.116-1.276 1.507-2.667.404-3.827-.694.812-1.217 2.551-2.725 2.261-.347-.753.232-1.623.464-2.435.58-1.333 1.218-2.667 1.74-4.059-.116-.231-.116-.464-.348-.638-1.334 1.333-1.044 3.769-2.899 4.813l-.754.231-.058-1.218c1.334-1.507 1.912-3.479 2.202-5.508-.348-2.957-1.101-6.087-.405-9.104.058-3.13.174-6.318-1.449-8.638.348-1.392 2.261-2.61 1.044-4.233-.754-.405-.29-1.334-.406-2.028 1.392-.986.695-2.899 1.102-4.291l-.059-2.146c-.579-2.203-1.217-4.465-2.783-6.146-.29-.059-.464.29-.521.464-.231.986.521 1.681.464 2.667-.406 3.247-1.564 7.188 1.044 9.798 0 .58-.58.638-.986.465-.231-.754-.694.115-1.101 0-.638.059-1.334-.58-1.855 0-1.044 5.333-.349 11.479-2.203 16.524-.522 2.145-1.044 4.29-.929 6.667-.174.116-.463.058-.694.058-.87-1.101 0-2.551.231-3.768 2.377-5.856 2.609-12.931 2.493-19.599-.812-1.448-2.204-2.667-1.798-4.638-1.391-.522-.695-2.261-1.681-3.015-.406-1.044 1.044-1.913.348-2.842-.116-.812.116-1.738.927-1.797-.173-.754.116-1.855 1.103-1.798.174.116.521-.058.695.116l.232-.232c-.174-1.101-.58-2.202-1.624-2.841-2.029-.231-4.348-.811-5.16-3.071-1.217-3.361-.116-5.912 2.145-8.405m8.234-5.741c-1.855.87-2.609 2.783-3.363 4.407-.464 1.797-2.551 1.159-3.595 2.028-1.275 2.029-2.841 4.35-2.029 6.9.521.464.985 1.275 1.682 1.391.29-.695-.87-1.448-.349-2.318.116.058.232-.059.29.116-.174 1.334 1.509 1.275 1.913 2.087 0-.753-.347-1.333-.347-2.029.173-.174.289-.696.579-.406.058.813 1.16 1.103 1.392 1.797 1.275-1.681-.405-3.304-.58-4.928-.058-1.218.87-2.087 1.623-2.899q.174 0 .349.175c-.753 1.334.405 2.551.405 3.885.929-.58.696-1.624 1.334-2.319.116-.695.29-1.508.406-2.204.463.754.812 1.566 1.102 2.378.058 1.623-.58 4 1.159 5.044.522.521 1.159-.058 1.739-.174 1.218-.985 2.088-2.318 1.74-4.001-.406-3.247-4.233-2.841-5.798-5.218-.29-1.335-.059-2.552.348-3.712m6.55 9.509-.174.116c.349 1.913-.869 3.363-2.203 4.406l.58.754c.58.231 1.103-.29 1.565-.696.697-1.39.929-3.13.232-4.58m-9.971 5.45c-.348.058-.87.232-.812.754.231.058.29.406.638.348a22.4 22.4 0 0 1 5.565 0c.175-.174.522-.231.465-.58-1.624-.928-3.885-.579-5.856-.522m2.145 1.856c-.349.058-.755.232-.929.638.349 1.334-.405 3.363 1.45 3.885.174.116-.058.638.348.464.232-.464-.231-.985.465-1.16V19.54c-.175-.522-.696-.811-1.334-.696m-2.435 4.116c-.348 0-.638.175-.87.406-.406 1.45 1.393.754 1.855 1.739.406.29 1.275.521 1.392-.059-.348-1.042-1.276-1.97-2.377-2.086m-1.74 1.797c-.404.117-.347.58-.347.929.637 1.392 2.319 1.508 3.594 1.971.464-.231.174-.811.232-1.217-1.159-.523-2.145-1.508-3.479-1.683m-.347 2.783c-.348 0-.406.406-.406.696.812 1.218 2.319 1.624 3.769 1.798.464-.174.58-.696.231-1.044-1.333-.174-2.319-1.101-3.594-1.45m.521 2.204-.059.348c.174.522.754.812 1.16 1.043.521.232 1.391.29 1.681-.348l-.231-.173c-1.043.173-1.565-.986-2.551-.87m4.117 1.856c-.29 1.16-.405 2.551.059 3.711.116.231.464.464.638.058-.175-1.277.636-3.189-.697-3.769m-3.131.463-.231.231c-.232.58.115 1.102.348 1.623.348.639 1.044 1.276 1.739 1.276l.116-1.392c.637-1.738-1.16-1.274-1.972-1.738m54.443 4.812.348.753c-1.564 1.509-3.305 3.247-5.16 4.581l-.695-.115 1.681 1.738c-.985-1.333 1.218-2.028 1.798-2.783 1.739 1.16-.058 3.073.232 4.755.174.695.811 1.334 1.391 1.682-1.333-1.392-.116-3.421 0-5.044 1.103-.059 2.261-.116 2.841-1.044.927-2.03-1.392-3.248-2.436-4.523m.29 5.103c-.87.348-1.449-.464-1.797-1.044l-.059-.174 2.493-2.378c.522.349.985.986.985 1.682-.057.87-.868 1.624-1.622 1.914m-89.811 80.128c.059-.754.813-.928 1.449-.928.522.059 1.103.464 1.044 1.044.116-.349.059-.813.059-1.16-.87-.232-2.088-.349-2.783.406-1.45 2.261 1.854 3.015 2.318 4.812.059.58-.29 1.045-.753 1.276-.58.29-1.392.174-1.855-.465-.059-.231-.059-.695-.232-.754l-.116 1.393c-1.681-.115-2.377-1.913-3.305-3.073.696-.638 1.276-1.508 1.044-2.493-.812-1.855-3.015-.87-4.58-1.102.29.058.638.116.812.406l-.059 5.682c-.049.248-.184.576-.474.633.707-.019 1.456.167 2.156.005l-.813-.231a6.9 6.9 0 0 1 0-2.667c1.972-.349 2.087 2.028 3.479 2.841 1.738 0 3.247.638 4.754-.29 1.971-2.378-1.739-3.304-2.145-5.335m-5.972 2.435c-.232-.928-.232-2.435 0-3.247.58 0 1.218 0 1.566.464.521.58.521 1.565.289 2.262-.289.753-1.217.58-1.855.521m26.265.232c.58-.696 1.219-1.334 1.044-2.319-.58-2.03-3.015-1.102-4.521-1.334l.637.174c.232 1.973.174 4.175.059 6.088 0 .13-.126.351-.31.412l1.689.046c-1.014-.149-.511-1.97-.511-2.835 2.029-.464 1.972 1.855 3.363 2.726.638.231 1.623.116 1.913.058-1.623-.059-2.435-1.855-3.363-3.016m-1.797-.173c-.231-.929-.058-2.146 0-3.189.754-.116 1.507 0 1.855.754.174.639.348 1.623-.116 2.146-.405.462-1.159.346-1.739.289m73.403 2.782c-.638-1.044-3.247-2.377-1.276-3.535.29-.696.522-1.683-.174-2.263-1.101-.754-2.783-.29-4.116-.405.174.115.579 0 .695.349.29 2.029 0 3.768 0 5.913 0 .406-.579.406-.579.464.637-.058 1.507.232 2.261 0-.29-.116-.695.058-.869-.348v-2.493c1.971-.696 2.145 2.087 3.479 2.725.754.116 1.449.349 1.913.059-.581.173-.928-.233-1.334-.466m-3.943-2.782.059-3.132c.812-.174 1.623.175 1.913.813.231.638.231 1.507-.116 2.087-.406.579-1.334.348-1.856.232m-21.047 2.492c-.348.928-1.275.579-2.029.579-.464-.811-.231-1.971-.174-2.898h1.159c.348.058.638.406.696.638l.174-1.16c-.464.465-1.45.232-2.087.175v-2.436c-.058-.232-.058-.753.406-.58.579.174 1.738-.173 1.681.813l.116-1.043-2.899-.059-4.291 6.319-.405.231c-.985-.811-1.739-1.797-2.493-2.898.695-.638 1.275-1.392 1.102-2.436-.638-1.854-3.015-1.044-4.521-1.217.058.059.521.059.694.406v5.565c-.058.289-.116.813-.521.754l2.145.059-.754-.233c-.231-1.101-.231-1.681 0-2.666.406.058.87-.116 1.218.115.812.928 1.275 2.087 2.377 2.726l2.726.059-.696-.233c-.058-.231 0-.405.058-.579.87-1.102 1.219-3.131 3.247-2.203-.174.985.522 2.608-.58 2.957l3.479.174c.406-.232.29-.928.348-1.275-.176.114-.176.231-.176.346m-12.002-2.493v-3.132c.696-.23 1.566.06 1.913.696.348.523.232 1.393.058 1.914-.347.812-1.275.695-1.971.522m8.871-.174h-1.449l1.449-2.262zm-48.529 2.783c-.87-2.087-1.624-4.29-2.608-6.261l-1.798 4.812c-.464.754-.521 2.029-1.508 2.088.639 0 1.449.059 1.972-.059h-.349c-.348-.87.406-1.739.58-2.551.696 0 1.449-.058 2.087.058.349.813.87 1.74.754 2.552.639 0 1.334.059 1.798-.059-.407.059-.755-.173-.928-.58m-3.479-2.435.812-2.319c.232.754.638 1.507.753 2.319zm73.924 3.132-.753-.233-2.783-6.609-2.667 6.609-.754.233c.58 0 1.449.057 2.029-.059-.116 0-.349.059-.406-.059-.29-.87.464-1.681.696-2.493.695 0 1.392-.058 2.087.059l.812 2.435-.116.117zm-4.523-2.958.87-2.435.812 2.435zm-62.733 8.349c-1.334-2.261-4.117-1.564-6.437-1.681l-.058.116c.29 0 .521.058.696.29-.059 2.087.115 4.291-.116 6.261l-.522.29c2.146-.058 5.393.696 6.494-1.855.407-1.102.465-2.435-.057-3.421m-.522 2.146c.059 1.101-.521 2.203-1.507 2.667-.812.231-1.855.463-2.668.057l-.23-.404v-5.566c.984-.522 2.261-.058 3.188.405.695.753 1.449 1.624 1.217 2.841"/><path fill="#57068c" d="m145.356 112.598-3.77-.116c.755-1.74-1.158-2.204-1.912-3.189-.406-.521.058-1.101.115-1.565-.638-.579.175-1.275-.754-1.797V81.867c1.218.29.464-1.159.696-1.739.232-1.16-1.16-.348-1.681-.695-.059-.58.115-1.333-.116-1.798-1.856.522.231-2.551-1.856-1.913v-1.739l-.927-.116c-.29-.928.579-2.493-.812-2.841-1.16-.116-2.378-.232-3.016.87v1.971c-1.044 0-.406 1.276-.58 1.855-1.507-.521-.754 1.275-1.043 1.913h-.812c-.464.522-.116 1.333-.29 1.913-.349.059-.813-.058-1.044.175 0 .638-.059 1.392.058 2.028.232 0 .464-.058.638.174v23.83l-.985.929v2.318l-2.146 1.855v1.508h-16.756l-1.624-1.275c-2.841-4.001.406-8.64 1.508-12.582.175-1.102 1.449-1.798 1.218-3.015-.464-3.247-1.565-6.262-3.421-8.987 1.044-.869 2.029-2.088 3.247-2.782 1.913-2.783 4.639-4.176 6.436-7.017 2.551 1.276 5.508.58 8.349.349l.464-.639c2.377-1.738 4.233-4.638 6.146-7.073.406-.638.986-1.218 1.682-1.739.231-.29 0-1.043.463-1.275l-.289-.116.405-1.159c-.579.058 0-.696-.174-1.045l-.174.116c-.405-1.101-1.159-2.145-1.913-2.898-.406.115-.638-.463-1.043-.521 0 .116 0 .173-.059.231-1.159-.521-.464 1.044-.695 1.334.115.58-.059 1.218.695 1.45l-.174.114c.695.58.753 1.16.928 1.798-.116.465-.58.58-.928.349-.754.058-1.16.406-1.45 1.043-.29.116-.405-.232-.579-.347-.928.23.231-.986-.812-.929l-.58-3.073c-.348-.289-.754-1.334-1.102-.579-.29.348-.059.812 0 1.102-.639-.116-.349.985-.87.869.406.928 0 1.682.58 2.494-.116.058-.174.289-.349.23.465.87.813 1.16 1.624 1.566-.115.116-.231.29-.348.29.464.29 1.102.231 1.507.58l-.116.174c.232.23.696-.116.754.289-1.507 1.334-3.305 1.855-4.695 3.247-2.261.695-4.581-.232-6.61-.812-.464-.231-1.159.463-1.333-.29 0-1.392 1.797-.115 2.377-1.102.349-.58.58-1.449.406-2.146-.116-.29.116-.695.463-.754-.347-1.102-1.391-2.028-1.101-3.479-.639-1.507-2.436-1.623-3.943-1.623-1.681.29-3.305 1.333-3.653 3.073-.289 1.681 1.044 2.725.754 4.29-.231.521-.812.521-1.391.521-3.363-1.971-5.334 2.087-7.886 3.247-.695.928-2.493 1.739-1.682 3.247.465 1.565 2.262 1.102 3.537 1.333-.812 1.682-2.318 2.957-3.769 4.233-1.507 1.275-.29 3.826-2.436 4.695-1.738.349-2.957 2.204-4.465 3.073-1.333-2.377-3.941-3.073-6.318-3.71-1.566-.696-2.494-2.841-4.35-3.015-1.101.811-1.101 2.145-1.854 3.072-.87.463-1.508 1.393-2.088 2.146-.289.754-.579 1.797-.231 2.551-.116.116-.29.29-.464.116-1.218-1.797-2.493-3.71-4.175-5.218.812-.639 1.45-1.566 1.682-2.493 2.029-.986 1.913-3.247 3.536-4.465 1.682-.522 2.783.985 4.175 1.392 1.623.753 3.943.811 5.393-.348-.059-1.276-.696-2.319-1.045-3.479-.984-1.275-2.608-1.971-3.072-3.537-.521-1.274-1.972-1.448-2.726-2.318.813-.406 2.088.29 2.61-.754-.348-.696.579-.812.231-1.508 0-.29.29-.464.579-.348.349-.696 0-1.392-.348-1.971.754-.986-.29-1.683.059-2.841-.638-.986-1.623-1.219-2.726-1.683-1.913-.638-3.131.638-4.406 1.683-.695 1.333-.29 3.245.175 4.579-.175 1.044-1.16 1.682-2.089 1.855-2.087-.579-4.521-.579-5.971 1.392-1.508 1.797-4.407 2.957-4.059 5.566.464 1.159 1.738 1.044 2.725 1.217.58 4.06-5.45 5.045-4.233 9.104-.174.405-.578.465-.927.695-.58-.638-.754-1.623-.812-2.551.058-4.175-1.913-8.407-.464-12.408a13.8 13.8 0 0 0 3.015-3.072c1.334-.059 2.203-1.102 3.363-1.508.812-.695 0-1.912 1.044-2.377-.174-1.159-1.566-.405-2.378-.638-1.275.174-2.146 1.103-2.899 2.087l-.405-.29c-.174-.464-.058-1.043.232-1.449-.174-.521.173-1.218-.522-1.508.175-1.274-.928-2.028-1.102-3.131-.638-.695-1.681-.695-2.435-.579-1.392.405-2.899.521-3.827 1.739-1.333 1.739-.059 3.711.695 5.276-.638.928-1.275 1.682-2.261 2.087-.754.174-1.275-.175-1.854-.464-.813-.695-2.784.059-2.61-1.449l1.856-.406c.812-.406.348-1.623.694-2.377.986-.58-.463-1.103-.579-1.797.175-.696-.174-1.393-.695-1.856-.059-.521-.755-.927-1.276-1.217-1.681-.696-3.594-.058-4.986.812-1.043.754-.58 2.146-.695 3.305.115.87 1.102 1.45.985 2.435 0 .87-.464 1.566-1.218 2.088-1.681.116-4 .29-4.638 2.262 0 2.492-2.609 3.885-2.436 6.319.29 1.797 2.436.639 3.247 1.565.059.464 0 .928-.231 1.334-1.913 2.145-3.421 4.521-2.899 7.711l-1.798 2.609c-.463.521-.115 1.565-.812 1.739-.985-.464-1.913-1.218-3.015-1.449-.986.406-1.508 1.565-1.45 2.667-.579.928-1.391 1.798-2.551 1.739-1.565 1.333-3.826 1.508-5.798 1.449-1.044.29-1.507 1.276-1.391 2.378.347 2.203-1.74 3.479-1.276 5.623.464.813 1.276.986 1.971 1.276.29-.059.638-.174.754-.521-.058-2.146.928-4.117 2.841-5.276 3.943-.406 8.059-.29 11.712-1.16l2.145-2.087 2.725.695-.694 1.275c.058 1.392-.232 2.899.58 3.944 1.274.057 1.449-1.394 1.913-2.32.29-.813 1.158-1.798 2.028-1.739.464.115.639.637.754 1.043-.58 3.247.985 6.958-.521 9.974-.29.637-.116 1.681.348 2.087H24.41c-1.16-.059-2.145.231-3.015.928-.464 1.564-1.45 2.898-1.276 4.638.464.639 1.102 1.334 1.972 1.392l123.208.058 2.551-2.609c.289-1.679-1.74-2.49-2.494-3.823m-14.901-50.56c.349.29.406.754.406 1.16-.174-.174-.58-.696-.406-1.16m-.116-.638v.231l-.638-.579c.232-.058.464.175.638.348m-.522 1.392c-.115.059-.521-.231-.347-.405.115.115.521.115.347.405m.174 1.217.754.58c-.464.465-.696-.405-.754-.58m-4.812-1.855c0 .29.29.638 0 .87-.232-.116-.232-.637 0-.87m-.696 2.667c-.232-.174-.232-.754 0-1.044-.116.407.522.812 0 1.044m.696 1.741c-.349-.116-.58-.58-.58-.986.521 0 .406.58.695.87zm.058-1.161c-.231-.116-.521-.638-.174-.928.058.291.406.638.174.928m.347-2.55c.349.174.232.638.349.927-.349-.001-.522-.58-.349-.927m.407 2.377c-.406.058-.231-.406-.231-.696.231-.116.29.232.348.348-.059.115.057.289-.117.348m13.567 48.586c1.508-.522 3.421-.232 5.102-.232l-.231.407c-1.565.115-3.305.173-4.87-.059v-.116zm-6.784-42.092h.29v.811l.928.058v.986h-1.854c.057-.755-.233-1.391.636-1.855m-1.623 2.957h3.652v.812h-3.652zm-.696 1.622h5.219v.986h-5.219zm-1.101 1.74h6.609v1.16h-6.609zm-1.044 1.855h8.349v1.159h-8.349zm6.378 8.987h.695v16.641h-.695zm-.696-4.986v21.626h-.58V83.375c.29-.348.812.059.58.522m-3.479-.638c.405-.115.348.406.348.639v6.783l.986.116c.174-2.493-.059-5.103.231-7.538.406-.115.349.406.349.639v21.626h-3.132V83.317c.059-.059.175-.232.29-.059l.059 6.726c.173.174.463.058.695.116.174-2.261-.058-4.638.174-6.841m-2.145 23.598h8.35c.231.174.695.406.638.811.116.406-.406.58-.58.87l-8.523-.174c-.29-.232-.115-.696-.174-1.043.289 0 .172-.347.289-.464m0 2.494h8.407c.348 1.101 1.855 1.681 1.508 3.072h-12.35c-.522-1.682 1.623-2.146 2.435-3.072m-20.003 4.173v-.115h16.756l.813.405-.059.116-58.237.054c-1.73.037-3.495.005-5.192.005l5.192-.005a48 48 0 0 0 1.532-.054 48 48 0 0 0-1.713-.06c-1.632.034-3.279.001-4.896.001 1.624 0 3.279-.03 4.896-.001q.803-.014 1.598-.057c-2.087-.174-4.406.058-6.436-.232v-.173c3.131-.29 6.667-.117 10.03-.175.116.465.58.058.754.348 0 .232-.29.117-.29.349h3.595l.349-.406 7.188-.115h20.699l.116.173c1.102 0 2.261.059 3.305-.058M47.543 87.085l-1.798-2.725c.696-1.217 1.044-2.551 1.856-3.769.521-1.392.928-2.898 1.507-4.291.232-.058.232.175.29.29-.696 2.088-.406 4.813 0 6.958-1.1.755-2.086 1.914-1.855 3.537m2.61-2.782c1.624.115 2.841 1.159 4.117 1.972.579.927-.174 1.624.348 2.551.579.928 1.507.174 2.436.406.753.638 1.854 1.217 2.318 1.971l-1.218.87c-1.449-.58-3.131-.58-4.87-.522 0-.521-.406-.058-.58-.348-1.507-.812-3.652-1.333-4.174-3.188.173-1.334.521-2.785 1.623-3.712m.232-9.16.58-1.16c.637.928 3.246.116 2.318 1.854-.928 1.276.638 3.886-1.564 4.407-.176.464-.696.754-.754 1.217 1.564.406 3.362 1.508 3.941 3.189.754.521 1.45.986 1.972 1.682-.579.639.58 2.203-.985 2.029-1.334-.928.116-3.189-1.797-3.711-1.566-.637-3.596-.869-4.291-2.667-.754-2.493 1.45-4.463.58-6.84m8.755 5.101c-.464-.58 0-1.276.174-1.855.116-.116.29-.695.521-.289-.231.753.29 1.913-.695 2.144m.232-4.581c-.231.059-.348.406-.638.29-.29-.231-.348-.521-.754-.231-.405.812-.521 1.798-1.449 2.203-.812 1.102.812.521 1.159.928.29 1.218-.405 2.262-1.043 3.131.231.58 0 1.275-.232 1.855-1.334-.58-2.203-1.682-3.188-2.782.464-1.334.87-2.784.87-4.176.58-.464 1.101-1.044 1.159-1.738 1.334-.232 2.841-.059 3.942-.696.29.289.116.811.174 1.216m-.058 11.133c-.29.521-.696 1.159-1.16 1.393-.174-1.566-1.623-3.422-.406-4.871.753 1.042 2.204 2.029 1.566 3.478m-8.175 4.929-1.103.464c-.406-.406-.58-1.044-.638-1.566zm4.058 19.365c.696-.175.986.521 1.218.985-2.145-.174-4.638.522-6.146-1.218-.986-1.392-2.667-2.666-1.682-4.696 1.102-2.898 1.449-6.204 2.146-9.219 2.493-.29 4.986-.58 7.421-.232-1.159 1.334-2.087 2.784-2.493 4.407l-.116 4.87c-.116 1.74-2.551 3.827-.348 5.103m.29-.928-.231-.348c.579-1.276.464-2.841 1.449-3.942.232-2.898-.464-6.146 1.972-8.292.579-.116 1.334-.174 1.044-1.102.694.117 1.158-.406 1.738-.639.58 1.276-.985 1.624-1.333 2.494-.174 2.146-1.275 3.942-1.855 5.856.058 1.449 0 3.073-1.275 4.001.174 1.449 2.029 2.029 2.203 3.536.348.174.348.464.464.754-.464.231-.928-.464-1.392-.696-.929-.52-1.856-1.274-2.784-1.622m3.305-2.261c1.276-4.001 2.726-7.944 4.406-11.771l.058-1.391c1.566-.87 3.132-1.798 4.581-3.015 1.449 1.507 3.247 2.377 4.87 3.595-4.058 2.551-.928 8.755-4 12.059-.695.523-1.044 1.219-.812 2.03.638 1.623 2.319 1.739 3.479 2.609l-9.74-.116c-1.277-.927-2.726-2.319-2.842-4m56.415-43.37c.348 0 .638.174.869.406 0 .754-.116 1.508.349 2.028.115.29.754-.058.521.522-.87.406-.058 1.102-.406 1.798.175.347.522.637.29 1.043-.87.059-1.854-.058-2.435-.696-.174-.057-.406.059-.464-.173.058-.348.464-.638 0-.928-.406-.174-1.16-.232-.87-.928 1.275.29.406-1.159.754-1.682.29-.52.811-1.1 1.392-1.39M100.19 77.229c-.638-.464 0-1.044 0-1.566.58-.927 1.043 0 1.739.059h3.479c.928-.985 2.436-1.102 3.827-1.043-.58.464.347 1.507-.522 1.681-1.739-.58-3.362.174-4.986.406-.928.695-2.436 1.159-3.537.463m1.217 4.696c.29-.464 1.624.29 1.16-.811 1.507-.87.638-3.073 2.551-3.653 1.044-.174 2.203-1.16 3.131-.174.929.116 1.972-.058 2.203-1.044.174-.985-.231-1.913-.928-2.667-.637 0-1.681-.406-2.029.406-.638-.059-.927-.464-1.564-.116-.87 1.45-2.783.406-3.943.638.058-.638.87-.231 1.16-.638 1.274-.928 2.029-3.363 3.942-2.783.869-.29 2.029 0 2.782.58.232-.348.754-.174.813-.638.058-1.16 1.913-1.507 1.16-3.016-.406-.638-1.276.232-1.393-.754 0-1.391.929-2.377 1.624-3.479.637-.289 1.392-.347 2.087-.231-.29.869-1.624 1.159-1.739 2.087-.579.639.348 1.565-.348 2.262.232.695 1.159 1.334 1.623 1.797-.231.348.232.928-.116 1.334.059.231.175.406.116.696-.58.464-.87 1.101-1.391 1.738.404.696.753-.348 1.333.059.29.29.464.58.812.464.696-.522 1.739-.928 2.667-.696 1.043.348 1.682 1.393 3.131.986.869-.29 2.262-.639 3.073 0 1.275-1.566 3.363-2.667 5.044-3.943 1.103-.869-.464-2.898 1.276-3.131.23 1.102-.464 1.508-.232 2.725-.985 1.393-2.725 2.32-3.131 4.001-.812.87-1.914 1.334-2.609 2.088-2.378.464-5.623 1.392-7.596-.465-.984-.347-1.043.58-1.739.754-.695.696-1.392 2.029-2.492 1.74-.116.463-.522-.058-.58.405h-.58c-.174.29.29.464.348.696-1.392.928-1.854 3.595-3.942 3.131-.579.754-1.449 1.275-1.159 2.377-.522.174-.464-.695-.696-1.043.058-.406-.116-.928-.464-.986-.522.29-.349 1.276-.406 1.971-1.681 1.973.928 3.712 1.566 5.509 1.448 1.218 1.971 2.957 2.203 4.639.464-.058.812.58.579 1.043-.695.986-1.392 1.972-2.377 2.552-.812 1.972-2.262 3.942-1.449 6.262l-.465 4.522c.87 1.103.349 3.015 1.74 3.595-2.088.059-3.131-2.319-4.581-3.479.059-.463.406-.638.696-.87.232-2.146 1.681-4.116.87-6.378.29-1.971.464-4.29 2.667-5.16.174-1.681-1.74-2.319-2.436-3.71-.464-1.276-1.449-2.378-1.739-3.711-.929-1.217-2.726-2.204-2.667-3.711.173-1.451 1.101-2.841 2.434-3.77m-22.264 6.61 1.391-.986c0-1.043.406-2.028 1.103-2.782 1.449.115 2.028 1.855 3.305 2.318.87.349 1.449 1.624 2.551 1.276 1.682.058 2.726 1.16 3.827 2.436.174.638-.348.812-.348 1.275 1.102.638 1.044-.928 1.913-1.102 1.739-1.218 3.421-2.899 5.624-3.132.579.64 1.218.87 1.682 1.45-2.03 3.247-5.45 4.349-8.639 5.508-1.219-.521-1.799-2.087-2.783-3.072-1.914-1.683-4.117-3.132-6.263-4.06-1.275.986-3.131.986-4.175 2.436h-.174c-.29-.811.927-.811.986-1.565m3.652.174c2.667 1.913 5.566 3.77 7.306 6.727.521.753 1.682.404 2.377.29 3.073-1.044 6.204-1.856 8.697-4.233 1.102 1.449 1.855 3.305 3.421 4.523-2.377 2.55-2.783 6.145-2.493 9.624.174 1.738-2.146 2.552-1.565 4.175 1.159.406 1.507 1.913 2.726 2.261H75.78c-1.564-.87-2.551-2.551-2.899-4.174.58-4.349 2.957-8.002 5.103-11.713 1.044-1.392-.521-2.609-.695-3.942 2.028-1.102 3.188-3.189 5.506-3.538M81.23 63.198c-.174.753-1.102.637-1.333 1.391-.522.87-1.566-.58-1.392.87l.348.29-.986.58c-.927-.521.464-1.218-.579-1.798.811-1.159 2.609-2.087 3.942-1.333M67.315 76.997c-.522.059-1.333.464-1.681-.058.29-.87.463-1.797 1.158-2.377 2.436 1.101 5.276.812 7.248-1.103.349 0 .58.349.753.639-.23.521.175 1.333-.347 1.738-.812-.405-1.566-.29-2.378 0-1.39.64-3.014 1.974-4.753 1.161m.58 3.885.348-2.493c2.377.058 4.059-2.957 6.378-1.508.579-.464 1.217-.695 1.449-1.507.058-.928-.058-2.088-.986-2.609-1.101-.059-2.028.464-2.782 1.218-1.218.812-3.306.696-4.58.116.638-1.044 1.913-1.566 2.493-2.726 1.449-1.334 3.595-.695 5.449-.58 1.624-.115 1.683-3.769 3.306-2.087h.638c.174-.174.232-.464.232-.754-.232-.406-1.045-.231-.87-.928 1.449 0 .29-1.913 1.913-1.623.289-1.334 2.088-1.218 2.319.116-.231.29-.696.405-.812.812-.059.637 1.101.695.638 1.275-1.392.695.116 2.087-1.044 2.783-.928-.175-1.797-.696-2.319-1.392h-.754c.986 1.102 0 2.377-.405 3.479.521.405 1.044.231 1.739.29l.116-.579c2.319.521 2.667 3.594 4.87 4.405.406.465.406 1.044.521 1.682.406.58 1.508 1.102 1.102 1.855-.753.58-1.623-.29-2.436.232-1.913.348-3.362-1.044-4.869-1.856-.522-.174-.929.406-1.45.116-.753-.463-.29-1.333-1.043-1.739 1.043-.869 1.854.754 2.898.87l4.813.059c-.406-1.219-2.146-.522-3.189-.813-.406-.58-.928-1.275-1.564-1.508-1.16.696-3.131 0-4.117 1.16.348 1.16.638 2.377-.174 3.421-.639.928-.29 2.783-1.972 2.841-.58.058-1.102.696-1.334 1.159.29.521-.174 1.044-.521 1.276-1.333-.58-1.681-2.088-2.436-3.073-.348-.116-.348.231-.579.348-.405 5.16 5.799 5.914 7.479 9.915-.464 1.45 1.681 1.797.812 3.246-2.492.523-2.088 3.305-3.188 4.929-.406.928-.813 1.855-1.566 2.667 0 1.565-.694 2.957-1.217 4.349 2.377.985 1.565 4.522 4.464 4.755.174.231.232.521-.115.638l-2.088-.406c-1.044-1.972-3.479-1.798-4.58-3.421.115-1.218 1.798-1.565 1.334-3.015.812-.985.521-2.436.985-3.594-.231-2.553 0-5.22 2.203-6.668.348-.349 1.276-.176.928-.986v-.232c-3.769-1.044-5.682-4.869-9.103-6.668-.58-.58-.986-1.158-.986-1.971.405-2.319 3.13-3.014 3.652-5.276m-5.566 8.349 1.565-.986 2.725 2.436c-1.333 2.782-4.985 2.782-6.841 4.813-1.218.579-2.319-.754-3.595-.174-1.74-.232-3.363.696-5.103.231.175-.754 0-1.564-.405-2.203 1.912-.175 4.928-1.913 6.378.405 2.377-.464 3.304-3.189 5.276-4.522m-1.798-4.928c-.058.289-.347.695-.695.405-.405-.753-.754-1.564-1.218-2.377.116-.29-.29-.638.059-.812.405.115 1.044-.232 1.334.29.404.754.173 1.74.52 2.494m-5.508-14.38c1.044-.811 2.088-1.971 2.088-3.361-.986-.349-.87-1.508-1.624-2.146-.174-1.043 1.682-.464 1.103-1.623.115-.116 0-.464.348-.348-.059.464.231.348.405.638.232.522-.231 1.449.405 1.682.522.174.58-.349.929-.349-.232-1.043.928-1.333 1.102-2.145.406.058.927-.174 1.159.231.174.696-.58.58-.812 1.044.464.405.405 1.565 1.449 1.218l.174.115c-.464.349-.174.87-.521 1.219-.116.637.928.753.638 1.448-.464.58-1.218.464-1.854.464-.465-.058-1.044-.695-1.393-.289-.231.812.116 1.565-.638 2.087.058.928-1.217.695-1.739.928-.696 0-1.218-.232-1.913-.29-.233-.523.404-.465.694-.523m-17.916 7.654c-.347-1.276.464-2.377 1.392-3.247.522-1.45.639-3.131 2.203-4.059 1.218-.522 2.899-.116 3.711-1.217.464-.87.986-1.74 1.739-2.493-.521-.58-.985-1.45-1.217-2.32-.639-.29.231-1.275-.464-1.623-.059-.231.058-.464.231-.521l.522.231c.464-.696.579-1.392 1.449-1.564 0 .463.638 0 .579.463-.174.464-1.333.29-.928 1.275.29.174.29.522.464.813-.348.29-.928.348-.985.869-.115.754.695.87.87 1.392l.115-.058c-.29-.349-.348-.929-.464-1.393.696.059.754-.984 1.566-.637.29-.232.29-.638.29-1.044.231-.348.638-.522 1.101-.522.638.406-.348.986.29 1.45-.231.405.29.349.348.637.232 0 .522-.058.755.059.058.348-.29.116-.406.29.116.638-.349 1.855.406 1.972-.116.695-1.045.463-1.566.637-.637.175-.985-.578-1.565-.694.116.869.929 1.797.406 2.841-.116.464-1.044.811-.464 1.275.464-.116 1.449.348 1.507-.406 1.624-.927 2.609 1.044 4.175 1.16l2.493.231.174.174c2.203 1.043 3.189-1.682 5.103-1.798 2.03-.347 3.537-2.261 5.045-3.536l.289.059c-.116.694-1.275.984-.927 1.681-1.103 1.739-3.306 2.087-4.291 4.06-.985.811-2.319.753-3.132 1.912-2.028 0-4.754.58-6.378-1.044v-1.217c-.984-.521-1.391.464-1.564 1.159-.116.464-.29.986-.754 1.276-.869.405-.927-.696-1.507-.87-2.029-.29-3.422 1.392-5.334 1.102l.638-1.798c-.813-.173-.696 1.102-1.392 1.45-.58 1.681-2.378 0-2.957 1.275 1.854.348 4.695.116 6.552-.928.695-.058 1.681-.696 2.145 0-.521.58.349 1.623-.754 1.739-1.333 0-2.725-1.043-3.653.464-1.913.405-3.711 2.029-5.856 1.043m1.218 5.682c.58-.812 1.218-1.972 2.261-2.087.58-.58-.58-1.275-.058-2.146.986-1.217 2.552-1.507 3.827-2.261.928 0 1.854.058 2.609.521.231.754-.755 1.275-.175 1.913-.115 1.044-1.101 1.682-1.738 2.319.115.58.115 1.218-.349 1.624-.464-.29-.812-.696-1.334-.929l-.173-.113c-.869 2.551 1.972 3.537 2.667 5.565 1.218 2.319 2.262 4.813 4.175 6.842-.29.755-.464 1.565-.695 2.319-.754.813-.928 1.798-.812 2.899l-.231.174c.404 2.087-.58 3.595-1.45 5.16-.116.58.348.928.464 1.449-.116 1.393-.232 3.073.928 3.942l-.058.059c.521.638.811 1.333 1.623 1.623.115.175-.059.349-.232.29a48 48 0 0 1-4.116-1.392c-.521-.927.812-1.623.348-2.783.521-3.305-1.333-7.015.695-9.798 0-1.16 1.624-1.508 1.334-2.61-.985-1.274-2.667-1.217-3.421-2.724-1.508-2.262-3.131-4.871-5.624-6.089-.872-.984-.872-2.608-.465-3.767m4.87 9.74c-.695.174-1.564-.289-2.435-.347.695-.406.058-1.74 1.159-1.624l.465 1.044zm-12.233-.984c.811.464 1.971.464 2.435 1.333-.232.464-.58.929-1.044 1.275-.232.059-.638-.174-.696.174-.753 0-1.565 0-2.145-.115.406-.929.464-2.088 1.45-2.667m4.174 5.971c-.812.579-1.972-.87-2.493.464-2.667 1.044-5.914.231-8.813.695-.812.116-1.565.464-1.971 1.16-.29.348-.29.812-.696 1.102l-.696 2.841c-.29.521-.812.059-1.159-.116-.638-.638 0-1.448 0-2.146.405-.173 1.333-.116 1.391-.927-.696-1.275 1.044-2.03.406-3.131.116-.175.29-.232.464-.116.985-.638 2.667-.58 3.711-.059 1.681-2.145 4.464-2.318 7.015-2.028 1.103-.464 1.219 1.507 2.203.404.116-1.854-.348-4 .929-5.449.985-.869 1.565-2.202 2.202-3.189 1.103 1.276 2.667 2.262 2.263 4.349-1.219 2.146-3.074 4.116-4.756 6.146m3.189-1.798c.813-.869 1.508-1.912 2.319-2.726.464.059.986.175.812.813-.231.811-.231 1.97-1.044 2.434zm4.522 1.625c-.753.695-.579 2.203-1.855 2.262-.811-.813 0-1.566.349-2.32.231-.638.928-.174 1.159-.695.116-1.16-.869-2.262.348-2.957 1.275-.232 1.914 1.102 2.609 1.797-.696.81-2.205.579-2.61 1.913m1.508.405c.29-.289 1.16-1.333 1.449-.579.116.464-.405.579-.638.695-.29 0-.637.116-.811-.116M24.41 113.234l24.815.058.116.232 3.362.058.116-.173c1.913-.233 4.117-.29 5.914.057v.116l-34.498.059-.058-.059zm71.431 4.755c-.465-.58-1.682 0-2.203-.521-.464.115-1.103-.175-1.393.231-.579.116-1.507-.231-1.854.29-3.016 0-6.088 0-8.93-.29l-4.29-.058-.115.29h-4.465l-.175-.29h-2.898c-.349-.232-.464-.406-.753-.696-.754-.057-1.74-.232-2.378.116l-.232.695-16.872-.058c-.405-.464-1.507.058-1.971-.406h-2.551c-.349-1.218-1.856-.29-2.436-1.274-1.16-.349-2.551-.116-3.827-.175-.115.116-.115.465 0 .579.116.116.232.349.406.29l.058-.058c0 .497.383.778.819.813l-17.923.114c-.116-.984.638-1.854.985-2.725l3.247-.174-1.913-.059h11.886c.464.406 1.391.174 2.087.232 0-.289.29-.232.464-.232.059.232.232.232.406.232.058-.232.29-.232.464-.232l.116.174-.464.465c.58.115 1.333.058 1.971.058v-.29c4.465.058 9.103-.116 13.393.174.117.464.87-.058.986.464 1.042 0 1.795.288 2.835.289-.045.084-.334 1.307.528.93.29.463.985-.117 1.218.463 1.275.116 2.261-.116 3.42-.29l.058-.696c.522.174.639-.174.696-.637 0-.58-.812 0-.928-.464-.232-.059-.695.174-.695-.232v-.174c1.333-.059 2.957-.289 4.174.174h7.538c.175.464-.521.696-.405 1.159-.639-.116-.986.348-1.219.697-.115.404.406.173.406.463h2.725l1.566-1.623c.579-.059 1.391.174 1.855-.174.812-.175 1.681.348 2.318-.232.349-.116 1.276.29 1.103-.406.521 0 1.274-.29 1.681.29h11.712c.87.116-.174 1.623.87 1.507.174 0 .348.059.638.059-.174.696.405.638.753.928.349.058.813-.116 1.103.116-1.044.29-2.436.117-3.595.174m32.817-.754c-.406.116-1.275-.347-1.16.406-.638.174-.695-.29-.695-.696h-4.059c-.58.174.059.928-.638 1.044-1.565-.116-3.305.174-4.58-.058v-.232l-3.711-.116c-.348.464-1.276.232-1.855.174l-.231-.174h-4.871c-.637.349-1.623.116-2.493.174-.29-.231 0-.521-.058-.812-.985.116-1.449-.522-2.436-.29-.231-.58-.928-.522-1.274-.812.289-.231.811-.464 1.217-.638h8.059l.059-.231c1.682.058 3.362-.116 4.755.174-.464.348-1.218.521-1.683.927.059.058.059.174.059.233-.927.173-2.203 0-3.247.114-.116.522.174.696.406.929h6.378c.405-.58 1.392 0 1.971-.29-.29-.753.406-.58.696-.87.464 0 1.16.058.985-.637.175-.29.406-.349.696-.29.637.405 1.565.115 2.377.231l.464-.464h9.508v.174c.58.174 1.566-.174 1.74.638.059-.115.174-.115.232-.115.058.115.174.174.116.29h-3.132l-.115.694h-2.899c-.059.467-.639.001-.581.523m16.988.174-.928.754h-8.987c-.463-.58-1.565 0-2.087-.464-.58-.058-1.392.174-1.739-.231 1.971-.175 4.116.174 6.03-.232.116-.174 0-.406.058-.58l-.521-.116c.58-.464.754-1.681 1.971-1.217.058.58.812 0 .928.521h2.319c.29-.231.058-.521.231-.695.755.29 2.262-.464 2.436.58.52.346.173 1.16.289 1.68"/><defs><path id="a" d="M0 0h167.968v169.997H0z"/></defs><clipPath id="b"><use xlink:href="#a" overflow="visible"/></clipPath><path fill="#57068c" d="m167.968 85.462-2.377 1.624c3.015-2.087 1.507-6.204 1.797-9.161l-2.203 1.798-.059-.059c2.899-2.203 1.392-6.088 1.798-9.16-.695.579-1.449.869-2.029 1.623l-.116-.29c1.913-2.435.406-6.029.464-8.755-1.102.696-2.203 2.087-2.898 3.016l-.232-.87c2.841-2.726 1.103-6.552.696-9.856l-1.393 1.333c.813-3.073-1.043-5.682-1.391-8.349-.754.812-1.334 1.972-2.088 2.608 1.508-3.362-1.102-6.029-1.739-9.044-.812 1.218-1.449 2.493-1.854 3.826-.232-.174-.175-.406-.29-.638 2.318-3.479-1.103-6.667-2.436-9.74-.406.927-.87 2.087-1.218 2.783.696-3.421-2.261-5.683-3.595-8.175-.406.927-.522 2.028-.985 2.898.812-3.769-2.436-6.088-4.349-8.813l-.929 3.246h-.115l-.175-1.449c.06-3.073-3.361-4.696-5.044-6.9l-.231.117c-.349 1.159.116 2.146-.116 3.362-.232.116-.521 0-.695-.232 0-3.653-3.769-5.45-6.146-7.537.058 1.16-.116 2.493.174 3.479l-.174-.116c-.116-3.769-4.233-5.219-6.727-7.132-.115.696.116 1.565.059 2.261-.928-3.305-4.522-3.247-6.727-4.986.175 1.16.406 2.436.755 3.422-.175 0-.232-.175-.349-.29-.811-3.479-4.464-4.232-7.015-5.683l-.696-.116c.406 1.219 1.044 2.436 1.217 3.653-.521-.116-.984-.29-1.391-.638-1.044-1.971-3.073-3.537-5.218-4.001-.58-.174-.813-.869-1.45-.985l.58 2.146-.232.174c-1.449-1.16-3.247-1.565-5.102-1.74.406.522.464 1.218.928 1.74.116.231.463.58.116.87-1.393.058-2.841-.174-4.233.23 1.044.928 1.739 2.437 3.189 2.899-.232.58-.696 1.102-.58 1.74 1.276.348 3.015.231 4.291.058-.059.638-.87.464-.986 1.044 1.449.869 3.653 1.217 5.276.637-.116.232-.29.406-.349.639l.465-.059c2.261 1.393 5.044 2.261 7.885 1.683l.174.114a7.2 7.2 0 0 0-1.043 1.276l5.276 1.798 1.043-.233c-.115.233-.521.406-.579.696 2.435.754 4.638 3.189 7.247 2.146l-1.218 1.043c2.436 1.16 4.522 4.001 7.653 2.783-.464.348-1.102.464-1.334.985 2.262 1.276 4.117 4.232 6.958 3.537-.406.348-1.16.405-1.391.869l4.116 3.711c.464.348 1.334.29 1.565.813l-.986.521c1.682 1.565 2.726 3.942 4.87 4.696l-.464.231c1.508 1.739 2.494 3.943 4.35 5.16l-.465.29c1.334 1.682 2.262 4.06 4.06 5.276-.232 0-.522.058-.522.231 1.159 2.03 1.275 4.754 3.479 6.03l-.986.058c.87 2.203 1.044 4.639 2.667 6.437.29.464 1.103.231 1.16.695l-1.508-.231c.754 2.261.58 4.986 2.318 6.841h-.811l.29 1.856c0 2.841 1.217 5.798 4.058 6.841l-.348.406c-.811-1.16-2.146-1.682-3.421-1.739.521 2.377.116 5.392 2.146 7.247-.464 0-1.102-.464-1.565-.29l.521 5.624c.174.521.813.929.754 1.45-.521-.175-1.044-.696-1.624-.58.29 2.203-.753 5.102.58 7.074.349 1.043 2.319 1.564 1.509 2.725-.406-1.218-1.624-2.146-2.726-2.667-.231 2.435-1.334 5.276-.174 7.537-.406-.29-.812-.985-1.45-.928-.29 2.492-1.913 4.986-.812 7.479l-1.275-.986c-.58 2.437-2.319 4.755-1.565 7.364-.406-.348-.812-.87-1.333-1.102l-2.262 4.928c-.116.696.059 1.624-.116 2.145-.289-.404-.638-.984-1.102-1.217-.928 2.262-3.305 4.059-2.957 6.668-.058.869.87 1.855 0 2.551 0-1.334-.348-2.667-1.276-3.595l-3.13 4.522c-.521 1.508-.29 3.305.059 4.696l-.464.116c.058-1.449-.116-2.841-1.16-3.768-1.392 2.318-4.639 4.116-3.886 7.304-.173-.811-.521-1.623-.984-2.145-1.508 1.855-4.233 3.537-4.407 6.029-.231-.521-.464-1.043-.695-1.623-1.449 1.566-3.885 2.957-4.522 4.87-.638.696.058 2.087-.87 2.377.058-.984.29-2.491-.463-3.247-1.856 1.74-4.523 3.074-5.509 5.334l-.463-1.854c-1.914 1.508-4.523 2.261-5.566 4.581-.116-.522-.174-1.044-.232-1.507-2.088 1.101-4.522 1.796-6.029 3.826-.059-.58.058-1.16-.174-1.624-2.03.986-4.466 1.218-6.089 3.072-.115-.521.175-1.274 0-1.738-2.145.754-4.465.928-6.378 2.202-.348-.405-.812-.754-1.274-.869-2.263-.521-4.175.639-5.567 2.262l-1.739.058c-1.507-1.45-3.305-2.783-5.449-2.261-.929.057-1.509.87-1.972 1.564-1.45-2.261-4.522-2.028-6.784-2.956-.231.464.116 1.274-.058 1.738-1.681-1.854-4.175-2.145-6.204-3.015v1.566c-1.507-2.03-3.942-2.668-5.972-3.826-.232.404-.174 1.101-.349 1.507-1.043-2.32-3.651-3.131-5.508-4.581-.29.58-.29 1.334-.58 1.854l-.753-1.507-4.755-3.827c-.638.87-.463 2.263-.406 3.247-.173 0-.347.059-.404-.115.521-3.306-3.073-5.045-4.93-7.132-.348.522-.464 1.218-.754 1.623-.114-2.608-2.956-4.231-4.464-6.029-.348.58-.754 1.565-.986 2.088.813-3.189-2.435-4.871-3.768-7.247-1.102.811-1.218 2.318-1.16 3.768h-.232c-.696-.464.174-1.508.058-2.318.464-2.899-2.145-4.871-3.479-7.017-.927.986-1.217 2.261-1.217 3.595-.116-.174-.348-.348-.406-.521 1.739-3.304-1.217-6.088-2.609-8.697l-1.102 1.217c.522-2.841-1.623-4.754-2.377-7.072l-1.217 1.102c.695-2.609-1.044-4.928-1.624-7.364-.522.232-.87.58-1.275.986l-.058-.116c1.217-2.435-.522-4.871-.754-7.363-.638-.058-1.044.813-1.508.869 1.334-2.261.116-5.044-.116-7.479-1.101.521-2.319 1.449-2.667 2.667l-.174-.174c-.464-.869.812-1.159 1.102-1.856 2.087-1.971.754-5.275 1.16-7.769-.638-.116-1.16.58-1.74.521 1.566-1.855.928-4.696 1.392-7.073-.638-.059-1.102.348-1.624.348 2.03-1.855 1.566-4.754 2.203-7.189-1.275-.115-2.609.579-3.536 1.682-.174-.116-.174-.29-.29-.406l1.623-.985c2.899-1.682 1.913-5.161 2.725-7.712h-.752c1.681-1.854 1.507-4.58 2.261-6.841l-1.566.174c3.015-1.102 2.725-4.639 3.885-7.074l-.986-.058c2.262-1.276 2.32-4.116 3.479-6.204-.174 0-.58 0-.464-.174 1.856-1.275 2.783-3.536 3.943-5.218l-.406-.232c1.913-1.217 2.899-3.479 4.349-5.218 0-.058-.117-.058-.174-.058-.058-.059-.406-.059-.232-.232 2.203-.58 3.131-3.189 4.754-4.638-.232-.29-.638-.29-.928-.464l.058-.232c2.436-.464 3.711-2.899 5.682-4.349l-1.391-.812c2.783.695 4.812-2.319 6.957-3.653-.463-.29-1.102-.579-1.275-.928 3.131 1.334 5.218-1.681 7.595-2.783-.405-.405-1.043-.638-1.217-1.043.29.173.58.232.812.405 2.378-.173 4.232-1.623 6.378-2.493 0-.406-.639-.406-.464-.753.289.115.464.405.869.29l5.103-1.682.29-.29-1.044-1.103.117-.114c1.507.347 3.304.174 4.754-.175 1.274-.29 2.318-1.508 3.595-1.449l-.29-.696c1.681.696 3.71.231 5.218-.464 0-.753-1.102-.579-.87-1.217 1.219.348 2.726.231 4.001.058.639-.464-.405-1.276-.348-1.913 1.507-.406 2.087-1.972 3.131-2.784-1.392-.404-2.841-.173-4.232-.23l-.116-.174c.348-.755.58-1.566 1.16-2.262-1.913-.175-3.596.463-5.103 1.565-.406-.696.464-1.393.349-2.261h-.232c-1.218 1.332-3.131 1.332-4.465 2.435-1.333.985-1.507 3.188-3.421 3.073.348-1.219.928-2.377 1.334-3.596h-.406c-1.681.929-3.479 1.566-5.102 2.552-1.334.87-1.683 2.435-2.552 3.537l-.116-.059c.58-.985.695-2.319.813-3.363-2.204 1.739-5.798 1.739-6.726 4.986l.114-2.256c-1.971 1.798-5.103 2.435-6.204 5.16-.348.638-.289 1.682-.754 2.029.349-1.044.116-2.261.175-3.421-1.855 1.913-5.103 3.016-5.74 5.856-.232.696-.116 1.739-.929 2.029-.348-.349-.173-1.045-.114-1.508-.059-.638.057-1.624-.349-2.088l-4.117 4.117c-.812 1.275-.986 2.783-1.218 4.349-.521-1.044-.637-2.262-.927-3.362-1.508 2.318-4.407 4.058-4.407 7.015 0 .58.058 1.392-.058 1.798-.231-.985-.579-2.204-1.043-2.898-1.276 2.725-4.233 4.812-3.537 8.291-.406-.986-.696-2.146-1.218-2.783-.927 2.667-3.71 4.696-3.073 8.001 0 .812 1.276 1.449.522 2.203-.464-1.102-1.159-2.551-1.971-3.769v.405c-1.16 2.725-2.899 5.624-1.797 8.697-.696-.869-1.392-2.029-2.088-2.609-.464 2.726-1.971 5.393-1.391 8.35L5.218 55.37c-.116 2.667-1.565 5.334-.638 7.943.232.985 1.972 1.738 1.044 2.841-.638-1.16-1.739-2.319-2.841-3.073.058 2.899-1.449 6.32.522 8.755l-.174.29-2.03-1.623c.406 3.072-.985 7.073 1.74 9.219-.754-.579-1.45-1.275-2.261-1.798.406 3.016-1.16 7.074 1.855 9.161C1.623 86.796.87 85.926 0 85.462c.464 2.088 0 4.06.406 6.146.232.696.754 1.334.928 1.972L.348 93c.696 1.739.29 4 .928 5.798.463 1.449 1.913 2.552 2.841 3.653l-2.899-1.218c.869 1.681.753 3.769 1.507 5.565.522 1.044 1.681 2.146 2.493 2.609l-2.203-.637c1.043 1.623 1.102 3.594 2.029 5.218.696 1.391 2.261 2.029 3.247 2.783l-2.899-.58c1.45 1.913 1.74 4.406 3.653 6.088.928.696 2.145.927 3.073 1.449l-.058.117c-.986-.523-2.319-.58-3.363-.523 1.913 1.972 2.435 5.276 5.392 6.262.348.116.986.116 1.102.35h-2.435c1.565 1.564 2.319 3.594 4.232 5.043.754.405 1.74.695 2.319.928-.637.117-1.391.117-1.913.29l.348.174c1.971 2.146 3.769 5.044 6.784 5.334-.638.29-1.45.29-2.03.58h.116c2.319 2.087 4.697 5.392 8.291 4.871-1.043.23-2.087.347-3.073.695 2.436 1.448 4.117 4.232 7.016 4.405l-1.276.522c2.492 1.506 5.032 4.438 8.074 3.625-.585.213-1.189.419-1.754.666 1.682.695 3.188 2.203 4.929 3.015 1.623.927 3.13-.231 4.638-.405-.928.521-1.972.812-2.898 1.392 2.608.87 4.812 3.13 7.769 2.666l-1.044.813c2.668.464 4.813 2.435 7.771 1.971l-.696.58c2.551.174 5.16 2.261 7.769.928-.115.29-.637.464-.694.754 1.043-.232 1.971.174 2.898.348 2.029.405 4.464.521 5.798-.638l.464 1.507c3.015 0 5.739-.984 7.943-2.608.406-.059.29.464.58.521 2.319.928 4.464 2.261 7.247 2.029l.348-1.043c2.436 1.45 5.276-.29 7.886-.116-.059-.348-.696-.464-.58-.87 2.552 1.449 5.161-.58 7.712-.812l-.638-.639c2.957.522 5.102-1.391 7.652-2.028-.348-.116-.869-.464-.984-.753 2.957.579 5.275-1.856 7.652-2.727-.87-.521-2.087-.811-2.783-1.391 3.422 2.435 6.727-.986 9.567-2.493-.928-.406-2.03-.696-2.899-1.103l.116-.058c3.536 2.146 6.262-1.565 9.104-3.131l-1.334-.522c2.957-.173 4.58-2.957 7.016-4.405l-3.073-.695c.753-.349 1.449 0 2.203-.29 2.667-.349 4.116-3.306 6.204-4.697-.58-.174-1.565-.116-1.914-.521 3.189-.175 4.813-3.596 7.017-5.509l-1.972-.29c3.246-.175 4.639-3.885 6.609-5.913l-2.493-.06c3.711-.174 4.697-4.464 6.494-6.608-.867.043-1.768.118-2.579.275 3.416-.82 4.424-4.872 5.884-7.466l-2.898.638.058-.058c3.884-.87 3.826-5.276 5.218-7.944-.695.232-1.507.58-2.203.64 3.363-1.45 2.842-5.394 4.116-8.118-1.043.348-2.029.87-3.015 1.16 3.363-2.029 3.305-5.914 3.827-9.335l-1.044.405c1.91-2.145.982-5.392 1.33-8.001m-1.334-5.914c.115 2.32.695 5.509-1.623 7.074-1.509-1.218-.349-3.188.115-4.638zm-.579-7.362c.116 2.318.753 5.508-1.566 7.016-1.564-1.16-.406-3.131.059-4.581zm-5.22 31.831c-.463-1.333.813-2.146 1.334-3.132.465 1.739.232 3.827-.869 5.045-.869-.233-.116-1.276-.465-1.913m1.161-8.871c.116-.755.87-1.393 1.16-1.914.29 1.564.753 4-.638 5.103-.059-1.103-.059-2.262-.522-3.189m1.044-8.175.406-.87c.637 1.449 1.159 3.885.057 5.218-.173-1.45-1.797-2.9-.463-4.348m-.871-5.857c0-.87.58-1.45.696-2.261.812 1.333 1.449 3.594.522 5.16h-.174c-.231-.986-.405-2.029-1.044-2.899m2.146-16.003.348-.348c.059 2.378 1.103 5.45-1.16 7.132-1.913-1.913-.057-4.753.812-6.784m-1.971 6.378c.754 1.334 1.448 3.595.464 5.16-.059-1.507-1.683-2.841-.813-4.29zm-.812-2.029c-.174-1.45-2.261-2.841-.87-4.522l.174-.579c.986 1.333 1.45 3.362.929 5.044zm.812-12.35c.348 2.203 1.564 5.45-.58 7.248-1.739-.986-.813-3.189-.58-4.697.406-.81.522-1.797 1.16-2.551m-2.667-6.957c.638 2.087 2.087 5.218.115 7.247l-1.159-1.623c-.058-1.971.29-3.943 1.044-5.624m-1.16 6.9c.928 1.275 1.914 3.131 1.275 4.928-.927-1.392-2.376-3.073-1.275-4.928m-2.435-13.336c.58 2.203 2.493 4.58.929 6.958l-1.45-1.275c-.465-1.798-.06-3.944.521-5.683m1.566 11.48-.174.116-1.74-2.551.174-2.436c1.16 1.392 2.145 3.132 1.74 4.871m-3.131-6.146c-.87.29-.813-1.044-1.334-1.508-1.392-.521-.87-2.261-.87-3.188 1.218 1.333 2.436 2.841 2.204 4.696m-2.783-11.827c.985 2.087 3.362 4.291 1.739 6.958l-1.393-1.044c-.579-1.798-.694-4.001-.346-5.914m-.754 5.334c-.174.521-.58-.059-.813-.059-1.274-.984-2.087-2.145-2.028-3.768 1.507.58 2.783 2.261 2.841 3.827m-3.885-10.843c1.275 1.972 3.362 4.001 2.435 6.727l-1.681-.986c-.639-1.74-1.044-3.769-.754-5.741m-.406 5.566c-.753-.986-2.029-1.334-2.725-2.145l-.406-2.03c1.508.812 3.073 2.436 3.131 4.175m-4.813-11.48c1.508 1.913 4.001 3.77 2.957 6.61-2.492-.638-2.608-3.711-3.015-5.972zm.117 5.566c-.928-.058-1.681-.985-2.608-1.333a10.7 10.7 0 0 1-.87-2.494c1.449.813 3.361 2.03 3.478 3.827m-6.146-10.725c1.623 1.854 4.291 3.479 3.652 6.262-2.725-.29-3.131-3.653-3.769-5.914zm.695 5.565c-.928-.231-1.798-.87-2.782-1.102-.58-.754-.87-1.507-1.16-2.377 1.508.638 3.595 1.624 3.942 3.479m-7.653-9.915c1.739 1.566 4.696 3.016 4.291 5.798-2.726 0-3.537-3.304-4.291-5.392zm1.276 5.335-.115.231-2.726-.869c-.58-.696-1.102-1.508-1.392-2.261 1.682.348 3.479 1.217 4.233 2.899m-3.015-3.885c-.58.406-1.276-.174-1.913-.232-1.45-1.449-2.551-3.188-3.073-5.044 1.855 1.275 4.986 2.493 4.986 5.276m-3.131.058c-1.682-.174-3.77-.464-4.406-2.435l-.058-.232c1.681.406 3.768.811 4.464 2.667m-2.899-3.421c-1.971.929-3.072-1.448-4.29-2.608-.405-.754-.985-1.393-1.102-2.203 1.971 1.159 5.16 1.97 5.392 4.811m-3.015.174-.116.232c-1.391-.464-3.479.29-4.174-1.566l-.464-.637c1.797.173 3.652.522 4.754 1.971m-3.77-3.131c0 .232-.173.522-.404.58-1.16 0-2.263-.174-3.073-.87-.986-1.158-1.856-2.435-1.914-3.885 2.146.696 4.407 1.972 5.391 4.175m-5.101.116c-1.565.349-2.841-.754-3.826-1.854.348-.522 1.217-.059 1.682.173.753.521 1.854.637 2.144 1.681m-3.131-2.898c-.116.405-.869.29-1.159.115-1.624-.58-2.957-2.261-3.479-3.827 1.797.638 3.827 1.914 4.638 3.712m-3.884-.465c.579.522 1.391.986 1.681 1.682-.986.58-2.029-.058-2.841-.521l-1.16-1.218c.638-.407 1.624-.175 2.32.057m-1.509-1.507c.116.579-.405.812-.869.812-1.043.116-1.913-.638-2.493-1.507-.232-.349-.406-.696-.406-1.103 1.45.058 2.668.754 3.768 1.798m-6.782.579c1.274 0 2.377.349 3.361 1.044-.231.349-.579.87-1.043.87-1.101-.057-1.971-1.101-2.318-1.914m2.087 3.885-.29-.174c.812-.812 1.681-1.913 2.898-2.087.754 0 1.565.174 1.855.928.058.579-.638.695-.985.928-.927.637-2.377.173-3.478.405m4.116 1.334c.29-1.102 1.565-1.449 2.492-1.739 1.044-.29 1.973.115 2.784.695-1.449.929-3.42 1.913-5.276 1.044m4.407.811c.175-1.159 1.507-1.275 2.319-1.681.29.115.696.058.812.348-.174.406-.928.348-1.275.638-.523.463-1.276.869-1.856.695m1.449.928c.174-1.681 2.262-1.45 3.537-1.854 1.276.058 2.957-.232 3.885 1.043.059.695-.812.928-1.334 1.159-1.74.696-4.407.522-6.088-.348m5.914 2.436c1.508-1.623 3.885-1.565 5.914-.986.638.348 1.392.464 1.856 1.102-2.088 2.551-5.336.231-7.77-.116m5.74 2.435c1.218-1.044 3.131-1.334 4.755-.87 1.101.347 2.319.87 3.073 1.797-2.609 2.203-5.277-.405-7.828-.927m11.017 5.681c-1.855-.348-3.188-1.854-4.929-2.435 1.798-1.275 4.522-.637 6.262.464.406.522 1.044.638 1.334 1.276-.638.522-1.682.637-2.667.695m1.449 1.45c2.435-1.334 5.74.059 7.305 2.436-2.841 1.796-4.986-1.334-7.305-2.436m9.393 7.653c-1.392-.754-2.492-2.377-3.885-3.189 1.276-.579 3.479-.231 4.813.754.985.58 1.739 1.623 2.204 2.552-1.046.405-2.147.231-3.132-.117m.927 2.087c.464-.347 1.624-.231 2.319-.057a6.47 6.47 0 0 1 3.42 2.435c.29.521.87.927.87 1.565-3.13.986-4.637-2.319-6.609-3.943m4.291 4.871c2.318-.406 4.001.984 5.449 2.551.29.696.87 1.275.87 2.029-3.246.754-4.464-2.783-6.319-4.58m3.885 5.566q2.522.088 4.174 2.088c.754.985 1.334 2.088 1.45 3.362-2.551-.754-4.117-3.479-5.624-5.45m3.42 5.566c2.204.058 4.001 2.146 4.755 3.943.116.694.464 1.333.348 2.028-3.363-.057-3.769-3.825-5.103-5.971m2.435 6.321c2.146.231 3.769 2.377 4.406 4.231.059.696.406 1.393.174 2.088-3.362-.348-3.362-4.059-4.58-6.319m2.32 6.957c1.275.405 2.551 1.392 3.189 2.667.638 1.16.927 2.667.753 4.001-3.188-.464-3.13-4.233-3.942-6.668m2.957 12.523c-1.16-1.623-.87-3.942-1.508-5.682 2.32.696 3.421 3.188 3.595 5.392l-.058 1.566c-.754-.058-1.391-.696-2.029-1.276m-.986 1.682c2.377.754 3.479 3.188 3.653 5.45l-.058 1.508c-.754-.059-1.45-.696-2.029-1.276-1.16-1.624-.928-3.885-1.566-5.682m.522 7.015c1.913.696 2.841 2.667 3.188 4.464 0 .813.406 2.03-.348 2.668-3.014-1.16-2.202-4.639-2.84-7.132m.058 12.35c-.695-1.855-.116-3.826-.464-5.739 2.203 1.218 2.899 3.768 2.609 6.204l-.29 1.274c-.695-.173-1.449-1.1-1.855-1.739m1.102 9.161c.347 1.565-.174 3.479-1.16 4.754-.116.059-.174.29-.348.175a14 14 0 0 1 0-3.132zm-2.436-7.538c2.088 1.16 2.378 3.596 2.146 5.741-.29.58-.116 1.391-.696 1.855-2.783-1.682-1.334-5.043-1.45-7.596m-1.681 16.235 1.913-1.797c-.116 1.739-.463 3.826-2.087 4.812-.174-.928.29-1.972.174-3.015m.271 6.91c-.232.048-.463.1-.678.163v-.059q.356-.03.678-.104m-.271-16.592c1.739 1.159 1.971 3.421 1.681 5.218-.174.928-.347 1.854-.984 2.608-2.668-1.912-.755-5.334-.697-7.826m-2.146 6.493c1.508 1.333 1.508 3.363 1.218 5.276a6.35 6.35 0 0 1-1.333 2.551c-2.377-2.318-.348-5.334.115-7.827m-1.043 9.51 1.913-1.45c-.231 1.623-.694 3.885-2.608 4.521.173-.985.579-1.971.695-3.071m-1.914-3.248c1.392 1.391 1.159 3.768.522 5.565-.406.753-.754 1.682-1.508 2.203-2.144-2.55.291-5.333.986-7.768m-2.087 9.392 2.088-1.333c-.348 1.566-1.218 3.769-3.015 4.232-.058-1.042.696-1.913.927-2.899m-3.768.87c.464-1.565 1.797-2.783 2.203-4.349.928.928.928 2.783.58 4.116-.29 1.334-1.276 2.552-2.319 3.479-.464-.926-.812-2.086-.464-3.246m.521 4.059c.348-.058.579-.231.869-.348-.521 1.565-1.564 3.652-3.421 3.942.697-1.275.639-3.305 2.552-3.594m-2.668-2.782c.87 1.217.755 3.361.059 4.755-.463.984-1.333 1.97-2.203 2.666-.522-.58-.522-1.623-.58-2.493.232-1.914 2.146-3.132 2.724-4.928m-2.144 8.464c.29 0 .464-.232.812-.232-.579 1.507-1.854 3.421-3.536 3.826l-.175-.174c.928-1.216.87-3.303 2.899-3.42m-6.437 3.364c-.114.579.58 1.449-.058 1.507h-.057zm2.031 1.738c-.521 1.507-2.203 3.479-3.827 3.537-.29-.986 1.103-1.45 1.103-2.435.81-.638 1.796-.812 2.724-1.102m-3.074-2.898c.985 2.319-.348 4.349-1.798 6.029-.521.349-.927 1.043-1.623 1.043-1.275-3.188 2.087-4.869 3.421-7.072m-4.348 6.029.116 1.102-.29.174zm1.914 1.509c-.58 1.448-2.262 3.188-3.943 3.361-.348-.405.29-.753.406-1.101.464-1.68 2.145-1.914 3.537-2.26m-7.596 4.405c.464-.174 1.102.059 1.565-.231-.87 1.449-2.493 3.131-4.349 2.957 1.045-.871 1.335-2.667 2.784-2.726m-1.043-3.479c.521 2.029-.639 3.885-2.146 5.275-.694.522-1.333 1.276-2.203 1.045-.812-3.131 2.725-4.465 4.349-6.32m-6.146 3.421c.349 2.261-1.218 4.174-2.957 5.392-.638.175-1.218.986-1.914.58-.521-3.189 3.13-4.291 4.871-5.972m-4.001 6.725c-1.274 1.219-2.957 2.61-4.812 2.03.869-.58 1.507-1.855 2.667-2.087zm-6.204-1.101c1.334-1.16 2.957-1.565 4.291-2.667.059 1.972-1.218 3.711-2.957 4.754-.754.407-1.565.986-2.493.638.174-.928.29-2.087 1.159-2.725m-.406 3.479c-1.275 1.159-3.246 2.146-4.929 1.508.29-.986 1.624-.813 2.146-1.739.928-.117 1.856.116 2.783.231m-1.507-3.884c-.115 2.202-2.203 3.826-4.059 4.639-.579.347-1.217 0-1.797-.176.29-3.072 3.827-3.188 5.856-4.463m-5.102 5.333c-1.508.87-3.595 1.914-5.161.986.638-.87 1.74-.754 2.437-1.508.984.001 1.854.291 2.724.522m-1.798-1.333.348-.406-.116.406zm.638-2.783c-.29 1.333-1.217 2.726-2.493 3.422l-1.971.753-.754-2.262c1.507-.928 3.595-.928 5.218-1.913m-10.726 1.855c1.217-.638 3.188-1.566 4.231 0 .406.406-.058.812-.348 1.16-.579.463-.869-.639-1.507-.58-1.334-.232-2.262.348-3.131 1.043-.232-.057-.406-.057-.58-.232.175-.637.813-1.159 1.335-1.391m3.131 1.567c-.116.463-.696.404-1.044.521-.754-.058-1.449-.116-2.087-.348.696-.812 2.319-.928 3.131-.173m-12.814-1.74c.406-.35.87-.755 1.45-.697 1.565.174 2.841.928 4 2.03.174.347-.29.406-.406.579-.579-.059-.869-.638-1.333-.869-.695-.349-1.682-.232-2.377-.059l-.812.638c-.639-.347-1.044-1.042-.522-1.622m4.117 1.913c-.812.406-2.261.638-3.131.058.116-.406.638-.521.985-.637.812-.001 1.566-.059 2.146.579m-11.944-.522c-.231.349-.754.349-1.159.521-1.739-.349-3.537-1.565-4.349-3.306l-.406-1.506c2.029 1.276 5.276 1.392 5.914 4.291m1.739.522c.813.521 1.798.638 2.551 1.449-1.448 1.043-3.651-.115-5.159-.928.869-.231 1.681-.464 2.608-.521m-1.159-1.218c.116.175.349.232.349.406-.291.174-.233-.231-.349-.406m-4.175.928.696.348c.116.174.29.29.464.464-1.798.928-3.537-.405-5.045-1.333v-.116c1.276-.116 3.073-.755 3.885.637m-8.523-6.784c1.854 1.623 5.449 2.087 5.508 5.218-.696.696-1.565-.057-2.262-.231-1.796-.986-3.42-2.9-3.246-4.987m.754 3.826c.58.755 1.507 1.335 2.087 1.972-1.797.522-3.421-.754-4.813-1.855l.059-.231zm-6.668-6.783c1.739 1.681 5.392 2.783 4.869 5.972-.984.232-1.912-.58-2.725-1.102-1.332-1.333-2.434-2.899-2.144-4.87m-6.204-3.421c1.624 1.797 4.986 3.131 4.465 6.204-.986.464-1.914-.639-2.726-1.276-1.217-1.39-2.144-3.131-1.739-4.928m-.116 3.769c.464.813 1.276 1.565 1.855 2.436-1.855.174-3.479-1.508-4.291-2.957zm-5.74-7.712c1.683 1.856 4.813 3.537 4.001 6.668-1.739-.348-3.188-2.203-3.827-3.711-.406-.927-.232-1.913-.174-2.957m1.334 6.262c-.29.059-.928.116-1.275-.174-1.102-.753-2.436-1.854-2.842-3.071l2.609.811c.348.869 1.16 1.565 1.508 2.434m-2.145-4.754.174 1.159h-.233zm-4.407-6.029c1.334 2.203 4.754 3.885 3.421 7.072-1.914-.753-3.247-2.782-3.595-4.638-.232-.87.058-1.681.174-2.434m0 4.87c.406.405.812.928.87 1.508-1.683.231-3.131-1.973-3.943-3.247v-.232c1.16.405 2.841.463 3.073 1.971m-1.044-3.71.174 1.507-.463-.058zm-4.638-2.32c.232.87.812 1.564 1.102 2.376-.29.174-.754 0-1.044-.116-1.044-1.043-2.261-2.145-2.667-3.536.87.406 2.029.464 2.609 1.276m-4.407-8.465.348-1.043c1.16 2.261 4.117 4.465 2.436 7.421-2.146-1.335-3.247-3.827-2.784-6.378m-.753 2.551c.348.927.928 1.797 1.101 2.782-1.855-.29-2.899-2.377-3.42-3.942zm-3.247-9.219c1.043 2.204 3.595 4.755 1.913 7.596-.927-.405-1.449-1.508-1.913-2.319-.638-1.566-1.044-3.77 0-5.277m-1.044 4.292c.058.753.58 1.274.58 2.028-1.855-.232-2.609-2.552-3.131-4.175.928.638 2.319.927 2.551 2.147m-3.073-9.221.522-.984c.696 2.377 3.189 5.218 1.044 7.769-1.681-1.741-2.493-4.35-1.566-6.785m-3.362-5.855.927-1.393c.464 2.436 2.551 5.509.174 7.827-1.391-1.68-1.971-4.347-1.101-6.434m2.782 11.131c-.753-.058-1.449-.753-1.739-1.449-.406-.984-.87-1.913-.985-3.015l1.971 1.507zm-6.957-24.35 1.334-1.219c-.116 2.553 1.391 5.856-1.392 7.597-1.217-1.799-.986-4.524.058-6.378m.406 8.116c.116.986.116 2.204 0 3.132-1.566-1.045-1.566-3.246-1.566-4.929zm-.812-16.06c.348-.174.464-.58.928-.638-.58 2.667.869 6.029-2.32 7.537-.811-2.319-.521-5.218 1.392-6.899m-3.768-7.595.985 2.261-.928 2.898c-.29.058-.522-.463-.58-.753-.057-1.448-.173-3.131.523-4.406m.521-7.247c.232.579.696 1.274.812 1.971a15.8 15.8 0 0 0-1.044 3.189c-1.275-1.334-.289-3.596.232-5.16M4.87 93.232c.348.521.986 1.159 1.102 1.854-.29.986-.464 2.146-.464 3.248-1.333-1.102-.928-3.537-.638-5.102m.986 7.653 1.391 2.089c-.115.984-.058 2.087-.289 2.956-.406-.116-.87-.522-.986-1.043-.116-1.277-.58-2.726-.116-4.002m2.899-14.437c-.58 2.493.174 5.972-2.841 7.132-.696-.754-.406-2.088-.29-3.015.464-1.624 1.334-3.537 3.131-4.117m.522-7.015c-.754 2.436-.232 5.972-3.363 7.016-.638-.638-.174-1.855-.116-2.783.464-1.74 1.624-3.653 3.479-4.233m-2.783-.348c-.696-.638-.232-1.914-.174-2.782.464-1.74 1.623-3.653 3.478-4.233-.695 2.434-.231 5.913-3.304 7.015m4.696-13.857c-.754 2.319-.58 6.088-3.885 6.784-.231-2.436.696-4.87 2.783-6.263zM6.552 69.46c-.406-.058-.522-.638-.58-1.102.232-1.392.406-2.841 1.16-4l.695 2.203zm7.305-17.626c0-2.145 1.856-4.348 3.885-5.16.522-.231 1.101-.174 1.681-.29-1.507 1.971-3.073 4.638-5.566 5.45m18.554-21.221c-1.972 1.45-3.943 4.581-6.958 3.479.116-.927 1.044-1.854 1.914-2.435 1.391-1.044 3.362-1.623 5.044-1.044m5.566-4.464c-2.261 1.275-4.35 4.058-7.306 2.667.174-.928 1.334-1.623 2.03-2.203 1.507-.754 3.652-1.45 5.276-.464m6.378-3.827c-2.436.928-4.755 3.653-7.596 1.855.928-1.449 2.667-2.203 4.349-2.551 1.275-.174 2.261.232 3.247.696m-1.682-2.203c.348-.87 1.508-1.333 2.377-1.681 1.624-.754 3.885-.464 5.334.521-2.435.639-5.102 3.189-7.711 1.16m5.682-3.247c.58-.812 1.682-1.218 2.667-1.449 1.74-.348 3.827-.174 5.16 1.218-2.493.29-5.508 2.608-7.827.231m6.784-2.667c-.349-.231-.522-.406-.522-.812 1.855-1.855 4.58-.869 6.784-.349.29.349.812.522.753 1.044-2.029 1.103-4.987 1.277-7.015.117m5.334-1.971c-.174-.348.231-.638.58-.638.928.348 2.203.464 2.493 1.681-1.218.522-1.855-1.216-3.073-1.043m2.145-.812c.929-.812 2.146-.928 3.306-.58.754.349 1.565.639 2.087 1.45-1.74 1.102-3.943.174-5.393-.87m4.929-1.333c-.232-.754.637-.812.927-1.102 1.682-.464 2.841.869 3.827 1.971-1.566.116-3.537.29-4.754-.869m6.551-2.842c-.349.813-1.217 1.856-2.261 1.914-.465 0-.755-.464-1.045-.754.755-.928 2.089-1.101 3.306-1.16m-4.639-2.029c.522-.115 1.044-.348 1.682-.348-.232.986-.985 2.03-1.972 2.493-.579 0-1.159.29-1.681-.058-.405-1.217 1.276-1.449 1.971-2.087M68.125 8.06c-.811 1.334-2.261 2.145-3.825 1.972-.232-.117-.175-.406-.059-.522.986-1.16 2.378-1.857 3.884-1.45m-1.506-3.132c-.58 1.625-1.971 3.363-3.711 3.886h-.927c.405-2.03 2.841-3.131 4.638-3.886m-7.248 5.799c1.044-.464 2.088-1.449 3.247-1.218-.811 1.218-2.145 2.262-3.768 2.088-.232-.407.405-.58.521-.87m-5.102-.349c1.16-1.738 3.073-2.493 4.813-3.131-.174 1.45-.812 2.899-2.029 4.001-.87.58-1.913.986-3.073.696-.697-.522.115-1.102.289-1.566m-.059 2.204h.465c-.522.695-1.103 1.392-1.798 1.971l-2.841.232c.406-1.681 2.61-1.854 4.174-2.203m-1.97-3.015c-.464 1.797-2.029 3.651-3.652 4.812-.522.059-1.103.232-1.623.059-.059-2.784 3.362-3.596 5.275-4.871m-3.711 5.566-1.507 2.029c-.986.232-1.913.754-2.957.638.638-1.856 2.725-2.261 4.464-2.667m-2.725-2.667c-.406 1.798-1.507 3.595-3.016 5.044-.638.059-1.274.639-1.854.232-.059-2.783 3.073-3.885 4.87-5.276m-3.711 6.263-1.218 2.145c-.985.29-1.854.869-2.898.985-.174-.406.231-.869.464-1.217 1.101-.871 2.261-1.683 3.652-1.913m-2.957-2.437c-.231 1.914-1.218 3.77-2.552 5.394-.521.173-1.043.463-1.622.521-.696-2.899 2.435-4.291 4.174-5.915m-3.71 6.437a7.4 7.4 0 0 1-1.103 2.377c-.986.231-1.854.695-2.725 1.16.117-1.857 2.319-2.842 3.828-3.537m-3.189-2.087c-.406 2.318-.754 5.508-3.421 6.319l-.29-.058c-.638-2.783 2.029-4.407 3.711-6.261m-2.725 6.898c0 2.03-1.624 3.131-3.363 3.885-.348-.348.058-.928.232-1.333.986-.928 1.855-2.088 3.131-2.552m-3.421-1.739c.116 1.855-.29 4.002-1.218 5.683l-1.565.985c-1.218-2.725 1.391-4.639 2.783-6.668m-1.565 7.305c.29 2.204-1.682 2.784-3.015 4.117v.058h-.117c0-1.739 1.566-3.363 3.132-4.175m1.217 2.61 1.913.116c-1.797 1.565-3.42 5.044-6.551 4.059.406-1.856 2.667-3.769 4.638-4.175m-4.87-4.001c.406 1.856-.058 4.001-.696 5.74-.58.29-.986.87-1.682.986-.927-2.667 1.16-4.638 2.378-6.726m-2.145 7.654c.347-.29.811-.406 1.159-.638l-.406 2.318c-.869.349-1.391 1.565-2.261 1.739-.522-1.332.87-2.376 1.508-3.419m4.58 1.449c-1.855 1.797-3.073 5.334-6.32 4.58.638-2.609 3.421-4.986 6.32-4.58m-7.074-3.594c.464 1.218.29 3.015.116 4.349-.058 1.275-.754 1.913-1.797 2.609-1.623-2.61.812-4.813 1.681-6.958M13.567 47.66c.638-1.16 1.044-2.436 2.146-3.305 0 .694.463 2.203-.406 2.725-.812.58-.87 1.623-1.566 2.087-.406-.405-.232-.985-.174-1.507m.638 4.754c.58-.174 1.102-.464 1.797-.464-1.333 2.146-1.739 5.914-5.044 5.972 0-2.145 1.218-4.291 3.247-5.508m-2.203-8.697c.58 1.739.928 3.885.464 5.683l-1.45 1.275c-1.507-2.378.348-4.755.986-6.958m.058 6.61c.29.695.29 1.681.29 2.436l-1.624 2.435h-.348c-.463-1.799.696-3.364 1.682-4.871m.29 8.291c.406-.116.753-.348 1.217-.348-1.159 2.261-1.217 5.972-4.58 6.319-.058-2.377 1.101-4.812 3.363-5.971m-2.552.986L8.291 61.98c-.754-1.682.348-3.479 1.102-4.928.232.696.695 1.624.405 2.552m-1.507-9.451c.87 1.913 2.03 4.986.232 6.899-.116.115-.116.231-.232.348-2.087-1.913-.522-5.044 0-7.247M5.624 57.11c1.102 1.565 1.508 3.595 1.681 5.624l-.985 1.624c-2.262-1.682-.928-4.987-.696-7.248m.812 16.35c-.638.986-.812 2.146-1.218 3.189-1.043-1.565-.174-3.594.348-5.16.29.58.754 1.218.87 1.971m-3.073-8.696c1.217 2.029 3.015 4.813 1.333 7.132-2.493-1.45-1.391-4.754-1.333-7.132m-1.45 7.422a10.87 10.87 0 0 1 2.493 5.508c-.406.463-.231 1.217-.753 1.507-2.435-1.45-1.74-4.581-1.74-7.015m-.579 7.362a10.9 10.9 0 0 1 2.493 5.509c-.348.464-.232 1.218-.754 1.565-2.435-1.45-1.682-4.638-1.739-7.074M.87 87.086c1.449 1.855 3.594 4.291 2.319 6.842-.348.174-.638-.289-.928-.579-1.739-1.624-1.043-4.06-1.391-6.263M4 101.06c-2.493-1.334-2.203-4.175-2.666-6.553 1.623 1.334 2.841 3.248 3.42 5.16-.29.464 0 1.624-.754 1.393m-1.623 1.564c1.623 1.044 3.131 2.783 3.885 4.523l-.174 1.739c-2.899-.695-3.015-3.999-3.711-6.262m1.856 7.422c1.913.754 3.362 2.552 4.464 4.175l-.058 1.623c-2.899-.348-3.421-3.653-4.406-5.798m2.609 7.247c1.913.696 3.594 2.204 4.986 3.827l.058 1.566c-2.841-.058-4.001-3.247-5.044-5.393m5.044 2.378c-1.624-.985-1.971-3.072-2.088-4.812.696.637 1.508 1.159 1.972 1.913-.232 1.101.464 1.914.116 2.899m-.812-4.871c-1.391-1.854-1.507-4.638-.406-6.725.406-.29.464-.928 1.044-1.102.058 2.493 1.913 5.798-.638 7.827m-.812 9.451c1.914.464 3.653 1.682 5.103 3.131 0 .639.579 1.159.174 1.798-2.783.057-4.001-3.132-5.277-4.929m4.059 6.552c2.319.522 5.392 1.334 5.914 4.001v.231c-2.725.523-4.406-2.434-5.914-4.232m4.754 6.03c2.03.174 3.769.929 5.451 2.029.347.521.637 1.102.753 1.797-2.725.697-4.522-2.087-6.204-3.826m9.045 9.161c-1.507-.754-2.725-2.029-3.884-3.247 1.971.116 3.942.753 5.624 1.739l.754 1.508c-.58.522-1.74.232-2.494 0m1.044-6.145c-.232-1.16 0-2.087.29-3.073 1.275 2.203 4.29 4.231 2.899 7.305-1.624-.871-2.725-2.609-3.189-4.232m.464 8.406.232-.058c2.029 0 3.768.58 5.508 1.391l.869 1.566c-2.724 1.101-4.696-1.39-6.609-2.899m11.712 7.479c-2.493.521-4.06-1.507-5.973-2.609 1.159-.348 2.609 0 3.884.174 1.219.406 2.436.755 2.899 2.088.001.465-.52.347-.81.347m.347 1.624c.928-.349 2.32-.174 3.422-.116 1.391.232 2.899.463 3.536 1.971-2.493 1.449-4.87-.638-6.958-1.855m7.654 0c2.087-.464 3.421 1.102 4.58 2.435-.175.349-.812.174-1.159.116-1.219-.696-2.667-1.218-3.421-2.551m-.928 3.768c1.509-.521 3.537-.58 5.16-.231.928-.059 1.45.87 1.972 1.449-2.203 1.798-4.986-.174-7.132-1.218m6.726 3.247c1.681-.694 3.942-.928 5.972-.638.348.522 1.102.696 1.159 1.334-2.261 1.798-4.928 0-7.131-.696m7.015 2.377c1.798-.811 3.77-1.333 5.914-1.159.406.349 1.044.58 1.334 1.102-1.971 2.087-5.102.521-7.248.057m7.015 1.45c1.798-1.16 4.233-2.145 6.32-1.508l.406 1.16c-1.797 1.565-4.58.581-6.726.348m6.205-3.595c-1.797-.116-3.769-1.16-4.812-2.956l-.464-1.393c1.854 1.103 4.464.928 5.798 2.726zm.812-.232.637-1.159c.58 1.102 1.798 1.682 3.073 1.565 1.102 0 2.146-.174 3.131-.58-.406.754-.521 2.088-1.681 2.261-1.45.813-3.421.407-4.755-.347-.637-.347-.464-1.16-.405-1.74m.927 4.928c-.521-.521-.464-1.507-.753-2.202 1.739.405 4.232.58 6.087-.406.406 0 .813.638 1.103.87-2.088.753-4.06 1.914-6.437 1.738m7.48-2.261c-.639.174-1.103-.58-1.509-1.043.29-.87.116-2.146 1.334-2.378.928.29 1.275 1.334 1.449 2.146-.231.522-.752 1.044-1.274 1.275m6.841 2.261c-2.261-.058-4.059-1.101-6.03-1.797.638-1.971 1.972.059 3.189-.174 1.334.174 2.782-.058 4.116-.348-.637.697-.115 2.261-1.275 2.319m-3.478-2.782c-1.275-.116-1.739-1.507-2.029-2.436 1.565.522 3.885 1.16 5.392 0l.754-.927c.348.637 1.044 1.333.754 2.319-1.161 1.334-3.19 1.682-4.871 1.044m4.928 1.681.638-1.856c1.971.175 3.71.87 5.334 1.799-1.798.231-4.175 1.1-5.972.057m5.798-1.508c.812-1.507 2.898-1.102 4.231-.985.986.349 2.146.406 3.016 1.043-2.203.464-5.276 2.03-7.247-.058m7.073-1.623c.058-.58.754-.812 1.102-1.218 1.971-.463 4.233-.173 6.03.464-1.971.697-4.87 2.609-7.132.754m13.8-4c-1.914.87-4.581 3.072-7.017 1.449.059-.696.87-.929 1.219-1.449 1.855-.407 3.942-.523 5.798 0m-5.45-1.217c1.101-1.16 2.203-3.016 4.232-2.493h.348c-1.16 1.274-2.667 2.956-4.58 2.493m12.175-2.552c-1.797 1.102-4.174 3.362-6.783 2.088.869-2.61 4.29-2.32 6.783-2.088m-1.855-4.175c-.87-3.131 2.261-4.812 3.942-6.668.521 2.32-.58 4.291-2.262 5.915-.578.232-.984.927-1.68.753m1.449 2.437c.754-2.494 3.711-2.319 5.914-2.668l.929.174c-1.972 1.391-4.117 3.594-6.843 2.494m12.524-7.307c-1.913 1.509-3.711 3.885-6.552 3.073-.174-.696.58-1.102.754-1.682 1.74-.869 3.769-1.449 5.798-1.391m-2.551-4.175c-.406-.58-.58-1.564-.349-2.434.232-1.914 2.319-3.132 3.016-4.871.928 1.797.231 3.884-.754 5.508-.579.638-1.218 1.392-1.913 1.797m7.943-1.333c-1.681 1.682-3.594 4.232-6.378 3.42.522-2.608 3.596-2.957 5.798-3.478zm5.161-5.914c-1.682 1.739-3.363 4.406-6.088 3.884-.231-.579.405-1.043.463-1.681 1.682-1.16 3.537-1.971 5.625-2.203m4.174-6.03h.58c-1.508 1.74-3.072 4.696-5.855 4.29-.059-2.782 3.304-3.479 5.275-4.29m4.117-6.493c.232.058.349-.173.579-.059-1.333 1.855-2.609 5.044-5.392 4.87-.232-2.725 2.899-3.767 4.813-4.811m3.942-7.017c-1.043 2.088-2.087 5.277-4.986 5.508v-1.681c1.392-1.623 3.073-3.131 4.986-3.827m2.608-7.247c-.984 2.146-1.448 5.276-4.348 5.856-.29-.638 0-1.393 0-1.971 1.045-1.566 2.668-3.073 4.348-3.885m1.799-7.422c-.58 2.204-.755 5.567-3.596 6.263-.695-1.334.232-2.493.813-3.595zm-1.856-1.507c-1.159-2.261.928-4.291 2.262-6.088l.638-.522c-.291 2.378-.117 5.624-2.9 6.61m1.16-7.131c-1.334-2.494.754-4.987 2.203-6.9 0 2.377.464 5.624-2.203 6.9" clip-path="url(#b)"/></svg>