<svg xmlns="http://www.w3.org/2000/svg" width="247" height="84.809" viewBox="0 0 247 84.809" >
 <g transform="matrix(.5711 0 0 .5711 .99026 1.1883)">
  <path d="m363.59 0v31.152l10.067 5.426v63.713h-33.465v-63.713l10.066-5.426v-31.152h-131.39v31.152l5.035 2.714-9.408 14.55-9.407-14.55 5.034-2.714v-31.152h-129.91v31.152l10.069 5.423v26.145l-40.56-62.72h-49.73v31.152l10.072 5.426v71.844l-10.072 5.429v31.149h63.926v-31.149l-10.064-5.426v-23.358l38.753 59.933h41.465v-108.42l8.788-4.734 13.858 7.465 35.879 55.486v13.633l-10.067 5.423v31.152h63.924v-31.152l-10.067-5.423v-13.633l35.879-55.486 13.858-7.465 8.791 4.734v81.984l19.296 26.441h85.419l19.295-26.441v-81.984l10.067-5.423v-31.152z" fill="#dbd9d6"/>
  <path d="m223.99 28.106 7.215 3.888-16.7 25.832-16.702-25.832 7.218-3.888v-23.001h-58.315v23.001l13.608 7.329 37.406 57.854v18.182l-10.066 5.426v22.998h53.7v-22.998l-10.066-5.426v-18.182l37.409-57.854 13.605-7.329 3e-3 -23.001h-58.315zm-138.65 0 10.068 5.423v46.506l-48.452-74.93h-41.838v23.001l10.073 5.423v77.942l-10.073 5.426v22.998h53.704v-22.998l-10.064-5.426v-43.719l46.65 72.143h33.567v-106.37l10.067-5.423v-23.001h-53.702zm283.37-23.001v23.001l10.066 5.425v71.865h-43.688v-71.865l10.067-5.425v-23.001h-55.186v23.001l10.069 5.423v83.365l16.783 23.001h80.22l16.785-23.001v-83.365l10.067-5.423v-23.001z" fill="#57068c"/>
  <path d="m238.58 15.315h33.502l-3e-3 6.696-10.546 5.684-40.468 62.582v27.289l10.067 5.423 5.111 2.754v-5.8l-10.067-5.423v-22.737l38.938-60.217 12.077-6.509 3e-3 -14.847h-48.093zm-38.67 9.745v-14.85h-48.093l9.479 5.105h33.502v6.696l-11.583 6.242 31.29 48.393v-9.41l-23.995-37.11zm-99.982-9.745h28.888v6.696l-10.066 5.426v104.6l5.111 2.751v-104.31l10.067-5.423v-14.85h-43.481zm-56.284 44.53-5.112-7.904v65.622l10.064 5.426 5.111 2.751v-5.797l-10.063-5.426zm-33.417-49.635 9.481 5.105h21.676l54.022 83.541v-9.41l-51.237-79.236zm363.59 0 9.482 5.105h30.367v6.696l-10.067 5.426v86.133l-6.562 8.99v8.668l11.674-15.996v-84.75l10.066-5.422v-14.85zm-43.844 20.273 10.066-5.423v-14.85h-44.96l9.482 5.105h30.367v6.699l-10.066 5.423v88.169h50.185l3.725-5.105h-48.799z" fill="#87189d"/>
 </g>
</svg>