<svg xmlns="http://www.w3.org/2000/svg" width="204.138" height="204.2" viewBox="-110 -110 204.138 204.2"><title>
 The seal of the University of California UCLA
</title><desc>This is the seal of the University of California, Los Angeles (UCLA);
 it contains the following text:
 THE UNIVERSITY OF CALIFORNIA
 UCLA
 LET THERE BE LIGHT ;
 see
 http://commons.wikimedia.org/wiki/File:The_University_of_California_UCLA.svg
 for more information.</desc><g transform="translate(-7.931 -7.9)"><circle r="100" style="fill:#fff"/><circle cy="100" r="2.1" style="fill:#2774ae"/><circle cy="100" r="2.1" style="fill:#2774ae" transform="rotate(2.86)"/><circle cy="100" r="2.1" style="fill:#2774ae" transform="rotate(5.71)"/><circle cy="100" r="2.1" style="fill:#2774ae" transform="rotate(8.57)"/><circle cy="100" r="2.1" style="fill:#2774ae" transform="rotate(11.43)"/><circle cy="100" r="2.1" style="fill:#2774ae" transform="rotate(14.29)"/><circle cy="100" r="2.1" style="fill:#2774ae" transform="rotate(17.14)"/><circle cy="100" r="2.1" style="fill:#2774ae" transform="rotate(20)"/><circle cy="100" r="2.1" style="fill:#2774ae" transform="rotate(22.86)"/><circle cy="100" r="2.1" style="fill:#2774ae" transform="rotate(25.71)"/><circle cy="100" r="2.1" style="fill:#2774ae" transform="rotate(28.57)"/><circle cy="100" r="2.1" style="fill:#2774ae" transform="rotate(31.43)"/><circle cy="100" r="2.1" style="fill:#2774ae" transform="rotate(34.29)"/><circle cy="100" r="2.1" style="fill:#2774ae" transform="rotate(37.14)"/><circle cy="100" r="2.1" style="fill:#2774ae" transform="rotate(40)"/><circle cy="100" r="2.1" style="fill:#2774ae" transform="rotate(42.86)"/><circle cy="100" r="2.1" style="fill:#2774ae" transform="rotate(45.71)"/><circle cy="100" r="2.1" style="fill:#2774ae" transform="rotate(48.57)"/><circle cy="100" r="2.1" style="fill:#2774ae" transform="rotate(51.43)"/><circle cy="100" r="2.1" style="fill:#2774ae" transform="rotate(54.29)"/><circle cy="100" r="2.1" style="fill:#2774ae" transform="rotate(57.14)"/><circle cy="100" r="2.1" style="fill:#2774ae" transform="rotate(60)"/><circle cy="100" r="2.1" style="fill:#2774ae" transform="rotate(62.86)"/><circle cy="100" r="2.1" style="fill:#2774ae" transform="rotate(65.71)"/><circle cy="100" r="2.1" style="fill:#2774ae" transform="rotate(68.57)"/><circle cy="100" r="2.1" style="fill:#2774ae" transform="rotate(71.43)"/><circle cy="100" r="2.1" style="fill:#2774ae" transform="rotate(74.29)"/><circle cy="100" r="2.1" style="fill:#2774ae" transform="rotate(77.14)"/><circle cy="100" r="2.1" style="fill:#2774ae" transform="rotate(80)"/><circle cy="100" r="2.1" style="fill:#2774ae" transform="rotate(82.86)"/><circle cy="100" r="2.1" style="fill:#2774ae" transform="rotate(85.71)"/><circle cy="100" r="2.1" style="fill:#2774ae" transform="rotate(88.57)"/><circle cy="100" r="2.1" style="fill:#2774ae" transform="rotate(91.43)"/><circle cy="100" r="2.1" style="fill:#2774ae" transform="rotate(94.29)"/><circle cy="100" r="2.1" style="fill:#2774ae" transform="rotate(97.14)"/><circle cy="100" r="2.1" style="fill:#2774ae" transform="rotate(100)"/><circle cy="100" r="2.1" style="fill:#2774ae" transform="rotate(102.86)"/><circle cy="100" r="2.1" style="fill:#2774ae" transform="rotate(105.71)"/><circle cy="100" r="2.1" style="fill:#2774ae" transform="rotate(108.57)"/><circle cy="100" r="2.1" style="fill:#2774ae" transform="rotate(111.43)"/><circle cy="100" r="2.1" style="fill:#2774ae" transform="rotate(114.29)"/><circle cy="100" r="2.1" style="fill:#2774ae" transform="rotate(117.14)"/><circle cy="100" r="2.1" style="fill:#2774ae" transform="rotate(120)"/><circle cy="100" r="2.1" style="fill:#2774ae" transform="rotate(122.86)"/><circle cy="100" r="2.1" style="fill:#2774ae" transform="rotate(125.71)"/><circle cy="100" r="2.1" style="fill:#2774ae" transform="rotate(128.57)"/><circle cy="100" r="2.1" style="fill:#2774ae" transform="rotate(131.43)"/><circle cy="100" r="2.1" style="fill:#2774ae" transform="rotate(134.29)"/><circle cy="100" r="2.1" style="fill:#2774ae" transform="rotate(137.14)"/><circle cy="100" r="2.1" style="fill:#2774ae" transform="rotate(140)"/><circle cy="100" r="2.1" style="fill:#2774ae" transform="rotate(142.86)"/><circle cy="100" r="2.1" style="fill:#2774ae" transform="rotate(145.71)"/><circle cy="100" r="2.1" style="fill:#2774ae" transform="rotate(148.57)"/><circle cy="100" r="2.1" style="fill:#2774ae" transform="rotate(151.43)"/><circle cy="100" r="2.1" style="fill:#2774ae" transform="rotate(154.29)"/><circle cy="100" r="2.1" style="fill:#2774ae" transform="rotate(157.14)"/><circle cy="100" r="2.1" style="fill:#2774ae" transform="rotate(160)"/><circle cy="100" r="2.1" style="fill:#2774ae" transform="rotate(162.86)"/><circle cy="100" r="2.1" style="fill:#2774ae" transform="rotate(165.71)"/><circle cy="100" r="2.1" style="fill:#2774ae" transform="rotate(168.57)"/><circle cy="100" r="2.1" style="fill:#2774ae" transform="rotate(171.43)"/><circle cy="100" r="2.1" style="fill:#2774ae" transform="rotate(174.29)"/><circle cy="100" r="2.1" style="fill:#2774ae" transform="rotate(177.14)"/><circle cy="100" r="2.1" style="fill:#2774ae" transform="scale(-1)"/><circle cy="100" r="2.1" style="fill:#2774ae" transform="rotate(182.86)"/><circle cy="100" r="2.1" style="fill:#2774ae" transform="rotate(185.71)"/><circle cy="100" r="2.1" style="fill:#2774ae" transform="rotate(188.57)"/><circle cy="100" r="2.1" style="fill:#2774ae" transform="rotate(191.43)"/><circle cy="100" r="2.1" style="fill:#2774ae" transform="rotate(194.29)"/><circle cy="100" r="2.1" style="fill:#2774ae" transform="rotate(197.14)"/><circle cy="100" r="2.1" style="fill:#2774ae" transform="rotate(200)"/><circle cy="100" r="2.1" style="fill:#2774ae" transform="rotate(202.86)"/><circle cy="100" r="2.1" style="fill:#2774ae" transform="rotate(205.71)"/><circle cy="100" r="2.1" style="fill:#2774ae" transform="rotate(208.57)"/><circle cy="100" r="2.1" style="fill:#2774ae" transform="rotate(211.43)"/><circle cy="100" r="2.1" style="fill:#2774ae" transform="rotate(214.29)"/><circle cy="100" r="2.1" style="fill:#2774ae" transform="rotate(217.14)"/><circle cy="100" r="2.1" style="fill:#2774ae" transform="rotate(220)"/><circle cy="100" r="2.1" style="fill:#2774ae" transform="rotate(222.86)"/><circle cy="100" r="2.1" style="fill:#2774ae" transform="rotate(225.71)"/><circle cy="100" r="2.1" style="fill:#2774ae" transform="rotate(228.57)"/><circle cy="100" r="2.1" style="fill:#2774ae" transform="rotate(231.43)"/><circle cy="100" r="2.1" style="fill:#2774ae" transform="rotate(234.29)"/><circle cy="100" r="2.1" style="fill:#2774ae" transform="rotate(237.14)"/><circle cy="100" r="2.1" style="fill:#2774ae" transform="rotate(240)"/><circle cy="100" r="2.1" style="fill:#2774ae" transform="rotate(242.86)"/><circle cy="100" r="2.1" style="fill:#2774ae" transform="rotate(245.71)"/><circle cy="100" r="2.1" style="fill:#2774ae" transform="rotate(248.57)"/><circle cy="100" r="2.1" style="fill:#2774ae" transform="rotate(251.43)"/><circle cy="100" r="2.1" style="fill:#2774ae" transform="rotate(254.29)"/><circle cy="100" r="2.1" style="fill:#2774ae" transform="rotate(257.14)"/><circle cy="100" r="2.1" style="fill:#2774ae" transform="rotate(260)"/><circle cy="100" r="2.1" style="fill:#2774ae" transform="rotate(-97.14)"/><circle cy="100" r="2.1" style="fill:#2774ae" transform="rotate(-94.29)"/><circle cy="100" r="2.1" style="fill:#2774ae" transform="rotate(-91.43)"/><circle cy="100" r="2.1" style="fill:#2774ae" transform="rotate(-88.57)"/><circle cy="100" r="2.1" style="fill:#2774ae" transform="rotate(-85.71)"/><circle cy="100" r="2.1" style="fill:#2774ae" transform="rotate(-82.86)"/><circle cy="100" r="2.1" style="fill:#2774ae" transform="rotate(-80)"/><circle cy="100" r="2.1" style="fill:#2774ae" transform="rotate(-77.14)"/><circle cy="100" r="2.1" style="fill:#2774ae" transform="rotate(-74.29)"/><circle cy="100" r="2.1" style="fill:#2774ae" transform="rotate(-71.43)"/><circle cy="100" r="2.1" style="fill:#2774ae" transform="rotate(-68.57)"/><circle cy="100" r="2.1" style="fill:#2774ae" transform="rotate(-65.71)"/><circle cy="100" r="2.1" style="fill:#2774ae" transform="rotate(-62.86)"/><circle cy="100" r="2.1" style="fill:#2774ae" transform="rotate(-60)"/><circle cy="100" r="2.1" style="fill:#2774ae" transform="rotate(-57.14)"/><circle cy="100" r="2.1" style="fill:#2774ae" transform="rotate(-54.29)"/><circle cy="100" r="2.1" style="fill:#2774ae" transform="rotate(-51.43)"/><circle cy="100" r="2.1" style="fill:#2774ae" transform="rotate(-48.57)"/><circle cy="100" r="2.1" style="fill:#2774ae" transform="rotate(-45.71)"/><circle cy="100" r="2.1" style="fill:#2774ae" transform="rotate(-42.86)"/><circle cy="100" r="2.1" style="fill:#2774ae" transform="rotate(-40)"/><circle cy="100" r="2.1" style="fill:#2774ae" transform="rotate(-37.14)"/><circle cy="100" r="2.1" style="fill:#2774ae" transform="rotate(-34.29)"/><circle cy="100" r="2.1" style="fill:#2774ae" transform="rotate(-31.43)"/><circle cy="100" r="2.1" style="fill:#2774ae" transform="rotate(-28.57)"/><circle cy="100" r="2.1" style="fill:#2774ae" transform="rotate(-25.71)"/><circle cy="100" r="2.1" style="fill:#2774ae" transform="rotate(-22.86)"/><circle cy="100" r="2.1" style="fill:#2774ae" transform="rotate(-20)"/><circle cy="100" r="2.1" style="fill:#2774ae" transform="rotate(-17.14)"/><circle cy="100" r="2.1" style="fill:#2774ae" transform="rotate(-14.29)"/><circle cy="100" r="2.1" style="fill:#2774ae" transform="rotate(-11.43)"/><circle cy="100" r="2.1" style="fill:#2774ae" transform="rotate(-8.57)"/><circle cy="100" r="2.1" style="fill:#2774ae" transform="rotate(-5.71)"/><circle cy="100" r="2.1" style="fill:#2774ae" transform="rotate(-2.86)"/><path d="m-15-63-17 .5m19 1.5-37 11m39-9-53 36m54-33L-70-1.5m60-50L-67 13m59-62-54.5 79M-7-45-46 55M-3.5-49-35 62M-1-50.5-23 60m14-5-2 15.5M13.5-61 32-59.5M12-59l42 17M12-56l54 33M12-53 69-6M10-50l58 64M14-40l51 67M24-20l34 59M6-50 47 53M1.5-50.5l30 109m-16-3.5.5 12.5M2 55l.5 16" style="stroke:#2774ae;stroke-width:1"/><path d="M-52 28c-3 3-5.5 4-5.5 9s5.5 5 6.5 5 5-1 5 4.5 8 7 8 12.5c.5 3 1-5-1-7 1-1 .5-1 1.5-3 1 1 8 7 9 7 3 0 1.5-6.5-2-3-1.5-1.5-1.5-4.5-3.5-4.5s-2-2-2-4 0-8.5-14-8.5c-3 0-3 0-3-2s1-4 1-5z" style="fill:#fff;stroke:#2774ae;stroke-width:1"/><path d="M-47.5-45.5H-6c3 0 5 4 6 5 1-1 3-5 6-5h41.5v89H4c0 2-8 2-8 0h-43.5z" style="fill:#fff;stroke:#2774ae;stroke-width:1"/><path d="M-35.5-45.5v82H-6c3 0 5 4 6 5 1-1 3-5 6-5h29.5v-82" style="fill:none;stroke:#2774ae;stroke-width:1"/><path d="M-38.5-45.5v83.75H-6c3 0 5 4 6 5 1-1 3-5 6-5h32.5V-45.5" style="fill:none;stroke:#2774ae;stroke-width:1"/><path d="M-41.5-45.5V40H-6c3 0 5 2.5 6 3.5 1-1 3-3.5 6-3.5h35.5v-85.5" style="fill:none;stroke:#2774ae;stroke-width:1"/><path d="M-44.5-45.5v87.25H-6c3 0 5 .75 6 1.75 1-1 3-1.75 6-1.75h38.5V-45.5" style="fill:none;stroke:#2774ae;stroke-width:1"/><path d="M0-40.5v82" style="stroke:#2774ae;stroke-width:1"/><path d="M-4 43.5c0-6 8-6 8 0 0 2-8 2-8 0z" style="fill:#fff;stroke:#2774ae;stroke-width:1"/><path d="M6-41.35h3m3 0h2m1 0h3m3 0h7m1 0h4m-27 3.2h1m1 0h13m3 0h9m-27 3.2h4m1 0h3m3 0h7m1 0h4m1 0h3m-27 3.2h27m-27 3.2h1m1 0h9m1 0h5m1 0h9m-27 3.2h5m1 0h7m1 0h7m3 0h3m-27 3.2h1m3 0h5m1 0h3m3 0h7m1 0h3m-27 3.2h4m3 0h6m1 0h4m3 0h6m-27 3.2h1m1 0h9m1 0h5m1 0h9m-27 3.2h2m1 0h3m3 0h1m1 0h3m3 0h1m1 0h3m3 0h2M6-9.35h2m1 0h5m1 0h3m3 0h6m1 0h5M6-6.15h10m1 0h16M6-2.95h2m1 0h12m3 0h9M6 .25h4m1 0h5m3 0h7m1 0h6M6 3.45h27M6 6.65h9m3 0h15M6 9.85h3m1 0h2m1 0h6m1 0h4m1 0h8m-27 3.2h10m1 0h16m-27 3.2h27m-27 3.2h9m3 0h15m-27 3.2h1.5m1 0h19.2m3 0h.6m1 0h.7m-27 3.2h.5m1 0H33m-27 3.2h1.2m1 0H33m-27 3.2h27m-66-73.6h3m3 0h4m1 0h5m1 0h5m1 0h4m-27 3.2h18m1 0h8m-27 3.2h15m1 0h5m3 0h3m-27 3.2h18m3 0h6m-27 3.2h27m-27.1 3.2h3m3 0h4m1 0h4m3 0h7m1 0h1m-27 3.2h5m1 0h15m3 0h3m-27 3.2h4m1 0h3m3 0h7m1 0h5m1 0h2m-27 3.2h2m1 0h3m3 0h1.5m1 0h3m3 0h1m1 0h4m3 0h.5m-27 3.2h27m-27 3.2h6m3 0h8m3 0h5m1 0h1m-27 3.2h2m3 0h7m3 0h6m3 0h3m-27 3.2h27m-27 3.2h5m1 0h9m1 0h8m1 0h2m-27 3.2h11m3 0h13m-27 3.2h10m1 0h8m3 0h5m-27 3.2h5m3 0h17m1 0h1m-27 3.2h2m1 0h5m1 0h3m3 0h8m1 0h3m-27 3.2h3m3 0h8m3 0h5m3 0h2m-27 3.2h7m1 0h5m3 0h7m1 0h3m-27 3.2h9m3 0h5m1 0h7m1 0h1m-27 3.2h9.5m1 0h1m3 0h1m1 0h1m3 0h1m1 0h1m3 0h.5m-27 3.2h27m-27 3.2h27m-.5-73.6h.5c3 0 5 4 6 5 1-1 3-5 6-5h.5m-13 3.2h.5c3 0 5 4 6 5 1-1 3-5 6-5h.5m-13 3.2h.5c3 0 5 4 6 5 1-1 3-5 6-5h.5m-13 3.2h.5c3 0 5 4 6 5 1-1 3-5 6-5h.5m-13 3.2h.5c3 0 5 4 6 5 1-1 3-5 6-5h.5m-13 3.2h.5c3 0 5 4 6 5 1-1 3-5 6-5h.5m-13 3.2h.5c3 0 5 4 6 5 1-1 3-5 6-5h.5m-13 3.2h.5c3 0 5 4 6 5 1-1 3-5 6-5h.5m-13 3.2h.5c3 0 5 4 6 5 1-1 3-5 6-5h.5m-13 3.2h.5c3 0 5 4 6 5 1-1 3-5 6-5h.5m-13 3.2h.5c3 0 5 4 6 5 1-1 3-5 6-5h.5m-13 3.2h.5c3 0 5 4 6 5 1-1 3-5 6-5h.5m-13 3.2h.5c3 0 5 4 6 5 1-1 3-5 6-5h.5m-13 3.2h.5c3 0 5 4 6 5 1-1 3-5 6-5h.5m-13 3.2h.5c3 0 5 4 6 5 1-1 3-5 6-5h.5m-13 3.2h.5c3 0 5 4 6 5 1-1 3-5 6-5h.5m-13 3.2h.5c3 0 5 4 6 5 1-1 3-5 6-5h.5m-13 3.2h.5c3 0 5 4 6 5 1-1 3-5 6-5h.5m-13 3.2h.5c3 0 5 4 6 5 1-1 3-5 6-5h.5m-13 3.2h.5c3 0 5 4 6 5 1-1 3-5 6-5h.5m-13 3.2h.5c3 0 5 4 6 5 1-1 3-5 6-5h.5m-13 3.2h.5c3 0 5 4 6 5 1-1 3-5 6-5h.5m-13 3.2h.5c3 0 5 4 6 5 1-1 3-5 6-5h.5m-13 3.2h.5c3 0 5 4 6 5 1-1 3-5 6-5h.5m-13 3.2" style="fill:none;stroke:#2774ae;stroke-width:1"/><path d="M-32.5-38.15v9.6h9.6v-9.6z" style="fill:#fff;stroke:#fff;stroke-width:4"/><path d="M-32.5-38.15v9.6h9.6v-9.6zm1.5 8.5 3.3-6.6 3.3 6.6m-4.95-3.3h3.3" style="fill:none;stroke:#2774ae;stroke-width:1"/><path d="M21 45c-7-5-6-12 1-13l-7-2c-15 6-9 14.5 4 15Z" style="fill:#fff;stroke:#2774ae;stroke-width:1"/><path d="M-37 19c5 0 7 3 10 6s3.5 2.5 7 5 4.5 6 9 12 13 7 15 7 8 .5 10-1 2-4.5 5.5-4.5 4.5 5 4.5 7-2 14-22 13.5-25-13-28.5-18-2-16-27-16c0-2 .5-3 .5-5s0-4 7-5 4-1 9-1zm46.5 9c0 2 1 3 1 4s3 .5 4 1.5 20 6 30 6 13-4 17.5-14c1.1-2.5 0-5.5-3-9S53.5 11 51 11s-9 2-10 2.5-10 3-11-3.5 7.5-7 10-5 5.5 3 8.5 3 6-2.5 8-4.5S63 .5 63-3s-2-4-2-7c-1-2 1 5.5-3 6.5s-3.5 2-3.5 2c-.5-3 2-7.5-4.5-9.5 4-5-5-5-3 0l2.5 3c.5 1 1 1 1.5 4.5-1.5 1-1.5 1.5-2.5 3.5s-7-.5-10 1-3-3 .5-3.5 2.5 0 3.5-1.5-3 0-4-1-3 .5-4 1-7.5 5-7 12 1.5 13.5 10 13S49 12 54 17c1.5 1.5 0 9.5-4 9.5-25 0-20-5-35-5-6 0-5.5 3-5.5 5z" style="fill:#fff;stroke:#2774ae;stroke-width:1"/><path d="m59 16.5-5 .5" style="stroke:#2774ae;stroke-width:1"/><path d="M-35.14 68.46c4.31-13.21 4.89-11.29 7.83-7.65 1.52 1.89 4.51-.38 4.42 1.67-.14 3.2-2.86 4.64-3.64 13.55-4.87 2.56-8.01.52-8.62-7.57zm68.96 9.01c-22.43 5.28-10.21-.22-10.89-4.35-2.43-14.83-.88-10.35 4.48-12.64 2.8-1.19 5.88-2.37 6.56-.48 5.58 21.88 5.97 16.15-.16 17.47z" style="fill:#fff;stroke:#2774ae;stroke-width:1"/><path d="M-34.24 81.01c-25.29-5.73 4.13-11.49 3.34-14.84-2.6-11.03 1.35-8.99 3.59-6.41 1.59 1.84 4.51.68 4.42 2.73-.14 3.2-5.24.63-4.7 4.35 1.08 12.63 6.27 18.25-6.65 14.17zm69.3-.53c-22.43 5.28-4.47-9.65-10.1-13.96-6.35-4.86-2.29-5.19 2.7-6.41 2.95-.72 5.63-2 6.31-.11.92 2.55-2.05 1.49-3.48 5.32-1.02 2.72 29.49 7.13 4.56 15.16z" style="fill:#fff;stroke:#2774ae;stroke-width:1"/><path d="M-33.14 81.84c.03-3.32 5.67-9.86 5.2-10.75-2.94-5.62 1.75-3.55 7.17-2.67 3.46.56 15.3 3.95 20.84 3.53 1.4-.11 5.09.62 9.69-1.69 8.33-4.16 8.98-.32 13.6-2.78 5.21-2.78 5.02.51 5.15 3.1.17 3.66-.56.16.61 4.67.63 2.42 4.5 3.19 3.88 7.37-.64 4.39-4.15 5.1-14.89 7.29-9.62 1.96-6.09 2.7-17.38 2.76-8.81.05-6-2.53-23.36-2.74-7.05-.08-10.56-2.8-10.5-8.08z" style="fill:#fff;stroke:#2774ae;stroke-width:1"/><path d="M70.44-55.07c1.57 4.27 4.57 4.97 7.17 8.62 2.61 3.65 5.64 12.14 6.85 15.99 2.58 8.22 5.97 12.8 5.96 20.64-.02 9.25.47 20.47-.66 23.78s-4.17 11.47-5.63 20.85c-1.36 8.73-8.95 15.95-10.02 17.18s-4.2 9.73-12.41 16.15c-3.62 2.83-8.8 6.32-13.23 9.54-3.99 2.9-5.88 5.68-8.22 5.35s-3.94-3.18-4.4-6.78c-.29-2.25-.73-3.91-3.82-7.58-2.67-3.17-3.39-4.15 2.39-4.82 4.14-.48 9.9-8.72 13.28-9.78s10.22-11.4 16.58-25.1c4.62-9.98 7.28-23.95 4.66-42.19-2.47-17.2-5.83-18.57-11.29-26.84-4.41-6.68-7.52-11.62-13.5-14.8-.94-.5-3.62-1.14-6.98-4.27-1.94-1.81-4.82-2.95-7.35-4.41S9.97-71.38.5-71.65c-7.81-.22-19.21 1.43-37.15 11.16-6.11 3.32-11.99 8.28-19.6 16.88-3.14 3.55-4.09 7.93-5.88 11.74-.99 2.12-2.86 3.82-4.05 5.69-4.52 7.12-5.43 20.02-5.44 25.85-.03 9.8 3.61 16.83 3.71 21.52.16 7.17 4.23 12.06 9.27 20.65 2.99 5.1 9.2 10.91 12.73 13.27 3.73 2.48 5.55 5.63 10.61 8.05 8.41 4.02 1.87 5.24.49 9.46-.76 2.33-1.57 13.24-8.02 9.13-3.14-2-8.42-4.63-13.35-8.69-1.49-1.23-9.6-6.39-12.87-13.36-.99-2.11-5.77-7.14-9.95-13.68-3.75-5.86-5.74-12.05-8.85-19.54C-91 18.88-90.78 7.49-91.51-.3c-1.63-17.56 4.62-23.34 4.62-24.78 0-5 4.95-17.01 6.62-19.25 1.67-2.25 2.62-4.85 7.52-11.86 1.12-1.6 10.72-10.05 15.24-14.36 7.21-6.87 29.22-16.96 33.52-17.02 6.79-.1 11.18-3.15 21.49-3.72 6.68-.37 22.3 4.02 29.61 5.51 13.3 2.71 12.02 5.79 23.95 12.28C63-67.02 67.97-61.74 70.44-55.04z" style="fill:#fff;stroke:#2774ae;stroke-width:1"/><path d="M-.294-.405 0-1l.294.595.657.096-.475.464.112.654L0 .5l-.588.309.112-.654L-.95-.31z" style="fill:#fff;stroke:#2774ae;stroke-width:.05" transform="matrix(15 0 0 15 0 -62)"/><path d="M0 0v-1l.294.595zm0 0 .951-.309-.238.232zm0 0 .476.155.112.654zm0 0v.5l-.588.309zm0 0-.951-.309.657-.096z" style="fill:#2774ae" transform="matrix(15 0 0 15 0 -62)"/><circle cy="81" r="2.1" style="fill:#2774ae" transform="rotate(37.5)"/><circle cy="81" r="2.1" style="fill:#2774ae" transform="rotate(-37.5)"/><circle cy="81" r="2.1" style="fill:#2774ae" transform="rotate(82.5)"/><circle cy="81" r="2.1" style="fill:#2774ae" transform="rotate(215)"/><circle cy="81" r="2.1" style="fill:#2774ae" transform="rotate(183.5)"/><path d="M5.5-2.9V-6h-11v3.1h.2l.3-.5h3.7v8.9l-.5.3V6h3.6v-.2l-.5-.3v-8.9H5l.3.5z" style="fill:#2774ae" transform="rotate(230.2 -18.972 40.5)"/><path d="M-6-6v.2l.5.3v11l-.5.3V6h3.6v-.2l-.5-.3v-11l.5-.3V-6zM6-6v.2l-.5.3v11l.5.3V6H2.4v-.2l.5-.3v-11l-.5-.3V-6z" style="fill:#2774ae" transform="rotate(240.7 -23.714 40.5)"/><path d="M-5 1.3H5v-2.6H-5z" style="fill:#2774ae" transform="rotate(240.7 -23.714 40.5)"/><path d="M2.5 1.3v-2.6h-4.4v-2.1H4l.3.5h.2V-6H-5v.2l.5.3v11l-.5.3V6h9.5V2.9h-.2l-.3.5h-5.9V1.3z" style="fill:#2774ae" transform="rotate(251.8 -29.317 40.5)"/><path d="M-4.2-6v6c0 6.3 8.4 6.3 8.4 0v-6" style="fill:none;stroke:#2774ae;stroke-width:2.5999999" transform="rotate(-87.3 -42.455 40.5)"/><path d="M-2.4-6v.2l-.5.3h-2.6l-.5-.3V-6zm4.8 0v.2l.5.3h2.6l.5-.3V-6z" style="fill:#2774ae" transform="rotate(-87.3 -42.455 40.5)"/><path d="M-6 5.8V6h3.1V-6H-6v.2l.5.3v11zm12 0V6H2.9V-6H6v.2l-.5.3v11z" style="fill:#2774ae" transform="rotate(-76.5 -51.374 40.5)"/><path d="M2.9 6h2.6L-2.9-6h-2.6z" style="fill:#2774ae" transform="rotate(-76.5 -51.374 40.5)"/><path d="M-1.8-6v.2l.5.3v11l-.5.3V6h3.6v-.2l-.5-.3v-11l.5-.3V-6z" style="fill:#2774ae" transform="rotate(-68.2 -59.818 40.5)"/><path d="M-1.3 6h2.6L7-6H4.4zh2.6L-4.4-6H-7z" style="fill:#2774ae" transform="rotate(-60.6 -69.307 40.5)"/><path d="M2.5 1.3v-2.6h-4.4v-2.1H4l.3.5h.2V-6H-5v.2l.5.3v11l-.5.3V6h9.5V2.9h-.2l-.3.5h-5.9V1.3z" style="fill:#2774ae" transform="rotate(-50 -86.853 40.5)"/><g transform="rotate(-40 -111.273 40.5)"><path d="M-4.2 6V-4.7H0C5.5-4.7 5.5 0 0 0h-4.2m3.7 0 4.2 4.7" style="fill:none;stroke:#2774ae;stroke-width:2.5999999"/><circle cx="3.7" cy="4.7" r="1.3" style="fill:#2774ae"/><path d="M-2.4 6v-.2l-.5-.3h-2.6l-.5.3V6z" style="fill:#2774ae"/></g><g transform="rotate(-30.2 -150.1 40.5)"><path d="M-3.7 3.3S-5 4.7 0 4.7 5 0 0 0s-5-4.7 0-4.7 3.7 1.4 3.7 1.4" style="fill:none;stroke:#2774ae;stroke-width:2.5999999"/><circle cx="-3.7" cy="3.3" r="1.3" style="fill:#2774ae"/><circle cx="3.7" cy="-3.3" r="1.3" style="fill:#2774ae"/></g><path d="M-1.8-6v.2l.5.3v11l-.5.3V6h3.6v-.2l-.5-.3v-11l.5-.3V-6z" style="fill:#2774ae" transform="rotate(-23 -199.064 40.5)"/><path d="M5.5-2.9V-6h-11v3.1h.2l.3-.5h3.7v8.9l-.5.3V6h3.6v-.2l-.5-.3v-8.9H5l.3.5z" style="fill:#2774ae" transform="rotate(-15.7 -293.75 40.5)"/><path d="M-2.4-6H-6v.2l1 .6-.5-.8 4.2 7.5h2.6L-2.9-6v.5l.5-.3z" style="fill:#2774ae" transform="rotate(-6 -772.786 40.5)"/><path d="M2.4-6H6v.2l-1 .6.5-.8-4.2 7.5h-2.6L2.9-6v.5l-.5-.3z" style="fill:#2774ae" transform="rotate(-6 -772.786 40.5)"/><path d="m-1.3 5.5-.5.3V6h3.6v-.2l-.5-.3V1.4h-2.6z" style="fill:#2774ae" transform="rotate(-6 -772.786 40.5)"/><circle r="4.7" style="fill:none;stroke:#2774ae;stroke-width:2.5999999" transform="rotate(14.4 320.59 40.5)"/><path d="M-1.9-.8v-2.6H4l.3.5h.2V-6H-5v.2l.5.3v11l-.5.3V6h3.6v-.2l-.5-.3V1.8h5.4V-.8z" style="fill:#2774ae" transform="rotate(25.2 181.187 40.5)"/><g transform="rotate(45.4 96.818 40.5)"><circle r="4.7" style="fill:none;stroke:#2774ae;stroke-width:2.5999999"/><path d="M0-2h6.5v4H0z" style="fill:#fff"/></g><path d="M.1 2.7V.1h-1.533L.6-6h-3.1v.2l1 .6L-2-6-6 6l.5-.8-1 .6V6h3.6v-.2l-1-.6.5.8.9-3.3z" style="fill:#2774ae" transform="rotate(55.7 76.653 40.5)"/><path d="M-.1 2.7V.1h1.533L-.6-6h3.1v.2l-1 .6L2-6 6 6l-.5-.8 1 .6V6H2.9v-.2l1-.6-.5.8-.9-3.3z" style="fill:#2774ae" transform="rotate(55.7 76.653 40.5)"/><path d="M-5.5-6v.2l.5.3v11l-.5.3V6H5V2.9h-.2l-.3.5h-6.9V-6z" style="fill:#2774ae" transform="rotate(66.8 61.421 40.5)"/><path d="M-1.8-6v.2l.5.3v11l-.5.3V6h3.6v-.2l-.5-.3v-11l.5-.3V-6z" style="fill:#2774ae" transform="rotate(73.7 54.04 40.5)"/><path d="M-1.9-.8v-2.6H4l.3.5h.2V-6H-5v.2l.5.3v11l-.5.3V6h3.6v-.2l-.5-.3V1.8h5.4V-.8z" style="fill:#2774ae" transform="rotate(81.5 47.003 40.5)"/><circle r="4.7" style="fill:none;stroke:#2774ae;stroke-width:2.5999999" transform="rotate(91.2 39.66 40.5)"/><g transform="rotate(102.8 32.33 40.5)"><path d="M-4.2 6V-4.7H0C5.5-4.7 5.5 0 0 0h-4.2m3.7 0 4.2 4.7" style="fill:none;stroke:#2774ae;stroke-width:2.5999999"/><circle cx="3.7" cy="4.7" r="1.3" style="fill:#2774ae"/><path d="M-2.4 6v-.2l-.5-.3h-2.6l-.5.3V6z" style="fill:#2774ae"/></g><path d="M-6 5.8V6h3.1V-6H-6v.2l.5.3v11zm12 0V6H2.9V-6H6v.2l-.5.3v11z" style="fill:#2774ae" transform="rotate(114.6 26 40.5)"/><path d="M2.9 6h2.6L-2.9-6h-2.6z" style="fill:#2774ae" transform="rotate(114.6 26 40.5)"/><path d="M-1.8-6v.2l.5.3v11l-.5.3V6h3.6v-.2l-.5-.3v-11l.5-.3V-6z" style="fill:#2774ae" transform="rotate(123 21.99 40.5)"/><path d="M.1 2.7V.1h-1.533L.6-6h-3.1v.2l1 .6L-2-6-6 6l.5-.8-1 .6V6h3.6v-.2l-1-.6.5.8.9-3.3z" style="fill:#2774ae" transform="rotate(131.2 18.372 40.5)"/><path d="M-.1 2.7V.1h1.533L-.6-6h3.1v.2l-1 .6L2-6 6 6l-.5-.8 1 .6V6H2.9v-.2l1-.6-.5.8-.9-3.3z" style="fill:#2774ae" transform="rotate(131.2 18.372 40.5)"/><path d="M-4.2-6v6c0 6.3 8.4 6.3 8.4 0v-6" style="fill:none;stroke:#2774ae;stroke-width:2.5999999" transform="rotate(15 -307.628 -40.5)"/><path d="M-2.4-6v.2l-.5.3h-2.6l-.5-.3V-6zm4.8 0v.2l.5.3h2.6l.5-.3V-6z" style="fill:#2774ae" transform="rotate(15 -307.628 -40.5)"/><g transform="rotate(5 -927.603 -40.5)"><circle r="4.7" style="fill:none;stroke:#2774ae;stroke-width:2.5999999"/><path d="M0-2h6.5v4H0z" style="fill:#fff"/></g><path d="M-5.5-6v.2l.5.3v11l-.5.3V6H5V2.9h-.2l-.3.5h-6.9V-6z" style="fill:#2774ae" transform="rotate(-5 927.603 -40.5)"/><path d="M.1 2.7V.1h-1.533L.6-6h-3.1v.2l1 .6L-2-6-6 6l.5-.8-1 .6V6h3.6v-.2l-1-.6.5.8.9-3.3z" style="fill:#2774ae" transform="rotate(-15 307.628 -40.5)"/><path d="M-.1 2.7V.1h1.533L-.6-6h3.1v.2l-1 .6L2-6 6 6l-.5-.8 1 .6V6H2.9v-.2l1-.6-.5.8-.9-3.3z" style="fill:#2774ae" transform="rotate(-15 307.628 -40.5)"/><path d="M-5.5-6v.2l.5.3v11l-.5.3V6H5V2.9h-.2l-.3.5h-6.9V-6z" style="fill:#2774ae" transform="rotate(23 -82.147 -76.702)scale(.55)"/><path d="M2.5 1.3v-2.6h-4.4v-2.1H4l.3.5h.2V-6H-5v.2l.5.3v11l-.5.3V6h9.5V2.9h-.2l-.3.5h-5.9V1.3z" style="fill:#2774ae" transform="rotate(37 -59.034 -30.927)scale(.55)"/><path d="M5.5-2.9V-6h-11v3.1h.2l.3-.5h3.7v8.9l-.5.3V6h3.6v-.2l-.5-.3v-8.9H5l.3.5z" style="fill:#2774ae" transform="rotate(54 -46.364 -8.514)scale(.55)"/><path d="M5.5-2.9V-6h-11v3.1h.2l.3-.5h3.7v8.9l-.5.3V6h3.6v-.2l-.5-.3v-8.9H5l.3.5z" style="fill:#2774ae" transform="rotate(55 -51.07 1.56)scale(.55)"/><path d="M-6-6v.2l.5.3v11l-.5.3V6h3.6v-.2l-.5-.3v-11l.5-.3V-6zM6-6v.2l-.5.3v11l.5.3V6H2.4v-.2l.5-.3v-11l-.5-.3V-6z" style="fill:#2774ae" transform="rotate(50 -59.933 6.408)scale(.55)"/><path d="M-5 1.3H5v-2.6H-5z" style="fill:#2774ae" transform="rotate(50 -59.933 6.408)scale(.55)"/><path d="M2.5 1.3v-2.6h-4.4v-2.1H4l.3.5h.2V-6H-5v.2l.5.3v11l-.5.3V6h9.5V2.9h-.2l-.3.5h-5.9V1.3z" style="fill:#2774ae" transform="rotate(32 -98.29 7.992)scale(.55)"/><g transform="rotate(15 -214.681 12.808)scale(.55)"><path d="M-4.2 6V-4.7H0C5.5-4.7 5.5 0 0 0h-4.2m3.7 0 4.2 4.7" style="fill:none;stroke:#2774ae;stroke-width:2.5999999"/><circle cx="3.7" cy="4.7" r="1.3" style="fill:#2774ae"/><path d="M-2.4 6v-.2l-.5-.3h-2.6l-.5.3V6z" style="fill:#2774ae"/></g><path d="M2.5 1.3v-2.6h-4.4v-2.1H4l.3.5h.2V-6H-5v.2l.5.3v11l-.5.3V6h9.5V2.9h-.2l-.3.5h-5.9V1.3z" style="fill:#2774ae" transform="rotate(5 -651.507 57.13)scale(.55)"/><path d="M-4.2 1.3v-6H0C5.5-4.7 5.5 0 0 0h-4.2m0-1.3v6H0C5.5 4.7 5.5 0 0 0h-4.2" style="fill:none;stroke:#2774ae;stroke-width:2.5999999" transform="rotate(-22 148.711 -2.86)scale(.55)"/><path d="M-6 5.8V6h1.8l-1.3-.5zm0-11.6V-6h1.8l-1.3.5z" style="fill:#2774ae" transform="rotate(-22 148.711 -2.86)scale(.55)"/><path d="M2.5 1.3v-2.6h-4.4v-2.1H4l.3.5h.2V-6H-5v.2l.5.3v11l-.5.3V6h9.5V2.9h-.2l-.3.5h-5.9V1.3z" style="fill:#2774ae" transform="rotate(-32 100.196 -5.237)scale(.55)"/><path d="M-5.5-6v.2l.5.3v11l-.5.3V6H5V2.9h-.2l-.3.5h-6.9V-6z" style="fill:#2774ae" transform="rotate(8 -202.01 193.758)scale(.55)"/><path d="M-1.8-6v.2l.5.3v11l-.5.3V6h3.6v-.2l-.5-.3v-11l.5-.3V-6z" style="fill:#2774ae" transform="rotate(10 -160.451 186.8)scale(.55)"/><path d="M4-3.5C-3-9-7 4.7 0 4.7h3.5V0" style="fill:none;stroke:#2774ae;stroke-width:2.5999999" transform="rotate(8 -213.256 269.272)scale(.55)"/><path d="M5.3 0v.2l-.5.3H2.2L1.7.2V0z" style="fill:#2774ae" transform="rotate(8 -213.256 269.272)scale(.55)"/><path d="M-6-6v.2l.5.3v11l-.5.3V6h3.6v-.2l-.5-.3v-11l.5-.3V-6zM6-6v.2l-.5.3v11l.5.3V6H2.4v-.2l.5-.3v-11l-.5-.3V-6z" style="fill:#2774ae" transform="matrix(.55 0 0 .55 43.3 33)"/><path d="M-5 1.3H5v-2.6H-5z" style="fill:#2774ae" transform="matrix(.55 0 0 .55 43.3 33)"/><path d="M5.5-2.9V-6h-11v3.1h.2l.3-.5h3.7v8.9l-.5.3V6h3.6v-.2l-.5-.3v-8.9H5l.3.5z" style="fill:#2774ae" transform="rotate(-5 397.436 -562.07)scale(.55)"/></g></svg>