<svg xmlns="http://www.w3.org/2000/svg" xml:space="preserve" width="202" height="201.91" viewBox="0 0 202 201.914"><g transform="translate(1.1 1.266)scale(1.8074)"><ellipse cx="55.33" cy="55.303" fill="#fff" rx="54.526" ry="54.3"/><path fill="#131f33" d="M57.209.002q-.238-.009-.479.018a2.82 2.82 0 0 0-1.67.779c-.695-.373-2.01-.936-3.27-.686a2.8 2.8 0 0 0-1.604.93c-.724-.31-2.088-.758-3.319-.395a2.8 2.8 0 0 0-1.502 1.063c-.749-.24-2.15-.557-3.346-.082a2.82 2.82 0 0 0-1.402 1.193c-.762-.174-2.196-.376-3.353.207a2.8 2.8 0 0 0-1.291 1.325c-.772-.105-2.207-.174-3.303.505q-.826.513-1.178 1.43c-.788-.035-2.22.03-3.248.803-.516.388-.86.9-1.037 1.525-.79.037-2.214.23-3.166 1.09-.478.43-.774.971-.896 1.607-.773.105-2.168.425-3.043 1.368a2.87 2.87 0 0 0-.76 1.709c-1.556.396-3.72 1.506-3.707 3.65-1.511.518-3.658 1.833-3.455 3.98-.711.313-1.996 1.012-2.578 2.18a2.8 2.8 0 0 0-.242 1.842c-.682.373-1.892 1.18-2.37 2.39a2.82 2.82 0 0 0-.082 1.856c-.648.438-1.785 1.357-2.15 2.61a2.83 2.83 0 0 0 .084 1.841c-.606.497-1.645 1.51-1.893 2.782a2.83 2.83 0 0 0 .246 1.826c-.56.552-1.501 1.65-1.63 2.935-.064.64.08 1.24.421 1.791-.51.601-1.345 1.777-1.36 3.067-.01.645.184 1.23.568 1.75-.453.64-1.186 1.885-1.088 3.172.049.645.297 1.213.732 1.699-.394.676-1.004 1.975-.795 3.244.104.637.4 1.182.873 1.629-.329.707-.82 2.058-.498 3.31a2.85 2.85 0 0 0 1.01 1.54c-.265.737-.63 2.13-.195 3.343a2.8 2.8 0 0 0 1.152 1.447c-.198.764-.438 2.18.101 3.352q.407.878 1.268 1.336c-.128.777-.239 2.207.404 3.32.324.555.791.96 1.39 1.21-.062.778-.05 2.22.69 3.279.371.527.87.89 1.487 1.091.013.787.158 2.216.988 3.196.417.492.947.805 1.58.945.081.783.354 2.201 1.272 3.11.46.452 1.019.72 1.662.802.148.771.544 2.15 1.535 2.967q.75.617 1.728.652c.215.752.73 2.093 1.788 2.823a2.83 2.83 0 0 0 1.779.498c.286.732.93 2.025 2.06 2.654a2.83 2.83 0 0 0 1.815.332c.35.707 1.1 1.94 2.275 2.465q.879.385 1.82.16c.413.674 1.278 1.842 2.5 2.258a2.78 2.78 0 0 0 1.836.004c.471.63 1.427 1.698 2.676 2.007a2.84 2.84 0 0 0 1.838-.158c.524.59 1.568 1.577 2.842 1.774.639.1 1.253-.013 1.828-.327.573.537 1.693 1.416 2.97 1.5a2.82 2.82 0 0 0 1.784-.48c.614.482 1.83 1.273 3.125 1.24a2.86 2.86 0 0 0 1.719-.635c.659.422 1.924 1.086 3.201.938a2.85 2.85 0 0 0 1.674-.793c.694.367 2.022.926 3.283.66a2.83 2.83 0 0 0 1.584-.943c.719.3 2.1.74 3.342.361a2.84 2.84 0 0 0 1.496-1.074c.75.236 2.156.546 3.348.06a2.82 2.82 0 0 0 1.384-1.208c.761.168 2.19.353 3.344-.235a2.84 2.84 0 0 0 1.291-1.332c.782.102 2.212.162 3.295-.523.545-.344.93-.826 1.156-1.436.782.03 2.227-.043 3.25-.83.51-.393.848-.906 1.016-1.53.786-.042 2.215-.245 3.166-1.122.47-.434.762-.978.877-1.61.777-.115 2.187-.445 3.055-1.402a2.8 2.8 0 0 0 .728-1.684c.768-.186 2.141-.642 2.918-1.673a2.82 2.82 0 0 0 .572-1.737c.745-.25 2.072-.824 2.756-1.92a2.8 2.8 0 0 0 .418-1.79c.721-.317 1.986-1.009 2.567-2.159.29-.57.373-1.184.253-1.822.69-.373 1.892-1.17 2.37-2.37a2.8 2.8 0 0 0 .09-1.831c.646-.434 1.774-1.338 2.146-2.576a2.85 2.85 0 0 0-.07-1.852c.607-.492 1.645-1.488 1.9-2.754a2.83 2.83 0 0 0-.234-1.82c.564-.545 1.512-1.64 1.65-2.928a2.8 2.8 0 0 0-.404-1.797c.513-.594 1.35-1.756 1.38-3.04a2.84 2.84 0 0 0-.554-1.759c.465-.63 1.207-1.873 1.121-3.164a2.8 2.8 0 0 0-.719-1.7c.401-.679 1.029-1.983.823-3.259a2.8 2.8 0 0 0-.862-1.617c.338-.707.84-2.05.526-3.3a2.83 2.83 0 0 0-1.006-1.553c.273-.732.658-2.128.232-3.35a2.84 2.84 0 0 0-1.135-1.45c.201-.754.452-2.173-.08-3.347a2.87 2.87 0 0 0-1.267-1.35c.137-.771.262-2.2-.37-3.316a2.8 2.8 0 0 0-1.386-1.23c.07-.781.07-2.228-.662-3.29a2.8 2.8 0 0 0-1.479-1.087c-.004-.785-.136-2.223-.963-3.213a2.8 2.8 0 0 0-1.568-.957c-.073-.78-.334-2.198-1.248-3.112a2.8 2.8 0 0 0-1.649-.818c-.146-.771-.535-2.152-1.523-2.978a2.8 2.8 0 0 0-1.723-.66c-.21-.758-.715-2.111-1.775-2.85a2.82 2.82 0 0 0-1.77-.51c-.276-.732-.897-2.02-2.013-2.656a2.85 2.85 0 0 0-1.82-.354c-.34-.699-1.077-1.935-2.25-2.472a2.84 2.84 0 0 0-1.833-.186c-.405-.671-1.254-1.838-2.472-2.266a2.82 2.82 0 0 0-1.834-.02c-.461-.632-1.411-1.726-2.664-2.044a2.83 2.83 0 0 0-1.844.15c-.52-.588-1.561-1.583-2.834-1.789a2.84 2.84 0 0 0-1.809.31c-.567-.537-1.687-1.436-2.974-1.53a2.84 2.84 0 0 0-1.793.464C64.152 1.126 62.956.34 61.674.363a2.83 2.83 0 0 0-1.736.633C59.364.62 58.32.046 57.209.002m.03 1.025c.927.058 1.842.615 2.26.905a.4.4 0 0 0 .06.088l2.65 3.05c-1.584.377-2.921-.401-3.236-.607l-.002-.004-3.065-3.031c.273-.22.58-.353.934-.393q.199-.02.398-.008m-4.86.047c.923-.025 1.878.444 2.328.7a.4.4 0 0 0 .066.078l2.922 2.814c-1.55.52-2.949-.147-3.279-.326l-.004-.004-3.329-2.742c.257-.243.553-.406.904-.477q.195-.039.391-.043zm9.312.315c1.04-.023 2.081.727 2.543 1.107a.5.5 0 0 0 .057.107l2.385 3.291c-1.744.246-3.058-.81-3.213-.943L60.72 1.7a1.76 1.76 0 0 1 .97-.31m-13.756.146c.79.016 1.575.321 1.979.506q.035.043.076.078l3.172 2.54c-1.49.647-2.934.129-3.291-.02-.012-.014-3.563-2.46-3.563-2.46.23-.262.508-.446.85-.548.25-.074.514-.101.777-.096m18.553.635c1.048.074 2.022.926 2.438 1.34a.4.4 0 0 0 .049.113l2.072 3.486c-1.623.084-2.794-.915-3.068-1.18l-.008-.013-2.479-3.531c.312-.164.64-.24.996-.215m-23.329.246c.787-.06 1.593.167 2.018.314a.6.6 0 0 0 .086.073l3.367 2.252c-1.542.85-3.152.313-3.328.25L41.595 3.21c.21-.285.47-.495.8-.627.243-.097.502-.148.764-.168m27.516.969a1.6 1.6 0 0 1 .506 0c1.056.167 1.97 1.13 2.338 1.572q.013.042.031.086L75.302 8.7c-1.625-.047-2.703-1.146-2.959-1.436q-.003-.008-.008-.015l-2.143-3.725c.16-.067.318-.115.483-.14m-31.418.285c.51.017.978.112 1.266.183a.5.5 0 0 0 .094.069l3.564 1.935c-1.387.937-2.958.63-3.275.553l-3.923-1.76c.18-.306.423-.54.742-.7.467-.238 1.021-.298 1.531-.28zm36 1.283q.255-.015.512.049c1.023.258 1.838 1.287 2.168 1.765a.6.6 0 0 0 .027.114l1.409 3.779c-1.737-.226-2.728-1.591-2.836-1.75l-1.781-3.86q.25-.082.502-.097zm-40.528.365a6.2 6.2 0 0 1 1.264.072.4.4 0 0 0 .082.047l3.729 1.62c-1.308 1.058-2.91.879-3.221.83l-4.058-1.395c.16-.317.38-.57.684-.758.454-.281 1.009-.39 1.521-.416zm19.373.01c.703.34 2.544 1.025 4.473.092.673.398 2.444 1.24 4.443.482.625.454 2.312 1.454 4.387.889.588.512 2.185 1.662 4.291 1.28.54.56 2.027 1.847 4.162 1.64.483.606 1.843 2.024 3.985 2.02.427.645 1.663 2.172 3.798 2.357.366.68 1.458 2.324 3.57 2.705.306.707 1.244 2.447 3.321 3.017.238.735 1.015 2.538 3.03 3.284.175.75.794 2.605 2.72 3.543.106.753.549 2.664 2.398 3.767.035.764.307 2.722 2.057 3.985-.03.779.068 2.747 1.69 4.156-.102.778-.168 2.731 1.316 4.275-.172.755-.431 2.7.918 4.377-.241.748-.664 2.66.525 4.442-.3.71-.89 2.574.133 4.453-.358.668-1.135 2.49-.281 4.48-.422.652-1.33 2.389-.664 4.426-.48.605-1.552 2.254-1.065 4.348-.53.56-1.744 2.109-1.443 4.238-.578.508-1.92 1.928-1.822 4.072-.618.457-2.075 1.764-2.176 3.91-.65.396-2.224 1.567-2.506 3.694-.689.336-2.383 1.365-2.852 3.463-.722.273-2.502 1.137-3.146 3.193-.743.211-2.573.925-3.408 2.9-.762.142-2.652.67-3.66 2.58-.769.075-2.697.442-3.868 2.235-.778.006-2.738.203-4.066 1.89-.784-.061-2.74-.035-4.2 1.514-.761-.135-2.72-.297-4.33 1.137-.745-.2-2.67-.529-4.402.746-.71-.262-2.623-.771-4.469.354-.697-.332-2.541-1.014-4.478-.063-.671-.396-2.438-1.225-4.44-.455-.622-.447-2.327-1.45-4.408-.855-.587-.5-2.184-1.63-4.295-1.23-.543-.563-2.043-1.847-4.18-1.622-.488-.604-1.864-2.01-4.003-1.982-.432-.643-1.68-2.17-3.819-2.342-.372-.671-1.473-2.303-3.59-2.668-.307-.703-1.255-2.43-3.335-2.977-.247-.73-1.048-2.534-3.067-3.267-.179-.756-.813-2.63-2.76-3.537-.112-.76-.572-2.657-2.414-3.737-.04-.768-.323-2.734-2.09-3.98.026-.773-.089-2.732-1.73-4.13.098-.77.164-2.734-1.334-4.275.161-.748.395-2.685-.96-4.347.227-.723.645-2.649-.556-4.446.293-.713.879-2.596-.171-4.486.362-.69 1.103-2.492.242-4.455.41-.645 1.324-2.401.636-4.443.473-.61 1.526-2.262 1.032-4.35.527-.569 1.723-2.127 1.406-4.252.575-.516 1.908-1.953 1.785-4.086.592-.438 2.093-1.764 2.176-3.959.638-.389 2.243-1.576 2.508-3.734.676-.331 2.386-1.37 2.834-3.504.71-.296 2.738-1.316 3.402-3.463.768-.244 2.8-1.063 3.664-3.065.756-.137 2.675-.66 3.69-2.562.77-.07 2.707-.426 3.892-2.215.773.004 2.733-.167 4.076-1.853.784.072 2.741.066 4.217-1.48.775.14 2.73.307 4.33-1.102.746.205 2.672.55 4.405-.71.709.266 2.618.791 4.476-.312m1.229.953c-27.076 0-49.027 21.95-49.027 49.025 0 27.078 21.95 49.03 49.027 49.03s49.027-21.952 49.027-49.03c0-27.076-21.95-49.025-49.027-49.025m-.008.484c26.806 0 48.54 21.731 48.54 48.537 0 26.81-21.734 48.537-48.54 48.537S6.786 82.111 6.786 55.302c0-26.806 21.731-48.537 48.537-48.537m24.356.176q.25.012.5.098c.993.348 1.71 1.43 2.006 1.941a.6.6 0 0 0 .016.121l1.076 3.895c-1.587-.342-2.452-1.608-2.65-1.938-.003-.009-.002-.016-.006-.021l-1.45-4.05a2 2 0 0 1 .507-.046zm-48.657.367c.218-.004.411.003.56.012a.5.5 0 0 0 .104.049l3.871 1.264c-1.26 1.229-2.951 1.137-3.154 1.119l-4.146-1.026c.125-.326.32-.599.603-.814.625-.472 1.508-.59 2.163-.604zM83.4 9.312a1.8 1.8 0 0 1 1 .143c.96.438 1.577 1.592 1.816 2.117a.4.4 0 0 0 .008.111l.721 3.987c-1.681-.527-2.412-2.068-2.488-2.244zm-56.015.324a1 1 0 0 0 .115.047l3.957.903c-1.152 1.334-2.85 1.404-3.043 1.406L24.2 11.33c.096-.335.264-.622.527-.858.769-.696 2.05-.819 2.658-.836m32.934.325c-.381.003-.755.08-1.088.273-.722.527-1.166 1.306-1.22 2.166a2.72 2.72 0 0 0 1.029 2.328c.582.5 1.496.666 2.19.389 1.136-.333 1.554-1.579 1.72-2.635-.082-.942-.61-1.886-1.498-2.357a4.3 4.3 0 0 0-1.133-.164m-14.95.074c-.276.016-.602.24-.862.258-.473.332-1.387-.028-1.416.775.084.473.583-.055.75.334l-.582 1.414c-.027.195-.193.387-.389.36l-1.47-.998-.055-.167c.083-.194.359-.167.527-.333a.62.62 0 0 0-.059-.39c-.082-.11-.22-.025-.302-.081-1.027.222-1.943.748-2.94.998l-.28.22c-.11.97.944.194 1.333.75q.956.5 1.83 1.165c.776.473.859 1.525 1.082 2.386-.055.027-.084.222-.193.139-.057.167-.472.193-.362.525.027.14.166.25.305.25.445-.25.972-.358 1.443-.498.417-.333 1.471-.029 1.414-.832-.11-.389-.5 0-.748-.195-.36-.637-.389-1.414-.666-2.08.111-.971.667-1.775.973-2.691.193-.555 1.164-.276 1.08-1.024-.103-.229-.249-.295-.414-.285m19.134.756c-.416.11-.166.61-.307.888l.194-.138c.278 0 .472.248.584.47-.056.943-.39 1.832-.584 2.747-.194.389-.692.028-.858.445-.026.136-.056.33.084.414.776.305 1.72.276 2.551.582a.65.65 0 0 0 .307-.61c-.113-.277-.416-.222-.582-.417-.084-.388-.142-.914.22-1.164.637.027.361.806.805 1.056.138.027.306-.001.387-.142.224-.553.224-1.19.336-1.772l-.143-.195c-.58-.36-.609.39-1.108.361-.084-.028-.22-.085-.22-.195.082-.388.137-.805.36-1.11.5.084.999.17 1.44.391.418.36.25.996.667 1.356.138.084.333.056.416-.082.11-.5.222-1.026.277-1.58-.056-.111-.083-.278-.223-.334-.444-.083-.943-.166-1.332-.248-1.163-.195-2.08-.584-3.271-.723m-4.078.025c.306 0 .666.167.805.526.332.943-.028 2.027-.526 2.83-.278.222-.581-.055-.804-.192-.555-.83-.252-1.637-.14-2.525.113-.278.36-.583.665-.639m26.967 1.201c.355-.019.686.043.996.221.91.518 1.417 1.7 1.613 2.252a.4.4 0 0 0-.004.123l.368 4.049c-1.627-.678-2.22-2.27-2.282-2.453l-.693-4.191zm-63.962.295a.5.5 0 0 0 .1.024l4.023.566c-.938 1.322-2.447 1.616-2.832 1.67-.021-.007-4.328-.273-4.328-.273.069-.348.216-.654.46-.916.72-.777 2.002-1.007 2.577-1.07m13.984.35c-.263.031-.518.313-.79.375-1.552.473-2.996 1.332-4.355 2.273a.454.454 0 0 0-.304.5c.499.693.776 1.472 1.191 2.192l.143.027c.11-.027.277-.054.332-.22-.14-.5-.473-1.028-.473-1.61-.054-.416.332-.694.61-.914.138-.084.307-.113.417.025.776 1.305 1.386 2.665 2.024 4.022-.027.279-.389.334-.555.53-.11.137-.082.302 0 .439.25.473.64-.109.944-.192.748-.416 1.58-.582 2.302-1.025.222-.25-.026-.5-.138-.723-.307-.11-.528.14-.834.057-.721-.75-.972-1.803-1.526-2.719-.166-.527-.582-.86-.664-1.414.276-.277.723-.416 1.194-.416.526.11.887.58 1.025 1.08a.49.49 0 0 0 .555.307c.11-.055.139-.193.166-.334-.361-.721-.582-1.499-.998-2.19a.37.37 0 0 0-.266-.07m53.719 2.371q.525.024.957.322c.874.606 1.276 1.86 1.418 2.422a.5.5 0 0 0-.014.108v4.052c-1.56-.815-2.002-2.457-2.045-2.638zm-71.393.324q.037.008.078.012l4.033.197c-.938 1.554-2.8 2.09-2.992 2.14l-4.183.179c.136-1.65 2.255-2.329 3.064-2.528m10.943.938a.3.3 0 0 0-.158.015c-.916.582-1.778 1.165-2.61 1.913v.279c.028.138.223.248.334.138.275 0 .417-.39.748-.279l1.748 2.358c.25.526.72.971.858 1.525.027.417-.553.335-.496.75.109.168.275.416.496.389.528-.472 1.084-.75 1.639-1.248.276-.278.692-.308.972-.612.166-.222-.029-.47-.168-.636-.362-.083-.582.277-.943.222l-2.524-3.69c-.11-.332.444-.444.444-.804-.062-.146-.188-.292-.34-.32m24.379 1.02c-21.135 0-38.27 17.135-38.27 38.27.001 21.138 17.136 38.27 38.27 38.27s38.27-17.134 38.27-38.27c0-21.135-17.135-38.27-38.27-38.27m-.004.754c20.721 0 37.518 16.799 37.518 37.518S75.777 93.1 55.057 93.1c-20.719 0-37.518-16.795-37.518-37.514s16.8-37.518 37.518-37.518m27.801.084c-.159.01-.28.161-.383.265-.223.36.14.584.307.832-.775 1.167-1.804 2.385-2.664 3.467-.166.111-.306-.025-.444-.11-.25-.165-.471 0-.638.223-.085.164-.002.358.138.442.665.639 1.442 1.193 2.163 1.748.25.057.275-.167.416-.278.306-.389-.387-.527-.166-.916a233 233 0 0 1 2.412-3.105c.25-.472.64 0 .918.111.194 0 .248-.25.388-.388.166-.166.11-.445-.084-.612l-2.19-1.636a.3.3 0 0 0-.173-.043m11.727.273c.348.047.663.158.936.385.806.668 1.1 1.922 1.197 2.506a.5.5 0 0 0-.027.117l-.368 4.041c-1.472-.964-1.775-2.622-1.806-2.81zm-74.387.332c-.749 1.613-2.503 2.336-2.764 2.438l-4.238.56c.008-1.843 2.67-2.714 3.063-2.832zm34.863.412c-20.11 0-36.412 16.305-36.412 36.414 0 20.112 16.301 36.414 36.412 36.414 20.11 0 36.414-16.303 36.414-36.414 0-20.109-16.305-36.414-36.414-36.414m-28.669.081c-.306.111-.415.445-.441.723-.555.277-1.139.555-1.61.97-.638.528-.804 1.443-.638 2.221.247.58.83.967 1.466 1.024.722.084 1.39-.111 2.026-.305.47-.084 1-.14 1.389.082.22.14.414.334.332.639-.054.223-.224.388-.416.525-.556.251-1.25.418-1.86.14-.276-.083-.442-.473-.748-.36-.166.083-.304.25-.275.443.47.584 1.137 1.193 1.496 1.83.224.057.36-.11.527-.248.275-.223-.083-.528.027-.75.443-.111.889-.167 1.248-.444.611-.389 1.193-1.052 1.084-1.802.054-.915-.723-1.636-1.443-1.968-1.138-.306-2.135.359-3.217.332-.277-.057-.638-.277-.472-.666.195-.305.471-.639.859-.694.638-.25 1.248.194 1.857.278.14-.11.333-.251.305-.5l-.887-.942c-.22-.166-.25-.61-.609-.527zm28.666.64c19.714 0 35.697 15.98 35.697 35.696S74.772 91.282 55.058 91.282s-35.695-15.98-35.695-35.695 15.98-35.695 35.695-35.695m31.461 1.44c-.14.022-.266.173-.328.278-.276.36.306.47.277.86-.942 1.081-2.051 2.108-3.05 3.08-.194.165-.415-.058-.555-.196-.166-.082-.36-.11-.47.084-.085.11-.194.25-.112.416 1.359 1.33 2.857 2.745 4.05 4.326.527.11.834-.694 1.278-.916.305-.194.523-.442.746-.746.028-.194-.055-.362-.223-.5-.414-.195-.69.221-.998.414-.915.473-1.358-.608-2.052-.83-.166-.25-.47-.528-.305-.807l2.967-2.882c.304-.084.497.443.804.332.166-.14.444-.25.387-.5-.663-.803-1.522-1.608-2.271-2.385a.22.22 0 0 0-.145-.028m11.221.725c.34.08.637.236.887.486.749.75.924 2.042.967 2.627a.5.5 0 0 0-.032.106l-.732 3.978c-1.281-.996-1.51-2.494-1.549-2.875.006-.016.46-4.322.46-4.322m-80.914.266c-.56 1.625-2.055 2.318-2.299 2.422l-4.182.945a1.7 1.7 0 0 1 .174-1.024c.481-.97 1.703-1.55 2.219-1.762q.046.002.1-.003zm39.548.93c-.18.003-.326.14-.47.243-.75-.36-1.722-.278-2.358.166-.667.36-.834 1.082-.805 1.748-.056.832.444 1.526 1.11 1.941.693.306 1.553.333 2.191-.193.361-.194.44.387.803.305.473-.306-.082-.693 0-1.082 0-.443.693-.25.556-.749-.057-.14-.084-.277-.222-.333-.583.194-1.306.028-1.914 0-.194.028-.334.193-.276.416.055.305.442.223.58.416.14.25-.026.444-.138.64-.166.137-.417.166-.61.166-.332-.166-.39-.528-.472-.832.026-.777-.306-1.584.472-2.139.25-.11.526-.222.776-.054.555.166.252.97.861.998.36-.305.109-1.025.22-1.387l-.11-.223a.4.4 0 0 0-.194-.046m-4.467.172c-.25-.005-.499.082-.748.124-.332.193-.998-.083-1.082.416 0 .444.499.251.776.308.11.388.222.775.25 1.219.027.084-.084.14-.168.14-.664-.5-1.414-.86-2.053-1.472-.555-.248-1.108.113-1.69.223a.36.36 0 0 0-.308.416c.17.446.642-.055.863.332.141.806.557 1.526.557 2.386.082.334-.39.335-.334.639.027.11.11.275.25.25.305-.168.693-.14 1.053-.223.166-.084.445-.111.416-.39-.027-.25-.306-.221-.471-.387-.14-.471-.416-.97-.416-1.469.61.193 1.024.748 1.607 1.108.388.194.61.637 1.055.691.443-.109 1.193-.026 1.277-.61 0-.248-.28-.332-.502-.304-.442-.583-.333-1.499-.582-2.192v-.357c.111-.223.333-.114.528-.252.138-.166.166-.417-.028-.555a.8.8 0 0 0-.25-.04m9.293.405c-.25.057-.416.193-.584.388-.443.444.055.943-.11 1.416-.39.22-.942.415-1.108.915-.14.389.028.75.25 1.054.554.442 1.165.414 1.802.19.335-.138.5.306.639.472.22.166.526.195.803.14.334-.194.916-.554.64-1.026-.389-.361-.527.306-.89.306-.138-.027-.22-.167-.192-.306-.058-.25.275-.389.442-.555.11-.139.138-.388-.028-.498-.305-.166-.498.193-.748.303-.138.029-.222-.138-.306-.248-.64-.86 1.22-1.082.527-2.024-.251-.36-.694-.471-1.137-.527m.225.703c.045-.01.094-.012.135.016.276.14.194.529 0 .695-.11.027-.248.055-.276-.111-.082-.195-.112-.388.028-.555a.5.5 0 0 1 .113-.045m-15.453.18-1.47.39c-.194.028-.472.14-.417.416.057.39.475.25.723.307l.916 2.44c.055.306-.39.333-.334.61.028.14.168.335.307.335l1.359-.475c.193-.026.305-.22.277-.387-.057-.389-.445-.166-.611-.388l-.47-1.25c-.056-.443-.444-.721-.471-1.164.166-.166.44-.195.44-.471-.026-.168-.081-.307-.25-.363m-24.604.027c-.38.033-.733.18-1.025.45-.998.805-1.526 1.97-2.303 2.912-.112.251-.443.36-.443.637 0 .167.11.304.252.36.305.194.359-.278.664-.222 1.22.86 2.414 1.857 3.607 2.72.388.248-.14.526.028.802.11.111.274.251.441.193.554-.692 1.026-1.413 1.637-2.023l.111-.332c0-.167-.167-.25-.277-.277-.334-.195-.471.276-.748.304l-1.496-1.11c-.195-.275.136-.498.273-.69 1.276-.694 2.332 1.136 3.607.304a1.14 1.14 0 0 0 .276-1.303c-.332-.389-.332-1.138-.97-1.222-.638.11-.111.722-.333 1.11-.082.166-.249.222-.416.306-.444.138-.89-.139-1.193-.389.054-.498.194-1.026 0-1.525-.222-.498-.721-.943-1.303-.998a2 2 0 0 0-.389-.006zm45.492.932a.3.3 0 0 0-.166.125c-.362.442.331.498.357.83l-.832 1.998c-.056.584-.691.109-.855.5-.058.11-.03.36.08.416 1.137.306 2.162.889 3.273 1.334.221-.167.415-.446.582-.696.082-.139.11-.472-.111-.527-.389-.192-.528.307-.86.307-.361-.058-.859-.027-1.025-.389.027-.86.639-1.608.942-2.387a.23.23 0 0 1 .306-.054.355.355 0 0 0 .498-.14c.084-.193.059-.442-.136-.554-.5-.194-.972-.472-1.471-.638-.167-.043-.396-.178-.582-.125m-23.68.148c-.322-.016-.709.422-1.063.422-.193.14-.582.165-.582.47.056.528.528.113.776.391l.64 1.248-.056.139c-.332.028-.665-.25-1-.361-.83-.275-1.772-1.221-2.66-.471-.25.25-.723.307-.749.72.081.665.607.053.94.165.5.72.943 1.442 1.332 2.22-.057.275-.581.525-.193.832.307.138.44-.223.693-.277.277-.168.748-.279.748-.666-.027-.362-.388-.193-.61-.193-.358-.444-.749-.917-.943-1.498l.03-.084c.748.139 1.357.638 2.078.832.417.14.86.58 1.304.25.306-.222.86-.195.887-.639-.11-.305-.389-.223-.637-.305l-1.164-2.275c.028-.36.582-.305.526-.72-.09-.14-.19-.195-.297-.2m-29.168.1c-.414 1.648-1.809 2.474-2.063 2.61l-4.1 1.313q-.104-.523.093-1.027c.4-1.02 1.584-1.708 2.07-1.953q.037-.003.074-.014zm86.527.066c.334.107.612.287.842.559.63.757.726 1.96.726 2.597l-.002.123a.5.5 0 0 0-.035.09l-1.092 3.908c-1.175-1.095-1.277-2.61-1.281-3.021.007-.02.842-4.256.842-4.256m-79.67.27a.8.8 0 0 1 .387.07c.277.222.611.387.611.775-.11.527-.36.998-.723 1.387l-.248-.082-1.277-1c-.026-.471.503-.778.863-1.055a1 1 0 0 1 .387-.095m39.97.125c.306.055.28.414.444.636.057.333-.39.196-.556.196-.166-.056-.247-.196-.305-.362.03-.193.22-.388.418-.47m31.063 1.08c-.747.249.112.748 0 1.136-1.19.834-2.411 1.64-3.574 2.471-.332.192-.39-.223-.668-.305-.194.055-.388.112-.498.276-.084.14-.027.25.027.361 1.11 1.442 1.94 2.886 2.856 4.41.112.084.277-.001.416-.027.528-.526 1.22-.555 1.804-.916l.082-.248c-.027-.223-.112-.445-.334-.555-.47.11-.971.166-1.441.082-.75-.082-1.083-.86-1.332-1.472 1.138-.86 2.355-1.58 3.521-2.385.61-.358.446.692 1.055.472.194-.112.36-.305.275-.556-.276-.61-.803-1.137-1.19-1.72-.417-.276-.388-1.024-.999-1.024m-35.39 1.666c-.167.25-.526 2.19-.358 2.8.054.056.22.026.25-.084.166-.776.137-1.719.357-2.523 0-.139-.11-.193-.248-.193m16.614.002c-1.027.664-2.027 1.192-3.08 1.718-.277.137-.524-.306-.774-.002-.082.14-.111.25-.027.39l1.166.802c.111.086.36.086.441-.082.168-.248-.137-.416-.166-.637a.39.39 0 0 1 .334-.195c.414.473 1.387.473 1.328 1.193-.109.305-.385.027-.552 0-.168 0-.333.222-.305.416.471.443 1.136.832 1.606 1.305.14.166.361.028.472-.084.112-.25-.083-.418-.195-.61 0-.915.28-1.858.363-2.773 0-.443.276-.916-.056-1.275-.166-.14-.36-.223-.555-.166m-21.7.011a.1.1 0 0 0-.071.07c-.057 1.08.248 2.162.304 3.188 0 .14.057.363.223.389.14 0 .14-.167.166-.25 0 0-.36-3.134-.527-3.385a.15.15 0 0 0-.094-.012m6.75.123c-.331.776-.306 1.72-.581 2.497 0 .139.056.307.22.277.307-.858.446-1.747.587-2.633-.03-.11-.143-.169-.225-.14m-21.175.158c-.812.124-1.467 1.007-2.154 1.424-.361.361-.97.638-.97 1.139.196.525.61-.03.917.025.582.556 1.222 1.167 1.693 1.86.221.277-.193.417-.14.666.056.11.169.191.277.22.555-.499 1.108-.856 1.664-1.302.083-.14.166-.39-.055-.498-.334-.112-.557.221-.832.191-.223-.054-.25-.306-.25-.473.056-.222.278-.275.473-.357.665-.25 1.276.5 1.941.082.39-.194.442-.665.414-1.025-.082-.194-.165-.528-.414-.528-.415 0-.25.5-.527.666-.112.084-.39.11-.5 0-.11-.193.027-.415.027-.636 0-.528-.25-1-.693-1.278a1.34 1.34 0 0 0-.871-.175zm-25.47.332c-.267 1.642-1.51 2.583-1.796 2.778-.013.006-.024.005-.037.01L5.75 34.206a1.7 1.7 0 0 1-.084-.498q0-.255.076-.516c.3-1.04 1.396-1.835 1.873-2.139q.045-.006.09-.02zm49.946.122c-.082 0-.166 0-.22.056-.417 1.053-.834 2.053-1.167 3.133l.028.277c.054.084.168.056.222 0 .443-.859 1.357-3.271 1.137-3.466m41.5.27c.32.136.586.34.787.632.415.596.512 1.406.512 2.045 0 .305-.021.563-.041.742l-.035.072-1.434 3.805c-.88-.986-1.018-2.195-1.018-2.824 0-.131.007-.227.012-.297q.007-.017.016-.033zm-48.156.09c-.194.306-.278 1.638-.057 1.72.25-.444.168-1.054.223-1.526-.056-.083-.055-.223-.166-.193m17.668 0c.112 0 .193.085.193.194-.082.305.057.806-.36.86-.248-.082-.468-.306-.692-.444.11-.416.583-.443.859-.61m-55.854.206c-.076-.01-.154.003-.21.072a51 51 0 0 0-1.831 3.328c-.193.611-.582 1.053-.748 1.664.505.86.7-.36 1.144-.416 1.357.666 2.636 1.276 3.91 2.137.167.25-.14.441-.14.693.028.138.169.248.307.333.14.056.359.082.441-.112.695-1.47 1.333-2.995 2.36-4.326l.054-.332c-.582-.39-1.193-.667-1.748-1.084-.139-.11-.333-.025-.387.14-.278.472.498.637.637 1.053.305.666-.166 1.36-.555 1.942l-.138.029c-.611-.278-1.193-.555-1.748-.916-.082-.193.056-.36.193-.443.361-.36.75.278 1.055-.084.084-.194.14-.443-.055-.584-.639-.221-1.222-.58-1.86-.83-.167 0-.222.222-.306.332-.112.416.638.389.418.832-.057.139-.112.39-.307.334l-1.47-.805c.028-.555.498-.971.775-1.414.221-.277.527-.14.832-.14.332.027.637.278.914.14.167-.085.224-.277.168-.473l-1.498-.998a.7.7 0 0 0-.207-.072m19.984.041a.7.7 0 0 1 .338.031.96.96 0 0 1 .556.582c-.029.472-.417.889-.832 1.055-.36-.195-.583-.584-.86-.89-.028-.083-.001-.11-.028-.221.228-.228.504-.504.826-.557m10.818.072a.15.15 0 0 0-.106.041c.193 1 .638 1.858 1.026 2.746l.139.084c.167 0 .11-.166.11-.279l-1.082-2.55c-.014-.028-.05-.042-.088-.042zm17.18.26a.24.24 0 0 0-.146.113c-.388.805-.857 1.581-1.22 2.386.027.111.055.25.193.196.528-.694.86-1.5 1.303-2.221a.51.51 0 0 0 .056-.444.21.21 0 0 0-.185-.03m-11.353.06c-.082 0-.138-.001-.166.053-.056.444-.026.917.14 1.334h.194a2.44 2.44 0 0 0-.168-1.387m6.297.248c-.082-.027-.14.027-.166.084-.305.608-.47 1.247-.694 1.857l.055.25c.168.084.224 0 .307-.111 0 0 .664-1.803.498-2.08m-9.152.25c-.361.249-.002 1.498.19 1.498l.114-.03c-.027-.525-.11-.996-.304-1.468m25.84.053a.31.31 0 0 0-.266.17c-.194.332.276.47.332.775l-.691.805c-.36.306-.666.775-1.11 1.054-.25.193-.362-.193-.611-.138-.111.055-.252.195-.22.332 0 .223.218.332.356.443.917.693 1.472 1.941 2.635 2.248.335 0 .612-.14.834-.389.307-.277.39-.666.332-1.027.17-.277.556-.167.807-.389q.332-.332.332-.83c-.416-1.305-1.72-2-2.607-3.025a.3.3 0 0 0-.123-.03m-13.801.308c-.502.303-.502.941-.778 1.412.054.084.054.225.194.196.306-.415.556-.914.75-1.415-.026-.083-.085-.193-.166-.193m-15.676.266c-.039-.01-.08-.004-.108.037 0 .086.027.166.055.25.25.444.39 1 .777 1.334.111 0 .111-.111.111-.168l-.748-1.387a.15.15 0 0 0-.087-.066m-3.463.043a.12.12 0 0 0-.088.023c.169.583 1.445 2.33 1.834 2.496.055-.027.111-.081.111-.138-.334-.803-1.166-1.47-1.637-2.192-.042-.082-.131-.18-.22-.19m6.02.148c-.039.007-.072.029-.085.07 0 .306.026.776.332.915.166-.305 0-.694-.139-.973a.2.2 0 0 0-.109-.012m16.75.07c-.472.36-1.442 1.553-1.358 1.69.054.084.194.028.277 0l1.22-1.414c.055-.11 0-.275-.14-.275m1.943.526c-.695.277-1.359.999-1.915 1.5-.055.11-.11.248-.054.332 0 .082.11.082.166.082.417-.277 2.023-1.441 1.802-1.914m-22.22.139c-.081.056-.082.166-.082.277.22.278.277.72.666.805.111-.027-.193-.972-.583-1.082m9.764.03c-.708-.037-1.428.052-2.08.19-2.44.64-4.743 1.723-7.267 1.944-.307.056-.722-.195-.942.14-.583.665-1.085 1.497-1.777 2.08-.276.222-.526.221-.887.137-.444.251-.333.833-.555 1.25-1.999 5.408-3.688 10.787-5.658 16.197l-.027.443c.084.193.306.333.525.362 3.884-.113 8.017-.14 11.846-.362.804 0 1.608-.25 2.356-.084.97.527 2.192.75 3.135.114.333-.03.777-.084 1.084.082 4.355.359 8.763.832 13.092 1.248.276-.027.412-.332.468-.555.861-3.135 1.583-6.13 2.416-9.293.608-2.44 1.33-4.935 1.885-7.433-.194-.554-.749-.36-1.137-.555-.36-.61-.334-1.471-.554-2.164-.166-.166-.5-.194-.664-.139-1.277.111-2.61-.25-3.828-.582-2.25-.639-4.494-2.164-6.99-1.637-.474.111-.973.443-1.417.387-.33-.442-.664-.775-1.023-1.191-.598-.375-1.292-.54-2-.578zm21.83.19c.305.307 1.025 1.027.22 1.334-.498.14-.747-.333-1.052-.638.14-.306.472-.696.832-.696m-21.66.315c.122.007.247.035.385.049.973.082 1.666.72 2.027 1.58-.14.776-.5 1.524-.722 2.302-.14.248-.25.554-.194.86.082.082.194.082.248-.03.307-.943.694-1.856 1.053-2.8l.334-.192c.971-.36 2.136-.473 3.135-.361 1.774.306 3.302 1.219 5.021 1.58 1.22.359 2.52.694 3.826.555l.083.111c-1.247 4.381-2.578 8.764-3.909 13.174.056.139-.113.28-.14.418-.334 1.136-.609 2.301-1.053 3.328-.25.223-.582.166-.889.223-1.552-.168-3.3-.526-4.826-1.055-.194.028-.388-.195-.61-.252-.916-.304-1.636-.471-2.58-.664-1.052-.305-2.136-.14-3.161.139l-.803.388-.084-.109.666-2.025c.416-1.803 1.053-3.439 1.496-5.243 0-.055 0-.139-.082-.166-.166.055-.276.25-.305.416-.72 2.274-1.472 4.493-2.164 6.768-.14.139-.303.027-.414-.057-.972-.58-1.916-1.274-3.135-1.052-1.664.332-3.413.416-4.965 1.025-1.165.307-2.331.695-3.468.805-.194-.055-.415.056-.61-.028.028-.582.388-1.025.5-1.58 1.357-3.496 2.413-7.155 3.688-10.68.388-1.636.86-3.218 1.248-4.853.14-.194.141-.528.445-.528 1.414.14 2.911-.33 4.242-.775 1.774-.389 3.357-1.386 5.272-1.248l.082.055a.63.63 0 0 1 .363-.078m13.848.072c-.03-.016-.07-.019-.119.002-.528.417-1.054.833-1.525 1.305-.06.082-.06.223.054.25.608-.305 1.082-.804 1.637-1.248.062-.084.046-.26-.047-.309m26.354.098a.51.51 0 0 0-.402.183c-.331.36.307.692 0 1.026-1.22.58-2.469 1.22-3.688 1.857-.555.306-.502-.582-.916-.582-.223.027-.472.195-.472.473.473.998.917 1.996 1.441 2.994l.225.111c.193 0 .305-.112.443-.25.14-.306-.001-.555-.113-.832-.026-.277.278-.276.416-.414 1.22-.473 2.33-1.249 3.578-1.666.39.14.363.834.889.639.252-.11.362-.444.252-.694-.502-.943-.891-1.97-1.5-2.8a.34.34 0 0 0-.153-.045m-86.544.175c-.123 1.746-1.43 2.82-1.586 2.94l-3.752 1.99a1.8 1.8 0 0 1-.14-.643q.001-.18.037-.364c.204-1.05 1.193-1.926 1.652-2.283a.4.4 0 0 0 .096-.029zm22.291.205c-.139.084-.304.28-.275.474.554 1.05.969 2.186 1.412 3.295.029.25-.249.474-.057.75.085.083.25.14.389.084l.89-1.082c.056-.11.055-.277-.027-.361-.195-.222-.473-.025-.666.057-.084-.056-.166-.14-.166-.25.36-.415.442-1.139 1.053-1.192.5.11-.027.47.248.72.112.112.223.084.361.057l1.221-1.33c.084-.167 0-.308-.084-.418-.166-.138-.36-.026-.498.057-.943.055-1.748-.473-2.664-.611-.416 0-.748-.334-1.137-.25m24.297.054c-.112-.028-.306.001-.306.14.223.25.583.22.859.415.362.137.586.526.945.664.141-.109.027-.247-.027-.388-.5-.304-.89-.722-1.47-.83m-15.172.16a.16.16 0 0 0-.082.034c.11.527 1.554 1.886 1.969 1.941l.027-.082c-.499-.665-1.137-1.166-1.72-1.777-.04-.062-.114-.123-.194-.115m35.172.116c.444 0 .776.36.97.722a.76.76 0 0 1-.222.637c-.194.167-.39.278-.61.278-.39-.055-.776-.248-.942-.58.166-.389.387-.834.804-1.057m29.044.162c.313.166.56.4.737.713.514.906.343 2.186.228 2.773a.6.6 0 0 0-.062.096l-1.75 3.668c-.637-.857-.784-1.805-.784-2.47 0-.384.045-.662.067-.778l1.57-4.002zm-34.285.033c-.389.359-.972.501-1.219 1.027 0 .138.137.166.221.137l1.135-.887.055-.193c-.026-.084-.11-.084-.192-.084m-27.488.084-.027.082c.11.306.36.639.693.72l.028-.19c-.166-.279-.39-.585-.694-.612m12.998.32c-.072.01-.128.053-.101.15.222.278.64.25.888.5h.223c-.056-.36-.5-.472-.805-.61a.34.34 0 0 0-.205-.04m-23.678.512c.307.055.665-.03.86.22-.14.224-.278.583-.584.583-.193-.222-.33-.526-.276-.803m7.131.055-.03.111c.445.526 1.14 1.108 1.804 1.441.168.084.168-.167.082-.277l-1.663-1.275zm32.838.166c-.306 0-.663.25-.775.554.029.057.112.11.166.11.276-.138.638-.33.61-.664m-15.988.135a.3.3 0 0 0-.236.06c-.027.417.555.25.75.498.305-.166-.142-.36-.28-.47a.6.6 0 0 0-.234-.088m-18.822.142-.082.027c-.056.111.026.195.082.25 1.026.722 2.107 1.276 3.19 1.887.166.027.223-.193.082-.277-1.081-.64-2.162-1.305-3.272-1.887m42.074.219q-.145 0-.3.031c-.667.195-1.445.61-1.721 1.36-.332.998.112 2.08.861 2.773.58.306 1.412.693 2.023.166.64-.277.998-.775 1.276-1.387.334-.776-.192-1.387-.47-2.025-.487-.46-.993-.922-1.669-.918m-13.779.281-.168.055c-.055.11.029.222.139.277l1.86.473c.054 0 .164-.028.138-.139-.64-.224-1.332-.417-1.969-.666m-52.703.082c-.305.307-.388.778-.527 1.194-.082.416-.636.775-.303 1.22.441.332.497-.333.775-.416.692.64 1.44 1.248 2.024 2.024l-.057.109c-.998.084-1.802.251-2.8.277l-.057-.443c-.082-.166-.276-.248-.442-.248-.417.138-.222.637-.416.914-.22.666-.444 1.332-.584 2.025.085.195.334.252.5.252.306-.083.195-.47.502-.554 1.914-.223 3.715-.389 5.602-.639.777-.859-.664-1.082-.97-1.748-.832-.998-1.943-1.802-2.774-2.83-.193-.275.139-.498.084-.83-.14-.167-.277-.307-.557-.307m43.328.084c-.112 0-.17.083-.142.166.055.141.194.167.334.223.11.056.168-.082.14-.166-.084-.14-.194-.25-.332-.223m-12.066.223c-.389 1.885-.916 3.744-1.47 5.576-.334 1.247-.889 2.413-1.276 3.605-.722 2.497-1.637 4.882-2.607 7.268l-.446.361-.054-.058.693-2.162c-.026-.057-.026-.14-.111-.14-.332.304-.305.833-.471 1.25-.194.413-.36.886-.416 1.331-.082.137-.194.166-.334.166l-.025-.166c.97-2.553 1.83-5.049 2.744-7.602-.221 1.164-.777 2.274-1.026 3.497l.055.054c.25-.25.362-.608.445-.97.415-1.498.999-2.969 1.387-4.438l.582-1.61c.055-.11-.054-.193-.111-.277.333-1.609 1.025-3.078 1.357-4.63.167-.194.333-.419.555-.5-.028.636-.499 1.22-.471 1.884h.139c.473-.748.417-1.664.861-2.44m29.262.193c-.36.194-.999.389-.97.889l.165.027c.334-.248.775-.416.998-.777.028-.111-.109-.167-.193-.139m-44.559.047c-.076.018-.147.07-.209.174-.557.943-1.22 1.915-1.748 2.912-.082.167-.303.36-.139.555.418.362.5-.332.834-.303.58.248 1.136.582 1.69.887.388.139.721.473.527.916 0 .166.225.276.362.22.388-.47.582-1.052.941-1.552l.943-1.414c.443-.555-.442-.694-.664-1.082-.167-.056-.418-.057-.474.138-.082.14-.082.39.056.444.25.195.307.472.223.693-.193.36-.359.775-.748.97-.332-.194-.777-.275-.943-.663.083-.225.275-.25.47-.278.166-.056.25-.25.25-.418-.139-.277-.389-.248-.582-.332-.223-.056-.416-.39-.638-.14a.44.44 0 0 0 .11.445c.029.165-.026.389-.192.498-.333.057-.556-.22-.807-.387-.082-.416.309-.777.557-1.082.307-.5.775 0 1.082-.47.11-.168-.028-.39-.194-.473-.209-.062-.48-.313-.707-.258m36.82.037c-.055.028-.14.082-.084.164.083.224.333.224.527.28.277.055.64.333.86.109-.304-.303-.858-.442-1.303-.553m-9.54.111c-.113-.028-.167.084-.167.194.027.11.138.138.22.138.083 0 .195-.056.167-.166-.028-.083-.109-.138-.22-.166m23.687.028c.305.083.608.193.777.5.054.248 0 .608-.14.857-.306.36-.776.666-1.137.889-.307.11-.583.139-.86-.027-.333-.195-.306-.555-.388-.86.361-.638.997-1.333 1.748-1.36m-13.535.644a.3.3 0 0 0-.168.076c-.028.083 0 .14.082.194.14.14.473-.056.25-.223-.04-.04-.102-.054-.164-.047m-23.867.008a.2.2 0 0 1 .094.014c.056.637-.36 1.136-.47 1.746-1.639 4.938-3.387 9.681-4.966 14.617-.056.223.165.445.36.555 1.166.027 2.356-.108 3.521-.108 2.026-.195 3.968-.47 5.881-.5 1.248-.055 2.443.139 3.662.305.196.11-.08.277-.164.248-4.688.11-9.183.305-13.814.389-.138-.027-.166-.223-.138-.307 1.774-4.824 3.356-9.65 5.048-14.45l.748-2.356c.083-.063.152-.141.239-.153zm55.045.012c-.75.083-.197.834-.475 1.22-.555.113-1.054.444-1.58.61-.86.279-1.665.64-2.496.945-.334-.084-.167-.501-.525-.558-.196.084-.5.085-.5.392l.525 1.635c.056.222.278.334.5.277.501-.055.249-.61.389-.916l2.303-.859c.054 0 .139.029.111.084-.749 1.44-1.889 2.662-2.637 4.05l.166.028c.027.082-.054.138-.11.193.027.22.195.416.388.5 1.748-.527 3.3-.972 5.076-1.441.167 0 .306.08.361.219.026.25.277.445.526.363l.168-.14c.082-.583-.225-1.082-.278-1.637-.139-.251-.112-.665-.47-.694-.724.111-.112.722-.528 1.082-.804.194-1.58.556-2.357.666l-.112-.082c.721-1.193 1.583-2.36 2.36-3.47.332-.664-.252-1.22-.393-1.83-.082-.248-.162-.527-.412-.637m-26.63.056c.193.334-.194.667-.222 1.026-.249 1.664-.859 3.163-1.248 4.799 0 .057.057.11.084.138.194-.055.22-.276.276-.416.499-1.553.72-3.135 1.332-4.632.194.278 0 .721-.082 1.054-.583 1.941-1.108 3.966-1.637 5.936.027.057.027.168.084.168.111-.028.192-.139.22-.223-.083.748-.388 1.471-.64 2.191.06.445-.22.776-.275 1.165-.471 1.416-.722 2.83-1.276 4.216-.11.473-.275 1.027-.441 1.47l-.031-.083c.112-.525.418-1.053.363-1.61-.362-.054-.307.474-.473.696-.058.246-.113.553-.308.719l-.056-.139.525-2.164c-.026-.057-.025-.139-.11-.166l-.11.082c-.333.666-.335 1.305-.695 1.97-.139-.028-.028-.222 0-.304 1.553-5.355 2.995-10.653 4.715-15.895zm-63.6.016c.001.028.007.058.007.086 0 1.585-1.007 2.686-1.273 2.95l-.016.007L2.8 43.382c-.13-.254-.219-.514-.219-.791q.002-.096.01-.192c.101-1.043.98-1.99 1.412-2.397a.4.4 0 0 0 .123-.049l3.545-1.963zm30.122.096c-.084.027-.168.027-.113.137.694.583 1.58 1.084 2.441 1.416.14 0 .25-.194.139-.305zm37.068.13c-.353-.024-.67.338-.984.507-.055.057-.139.167-.055.25.139.166.332-.055.5-.11.222-.194.664-.222.693-.61a.5.5 0 0 0-.154-.036m31.834.813c.293.196.517.447.664.772.432.943.16 2.19-.006 2.771a.5.5 0 0 0-.084.104l-2.074 3.488a4 4 0 0 1-.574-2.074c0-.666.142-1.146.172-1.237zm-55.117.11c-.305 0-.526.139-.72.334-.142.555-.556 1.22.025 1.69.195.085.415.195.638.085.167-.027.278-.193.196-.361-.195-.14-.527.11-.666-.166-.111-.36.054-.777.304-1.055.222-.222.473.139.694.082.11-.054.14-.138.14-.248-.11-.223-.36-.332-.61-.361m2.945.03a.13.13 0 0 0-.091.083l-.39 1.469c.029.527.64.416.946.638.167 0 .276-.138.248-.304-.08-.225-.387-.308-.61-.362-.222-.5.28-1.055.03-1.5a.17.17 0 0 0-.133-.023m-.81.055c-.276.357-.222.912-.527 1.303-.14.082-.36.11-.417-.111-.028-.361.308-.75.083-1.082-.081-.027-.139 0-.192.055-.112.527-.47 1.14-.084 1.638.195.167.5.057.693 0 .583-.388.527-1.082.64-1.691-.058-.058-.113-.142-.196-.111m18.807.192c.222.139.082.473.056.666-.278 1.193-.642 2.356-.89 3.578-.473 1.413-.723 2.886-1.25 4.299-.61 2.69-1.359 5.355-2.108 7.988-.166.25-.609.113-.857.113-.36-.029-.749-.139-1.082-.113-1.275-.139-2.358-.109-3.605-.416-.278.084-.554-.08-.832-.08-2.467-.361-4.88-.336-7.323-.723 1.747-.084 3.271.25 4.992.387.804 0 1.638.084 2.385.225 1.498.193 3.218.275 4.742.582.39 0 .809.026 1.112-.196.777-2.189 1.191-4.604 1.802-6.793.886-3.055 1.748-6.16 2.524-9.21zm-22.357.166c-.441.334-.306.916-.527 1.389-.083.166-.028.359.083.5.082.054.167 0 .249-.03.11-.555.194-1.164.388-1.693.03-.11-.11-.166-.193-.166m8.064.03c-.196.005-.374.11-.52.277-.554.639.64.775.61 1.359-.25.359-.61.027-.943-.027-.111.055-.11.193-.082.304.249.305.72.47 1.08.387a1.04 1.04 0 0 0 .416-.498c.112-.499-.36-.861-.664-1.166.223-.388.526.139.805.084.166-.332-.277-.555-.5-.693a.6.6 0 0 0-.202-.028m17.094.03c-.35 0-.68.26-1.054.301-.14.03-.36.168-.248.334.389.14.75-.111 1.138-.14.192-.082.555-.11.526-.39a.7.7 0 0 0-.362-.105m-26.295.135c-.332-.029-.721.028-.943.278l-.389 1.664c-.025.139.11.194.194.25.305-.084.193-.473.388-.666.361-.277.361.277.555.416.056.083.195.082.252-.028.138-.195-.029-.36-.057-.554.223-.277.443-.556.416-.944-.056-.166-.222-.389-.416-.416m33.97.096a.2.2 0 0 0-.157.014c-.278.055-.278.39-.223.64-.582.333-1.193.72-1.802 1.026-.332.305-.723.027-1.055-.082-.167.054-.334.22-.25.441.443.472.555 1.11.943 1.637l.221.029c.306-.084.25-.416.223-.666.196-.166.418-.334.664-.305.168.193.335.387.31.637-.39.527-1.03.834-1.056 1.555-.082.388.193.72.443.998.333.22.775.22 1.164.166.276-.14.472-.39.362-.748-.083-.444-.638-.112-.832-.389-.167-.307.138-.639.304-.889.141-.166.307 0 .444.084.443.25.943.138 1.332-.14.332-.305.47-.72.441-1.164-.192-.942-.857-1.664-1.246-2.498-.041-.105-.1-.3-.23-.346m-27.563.016c-.084.027-.248.027-.22.166 0 .223.274.332.414.443.167.029.278-.138.224-.277-.057-.193-.28-.248-.418-.332m5.028.17a.93.93 0 0 0-.725.218c-.362.305-.557.694-.5 1.194-.001.248.277.498.469.58.223.084.554.139.722-.055a.204.204 0 0 0 0-.25c-.306-.082-.747-.055-.804-.443 0-.277.25-.556.47-.694.307-.223.526.194.805.25.112-.028.193-.166.166-.306a.66.66 0 0 0-.357-.416.7.7 0 0 0-.246-.078m-13.531.166a.8.8 0 0 0-.344.052c-.387.305-.693.664-.72 1.164.081.277.025.638.359.748.25.141.584.279.834.057.305-.221.527-.722.277-1.082-.14-.109-.334-.083-.47.027-.224.25.247.194.165.444-.084.22-.28.25-.5.222-.194-.027-.277-.22-.277-.416.055-.22.139-.526.416-.666.195-.11.47.111.666-.111.027-.11 0-.249-.084-.305a.56.56 0 0 0-.322-.134m1.888.044c.063.007.112.035.125.118-.027.14-.192.25-.332.306-.084 0-.222 0-.193-.14.027-.111.082-.249.193-.276.07 0 .145-.014.207-.008m12.883.147c-.358.47-.415 1.08-.609 1.61l.055.19c.057.084.197.085.306.03.276-.5.362-1.11.471-1.664a.24.24 0 0 0-.223-.166m1.38.187c-.164-.023-.318-.01-.443.115l-.414 1.387a.43.43 0 0 0 .276.47c.222 0 .474.141.61-.109 0-.194-.166-.248-.306-.359-.139-.277.222-.277.334-.443.084-.111.026-.25-.082-.334-.168-.027-.111-.193-.027-.248.112-.057.22.025.332.025.25.085.416-.304.166-.414-.138-.015-.297-.07-.453-.092zm-24.899.059c-.083.001-.222-.024-.222.086.36.473.972.473 1.498.693.168.03.277-.167.193-.306zm6.934.002c-.305.307-.583.75-.889 1.111-.14.332-.5.64-.388.998.332-.11.554-.5.97-.527.307-.139.39.305.64.305.277-.167.056-.526 0-.776-.138-.36 0-.86-.333-1.111m31.564.111c-.831.223-1.72.28-2.55.418l-.39.166c-.054.112 0 .222.112.278.94-.112 1.802-.39 2.773-.5.195 0 .305-.362.055-.362m-12.234.12a.25.25 0 0 0-.172.096l-.47 1.525.054.25c.583.14.416-.637.723-.859.36.306.249.806.527 1.166.11.111.275.028.36-.084l.359-1.637-.194-.166c-.389.083-.221.583-.441.776-.306-.25-.279-.721-.557-.998a.23.23 0 0 0-.19-.069m-21.391.014c-.695 2.247-1.47 4.355-2.108 6.629-.028.306-.359.583-.275.918.055.054.081 0 .11 0 .86-2.553 1.636-4.967 2.355-7.52zm28.404.027-.113.334c0-.11 0-.277.113-.334m-4.426.364c-.243-.01-.498.109-.707.275-.389.277-.499.834-.389 1.275.112.251.307.612.639.528.913-.221-.36-.359-.25-.805.026-.248.084-.472.25-.666.139-.167.415-.137.611-.082.25-.028.277-.359.082-.47a.6.6 0 0 0-.236-.055m-31.494.275c-.113-.001-.113.138-.084.195 1.138.498 2.304.776 3.496 1.137.221-.027.25-.305.112-.389-1.166-.389-2.36-.582-3.524-.943m9.375 0c.111-.027.11.222-.027.25a.22.22 0 0 1-.139-.055c0-.083.055-.222.166-.195m22.996 0c-.198.084-.334.304-.361.527-.028.471-.471.971-.166 1.414.36.028.691.362 1.052.141.056-.444-.525-.278-.72-.555-.082-.389.441-.223.525-.474 0-.11-.11-.219-.193-.219-.082-.084-.192-.225-.082-.307.166-.223.415-.03.611-.058.166.084.359-.08.303-.274-.248-.25-.637-.139-.969-.195m15.234.117a.35.35 0 0 1 .207.102c.11.11.191.25.191.418a.69.69 0 0 1-.386.693c-.193.194-.526.11-.748 0-.17-.111-.248-.28-.334-.445-.025-.472.583-.417.861-.666a.22.22 0 0 1 .21-.102m-6.088.352a59 59 0 0 0-2.914.363l-.164.164c-.028.11.053.195.137.195l2.885-.388c.168 0 .276-.277.056-.334m-70.746.277a4 4 0 0 1 .026.392c0 1.54-.942 2.64-1.07 2.782l-3.35 2.64a1.75 1.75 0 0 1-.274-.976c.012-1.06.821-2.096 1.21-2.533a.5.5 0 0 0 .095-.05zm23.01.197c-.277.11-.277.5-.277.72.334.196.445.556.361.944-.026.166-.168.389-.361.36l-2.162-.805c-.666-.026.055-.666-.389-.832-.193-.111-.443-.084-.555.111-.277.526-.306 1.303-.609 1.885-.086.112-.113.332.053.445.5.275.416-.527.832-.445.582.278 1.22.473 1.832.666.275.111.692.305.582.693.055.14.193.25.36.25.472-.25.416-.888.638-1.33l.72-1.61c.085-.194.223-.526-.025-.692-.362-.057-.61-.332-1-.36m41.69.053-.085.195c-.028 0 0-.166.084-.195m7.042.666c-1.496.112-2.882.36-4.408.473l-.277.138c-.057.11 0 .25.14.25 1.523-.14 3.05-.388 4.631-.472.082-.055.306-.083.248-.25-.055-.14-.222-.11-.334-.14m-44.656.045c-.062-.004-.11.01-.11.094-.028.139.112.11.167.222 1.748.166 3.438.499 5.215.61.082-.028.22-.082.166-.221-.36-.167-3.94-.527-5.243-.693-.056.014-.133-.008-.195-.012m74.545.404c.273.218.47.485.586.818.351.997-.055 2.245-.271 2.788a.5.5 0 0 0-.08.084l-2.383 3.29a3.86 3.86 0 0 1-.399-1.74c0-.78.204-1.383.276-1.572zm-56.143.104c-.313-.032-.657.03-.844.28a9 9 0 0 0-.275 1.692c.056.14.249.277.416.194.192-.138.495.165.662-.112.194-.443-.442-.248-.637-.443-.083-.388.362-.276.528-.47.194-.277-.25-.306-.278-.473a.53.53 0 0 1 .555-.194c.168-.027.306-.277.168-.416a1.5 1.5 0 0 0-.295-.058m-40.945.199a.22.22 0 0 0-.228.137c-.168.998-.444 1.968-.584 2.966-.026.111.057.223.166.25.445.305.529-.36.779-.498 1.385.138 2.855.555 4.242.776.415.084.194.442.248.72.084.193.334.168.473.194.223-.026.25-.222.277-.36.111-.998.415-1.857.526-2.828-.052-.167-.22-.279-.414-.279-.248 0-.248.28-.305.445-.082.193-.251.416-.5.332-1.358-.194-2.69-.554-3.992-.804-.53-.11.137-.86-.418-.998-.083-.014-.18-.05-.27-.053m38.91.137c-.277 0-.585.11-.806.277-.168.498-.194 1.081-.36 1.58a.18.18 0 0 0 .22.22c.112-.027.14-.192.167-.331.028-.193.224-.388.473-.332.167.027.306.222.359.388.056.11.195.027.25 0 .057-.166-.027-.332-.082-.5.112-.277.389-.499.332-.832-.111-.193-.305-.415-.553-.47m20.682.343-.047.239c-.045-.094.025-.168.047-.239m-20.812.174c.08.003.156.022.211.092.031.194-.219.195-.33.305-.111-.026-.223.111-.307-.026-.054-.14.055-.307.194-.361.07 0 .153-.013.232-.01m-1.506.035c-.084-.025-.196.001-.25.086-.25.554.026 1.44-.75 1.635-.608-.248-.056-.998-.25-1.414-.082-.084-.192-.027-.22.082-.027.529-.528 1.332.138 1.72.25.112.526.057.748-.083.388-.193.474-.581.557-.969.028-.333.193-.722.027-1.057m9.139.131a.4.4 0 0 0-.152.065c-.333.14-.39.5-.418.832-.276.223-.637.555-.526.972.166.665 1 .278 1.33.721.141 0 .251-.03.307-.111-.082-.361.248-.527.277-.832-.029-.084-.028-.194-.111-.25-.138-.054-.277.028-.389.084-.084 0-.111-.085-.14-.139.194-.195.418-.307.502-.555.109-.223 0-.5-.225-.666-.124-.082-.296-.15-.455-.12m20.396.016c-1.259-.003-3.533.112-4.574.133l-.192.138c-.084.112-.029.25.082.305 1.887-.084 3.578-.193 5.381-.139.222-.029.277-.276.139-.388-.111-.035-.416-.048-.836-.05m-42.055.217c-.353.002-.656.012-.85.025-.084.056-.03.14.026.195 1.11.334 2.276.056 3.385.36.194.028.307-.11.334-.276-.333-.25-1.837-.312-2.895-.304m10.033.132a2.6 2.6 0 0 0-1.065.227c-.027.083-.056.221.055.277.943.056-.055.915.389 1.358.082.056.166 0 .222-.026.306-.417-.028-1.304.637-1.388.251-.025.194-.305.112-.414a2 2 0 0 0-.35-.034m15.078.227c-.582.417-.805 1.054-1.248 1.61l-.084.277c.056.082.165.193.277.193.166 0 .223-.22.305-.332.141-.389.586-.278.89-.25.443.027.166.664.637.664.388-.222-.028-.692-.082-.998-.25-.389-.028-1.164-.695-1.164m2.43.27c-.12-.01-.24-.007-.352.007-.58.416-.442 1.137-.637 1.746-.027.111.112.169.196.196.249-.027.224-.332.416-.471.582-.168.415.61.804.83.11.03.276.056.332-.082.083-.139-.025-.305-.11-.443-.5-.498.5-.722.25-1.278-.168-.331-.538-.477-.9-.505m35.02.236a7.3 7.3 0 0 0-1.448.16c-.97.332-1.857 1.138-2.164 2.164-.194.694.084 1.414.362 2.024.33.694 1.08.97 1.664 1.304.887.333 1.94.167 2.8-.222.557-.166.891-.86 1.305-1.248.667-.998.307-2.442-.387-3.329-.555-.64-1.327-.848-2.132-.853m-37.451.187c.084-.056.139.027.166.082 0 .112-.026.223-.137.25l-.168-.054c-.055-.14.055-.196.139-.278m2.386.057c.166 0 .36.025.416.193-.028.166-.222.306-.361.334-.137.056-.359-.001-.303-.195 0-.139.054-.332.248-.332m1.817.002a2 2 0 0 0-.375.023c-.166.334.277.334.39.557-.084.36-.112.803-.25 1.191.054.14.053.307.221.362.471-.14.306-.833.5-1.194.056-.249.333-.304.525-.248.28 0 .307-.418.084-.5-.352-.083-.722-.181-1.095-.191m9.414.014c-.434.003-.87.023-1.3.01l-.249.11c-.055.084-.084.196 0 .278.803.057 1.885-.055 2.744 0 .111-.025.168-.22.084-.305-.416-.083-.846-.097-1.28-.093m-17.496.17a.1.1 0 0 1 .08.007c.195.082-.029.306-.139.196-.028-.057-.056-.113 0-.168a.14.14 0 0 1 .059-.035m-18.67.035c-1.72-.027-3.523.167-5.272.054-.11 0-.248.168-.109.252 1.859.278 3.412 0 5.271.11.221.027.305-.305.11-.416m-32.818.374c.05.252.078.502.078.738 0 1.212-.57 2.15-.773 2.45q-.023.015-.043.032l-3.125 2.973a1.8 1.8 0 0 1-.368-.953c-.082-1.051.637-2.148.985-2.615a.6.6 0 0 0 .1-.063zm70.82.732c-1.193 0-2.441.029-3.578.055-.14.056-.167.196-.057.306 1.193.111 2.276 0 3.526.083.164 0 .525.027.47-.278-.084-.137-.252-.11-.361-.166m-38.304.032c-3.66.441-11.141 1.004-11.096 1.467.027.111.166.112.25.168 3.55-.528 6.85-.806 10.428-1.193.222-.028.777-.166.418-.442m31.236.027a.2.2 0 0 0-.06.08c-.223 1.028-.668 2.027-.917 3.08l.057.137c.082.03.14-.027.193-.082.276-.998.582-2.053.889-3.107l-.082-.082c-.029-.042-.056-.043-.08-.025m29.504.295c.427.007.85.062 1.197.145.194.25.36.584.25.889-.084.25-.361.413-.556.554-1.22.25-2.606.584-3.856.25-.248-.195-.276-.498-.248-.775.307-.887 1.331-.748 1.998-.916.36-.111.788-.153 1.215-.147m-30.092.256c-.25.417-.252.974-.473 1.444-.11.389-.36.804-.275 1.191.109.057.193.03.277-.055.14-.887.388-1.691.61-2.552zm40.24.346c.259.247.437.536.525.885.26 1.026-.26 2.23-.521 2.746q-.039.03-.076.07l-2.66 3.045a3.8 3.8 0 0 1-.27-1.393 4.55 4.55 0 0 1 .445-1.937zm-36.301.266c-.112.027-.22.111-.22.222 0 .11.081.167.167.223 1.912.443 3.797.554 5.766.83.22-.083.054-.387-.139-.36-1.83-.334-3.716-.5-5.574-.915m-62.488.064a.36.36 0 0 0-.254.156c-.082.637-.082 1.166-.166 1.803-.055.279.25.307.416.307.305-.056.193-.471.441-.555.861-.057 1.694.137 2.58.191.058 0 .14.057.112.141-1.054.805-2.163 1.412-3.19 2.273-.166.223-.47.25-.554.557a9 9 0 0 1-.141 1.523c.03.195.225.446.475.418.36 0 .223-.443.416-.666.527-.084 1.33-.057 1.94-.027l2.497.111c.276.11.11.36.193.582.055.221.248.25.471.221.416-.082.333-.5.305-.803-.221-.529.5-1.47-.414-1.552-.444 0-.333.553-.61.691l-2.025-.027c-.167-.111-.525.056-.666-.194.777-.639 1.666-1.247 2.469-1.802.5-.61 1.666-.805 1.525-1.803a.34.34 0 0 0-.166-.225c-1.607-.027-3.273-.386-4.91-.525-.472-.027-.11-.612-.47-.723a.4.4 0 0 0-.274-.072m27.43.268c-2.553.472-4.994.86-7.545 1.359-.057.027-.057.166 0 .193.331.138 5.242-.747 7.488-1.136.194-.027.332-.416.057-.416m15.033.75c-.084-.027-.168.08-.168.164 0 .058.084.141.14.113.138-.027.056-.195.028-.277m19.668.17a.35.35 0 0 0-.225.052c-.083.11-.083.274.082.33 2.745.612 5.548 1.276 8.293 1.914.194 0 .278-.247.139-.357-2.72-.556-5.38-1.305-8.043-1.887a.7.7 0 0 0-.246-.052m-32.068.382c-.082 0-.138.112-.166.196-.03.083-.111.305.055.334.11-.111.223-.39.11-.53m11.928.084c-.11 0-.166.084-.139.196.028.109.165.192.276.22.11 0 .193-.082.166-.193-.08-.082-.192-.223-.303-.223m-15.227.446c-.39 0-.807.109-1.139.275-.776.194-1.609.36-2.385.525-.139.084-.388.085-.388.28.083.139.25.112.388.084 1.055-.25 2.248-.526 3.358-.75.166-.055.36-.275.166-.414m14.752.273a.2.2 0 0 0-.108.059c-.056.36.446.332.612.554.249-.14-.03-.389-.196-.527-.082-.02-.198-.104-.308-.086m20.445.059c-.11.082-.08.165-.027.248 1.444.583 3.05.806 4.548 1.25.195.082.195-.224.084-.278-1.057-.416-4.217-1.22-4.605-1.22m-67.141.064c.11.37.162.731.162 1.068a4.5 4.5 0 0 1-.596 2.19l-.008.005-2.85 3.234a1.8 1.8 0 0 1-.44-.916c-.175-1.053.45-2.219.751-2.709a.4.4 0 0 0 .07-.052zm24.32.244c-.195.139-.362.332-.334.582.22.666.888.915 1.496 1.137.279.166.61.5.473.832.028.389.362.75.195 1.109-.583-.057-1.055.057-1.555-.166-.223-.443-.858-.914-.441-1.332-.03-.25-.308-.084-.445-.166-.361-.36-.748-.776-1.22-.998-.498-.333-1.084-.888-1.693-.582-.139.138-.306.276-.25.498.307.942 1.414.86 1.998 1.525-.029.416.026.833.248 1.194 1.442 2.414 3.052 4.798 4.385 7.267.054.774-.862.524-1.277.883-.584.28-.963.648-1.055 1.389-.095.738.249 1.193.694 1.61.915.886 2.19 1.108 3.3 1.58.528.192 1.082.247 1.553.5-.141.692-.695 1.192-.998 1.83-.057.14-.139.331-.334.306 0 0-2.27-.961-2.494-1.027-.461-.141-.002.748.11 1.11.507-.528.333.192.75.286.243.055.24-.311.425-.222.185.092.268.655.518.712.334-.082-.065-.666.306-.48.37.186.112.674.528.756.276-.053.01-.516.24-.424s.286.73.674.897c.278-.055-.047-.525.23-.436.277.094.36.762.545.807s.056-.39.334-.25c.278.137.148.582.473.629s.155-.372.388-.278c.23.094.278.664.694.639.5-.39-.25-.75-.332-1.166-.445-.471-2.25-.941-2.389-1.248l1.223-1.996c.389-.25.886.027 1.219.275.502.28-.275.832.277 1.053 1.879.02 3.107.113 4.717.084 1.44 0 2.743.25 4.244-.055.054-.113.11-.221.025-.361-1.609-1.22-3.576-1.804-5.02-3.356-.887-.889-1.692-1.637-2.718-2.246 0-.416.36-.75.527-1.136.36-.195.749-.03 1.108 0 1.525.332 2.998.774 4.578.97 1.94.275 3.994.584 5.908.723.47.139.998.027 1.525.082.277.027.195.33.278.525.11.193.332.39.525.336.277-.197.417-.5.473-.775.14-.28.526-.363.556-.695 0-.307-.251-.5-.472-.666-.027-.361.026-.722-.223-1.026-.526-.307-.666.611-1.139.664-1.19.03-2.189-.053-3.383-.053-1.497-.14-3.763-.398-4.687-.584-.926-.186-4.208-.98-4.152-1.09.583-1.108 2.294-3.708 2.627-4.345-.028-.037-.87-.361-.86-.361-.814 1.174-2.544 4.215-2.914 4.66-.775-.084-1.636-.223-2.412-.25-.527-.055-1.027.223-1.498-.03-.777-2.08-1.772-4.103-2.523-6.183-.555-.916-.584-2.22-1.692-2.69-.612-.279-1.19-.695-1.857-.777m20.24.36a2.7 2.7 0 0 1 1.808.58c.334.25.86.332 1.028.777l-.057.027c-.555-.416-1.053-.915-1.746-1.055-.057-.027-.083.056-.111.084.166.277.5.389.775.555.306.109.584.332.75.582-.25.057-.39-.222-.61-.25-.222-.055-.388-.305-.609-.166l.026.166c.334.141.665.36.97.557-.166.305-.555.386-.859.304-3.494-.72-6.933.248-10.398.332-.667.027-1.25.139-1.889.139l-.054-.055 1.109-.666c1.996-.11 3.745-.665 5.604-1.22l1.94-.444c.167-.057.36.11.499.223a7 7 0 0 1 1.332-.057c.056-.057.057-.11.057-.166l-.223-.138q.334-.094.658-.11zm-20.02.025c.555.165 1.082.47 1.582.72 1.054.777.998 1.972 1.58 3.024.749 1.857 1.414 3.743 2.162 5.603-.055.168-.276.22-.416.139-.388-.664-.528-1.36-.889-2.026a97 97 0 0 0-1.273-3.023c-.028-.332.414-.525.166-.857a.81.81 0 0 0-.64-.278c-.249-.527-.636-.998-.413-1.664-.388-.917-1.527-.723-2.025-1.5 0-.082.055-.166.166-.138m-3.39.367c.055-.014.116-.007.144.021.943.332 1.857.944 2.302 1.858 1.58 2.773 3.301 5.574 4.8 8.404.053.141-.112.141-.167.166-.333.111-.581-.084-.722-.36-1.471-2.69-3.079-5.27-4.659-7.904 0-.389.082-.915-.334-1.136-.47-.363-1.192-.364-1.47-.946 0-.055.05-.09.105-.103m45.743.103-.302.028a.214.214 0 0 0 .027.279c1.607.582 3.3 1.08 4.908 1.719.168-.027.193-.306.027-.36a136 136 0 0 0-4.66-1.666m-23.639.147c-.409.007-.812.062-1.13.187-.055.082.029.139.113.139.414-.14.886-.057 1.33-.084.276-.082.692.168.86-.139a5.7 5.7 0 0 0-1.173-.103m-11.973.049c-1.027.305-2.025.5-2.996.888-.14.193.138.221.248.248l2.58-.666c.251.03.53-.415.168-.47m19.582.111c.888.056 1.857.332 2.69.498.442.307.831.223 1.302.5 0 .14.14.307.307.307.304.25.414-.279.692-.057-.028.027-.11.112-.053.194.5.193.998.415 1.496.472.14-.057 0-.137-.027-.193l-.194-.084c.362-.082.777.194 1.22.222l.808.112c-.057.027-.141.11-.084.191.61.223 1.303.194 1.94.278l.056-.055c-.223-.248-.584-.195-.916-.277.332.029.943-.084 1.414-.055.223.22.554.332.722.61l-.028.055c-1.359-.055-2.496-.138-3.853-.386-2.637-.193-5.021-.64-7.74-.723-.36-.025-.693.083-.998-.11 0-.139.168-.138.25-.167l1.248-.083a.22.22 0 0 0 .052-.222c-.582-.193-1.303.084-1.857.084.275-.277.888-.166 1.191-.418-.166-.303-.61-.053-.859-.053l-.693.166c.416-.195.721-.361 1.191-.445.028-.027.081-.11.027-.166-.166-.084-.442-.028-.636.056-.362.11-.695.36-1.057.332.695-.5 1.557-.444 2.389-.582zm45.102.057c-.36.166-.082.47-.25.72-1.413.166-3.023.028-4.437.11-.333-.14-.167-.47-.36-.72-.14-.085-.252-.084-.418-.028-.166.028-.305.166-.275.36.11.97.11 1.775 0 2.773 0 .139.138.25.275.277.581.193.444-.527.637-.748 1.554-.111 2.886 0 4.467-.111.333-.057.306.359.361.582.055.139.223.246.389.191l.166-.164c.139-1.027-.056-2.08 0-2.996-.056-.274-.332-.246-.555-.246m-55.807.11c-.389.108-.806.108-1.166.331l-.027.111c.275.055.693-.11 1.053-.166.11-.027.416-.22.14-.277m2.54.374a7 7 0 0 0-1.32.15l-.167.141.055.057c.998-.027 1.857-.195 2.802-.166.027-.057.001-.111-.027-.166-.458-.015-.903-.03-1.344-.016m61.68.031c.234.262.383.562.439.909.17 1.054-.467 2.221-.776 2.712q-.037.025-.072.057l-2.935 2.8a3.8 3.8 0 0 1-.15-1.038 4.6 4.6 0 0 1 .605-2.219c.015-.012 2.888-3.22 2.888-3.22m-59.1.055a.3.3 0 0 0-.155.037c-.056.057-.027.141.055.195.389.084.804.166 1.164.305.276-.25-.36-.277-.527-.416-.187-.02-.374-.119-.538-.12m7.388.121c-.026.03-.055.11 0 .139.832.084 1.582.555 2.356.695v-.057c-.691-.47-1.579-.666-2.356-.777m-13.564.084c-.914.248-1.83.14-2.69.498-.026.03-.001.085.026.112.859-.14 1.665-.333 2.58-.444l.11-.111zm27.018.139c-.082.055-.113.193-.03.277a57 57 0 0 0 3.718 1.637c.222.055.168-.223.056-.307 0 0-3.355-1.718-3.744-1.607m-13.812.11a.2.2 0 0 0-.111.058c-.027.057-.002.081.025.138.168.026.364.164.557.082.029-.084-.028-.14-.112-.195-.104-.02-.24-.102-.359-.084m-16.432.208c-.114.007-.252.042-.35.014-.14.027-.443-.11-.472.166.222.307.721 0 1.027-.027 0-.14-.09-.16-.205-.153m12.326.46c.167.22-.057.525-.113.72h-.08c.053-.223.053-.527.193-.72m-.473.026c0 .193-.028.387-.109.528.027-.113 0-.362.11-.528m-.443.083c-.028.112-.002.304-.14.388-.055-.084 0-.25.056-.332zm1.36.083h.054c.03.082-.028.196-.084.249zm17.157.329c-.08-.01-.156.005-.21.06-.083.11 0 .277.082.387 1.914 1.11 3.772 2.471 5.742 3.578.192 0 .166-.277.052-.36-1.8-1.276-3.685-2.302-5.433-3.58a.6.6 0 0 0-.233-.085m-35.883.17c-.278.085-.64.085-.75.417 0 .139.113.193.252.193.22-.082.44-.14.58-.36.056-.081.001-.192-.082-.25m-4.687.292c.271-.007.777.153.777.293 0 .184-.99-.037-.943-.223.01-.047.075-.068.166-.07m1.459.226c.1.004.206.025.262.067-.167.109-.362-.03-.502-.03a.5.5 0 0 1 .24-.037m-26.854.158c.2.498.281.99.281 1.436a4.6 4.6 0 0 1-.388 1.828c-.013.014-.027.023-.036.039L1.93 62.563a1.83 1.83 0 0 1-.516-.869c-.268-1.029.242-2.241.498-2.76a.5.5 0 0 0 .07-.07zm26.143.26c.242.014.485.049.72.09l.194.168.89 2.33 1.19 2.857c-.027.193-.193.222-.332.276l-.193-.166c-1.083-1.803-2.19-3.662-3.19-5.522.236-.04.478-.047.72-.033m6.299.09c-.473.47-1.109.832-1.639 1.191-.082.03-.137.168-.055.252.5-.054 1.941-.886 1.97-1.248-.057-.11-.14-.221-.276-.195m4.142.316c-.032-.018-.08-.016-.15.018l-3.688 3.467c-.112.11-.196.25-.113.388.111 0 .196-.082.278-.138 1.165-1.11 2.44-2.328 3.634-3.383.084-.063.136-.297.04-.352m29.047.088c-.073-.014-.143-.001-.185.068-.054.084-.027.196.056.278 1.137.916 2.497 1.859 3.663 2.828l.195.057c.082-.027.082-.14.082-.223-1.166-1.135-2.333-1.941-3.608-2.91a.5.5 0 0 0-.203-.098m-31.352.006a.14.14 0 0 0-.091.01l-1.498 1.328-.168.223c-.027.112.112.166.195.11l1.609-1.277.082-.193c0-.083-.047-.181-.129-.201m9.743.104c-.045 0-.087.014-.1.07-.861 1.385-1.666 2.857-2.553 4.244-.08.11-.164.305.002.416.14 0 .195-.111.278-.195l2.437-3.965c.057-.168.252-.363.059-.555-.029 0-.079-.015-.123-.015m1.273.132a.16.16 0 0 0-.15.106l-1.89 4.297.083.224a.26.26 0 0 0 .197-.084c.61-1.498 1.47-2.884 1.914-4.437a.17.17 0 0 0-.154-.106m3.037.133c-.36.331-.804 4.021-.998 5.406.056.113.139.057.223 0 .416-1.746.748-3.438.996-5.21-.025-.114-.083-.224-.221-.196m-1.557.018c-.105.003-.183.113-.246.177-.22.887-.914 3.243-.832 3.606.084.08.194 0 .25-.084 0 0 1.138-3.19.942-3.662a.2.2 0 0 0-.114-.037m-4.416.049c-.245.023-.276.425-.517.57-.14.307-.444.555-.416.861.195.026.361-.14.445-.28.166-.386.749-.663.61-1.136a.3.3 0 0 0-.122-.015m10.453.035c-.056.02-.083.112-.125.175.39 2.635.916 5.27 1.276 7.961.14.33 0 .747.193 1.024.141.502.001 1.139.418 1.498.25-.055.166-.359.194-.555-.442-3.189-.998-6.463-1.553-9.652-.083-.164-.082-.417-.334-.444q-.04-.018-.069-.007m-1.482.064c-.084 0-.14.082-.14.14.14 1.665.416 3.161.583 4.825.028.083.082.218.194.193.194-.139-.25-4.744-.637-5.158m-46.326.073a.36.36 0 0 0-.385.203c-.028.775.192 1.499.139 2.274.027.14.196.166.307.166.444.029.332-.472.47-.776.582-.305 1.277-.166 1.887-.334.97.084 2.413-.83 2.8.5.028.39.17.972-.275 1.278-1.275.416-2.718.524-3.994.72-.14-.029-.192-.166-.22-.277-.028-.193-.142-.416-.334-.389a.39.39 0 0 0-.39.334c.11.941.194 1.749.36 2.69 0 .168.196.36.362.334.526-.03.221-.666.554-.889l1.858-.277c.749-.193 1.61-.193 2.33-.555.388-.305.472-.803.75-1.164.138-.832-.029-1.694-.307-2.442-.362-.529-.918-.86-1.527-.888-1.388.109-2.606.248-3.908.387-.334-.191-.057-.608-.334-.83a.3.3 0 0 0-.143-.065m32.428.045.111.158c.04 0-4.188 7.544-5.879 10.316l-.889 1.362c1.331-2.386 2.609-4.716 3.94-7.101a670 670 0 0 1 2.717-4.735m12.465.012a.17.17 0 0 0-.092.119c-.028.859-.138 1.914.026 2.773.11.055.14-.056.222-.111l.112-2.523-.112-.25a.18.18 0 0 0-.156-.008m4.42.066c-.042.004-.076.024-.076.08.084 1.414 1.082 5.242 1.302 5.824.114.084.277-.057.25-.166a193 193 0 0 1-1.136-5.41l-.22-.302a.25.25 0 0 0-.12-.026m2.789.04a.13.13 0 0 0-.092.04c-.112.137.002.275.03.414 1.359 3.023 3.051 5.909 4.298 8.99l.194.11c.166.057.167-.166.193-.25-.166-.596-3.217-6.85-4.355-9.127-.063-.082-.171-.18-.268-.178m-16.941.093c-.09-.018-.208.016-.264.084-.694.918-2.413 3.221-2.328 3.441.164.027.276-.111.358-.193.748-1.082 1.58-2.025 2.33-3.107.055-.139-.006-.207-.096-.225m15.518 0c-.112-.025-.193.113-.164.223A278 278 0 0 0 62.2 63.07c0 .111.139.277.25.25.108-.029.164-.139.138-.25-.585-1.914-1.14-3.828-2.136-5.576l-.143-.084zm34.924.113-.277.166c-.028.168-.057.416.084.582.665.28-.278.669-.223 1.11-.222.945.165 1.97.857 2.552.665.361 1.331.277 1.97 0 1.136-.443 1.164-1.747 2.247-2.22.138 0 .36 0 .414.195.085.223.114.5-.025.693-.194.582-.86.499-1.276.776-.055.166-.166.362-.054.556.442.361 1.054.11 1.58.276l.223-.082c.138-.195.138-.5.082-.694.25-.777.529-1.607.277-2.44-.082-.61-.664-1.054-1.219-1.247-.585-.141-1.305-.057-1.695.47-.664.64-.802 1.637-1.69 2.051-.139.113-.441.084-.554-.109-.141-.279-.198-.72-.03-1 .387-.637 1.194-.414 1.473-1.053.055-.166.08-.44-.111-.554zm-26.072.053a.2.2 0 0 0-.113.057c-.026.139.084.25.14.363 1.386 1.357 2.773 2.689 4.16 4.049 0 0 .24-.05.157-.295-1.191-1.193-2.848-2.758-3.983-4.006-.105-.083-.24-.182-.36-.168m-5.738.03c-.103.004-.185.097-.145.222 0 0 2.137 3.883 2.469 4.021.112 0 .084-.14.084-.224-.805-1.328-1.472-2.717-2.303-3.994a.2.2 0 0 0-.105-.026m3.795.001a.18.18 0 0 0-.055.25l3.437 4.354.225.084.082-.03c0-.274-2.44-3.383-3.55-4.658zm-2.024.026c-.11 0-.168.113-.14.195.527.666 1.664 2.635 1.914 2.69.082-.027.083-.084.113-.137-.307-.75-1.582-2.666-1.887-2.748m43.936.431c.213.283.336.6.36.955.07 1.052-.648 2.143-1.002 2.61q-.05.026-.1.06l-3.162 2.534a4 4 0 0 1-.07-.713c0-1.271.623-2.24.812-2.502l.006-.006zm-63.215.457c-.473.5-.805 1.11-1.193 1.664-.111.166-.307.39-.223.61.251.029.334-.361.53-.527l.94-1.358c.029-.11.028-.275-.054-.389M4.88 60.327c.308.615.411 1.238.411 1.773 0 .736-.18 1.307-.252 1.506-.014.016-2.242 3.705-2.242 3.705a1.8 1.8 0 0 1-.603-.826c-.351-.979.025-2.21.238-2.77a.5.5 0 0 0 .086-.09zm71.878.232a.68.68 0 0 0-.42.157c-.223.775-.416 1.605-.61 2.41-.166.36-.082.902-.47 1.123h-4.19l-1.8 1.68c-.14.22-.225.5-.14.777.61 1.023 2.219 1.11 2.552 2.44 0 .417-.335.776-.611 1.081-.111.416-.307.97.056 1.358.58.139 1.164.03 1.774.03.139 0 .307-.167.445-.085-.112.498-.141 1.053-.53 1.385-.746.082-1.497.42-2.22.695 0 0-.636.79.418 1.11 1.498.334 3.397.568 4.66-.305.14-.334.223-.582.057-.945-.417-.36-1-.305-1.5-.414l-.166-.168.36-1.44.165-.334c.334 0 .502.39.75.526.582 0 1.222.084 1.86 0 .693-.443 1.303-1.08 1.857-1.665.389-.664-.915-1.33.082-1.83.89-.36 1.803-.666 2.691-.998.723-.113 1.36-.443 2.026-.695.442-.248 1.166-.443 1.248-1.082 0-.139-.195-.191-.277-.275-1.774-.276-3.437-.167-5.184-.196-.501 0-.277-.748-.75-.691h-2.414c.307-.918.47-2.026.832-2.94.082-.223.026-.473-.11-.611a.85.85 0 0 0-.44-.098zm-.058.65.111.114c-.333 1.36-.723 2.885-1.139 4.16-.748 2.244-1.137 4.437-1.885 6.63-.028.22-.125.248-.25.609.555-2.47 1.305-4.882 1.915-7.323.194-.414.804-3.326 1.248-4.19m-40.662.557c.858-.027 1.83 0 2.744.194.11.139-.083.305-.139.416-.417.332-.998.056-1.498.222-.527.082-1.025.278-1.498.36-.61-.14-1.193-.193-1.803-.305-.11-.139-.222-.25-.222-.416.724-.47 1.584-.305 2.416-.47m4.11.399c.147.003.299.044.41.072.805.082 1.525.443 2.33.582 3.133.666 6.128.834 9.29.916.441.14.777-.25 1.11-.527l.111.082-.082.64c-.166.056-.418 0-.445.221-.055.307.445.361.334.668-.276-.027-.363-.306-.61-.388-1.805-.25-3.33-.352-5.549-.584-2.219-.23-5.99-1.055-7.267-1.248-.082-.082-.055-.194 0-.278.084-.124.223-.16.369-.156m68.51.703c.182.301.276.623.269.98-.022 1.055-.832 2.076-1.225 2.506a1 1 0 0 0-.1.051l-3.377 2.24a4 4 0 0 1-.025-.377c0-1.553.965-2.651 1.094-2.794zm-70.808.076c.176 0 .323.022.406.07-.083.275-.25.583-.5.665-.389-.166-.86-.248-1.277-.39.062-.163.844-.346 1.371-.345m-4.781.153 1.248.027c1.109.14 2.136.697 3.217.97l-2.193 3.778c-1.137-.25-2.274-.64-3.356-1.084-.805-.36-1.802-.806-1.941-1.83-.11-.224.111-.667.111-.667.773-.886 1.911-1 2.91-1.193zm5.533 1.535a.5.5 0 0 1 .152.072c1.053.778 2.164 1.554 2.94 2.693.056.248-.25.305-.389.416 0 0-2.91 1.194-3.799.858-.25-.193-.528-.389-.832-.389-.14-.082-.166-.19-.084-.305.665-1.082 1.25-2.162 1.86-3.273.041-.07.096-.083.152-.072m32.91.017h3.607s-.084.598-.084 1.264l-5.02-.027c.112-.112.831-1.124 1.497-1.237m5.021.016h1.885l.057.098c-.61.414-.916 1.495-1.86 1.218-.192.082-.47 0-.609-.11l.277-1.108zm-71.019.167c.46.738.6 1.508.6 2.121a4.3 4.3 0 0 1-.152 1.174l-1.887 3.838a1.77 1.77 0 0 1-.664-.762c-.441-.957-.163-2.235 0-2.808a1 1 0 0 0 .058-.083zm73.648.514h4.19v.082c-1.607.5-3.245.667-4.854 1.054-.194-.084-.47.083-.609-.054.276-.53.888-.666 1.273-1.082m5.247.279c-.168.302-.558.385-.864.496-1.44.527-3.13.861-4.574 1.443-1.025.611-1.915 1.607-2.11 2.801-.47.166-1.025.082-1.607.057l-.359-.446.748-2.773.14-.082c.693-.055 1.248.11 1.83-.168 2.275-.22 4.58-.857 6.796-1.328m-14.51.69 4.744.083c.166.055.083.278-.055.278-1.692-.082-3.3 0-4.938-.082-.027-.055-.056-.082-.056-.166zm6.484.048c.187-.003.383.025.592.067.165.109-.03.303-.168.275l-.942-.027c-.084-.029-.056-.14-.028-.195.18-.083.36-.116.547-.12zm-5.081.647c1.091-.013 2.162.075 3.203.055l.082.084-.748 2.69c-.583.692-1.47.692-2.303.638-.054-.277.335-.36.389-.611.194-.361.276-.775.084-1.164-.362-.805-1.25-1.11-1.805-1.637.368-.035.734-.05 1.098-.055m7.086.082c-.137-.027-.168.083-.168.196-.001.084.084.22.195.167.14-.029.114-.279-.027-.363m-.694.139c-.11.029-.109.14-.109.224.054.163.165.387.416.387.08 0 .164-.113.164-.195-.082-.191-.276-.387-.47-.416m-5.918.293c-.052 0-.1.013-.126.068-.028.082-.056.166 0 .25.442.195.415.722.775.942.36-.414-.168-.941-.5-1.246-.04 0-.096-.014-.149-.014m.676.014c-.084.027-.084.11-.084.19.223.198.28.556.5.696.14-.029.112-.194.112-.306-.082-.276-.25-.498-.528-.58m.813.023a.2.2 0 0 0-.176.031.39.39 0 0 0 .143.362c.222.109.222-.196.166-.28a.23.23 0 0 0-.133-.113m34.486.055c.126.25.213.506.213.78q0 .1-.012.208c-.11 1.039-.998 1.982-1.434 2.387a.5.5 0 0 0-.123.045l-3.562 1.937c-.001-.018-.006-.039-.006-.059 0-1.73 1.207-2.88 1.353-3.013zm-65.395.365c.518.36 3.54 1.83 3.021 1.86-2.412-.083-4.853-.056-7.293-.196-.082-.057-.14-.193-.025-.307 1.442-.389 2.966-.664 4.297-1.357m35.695.969c.084-.025.166.058.166.14.086.361-.388.585-.608.776-.056-.22.196-.693.442-.916m-71.474.273c.644.859.793 1.818.793 2.482 0 .42-.056.707-.07.785l-1.518 3.98a1.8 1.8 0 0 1-.74-.697c-.284-.488-.368-1.09-.368-1.631 0-.467.06-.88.11-1.143a.4.4 0 0 0 .058-.091zm71.953.422c.166.03.082.22 0 .304l-.944.86-.084-.196zm-2.926 1.207 1.26.042c-.042-.018-.054.096-.082.276.069.043-1.209-.027-1.194-.027-.082-.082-.124-.291.016-.291m-2.9.013c.138.083.136.305-.03.36 0 0-1.094.04-1.094-.041l-.097-.29zm33.75 1.39c.08.208.134.417.134.632q.002.184-.037.37c-.209 1.04-1.197 1.899-1.652 2.253a.5.5 0 0 0-.102.031l-3.719 1.59c.146-1.752 1.455-2.803 1.606-2.914zm-62.172.548a6 6 0 0 0-.647.004c-2.357.14-4.63 1.527-5.572 3.746-.89 2.107-.666 4.688.803 6.463.11.248.528.416.582.75-.275.275-.61.332-.915.582v1.332H70.93l.03-1.557c-1-.139-1.888-.972-2.248-1.914-.194-.277 0-.971-.528-.861-.387-.051-.165-.636-.441-.858.027-.555-.14-1.082-.084-1.719.027-.279.056-.639-.22-.777-.335-.111-.75-.111-1.026.082h-3.496c-.276-.139-.556-.223-.916-.139-.5.195-.194.805-.389 1.164a.83.83 0 0 1-.525 0c-1.443 0-2.971-.024-4.467.028-.597-.275-.625-.803-.736-1.33-.025-.082.168-.291.168-.5-.026-.193-.069-.499-.237-.526-.524-.197-.33-.834-.386-1.332.056-.084.138-.139.248-.111.278.082.277.416.277.693.11.334.194.5.525.666.25.053.557.14.778-.056.222-.166.416-.443.334-.746-.084-.28-.582-.642-.86-.778-.526.11-.692-.029-1.11-.361-.04.014-.1-.514-.444-.514-.347 0-.721.678-1.053.93-.39-.029-.804-.14-1.11.193-.139.166-.192.443-.167.664.028.252.251.443.474.555.223.084.58.168.776-.023.275-.25.304-.584.275-.916.112-.14.25-.361.443-.334.14.443.209 1.121-.277 1.525-.221.055-.221.275-.193.498 0 .193.193.334.36.47.056.278-.027.475-.138.725-.307.721-1.304.554-1.886.692 0 0-1.763.07-2.442-.416-.056-1.582-.776-2.966-1.83-4.104-1.117-1.115-2.616-1.808-4.125-1.89m-.397.306c1.598 0 3.1.621 4.229 1.752a5.93 5.93 0 0 1 1.752 4.227c0 1.6-.622 3.1-1.752 4.228a5.93 5.93 0 0 1-4.229 1.752 5.93 5.93 0 0 1-4.227-1.752 5.93 5.93 0 0 1-1.752-4.228 5.986 5.986 0 0 1 5.979-5.979m29.324.172c.659.018 1.337.163 1.713.385-.942.443-2.58.348-3.3 0 .29-.292.928-.402 1.587-.385m-65.196.242c.911.998 1.045 2.223 1.045 2.836 0 .191-.012.307-.018.354L7.874 80.82a1.8 1.8 0 0 1-.79-.631c-.432-.617-.533-1.46-.533-2.108 0-.258.018-.48.032-.642a.5.5 0 0 0 .056-.108zm35.873.139a5.4 5.4 0 0 0-3.834 1.588 5.4 5.4 0 0 0-1.59 3.838c0 1.447.564 2.809 1.59 3.836a5.4 5.4 0 0 0 3.834 1.587 5.433 5.433 0 0 0 5.428-5.423 5.4 5.4 0 0 0-1.592-3.838 5.4 5.4 0 0 0-3.836-1.588m-.387.418c.416.057 1.304 2.22.998 3.162l-.138.139c-.527-.084-1.138-.055-1.526.277-.443-.166-.97-.443-1.468-.334-.723.193-2.387.723-2.387.723.084-.943.639-1.775 1.305-2.496.915-.89 2.023-1.33 3.216-1.471m28.252.09c.292.008.506.098.733.244-.68.163-1.055-.225-1.055-.225q.177-.024.322-.02m3.063.05c0 .222-.303.276-.498.358l-.612.031c-.083 0-.082-.14-.054-.223.36-.055.776-.14 1.164-.166m-29.9.026c.859.055 1.609.53 2.303 1.056.916.805 1.495 1.996 1.718 3.22.083.412-.47.217-.693.245-1.096-.123-1.718-.221-2.635-.443.055-.332.276-.691.332-.998.223-1.11-.44-2.053-1.082-2.912zm-.57.097h.002c.25.527.65.987.9 1.541.276.607.36 1.276.057 1.913l-.141.054c-.555-.168-.055-.72-.139-1.052.14-.807-.403-1.541-.68-2.262zm9.252 1.26a.294.294 0 1 1-.002.588.294.294 0 0 1 .002-.588m3.12 0a.294.294 0 1 1 0 .588.294.294 0 1 1 0-.588m48.028 1.14c.049.166.08.33.08.494q.002.264-.078.532c-.303 1.01-1.35 1.776-1.842 2.09a.6.6 0 0 0-.125.023l-3.842 1.254c.28-1.604 1.487-2.522 1.805-2.735.005-.004.013-.003.02-.007l3.98-1.651zm-94.898.934c1.186 1.086 1.3 2.606 1.308 3.02-.012.02-.812 4.258-.812 4.258a1.8 1.8 0 0 1-.846-.557c-.659-.775-.748-2.031-.748-2.648v-.018a.5.5 0 0 0 .05-.121zm45.473.08a.5.5 0 0 1 .164.082c.04.72.304 1.206.636 1.649 0-.055-1.539-.027-1.58 0 .332-.388.581-.916.637-1.662.028-.072.084-.083.143-.069m-13.504.041a.94.94 0 0 1 .408.166c0 .053.083.14 0 .166-.333.166-.72-.084-1.08-.027-.194-.029-.363.027-.557.027.31-.209.795-.401 1.229-.332m1.797 0h.525l-.027.053c-.47.057-.973.113-1.305.502.167-.334.473-.473.807-.555m.8.192c.223-.082.36.222.53.306.387.527.358 1.166-.03 1.721-.22.25-.524.47-.886.47-.103-.015-.212-.022-.319-.032.492-.107.904-.14 1.205-.635.25-.307.249-.747.139-1.11a2.3 2.3 0 0 0-.639-.72m-.662.38a.785.785 0 1 1-.003 1.57.785.785 0 0 1 .003-1.57m23.16.176.166.026c.082.584.056 1.277.082 1.887l-.111.056c-.082.055-.14-.084-.166-.113 0-.608-.055-1.217.03-1.856m-4.687.026c.082-.025.112.084.14.168 0 .527 0 1.053-.027 1.61l-.057.052c-.195-.58-.14-1.302-.056-1.83m-21.451.027a5 5 0 0 1 1.312.168c-.014.332-.04.765.084 1.026-.125.695-.928 2.357-1.72 3.025l-.167-.03c-.86-.972-1.498-2.106-1.498-3.384 0-.31.795-.793 1.989-.805m22.09.057h3.299c.276.084.138.39.25.611-.058.361.082.805-.112 1.137-.222-.111-.056-.306-.138-.528-.084-.055-.141-.139-.25-.11-.194.167-.139.416-.194.609-.194-.14.026-.693-.416-.637-.194.166 0 .527-.168.664-.166-.193 0-.806-.47-.692-.195.223.083.526-.137.692-.194-.193-.03-.775-.446-.637-.223.168.001.443-.11.666-.277.057-.113-.389-.249-.498-.028-.113-.14-.14-.223-.084l-.14.25c-.11-.14-.083-.587-.387-.39l-.084.027c-.136-.276-.081-.773-.025-1.08m-20.28.222c-.055.36.14.803.417 1.137.193.164.437.328.683.438l.022.002q-.004 0-.01.004l-.012-.006c-.29-.021-.583-.061-.822-.3-.248-.192-.333-.5-.389-.75a.74.74 0 0 1 .112-.525m45.718.002c-.112.006-.232.09-.336.11-.442.137-.414.582-.553.914-.194.834-1.334.945-1.334 1.86-.082.304-.389.083-.555.138-.166.111-.304.277-.304.47.056.306.331.417.554.612.39.359.666.943 1.166 1.193 1.023-.473-.363-1.165-.197-1.804.03-.193.25-.194.389-.276.309-.029.39-.502.695-.334.193.775.388 1.553.666 2.303.137.469.138.998.442 1.414.084.03.193.082.277 0l1.11-1.33.058-.252c-.917-1.08-1.444-2.47-1.858-3.826-.084-.361.081-.832-.113-1.166a.2.2 0 0 0-.107-.026m-40.037.425c.18-.004.353.03.506.155v.084c-1.193-.277-1.915.997-3.053.804-.138 0-.36 0-.36-.195.168-.444.666-.054.973-.193a4.7 4.7 0 0 0 1.385-.58c.18-.029.368-.07.549-.075m-2.406.043.609.084c-.194.221-.473.081-.723.028-.026-.08.057-.08.113-.11zm13.672.172c.743.002 1.505.057 1.609.16.22.221-3.009.391-3.104 0 .027-.11.751-.161 1.495-.16m-11.061.426q.118-.007.244.014c.252.247.03.72-.221.86-.639-.058-1.387.11-2.107 0 .14-.14.388-.112.554-.196.51-.24.976-.653 1.53-.678m2.636.06a5.2 5.2 0 0 1 1.686.313c.167.082.167.443-.086.418.058.025-2.563-.057-2.604-.03-.057-.22-.013-.608.541-.677q.21-.026.463-.023m5.088.092c.458-.001.92.007 1.34.028-.056.139-.082.432-.082.5 0 0-4.05-.043-3.994 0-.056-.14-.056-.335.027-.444 0 0 1.334-.08 2.71-.084m3.246.073c.67.003 1.437.039 2.033.011.14 0 .168.167.114.276-.278.279-2.691.194-3.551.138-.03-.082-.112-.166-.03-.248.196-.153.765-.181 1.434-.177m-16.955.289c.104-.024.224.04.264.164-.25.777.168 1.473.334 2.193-.471-.667-.971-1.497-.693-2.302a.2.2 0 0 1 .095-.055m-19.693.135q-.183-.001-.37.029c-1.055.168-2.08 1.223-2.356 2.277-.166.97.36 1.803.998 2.494.555.555 1.471.637 2.191.416.22-.11.33-.302.33-.554-.332-.941-1.081.138-1.691-.194-.277.025-.526-.277-.664-.53-.167-.356-.058-.719.138-1.02.637-.75 1.442-1.554 2.414-1.749.415.111.721.524.803.94.056.586-.47.943-.582 1.445.166.221.305.638.666.526l1.219-1.194c.028-.139.14-.275.057-.441-.11-.336-.472-.113-.666-.307-.054-.332-.22-.666-.414-.943-.438-.705-1.216-1.195-2.073-1.196zm22.104.084c.166-.032.38.072.547.113-.222.057-.554.081-.693-.03a.25.25 0 0 1 .146-.083m17.547.279c1.585 0 3.151.027 4.774.056l.082.499h-16.53c-.083.027-.335-.278-.195-.249.138.03.527-.139.75-.084.248.277.58.14.858.055 1.607-.22 3.748-.082 5.383-.164a97 97 0 0 1 4.878-.113m40.19.127q.102.516-.093 1.01c-.392.986-1.527 1.661-2.039 1.923q-.05.002-.101.01l-3.938.904c.411-1.564 1.695-2.37 2.03-2.558q.009-.005.021-.004zm-55.165.15c.25 0 .22.39.055.445-.14 0-.223-.11-.223-.251-.027-.137.084-.138.168-.194m-.693.027c.166.082.138.332-.03.418-.138.025-.193-.14-.193-.251a.24.24 0 0 1 .223-.167m1.412.032c.279.025.113.386-.053.386l-.14-.029c-.055-.139-.001-.357.193-.357m1.75 0c.139.05.082.301-.027.275h-.084c-.055-.082.027-.224.111-.275m-5.508.029c.056.015.077.12.098.164-.028.053-.028.164-.082.164-.14-.057-.168-.163-.084-.306q.041-.03.068-.022m.736.022c.082.085.111.39-.11.279-.057-.055-.028-.139-.028-.223a.2.2 0 0 1 .138-.056m-1.47.029c.082.027.14.195.027.22-.055 0-.082-.054-.082-.107-.027-.059.055-.086.055-.113m2.166.023c.052.01.094.046.08.115 0 .057-.057.14-.14.114-.056.025-.082-.03-.11-.057l.027-.14c.028-.027.09-.042.143-.032m-33.83.282c1.39 1.072 1.551 2.747 1.564 2.935l-.414 4.256a1.8 1.8 0 0 1-.892-.484c-.757-.744-.944-2.043-.989-2.627a1 1 0 0 0 .03-.104l.699-3.973zm55.837.325c.7.103.639 1.072 1.174 1.51l.61.554c-.108.277-.498.014-.72.096h-21.05c.11-.275.415-.458.636-.65.306 0 .527-.277.61-.555 0-.334.195-.75.445-.944H67.52a1.1 1.1 0 0 1 .351-.011m-23.096.04H47.8c.084.22-.79.998-.9 1.192-.86.582-1.985 1.053-2.983.887zm-1.28.155c.046.003.089.024.089.066.029.055-.055.166-.137.166-.084 0-.086-.111-.059-.195.014-.028.063-.041.108-.037m.616.037.166.054c-.137.307-.166.778-.525.918-.083-.334.166-.692.359-.972m.916.029c-.251.14-.335.44-.39.72-.083.36-.526.584-.442.971.277.057.389-.273.555-.441.166-.387.361-.775.443-1.191-.054-.033-.082-.088-.166-.06m.693.055c-.083-.03-.138.055-.22.111-.085.5-.473.805-.666 1.248 0 .111.139.14.193.111.25-.498.942-.886.693-1.47m-3.716.054c-.056.25-.277.39-.416.612.11-.222.138-.666.416-.612m25.797 0-.028.278c.11.195.223.498.471.498.112-.025.082-.137.082-.246-.139-.197-.193-.584-.525-.53m-.778.03a.93.93 0 0 0 .416.857c.082-.025.138-.137.11-.22-.194-.22-.164-.692-.526-.637m-.683.013c-.064.012-.1.09-.121.153.055.193.138.443.332.498.334-.14-.026-.441-.14-.637a.1.1 0 0 0-.071-.014m-.593.014c-.11.027-.11.167-.082.276.028.14.08.334.25.334.082.027.082-.082.138-.139-.056-.165-.137-.387-.306-.47m-19.082.055c-.166.084-.223.25-.278.418.027.082.14.109.194.139.25-.085.333-.503.084-.557m18.418.03a.26.26 0 0 0-.114.275c.056.139.112.418.334.36a.36.36 0 0 0 .112-.276c-.054-.138-.11-.389-.332-.36m-.596.081c-.168.027-.142.223-.113.332.056.084.082.28.222.25.14-.029.138-.166.166-.25-.029-.139-.111-.332-.275-.332m-18.283.022a.5.5 0 0 0-.15.035c-.222.221-.388.498-.276.805.332-.057.47-.445.555-.752-.029-.069-.077-.088-.129-.088m-3.87.172c.112.084-.054.337-.138.472-.137.14-.221.471-.47.387.055-.332.415-.582.609-.86m7.298.056c-.14.057-.222.221-.194.389 0 .082.111.166.221.139.141-.082.278-.247.223-.442-.057-.085-.14-.086-.25-.086m-6.38.389c.139.139.084.36.112.555zm-.595.193q.052-.029.123 0c-.055.195-.11.443-.332.5-.11.027-.11-.113-.084-.166.126-.084.188-.278.293-.334m-16.045.252a.4.4 0 0 0-.142.002c-.555.166 0 .636-.194.938-.693.834-1.302 1.72-2.136 2.416-.193.11-.276-.057-.444-.139-.167-.084-.36 0-.47.139-.056.166-.055.333.056.47.637.443 1.053 1.03 1.606 1.555l.195.055c.444-.193.056-.637.082-.887.277-.277.471-.804.916-.722l1.137 1.025c.11.359-.276.639-.498.914-.39.197-.667-.441-1.026-.11-.279.556.555.64.692 1.055.528.277.916.832 1.498.971.445-.25-.025-.582-.055-.887.752-.804 1.445-1.75 2.248-2.58.25-.14.416.137.639.082.693-.527-.388-.94-.721-1.22-.39-.222-.64-.692-1.111-.776-.5.248.027.61.027.916-.305.387-.608.887-1.082 1.053-.416-.332-1.026-.666-1.275-1.22.165-.444.609-.638.859-1.026.332-.25.58.308.887.056.084-.139.167-.306.084-.472l-1.026-.94c-.34-.123-.446-.605-.746-.668m57.676.2c-.458.04-.907.325-1.262.656-.915.639-1.08 1.722-.914 2.72.223.775.804 1.443 1.524 1.803.859.334 1.777.168 2.498-.414q.874-.794.996-1.914c-.163-.556-.385-1.194-.967-1.5-1.054-.389-1.971.361-2.69 1.166l-.14.025a1.2 1.2 0 0 1-.248-.609c-.056-.887.972-.5 1.414-.691.276-.168.61-.473.555-.834-.084-.137-.139-.306-.307-.358a1.2 1.2 0 0 0-.459-.05m-36.486.712c.276 0 .112.363.278.473.027.138-.14.139-.194.139-.11 0-.25-.08-.22-.196 0-.166-.03-.359.136-.416m.666 0c.194 0 .223.363.47.223.112-.195.308-.11.5-.11l.472-.042h20.664c.167.11.11.47-.11.5H48.331c.082-.195-.056-.458.139-.57zm-1.367.07c.049 0 .104.014.146.014.084.111.111.445-.11.473-.167-.057-.223-.277-.14-.416.014-.056.055-.07.104-.07m-6.898.014c.22 0 .193.445-.028.414-.113-.025-.14-.19-.14-.275.026-.082.084-.166.168-.139m-.625.098a.17.17 0 0 1 .068.07l-.025.164-.141-.027.027-.193c.015-.028.043-.028.07-.014m1.234.014c.111 0 .222.054.25.138.027.111-.057.195-.139.223-.11 0-.166-.057-.193-.14.027-.083-.029-.166.082-.221m-1.818.004c.031.01.059.038.072.08.026.084-.027.193-.111.193-.166 0-.111-.193-.055-.25a.09.09 0 0 1 .094-.023m61.133.416c.015.06.03.124.03.18 0 .286-.066.555-.195.816-.477.943-1.656 1.518-2.199 1.738a1 1 0 0 0-.105.002l-4.022.55c.55-1.521 1.92-2.215 2.275-2.37.017-.001 4.215-.917 4.215-.917zm-85.568.218c1.49.943 1.805 2.628 1.834 2.813l-.034 4.238c-.35-.043-.666-.152-.94-.379-.824-.68-1.12-1.973-1.214-2.539q.011-.038.016-.08zm69.885 1.032a.27.27 0 0 1 .168.025c.276 0 .497.166.691.387.167.276.472.773.084 1.025-.498.193-.972-.223-1.389-.527-.166-.193.028-.417.084-.612.104-.102.21-.27.362-.298m-4.74.941c-.33.031-.657.135-.948.273-.722.5-1.803 1.305-1.553 2.385.14.25.277.582.612.664.332.03.387.39.332.696.11.47.247.998.693 1.332.832.44 1.72.331 2.496-.112.943-.527 1.692-1.61 1.414-2.775-.19-.665-.804-1.079-1.441-1.137a2.3 2.3 0 0 0-.639-1.166 1.77 1.77 0 0 0-.967-.16m-.56.937c.336-.025.638.28.78.53.08.389-.223.86-.639.943-.25.025-.5.082-.638-.113a.89.89 0 0 1-.223-.86c.166-.248.415-.469.72-.5m-61.724.624c1.439.74 1.95 2.183 2.06 2.554-.002.018.35 4.32.35 4.32a1.8 1.8 0 0 1-.969-.316c-.87-.598-1.28-1.842-1.424-2.4a.5.5 0 0 0 .014-.106zm79.876.135.002.015a1.8 1.8 0 0 1-.28.961c-.552.893-1.76 1.355-2.326 1.531a.4.4 0 0 0-.13-.011l-4.053.197c.739-1.602 2.363-2.125 2.543-2.178zm-64 .046c-1.14.637-2.44 1.11-3.522 1.944-.39.137-.78.557-1.193.275a.32.32 0 0 0-.334.332c.193.418.748.64 1.111.946.193.166.471.36.664.166.248-.277-.193-.475-.056-.725.168-.166.363-.275.584-.22.416.415 1.58.638 1.277 1.386-.084.275-.391.111-.53.36-.024.112-.025.251.057.333.721.443 1.413.889 2.22 1.139.804-.332-.278-.664-.167-1.191.249-1.415.22-2.857.469-4.215-.054-.28-.303-.473-.58-.53m47.439.88q.1.014.183.095c.25.139.5.443.5.75.028.303-.11.578-.332.826-.276.195-.664.225-.97.14a1.03 1.03 0 0 1-.557-.857c-.028-.416.278-.609.557-.775.186-.083.42-.213.619-.18m-5.324.165c-.23-.01-.434.198-.621.344 0 .775-.25 1.55-.667 2.135-.056.22.112.334.28.443.414.166.442-.5.803-.5.417.557.723 1.167 1.025 1.774 0 .195-.221.28-.332.39-.166.111-.14.334-.082.498.11.141.192.39.441.362.778-.445 1.638-.665 2.33-1.274.167-.223.028-.472-.138-.638-.25-.444-.691.166-.887-.305-.72-1-1.192-2.162-1.914-3.135a.42.42 0 0 0-.238-.094m-43.365.676.11.057c-.11.302.056.802-.306.943-.22-.086-.525-.22-.636-.416.166-.307.583-.39.832-.584m4.263.067c-.115.005-.232.064-.35.21-.306.443.442.444.442.833l-1.275 2.744c-.111.473-.555.14-.832.279-.082.11-.221.223-.166.389.5.607 1.33.72 1.968 1.136.138.055.418.193.5-.029.11-.275.056-.553-.25-.719-.11-.36.168-.723.39-1 .333-.082.692.14.915.387 0 .889.111 2.027.916 2.498.387.139.859.082 1.219-.111.359-.333 1.359-.858.582-1.358-.248-.332-.582.057-.83.139-.335.084-.695-.082-.916-.389-.056-.139-.168-.36 0-.47.388-.141.802-.167 1.135-.444.335-.252.445-.693.502-1.082.138-1.609-1.86-1.86-2.887-2.496-.374-.063-.716-.533-1.063-.518zm-15.723 1.287c1.633.66 2.234 2.247 2.297 2.423l.727 4.196a1.8 1.8 0 0 1-.992-.213c-.923-.514-1.45-1.705-1.653-2.26a.6.6 0 0 0 .004-.115zm17.428.35q.094-.003.22.042c.274.168.692.392.663.778 0 .334-.168.693-.416.916-.47.305-.888-.11-1.305-.25-.165-.193.059-.36.112-.528.292-.267.286-.956.726-.959m56.072.148a1.77 1.77 0 0 1-.345.94c-.635.847-1.898 1.202-2.475 1.327a1 1 0 0 0-.107-.015l-4.05-.168c.887-1.53 2.538-1.915 2.723-1.952zm-51.977.74a.6.6 0 0 0-.3.154c-.138.53-.416 1.056-.442 1.612.082.109.193.273.36.273.306-.084.36-.5.554-.723.25-.246.584-.358.944-.388.168-.025.25.113.277.25-.333 1.027-.556 2.109-.889 3.162-.138.445-.61.027-.888.332-.056.168-.14.473.082.584.806.139 1.582.526 2.441.638.166 0 .39 0 .445-.166.305-.639-.556-.529-.695-.859l.832-3.055c.111-.248.416-.22.639-.164.609.277.388.998.638 1.47.111.056.333.14.471 0 .253-.47.168-1.163.307-1.606-.166-.584-.97-.471-1.414-.666-.858 0-1.58-.525-2.413-.637-.312-.062-.64-.265-.949-.211m25.314.28c-.675.05-1.33.269-1.955.456-.416.277-1.414-.028-1.248.778.082.47.582-.031.776.275a23.6 23.6 0 0 1 .943 3.244.35.35 0 0 1-.248.193c-.278-.027-.361.305-.28.555.057.248.362.307.585.248.942-.303 1.915-.555 2.83-.912.803-.61 1.303-1.5 1.218-2.496-.223-.969-.831-2.134-1.939-2.328a3.5 3.5 0 0 0-.682-.014m-.43.929c.306 0 .665-.027.887.25.612.804 1.083 2.135.278 2.967-.248.113-.471.306-.72.222a52 52 0 0 1-.915-3.162c-.082-.334.332-.25.47-.277m-3.716.002c-.997.055-1.967.389-2.912.416-.526.109-1.275.082-1.748.416-.275.887.75.195.916.723l.418 3.134c.054.387-.362.36-.555.555-.112.084-.084.333 0 .442.304.307.663-.082 1.023.027 1.027-.221 1.943-.304 2.915-.442.416-.055.887-.112 1.275-.308.11-.664-.058-1.385-.25-1.996-.168-.058-.276-.084-.443-.002-.36.14-.28.581-.39.888-.138.582-.833.555-1.275.721-.25.055-.581.248-.804 0 0-.389-.193-.721-.139-1.11.665-.638.916.836 1.608.307.194-.775-.36-1.358-.665-1.968l-.222-.086c-.608 0-.114.588-.444.836-.166 0-.332.167-.416-.03-.082-.443-.222-1.025-.054-1.385.358-.139.664-.139 1.052-.166.75 0 .917 1.468 1.694.692.11-.361-.085-.693-.195-1-.194-.193-.028-.61-.39-.664zm-15.84.22-.192.11c-.334.582.527.39.637.807-.221.97-.333 1.995-.471 2.966.056.637-.637.165-.832.526-.027.193-.027.445.166.5 1.082.22 2.47.36 3.607.584.332.025.803.22 1.082-.11.111-.527.139-1.11.278-1.61l-.141-.165c-.135-.113-.415-.114-.553.023-.14.39-.415.805-.804 1a2.1 2.1 0 0 1-1.248-.029c-.39-.275-.084-.775-.084-1.162 0-.25.25-.363.472-.28.333.142.167.53.444.725.166.055.359.054.443-.14-.03-.527.027-1.055.082-1.582l-.138-.166c-.305-.14-.417.168-.639.336-.167.053-.304-.002-.386-.17l.191-1.108c.389-.195.89 0 1.223.196.193.277.25.58.22.939.084.279.252.582.612.555.36-.14.192-.635.22-.912-.027-.416.168-.891-.027-1.248-.637-.31-1.497-.197-2.19-.332-.638-.168-1.333-.057-1.97-.252zm-23.415.284c1.684.514 2.428 2.045 2.506 2.217l1.09 4.117a1.74 1.74 0 0 1-.99-.129c-.969-.428-1.6-1.592-1.845-2.12a.4.4 0 0 0-.01-.097zm28.799.354c-.14.055-.36.083-.305.304-.057.307.332.308.526.444.084 1.055.085 2.247.029 3.298-.084.141-.194.28-.332.254-.28 0-.362.332-.28.555.141.387.584.22.917.275.557-.14 1.609.392 1.748-.47 0-.307-.361-.36-.555-.5l-.057-.61c.195-.416.832-.167 1.192-.222.389.553.695 1.275 1.359 1.611.36.135.723.191 1.053 0 .64-.309 1-1.059 1.084-1.75 0-.305-.36-.305-.553-.361-.416.11-.306.75-.777.777a.89.89 0 0 1-.86-.223c-.11-.139-.222-.248-.111-.414.582-.445 1.138-.971 1.025-1.775a1.68 1.68 0 0 0-1.36-1.193c-1.301-.055-2.466.055-3.743 0m33.514.263 4.256.248c-.06.341-.202.643-.438.907-.702.775-1.968 1.02-2.56 1.093a1 1 0 0 0-.13-.039l-4.017-.52c1.021-1.444 2.703-1.67 2.889-1.689m-31.381.38c.346-.046.73.132 1.084.214.307.363.251 1.029-.055 1.389-.36.277-.83.334-1.305.25l-.109-.14.055-1.581a.7.7 0 0 1 .33-.133M27.71 97.807c1.728.359 2.609 1.822 2.703 1.988l1.457 4.012c-.338.077-.67.064-1.006-.047-1-.342-1.732-1.43-2.031-1.94a.5.5 0 0 0-.018-.119l-1.105-3.896zm54.883.586 4.213.627c-.095.339-.26.627-.52.865-.773.717-2.072.842-2.656.86a.5.5 0 0 0-.113-.042l-3.944-.89c1.142-1.336 2.833-1.416 3.02-1.42m-50.963 1.726c1.737.205 2.746 1.566 2.855 1.725l1.817 3.846a1.8 1.8 0 0 1-1.012.05c-1.034-.252-1.86-1.277-2.195-1.75l-.024-.086zm46.914.528q.017.01.033.011l4.191 1.002a1.77 1.77 0 0 1-.593.82c-.831.646-2.14.65-2.729.616a.4.4 0 0 0-.1-.045l-3.872-1.25c1.137-1.123 2.646-1.168 3.07-1.154m-42.822 1.396c1.629.035 2.718 1.14 2.974 1.426l.004.017 2.188 3.704c-.325.14-.656.205-1.006.152-1.038-.16-1.938-1.09-2.322-1.543a.5.5 0 0 0-.04-.115zm38.283.477c.214.004.372.022.451.033l4.059 1.377c-.15.316-.366.572-.664.76-.893.566-2.192.449-2.77.36a.4.4 0 0 0-.092-.048l-3.744-1.582c.972-.8 2.116-.912 2.76-.9m-34.012 1.093c1.754-.107 2.979 1.048 3.12 1.19l2.472 3.475a1.8 1.8 0 0 1-.995.224c-1.054-.068-2.037-.922-2.45-1.33a.4.4 0 0 0-.044-.086zm29.006.358a4.3 4.3 0 0 1 1.176.107l3.906 1.723c-.18.302-.421.537-.738.701-.936.48-2.222.256-2.797.117a.4.4 0 0 0-.094-.068l-3.578-1.902c.728-.5 1.506-.654 2.125-.678m-24.061.762c1.296 0 2.28.669 2.576.896l.033.05 2.809 3.274c-.287.191-.6.295-.951.307-1.053.029-2.113-.729-2.567-1.098a.5.5 0 0 0-.06-.111l-2.412-3.276q.294-.044.572-.043zm19.668.27c.617.03 1.061.177 1.146.208l3.729 2.063c-.203.288-.462.5-.791.636-.963.393-2.216.062-2.783-.129a.5.5 0 0 0-.086-.076l-3.397-2.217a4.05 4.05 0 0 1 2.182-.486m-14.623.472a4.5 4.5 0 0 1 2.098.683l.005.006 3.088 3.006c-.275.22-.583.358-.94.4-1.036.122-2.145-.519-2.636-.851a.6.6 0 0 0-.068-.103l-2.676-3.041c.397-.097.776-.12 1.129-.1m9.514.11c.818 0 1.466.234 1.69.324.012.014 3.595 2.426 3.595 2.426a1.8 1.8 0 0 1-.844.554c-1.01.31-2.236-.142-2.773-.378a.5.5 0 0 0-.086-.086l-3.182-2.506a3.9 3.9 0 0 1 1.6-.334m-4.938.158c1.13-.013 2 .452 2.137.531l3.299 2.69a1.8 1.8 0 0 1-.899.482c-1.015.217-2.177-.328-2.7-.615a1 1 0 0 0-.08-.106l-2.954-2.779a3.8 3.8 0 0 1 1.197-.203"/></g></svg>