<svg xmlns="http://www.w3.org/2000/svg" width="248" height="248" viewBox="0 0 250 250"><g transform="translate(-5.518 -5.518)scale(1.3778)"><use width="248" height="248" fill="#fff" fill-rule="evenodd" transform="translate(5 5)"/><path fill="#00274c" d="M95 5C45.286 5 5 45.286 5 95s40.286 90 90 90 90-40.286 90-90S144.714 5 95 5m0 1.25c49.036 0 88.75 39.75 88.75 88.75 0 49.036-39.714 88.75-88.75 88.75S6.25 144.036 6.25 95 45.964 6.25 95 6.25m0 4.93C48.714 11.179 11.18 48.714 11.18 95S48.714 178.82 95 178.82s83.82-37.534 83.82-83.82S141.286 11.18 95 11.18m0 20.25c35.107 0 63.57 28.463 63.57 63.57S130.107 158.57 95 158.57 31.43 130.107 31.43 95 59.893 31.43 95 31.43m-.66 1.844q-.13.007-.268.046c-1.32.393-2.142 3.322-2.535 4.5a30 30 0 0 0-.75 2.537c-.107.43-.178.857-.285 1.286-.893.107-1.787.287-2.68.465l-.642-.965c-.536-.857-1.072-1.715-1.643-2.573a23 23 0 0 0-1.5-2.14c-.393-.5-1.036-1.61-1.75-1.645-.786-.036-.894.678-.93 1.25-.07.964-.391 1.857-.605 2.785-.393 1.68-.286 3.36 0 5.038.07.357-.18.607-.5.822A22 22 0 0 0 78 45.858c-.393-.357-.714-.787-1-1.215-1-1.393-1.75-2.713-2.965-3.928-.75-.75-2.641-3.071-3.82-2.107-1.035.857-.359 2.82-.323 3.963.036 1.786.072 3.43.715 5.144q.43 1.126 1.073 2.143c.357.536-.002.57-.395.963-.25.286-.534.572-.82.822-.893.82-3.394-1.465-4.108-2.108-1.143-1.036-2.179-2.178-3.287-3.214-.857-.785-2.927-1.999-4.177-1.391-.822.428-.073 1.678.177 2.25.68 1.678.751 3.57 1.537 5.213.357.714.679 1.464 1.143 2.143.179.285 1.144 1.178 1.18 1.535h-3.395c-.679-.107-1.321-.285-1.892-.57-2.786-1.287-5.144-3.357-8.358-1.82-.679.32-.893.606-.5 1.284q.644 1.019 1.395 1.928c1.142 1.321 2.213 2.428 3.427 3.643l.108.107c1.143 1.321 2.928 3.607 4.035 6.428-.786.072-2.43-.534-2.857-.713-3.143-1.071-6.142-2.679-9.463-3.108-.75-.107-3.502-.606-3.395.68.107 1.25 1.107 2.32 2 3.07 1.857 1.607 4.252 1.786 6.145 3.25 2.035 1.607 4.034 3.036 6.427 4.07.607.25 1.858.537 2.108 1.216v.357c-.25.286-1.393.714-2.535.857-1.822.214-3.86-.285-5.61-.82-3.32-1.072-6.998-2.93-10.605-2.394-.535.07-3.07.429-3 1.322.036.714 1.035 1.285 1.535 1.642 1.536 1.036 3.179 1.857 4.786 2.75 3.107 1.75 6.464 3.607 9.964 4.286 1.036.178 5.429.321 5.393 1.714 0 .5-1.036.714-1.572.82-.392.109-.785.144-1.178.18-4.786.43-9.678-.18-14.463-.464-2.25-.143-5.893-.82-7.465 1.18-1.07 1.356 1.465 1.891 2.393 2.177 1.072.321 3.999.465 3.963 1.822-.035.857-.107 1.642.072 2.57-4.464.25-3.821 3.036-3.785 4.465 1.429 30.964 26.964 55.607 58.25 55.607 31.536 0 57.214-25 58.322-56.287.107.215-.18-2.142-2.322-2.285-.428-.036-.25-.105-.678-.105-.68 0-.608-.502-.608-1.11 0-.82 0-1.142.465-1.785a15 15 0 0 0 2.285-1.142c1.072-.68 3.465-2 3.75-3.393.072-.286-.142-.43-.357-.5 0 0-.035-.035-.178-.035-1.75.143-3.5-.358-5.25-.322-.786.036-1.607.25-2.322.322-.143-.178-.143-.108-.393-.358-.535-.036-11.642.43-11 .573-1.035.142-1.428.605-2.392.39-.536-.107-2.642-.427-2.928-.963V86c.25-.286 1.07-.215 1.928-.465 1.642-.536 3.214-1.214 4.785-1.928 2.822-1.25 5.679-1.608 8.643-2.322 1.464-.357 2.786-.822 3.964-1.75.572-.465 1.072-.928 1.643-1.393.5-.393 1.393-.678 1.465-1.392.07-.75-.537-.786-1.073-.75-.786.036-1.642-.072-2.427-.18-1.858-.25-3.716-.14-5.573.145-1.678.25-3.32.642-4.962.892-1.857.322-3.643.286-5.5.393-.5.036-2.573.18-2.93-.393v-.25c.357-.428 2.143-.714 2.465-.857 1.678-.643 3-1.857 4.214-3.143.964-1.036 1.787-2.179 3.108-2.715 1.464-.607 2.928-1.249 4.32-2.035a12.3 12.3 0 0 0 1.893-1.392c.429-.357 1.25-.859 1.392-1.43.536-1.822-6.428-.856-7.25-.678-2.5.607-6.285 2-8.892 2 1.179-2.643 2.893-4.785 3.93-5.892.856-.893 1.928-1.859 2.607-2.573.82-.893 2.213-1.429 2.285-2.75.143-2.893-3.929-1.643-5.393-1-1.25.571-2.465 1.286-3.787 1.678-.678.215-1.392.286-2.07.322h-2.75c1.714-2.143 1.392-5.036 2.32-7.5a5.6 5.6 0 0 1 .93-1.607c.25-.322 1.179-.822 1.215-1.25.07-.822-3.072.25-3.322.357-2.822 1.214-4.787 3.645-7.073 5.573-.286.25-.57.463-.855.677q-.215.161-.322.108a38 38 0 0 0-1.678-1.715c-.036-.179.141-.286.355-.643.857-1.464 1.214-3.179 1.5-4.822.286-1.535.5-3.105 1-4.605.786-2.285-1.463-1-2.463-.25-1.393 1-2.713 2.105-3.892 3.355a30 30 0 0 0-1.75 1.93c-.25.286-.322.606-.572.57-.18-.107-.394-.213-.573-.32-.286-.214-.534-.43-.855-.608-.607-.393-.287-1.607-.287-2.322 0-.857 0-1.714-.07-2.535-.144-1.75-.573-3.57-1.5-5.07-1.394-2.214-5.68 4.929-6.25 6-.287.572-.144.785-.858.642a18 18 0 0 0-1.357-.25c-.858-.143-1.715-.035-2.143-.892-.322-.643-.429-1.357-.643-2-.286-.928-.786-1.823-1.214-2.68-.47-.905-1.283-3.094-2.59-3.012zm.24 1.326c.69-.088 1.18 1.373 1.527 2.15.75 1.5 1.537 3.179 1.823 4.893h-.145c-.322-.036-.643-.037-.965-.073-.57-.035-1.14-.07-1.713-.07-.643 0-1.25.035-1.892.07-.285 0-.536.037-.822.073-.18 0-.357.037-.536.037.072-2.25 1.071-4.538 1.963-6.395.277-.455.53-.656.76-.685m13.635 2.115c.715-.035.642.891.928 1.355.5 2.215 1.036 4.467.75 6.86l-.213-.11a43 43 0 0 0-2.572-1.105l-.323-.108a33 33 0 0 0-2.642-.857c-.036 0-.107-.035-.143-.035 1.071-2.035 2.394-4.285 4.215-6m-25.414.242a.14.14 0 0 1 .092.043 62 62 0 0 1 3.892 5.5c-.786.214-1.57.43-2.355.68-.072.035-.143.034-.215.07-.643.214-1.322.465-1.965.715-.07.036-.107.034-.18.07-1.07-2.179-.034-4.714.43-6.892.08-.108.2-.194.301-.186m-11.752 2.95c.112.013.237.093.344.2 2.5 1.357 4.285 4.25 5.642 6.536-.036.036-.07.072-.105.072a48 48 0 0 0-1.715 1.143 8 8 0 0 1-.572.427c-.393.321-.821.609-1.213.93-.108.072-.215.143-.322.25-1-.857-1.502-2.428-1.823-3.75.035-1.964-.286-3.75-.5-5.607.054-.161.152-.215.264-.202m48.56 1.558c.106 0 .285-.001.321.178-.108 2.536-.643 5.427-1.322 7.177a5 5 0 0 1-.822 1.36c-.572-.5-1.143-.965-1.75-1.465a5 5 0 0 0-.535-.395 18 18 0 0 0-1.32-.927c-.109-.072-.18-.142-.288-.178.036-.285.358-.572.465-.822 1.572-1.893 3.25-3.535 5.25-4.928M95.07 43.143c10.68 0 20.143 5.143 26.072 13.107h-1.963C113.5 49.214 104.82 44.715 95.07 44.715S76.643 49.214 70.964 56.25h-1.928c5.893-7.93 15.357-13.107 26.035-13.107zm0 3.107c8.786 0 16.68 3.857 22.072 10H73c5.393-6.143 13.285-10 22.07-10m-34.494.223c.156.009.334.08.424.134 2.964.964 3.964 4.25 6.75 5.5.57.18 1.25.572 1.75.893-.893 1-1.75 2.072-2.5 3.215h-1.5c-2.43-.821-3.571-3.357-4-5.75-.357-1.714-.608-2.571-1.215-3.75 0-.197.135-.251.291-.242m68.316.847.072.215c-.893 2.214-1.214 4.609-1.857 6.93-.357.715-.322 1.285-1.037 1.785h-2.928c-.536-.786-1.143-1.535-1.75-2.285-.072-.107-.142-.178-.213-.285 2.428-2.143 4.856-4.93 7.713-6.36m10.395 7.073c.321.107.928 0 .893.537-.215.428-.357.748-.678 1.105l-3 2.785-2.18-2.07c1.322-1.07 3.25-2.036 4.965-2.357m-87.652.195c1.443.069 3.5 1.286 4.33 1.982l-2.144 2.073c-1.107-.893-3.249-2.606-3.356-3.678.277-.295.69-.4 1.17-.377m8.508 3.02h4.178v1.857h-4.178zm65.678 0h4.18v1.857h-4.18zm-68.928.035h.857V59.5h-.142l-.287.25c.25.286.536.642.822 1.07l-1.535 1.073c-.678-1-1.215-1.5-1.215-1.5l-.785-.678zm9.822 0h4.178V59.5h-4.178zm6.57 0h4.18V59.5h-4.18zm6.573 0h4.177V59.5H79.86zm6.572 0h4.178V59.5H86.43zm6.57 0h4.18V59.5H93zm6.536 0h4.18V59.5h-4.18zm6.572 0h4.178V59.5h-4.178zm6.572 0h4.178V59.5h-4.178zm6.572 0h4.178V59.5h-4.178zm12.818 0h.965l2.5 2.142-.75.715s-.573.535-1.287 1.535l-1.535-1.105a7 7 0 0 1 .822-1.037l-.465-.393h-.25zM59.466 62.93a21.5 21.5 0 0 1 1.57 4.177l-1.82.463c-.357-1.357-.822-2.642-1.43-3.785zm71.178.177 1.643.893a19.2 19.2 0 0 0-1.537 3.75l-1.785-.535a18.7 18.7 0 0 1 1.68-4.108M44.53 64.715c.322 0 .67.052.938.07 1.75.214 5.929 1.394 6.25 1.572 1.75.607 5.571 2.25 6.785 2.786.214.928.358 1.893.358 2.857v1.893c-1.143-.072-1.788-.463-2.038-.463-3.214-1.43-5.5-4.359-8.785-5.323-1.715-.57-3.178-1.713-4.285-3.142.16-.197.456-.25.777-.25M145.18 65c.535.071 1.035.072 1.5.215l-.107.355c-2.285 1.858-5 2.93-7.535 4.25-1.5 1.322-2.68 2.823-4.18 4.18-.857.464-2.535 1.214-3.57 1.357v-3.322c0-1.5.321-2.929.785-4.25.786-.179 2.072.036 2.465-.178 1.857-.286 3.428-1.287 5.357-1.537v-.105A33 33 0 0 1 145.18 65m-83.645 4.57c.214 1.286.286 2.68.286 4.073v.322h-1.856v-.322a26 26 0 0 0-.285-3.786zm66.86.11 1.857.32a18 18 0 0 0-.322 3.43v.64h-1.858v-.64c0-1.25.108-2.536.322-3.75m-55.288 2.213c.607.214.715.822 1.073 1.287.214.678.283 1.285.14 2.035.608-.178 1.037.214 1.323.678.25.32 0 .715 0 1.072-.143.286-.5.286-.713.5.107.5.784.679.57 1.25l-.215.142-4.465-.037c-.392-.285 0-.89.215-1.213 1.107-.143.107-1.571 1.036-1.964.322-.143.466-.392.859-.463-.25-1.072-.215-2.251.178-3.287zm21.422.89c.27-.015.535.183.758.752.535.535-.536 1.143.285 1.5-.357.25-.213.858-.57 1.072l-1.894-.037c-.393-.464-.107-1.14-.036-1.713.247-.466.864-1.54 1.457-1.574m-53.207 2.195c1.008-.03 1.946.031 2.963.272 4.25 1.036 8.429 3.5 13.107 2.857l1.428-.287v5.11c-7.5-.108-12.535-3.25-17.428-5.823a13 13 0 0 1-2.393-1.537c.18-.464.786-.535 1.286-.535a23 23 0 0 1 1.037-.057m18.607 1.415h1.856v4.287l-1.856-.037zm68.143.142h1.858l.035 4.25h-1.857zm-36.037.072c1.214.322 2.572 0 3.786.25-1.107.607-2.891.642-3.963-.037zm57.63.127c.615.013 1.22.07 1.8.196.036.714-.856 1.177-1.392 1.57-2.321 1.786-5.286 2.107-8.143 2.607-2.143.75-4.465 1.073-6.322 2.358-1.143.286-2.143.893-3.393.965l-.892.035v-6.073c.679-.036 2.107.109 2.785.038 3.25-.036 6.893-.467 10.107-1.36 1.661-.026 3.603-.374 5.449-.336zm-33.333.606c.963-.028 1.526 1.094 2.526.875h.857c0 1.036-.965 1.785-1.572 2.535.678 2.071.393 4.537 0 6.715-.322.036-.464-.357-.572-.535-.428-.965-.64-2.323-.106-3.323 0-.178.035-.393-.18-.5-.928.25-1.57 1.142-2.677.963.107.215-.215.074-.358.145l.07-.072c-.106-.143-.319.036-.39-.143.464-.714 1.5-1.32 2.07-2.035.321-.535 1.072-1.216.608-1.823-1.25.036-2.714.038-3.678-.677.535-1.214 1.677-1.964 2.963-2.035.156-.059.302-.086.44-.09zm-23.582.59c.75.035 1.572-.072 2.18.285.285.072.856-.252.713.355h.072c.18.286-.285.36-.5.395-.785.072-1.643.105-2.357-.145-.357-.214-.393-.64-.107-.89m-20.277 1.504c1.099.03 2.188.12 3.313.173.25.286 1.536.106 1.215.963-.893.286-2.071.109-3 .18-1.607-.357-3.57.25-5.07-.535-.287-.214.034-.465.177-.608 1.161-.178 2.267-.205 3.365-.173m23.984.5c.804-.04 1.58.048 2.33.709l3.858 4.072c.464.215.857.643 1.178.965-1.178.464-2.75.283-4.108.39-4.32-.142-9.142.25-13.57-.285l-.18-.178c1.68-1.57 3.215-3.427 4.965-5.142.821-.571 1.786-.5 2.786-.5v.142c-.5.072-.964.073-1.428.108-2.393 1.107-3.572 3.429-5.322 5.25.107.215.394.072.537 0 .929.036 2.463.748 2.963-.395 1.072-1.5 1.607-3.714 3.5-4.5.179-.214-.071-.427 0-.57.857.143 1.688-.026 2.492-.066zm-.251.238c-.23.004-.456.069-.67.22 1.607 1.359 2.534 3.144 3.464 4.928 1.071.143 2.108.036 3.215-.142l.178-.108c-.036-.5-.607-.393-.893-.715-1.107-1.036-1.999-2.57-3.285-3.32-.589-.349-1.32-.877-2.01-.863zm-1.415.162c-.183.005-.385.086-.613.273-1.5 1.18-2.714 2.893-3.142 4.75.82.214 1.82.144 2.57.073.357-.215-.036-.643.107-1 .036-1.036.358-1.894.573-2.823.178-.178-.036-.677.357-.677.536 1.464-.107 2.892 0 4.357l3.285.035c.214-.035.251-.25.215-.465-.429-.893-1.179-1.641-1.5-2.605-.61-.523-1.055-1.941-1.852-1.918m2.817 1.094c1.322.642 1.963 2.107 3.035 3.035-.143.5-.678.25-1.035.215-.928-.893-1.072-2.215-2.072-3.108zm-25.773.062c.405.024.8.117 1.096.01.785.071 1.82-.25 2.212.5.107.43.538.821.288 1.25-.786-.214-1.502-.429-2.288-.643-.036.75.214 1.785-.25 2.428-.786-.75-1.036-1.891-1.572-2.82-.035-.25-.248-.608.11-.715.133-.018.269-.018.404-.01m19.523.117c-.214 1.143-1.286 2.036-1.678 3.143-.215.214-.536.07-.75.143-.25-.143-.036-.394.035-.573.75-.964 1.429-2.07 2.393-2.713m4.248.788h.215c.393.643.928 1.32.892 2.07-.393.215-.75.143-1.107 0-.143-.678-.071-1.356 0-2.07m-2.213.107c-.036.714-.108 1.75-.68 2.25l-.392-.037a3.52 3.52 0 0 1 1.072-2.213m-33.463.605h1.855v4.25H59.93zm68.178.108h1.857l.037 4.25h-1.857zm-53.715.965c.607.178 1.322.07 1.822.463.18.607.356 1.285.285 1.892-.75.035-1.499-.393-2.32-.5-.286-.643-.037-1.284.213-1.855m37.822.64c.572.143 1.177.359 1.605.68-.107.25-.142.642-.535.535-.107.035-.248-.036-.355.035.107.322.785.36.535.86-.393.32-.93.284-1.43.463.571.214 1.109.036 1.573.357 0 .393-.465.393-.715.607h-.393l.07.143-2.89.035c-.143-.286-.61-.106-.895-.178l-.07.073c.965 1.178 2.678.75 4.106 1l-.286.285a41 41 0 0 1-6.605.535c1.107.786 2.75.537 4 .715-.215.5-.787-.035-1.18.215-1.643.285-3.535.284-5.142.32.107.429.571.394.892.465.786.143 1.572.214 2.358.392l-.178.178c-1.75.178-3.467-.142-5.145.215.393.357.93.464 1.395.643l-.145.142a36 36 0 0 1-4.355.18l-.11.142c.393.43.93.143 1.43.286l2.68.287c.035.214-.43.214-.68.285l-3.18.178c-.214.32-.462.108-.712.287.179.285.605.214.927.285l-.285.285c-1.25-.179-2.465.321-3.68 0 .393-.107.786-.285 1.25-.285l.145-.18c-.643-.286-1.429-.142-2.215-.142-1.536.5-3.036-.214-4.5.214.68.393 1.5-.037 2.215.178.75.214 1.82.037 2.57.18-.5.322-1.107.072-1.75.215-1.643.035-3.641-.038-5.32-.395.357-.465.964.285 1.393-.215.072 0 .212.036.212-.035L88.5 95c-2.214-.357-4.928.464-6.535-1.25.786.036 1.571-.107 2.392.143.072.286-.358.106-.322.392.928.214 2.145.644 3.073.072-.428-.393-1.18-.214-1.788-.357-.107-.107-.283-.035-.39-.035l.213-.358c-.25-.143-.787-.178-1.108-.107-1.465-.286-2.963.714-4.07-.643-1.857-1.464-4.215-3.286-5.465-5.357.036-.179.25-.144.358-.215.679.321 1.822.18 2.072 1.145.214.32.678.07.928.213-.214.25-.607.392-1 .392.143.464.964.215 1 .858.179.286.572-.071.572.287-.18.142-.43-.001-.537.213a.73.73 0 0 0 .892.214.16.16 0 0 1 .108.036c.036.214-.25.108-.358.287.107.535.858.141.858.677.5.214 1.393-.107 1.75.143-.322.036-.573.213-.858.285.928.357 2.145.214 2.895-.215-.43-.142-.966.037-1.36-.177.108-.286.502-.25.61-.573-.43-.392-1 .324-1.5.145.107-.428.783-.036.89-.572-.607-.143-1.428.035-2-.108.358-.286.786-.142 1.25-.392a1.17 1.17 0 0 0-.785-.178l.358-.465c-.214-.214-.571-.036-.785-.143.036-.07-.038-.106-.038-.142.108-.143.358-.107.5-.285.036-.18-.178-.216-.285-.287-.465.107-.998.143-1.32-.143l.535-.18-.035-.035c0 .035.357.035.393-.215-.607-.464-1.678.216-1.893-.677l.855-.036v-.177c-.32-.18-.677.107-.927 0-.286-.643-.463-1.572-.035-2.215 2.572 1 5.25 1.536 8.107 1.75l.105.142c2.25.18 4.824.107 7.11.286l.14.107c4-.036 7.716-.07 11.68-.393a2.4 2.4 0 0 1 1.108-.177c1.893.107 3.606-.965 5.463-1.465.25-.214.61-.216.894-.395m3.715.11c.535.142.107.748.142 1.14-.464.143-.892.894-1.392.43.178-.643.428-1.5 1.25-1.57m-75.645 1.855c.464.035 1.18-.034.894.645-.286.464-.501.89-.61 1.463-.391.464-1.07.178-1.534.107-1.43-.429-2.714-.643-3.856-1.357-.036-.072-.11-.106-.11-.178 1.644-.643 3.359-.645 5.216-.68m4.63.49c1.446.04 3.478.35 6.514.44-.215.5-.323.787-.394 1.287-.43 2.893 1.858 5.892 2.465 7.07 1.5 3 1.285 3.75 1.285 6.358 0 .928-.536 2.464-1.965 1.857-1.5-1.107-1.035-2.286-.785-3.465.393-1.82 1.285-3.892-.25-5.892-.893-1.143-3.106-1.108-4.428-1.143-2-.036-3.393.142-4.357.07-.893-.07-1.142 0-1.285-.927-.107-.608-.536-4.43 1.142-5.323.536-.28 1.192-.355 2.059-.332zm106.45.434c1.233.022 2.437.22 2.49.541-1.392.964-2.462 2.43-4.212 2.607l-.93-2.642c.161-.375 1.42-.528 2.653-.506m-92.546.043v3.356c-1.428.036-2.07-.071-2.463-.143-1.75.036 0-1.428-1.5-3.035.322 0 2.035-.178 3.963-.178m-5.391.25c.642.393.75 1.143.928 1.75 0 .214-.145.286-.323.393-.536 0-1.714.32-1.785-.5.071-.536.036-1.18.643-1.5.178-.036.322-.143.537-.143m91.199.174c1.228-.017 2.278.056 2.586.324 1.393 1.25 1.215 5.287.643 5.93-.536.607-2.286.32-3.036.32-1.357 0-2.749-.18-4.07.143-1.143.286-2.144 1.32-2.572 2.427-.68 1.822.034 4.037-.323 5.93-.143.75-.393 2.465-1.5 2.18-.964-.25-1-1.644-.927-2.43.214-2.143 1.213-4.106 1.927-6.07.857-2.358 2-4.466 1.823-7.037-.072-1-.678-1.322.465-1.393.401-.022 2.938-.297 4.984-.324m-13.342.074c.821.214 3.034.643 3.32.607-.286 3.68.359 4.572 2.895 4.5.036.714-4.358 2.144-6.18 2.608 0-2.571 0-5.179-.035-7.715m5.57.285c.464.143 1.037.464 1.073 1.035.035.858.428 1.965-.358 2.465-.107.143-1.678.395-1.75-.605-.214-.75-.357-1.93.358-2.573.214-.178.427-.287.677-.322m-76.93 1.285h1.856l-.035 4.25h-1.858zm68.215.11h1.856l.035 4.25h-1.855zm-74.666 1.539c1.564.055 4.745.719 5.414 1.281-.036 10.68-.072 21.463-.107 22.32-.25 2.715-.107 10.323 14.107 16.537 1.25.536 13.679 4.678 15.715 5.535s5.999 3.607 6.463 4.393c.465-.786 4.429-3.536 6.465-4.393s14.465-4.999 15.715-5.535c14.214-6.214 14.358-13.822 14.215-16.572-.035-.715-.072-8.641-.108-17.57 1.072-.643 4.178-1.785 5.178-2a6.6 6.6 0 0 1-.75 1.715c-1.215 2.714-2.536 6.39-1 8.605 1.178 1.535 3.251 1.287 4.894 1.145-5.108 19.928-23.145 34.64-44.645 34.64-21.75 0-39.963-15.034-44.82-35.284 1.357 0 2.856-.284 4.106-.82 2.536-1.393 1.894-5.645 1.037-8.18-.607-1.965-2.5-4.572-2.75-5.643.01-.143.35-.192.871-.174m28.012 1.014a.94.94 0 0 0-.56.267c.857.25 1.677.072 2.463-.035-.67.134-1.319-.296-1.903-.232m5.225.837-.107.18c1.107.214 2.142.322 3.285.108v-.073c-1.107-.143-2.106-.143-3.178-.215m10.605.61c-2.678-.072-5.284.357-7.856.285l.57.215c2.179.107 5.037.357 7.145 0 .285-.215.57.176.82-.11-.142-.25-.464-.248-.68-.39m-51.07 1.25c.929 0 1.25.25 1.25 2.25 1.036 25.357 21.893 45.605 47.5 45.605 25.179 0 45.787-19.75 47.43-44.5.035-.607.07-2.249 1.07-2.178.857.072 5.857.072 6.893.072 1 .071 1.464.713 1.428 1.391-1.107 30.393-26.106 54.537-56.82 54.537-30.964 0-56.143-24.357-56.857-55.143 0-1.178.427-1.894 1.927-1.965.93-.07 5.144-.07 6.18-.07zm3.482.34c.545-.072 1.144.213 1.233.588 1.429 3-2.108 7.072.642 8.822-.75.178-1 .178-1.677.142-.43-1.035-1.18-6.392-1.11-8-.125-1.053.368-1.48.912-1.552m10.16.98h1.858l-.035 4.25h-1.858zm68.287.108h1.858v4.25h-1.858zm12.156.326c.502-.046 1 .389.844 1.281.035 2.072-.822 6.392-1.215 7.428-.535 0-.821.25-1.607.072 2.036-3.5-.213-5.073 1.215-8.18.16-.375.462-.574.763-.601m-50.123.318c1.25.071 2.5.07 3.715.213.535-.357 1.25-.035 1.785-.035-.07.25-.82.428-.642.75.286.035.822-.071.965.215-1.893.107-3.965.142-5.715-.465-.285-.108-.429-.464-.108-.678m-47.6.54c-.205-.025-.404.04-.578.28-.322.358-.43.893-.287 1.358.214.357.537.572.93.572.428-.036.892-.037 1.107-.465a1.77 1.77 0 0 0-.18-1.285c-.29-.134-.65-.421-.992-.46m104.67.31a2 2 0 0 0-.287.004c-.464.072-.57.572-.5.964.143.608.787.5 1.18.393.428-.143.321-.678.285-1-.16-.24-.401-.341-.678-.361M92.49 99.287c.857.107 1.788 0 2.573.285l-.5.323.177.177 1.358.18c.143.107.18.213.037.32-.643 0-1.18.215-1.787.358 0 .035.072.142.18.142.534.143 1.32-.07 1.607.465-.322.214-.857 0-1.072.393.429.32 1.072.215 1.5.215-.428.393-1.215-.144-1.608.535.857.214 1.643.215 2.5.215-.607.5-1.608.427-2.465.535-1.286.07-2.641-.036-3.677-.715.643-.928 1.321-1.963.892-3.213zm51.79 2.283c-.43.536-.894 1.144-1 1.823.07.643-.108 1.5.427 1.787 2.357 1.714 2.751-1.967 4.787-2.11.25.18.57.43.678.75.142 1.143-.499 2.074-1.428 2.645l.75.215c.5-.465 1.142-1.11 1.178-1.895.25-1-.072-1.998-.893-2.605-2.143-.858-2.536 2.356-4.357 2.463-.465-.18-.5-.642-.535-1.036.107-.75.786-1.5 1.5-1.75-.25-.25-.75-.179-1.108-.287m-104.07.93c.071.571-.036 1.57.392 1.893.286-.036.106-.356.392-.463.286-.215.571.105.893.105.786.25.501 1.25.822 1.858.036.643.606 1.392.07 1.892-.321.393-.927.607-1.32.5.107.464.214 1.072.32 1.608.036.25.216.572.43.572 1.107-1.928 3.072-3.145 4.75-4.895l.07-.212c-1.856-1.107-4.106-1.466-6.142-2.323zm66.267.502c3.698.025 7.402.186 11.125.106 0 0-3.642 4.998-5.642 7.427 0 0-36.43-.036-38.645-.215-.035 0 4.786-4.927 7-7.177h6.75c-.607.643-1.713 1.144-2.106 2.072v1.07c1.322 1.857 3.536 1.643 5.393 2.25 1.179.035 2.285.395 3.535.323 3.214.179 6.357-.538 9.25-1.573.428-.465.821-.891.75-1.57.036-1.035-.607-1.858-1.322-2.465l.215-.215a106 106 0 0 1 3.697-.033m-46.625.213h1.858v4.25h-1.858zm68.357.07h1.858v4.25h-1.858zm-38.395.25c2.858 1.428 6.93 1.93 9.86.215.392.107 1.07-.287 1.177.32-.82.5-1.393.895-3.214 1.145 1.178.715 3.677-.107 3.677-.107-.214.643-2.642 1.034-3.785 1.177.607.428 1.607.216 2.25.43-.643.429-1.571.322-2.392.5-3.643.286-7.68.392-10.822-1.358.679-2.036 3.25-2.322 3.25-2.322zm-46.285 1.18c.607.036 1.18.25 1.645.5-.108.536-.75 1.07-1.215 1.355-.393-.392-.645-1.212-.43-1.855m74.645.285c.035 2.18 1 2.463 1.428 3.07-1.178 1.858-2.75 3.643-4.07 5.465-.75.714-1.357 1.965-2.5 1.858-.536-.214-.643-.823-.75-1.358.607-3.679 3.606-6.106 5.892-9.035m30.75 2.358-.36.322c-1.927 1.035-4.033 1.177-6.105 1.82.107.464.428.964.856 1.143 1.143 1.5 3.216 2.535 3.61 4.427.177-.607.855-1.356.605-1.927-.607.107-1.072-.463-1.465-.963.143-1 .43-2.002.93-2.86.5-.32 1.392-.214 1.57.465.358-.715.501-1.677.36-2.427m-101.21 2.035c-.07.286-.072.572-.215.822-1.107.679-2.428.892-3.57 1.428-.5.214-1.144.142-1.644-.073.143.75.535 1.467.785 2.11.108-.786.965-.822 1.5-1.072.322-.178.715.035.822.392 1.107 1.107-.572 1.894-.607 2.965-.357 1.322.108 2.714.68 3.678-.679-1.607-.037-3.322.927-4.536.678.214 1.428.892 2.25.463 1-.964.429-2.534.108-3.677-.43-.822-.679-1.75-1.036-2.5m97.965.357.106.32c-.143.465-.106 1.002-.428 1.36a2.85 2.85 0 0 1-1.287-1.145c.393-.429 1.073-.356 1.61-.535m-85.859.143h1.86v4.142l-.93.108-.93-.035v-.538zm68.395.072h1.858v4.285l-1.858-.07v-.145zm-80.633 1.676c.464.004.512.617.668.93-.036.572.287 1.18-.035 1.644-.357.215-.82.5-1.25.215-.643-.572-.75-1.323-1.035-2.037.285-.393.928-.606 1.428-.713a.7.7 0 0 1 .224-.04m25.203.11s31.678.214 38.393.214c-1.179 2.072.535 3.785.535 3.785s-34.142-.107-40.32-.107c-1-.25-.643-3.929 1.393-3.893zm68.43.25c-.75 1.713-1.286 3.607-2.322 5.179l.893.39c-.036-.391.18-.642.18-1.035.106-.357.321-.749.75-.785 1.571.607 3.106 1.285 4.5 2.285.106.178 0 .537.214.573.214-.857.927-1.607.89-2.5-.32.607-.962.25-1.462.25-1.321-.678-2.894-.893-3.858-2.143.143-.678.5-1.393 1-1.857a1.33 1.33 0 0 0-.785-.358m-79.395 4.5a10.2 10.2 0 0 0 1.215 3.679l-1.642.928a12.3 12.3 0 0 1-1.428-4.358zm66.252.07 1.858.214c-.18 1.643-.608 3.037-1.358 4.395l-1.642-.93c.607-1.107.964-2.287 1.142-3.68m-77.488.808c-.2-.005-.388.014-.513.121.715.536 1.037 1.285 1.287 2.035-.643.893-1.75 1.179-2.608 1.858-.679.32-1.357.82-2.107.678.321.679.57 1.465 1.143 2-.25-.428.286-.641.43-.963 1.25-.857 2.464-1.787 3.964-2.108a17 17 0 0 1 1.32 2.108c.25-.214.358-.395.608-.573-.964-1.643-2-3.392-2.928-5.142-.179.018-.395-.01-.596-.014m87.881.941c-.285.5-.608.93-.715 1.5l.68-.07c1.642.964 3.499 1.572 4.89 2.858.466-.428.574-1.038.86-1.538-.322 0-.5.11-.75.145-1.608-.678-3.144-1.502-4.68-2.43zm-.959 3.526c-1.748-.044-2.501 2.533-3.72 3.69v.214c.25-.107.358-.035.68-.07l1.892 1.355c.786.857 2.25 1.25 2.393 2.5a20 20 0 0 0 1.25-1.75c-1.036.571-1.893-.748-2.57-1.07-.037-.535.5-.859.784-1.18 1.715 0 3.856-.07 4.82-1.785-1.106.536-2.571 1-3.964.643-.75-.393-.178-1.357-.535-2l-.215-.358a2.2 2.2 0 0 0-.815-.19m-73.22.154c.784.93 1.785 1.857 2.964 2.75l-1.107 1.5a21 21 0 0 1-3.285-3.035zm61.394.07 1.428 1.215c-.893 1.035-2 2.035-3.285 3l-1.108-1.5c1.18-.893 2.18-1.785 2.965-2.714zm11.105.788c.464-.036.929.25 1.108.642.32.964-.43 1.892-1.108 2.535-.572-.143-1.321-.535-1.642-1.142.286-.822.927-1.606 1.642-2.035m-81.68 1.037v.463c-.82.893-1.785 1.679-2.677 2.322-.643.392-1.43 1.178-2.215.785.893 1.68 2.179 2.929 3.215 4.465a4 4 0 0 0 .714-.143c.286.071.678 0 .893-.142-.25 0-.393-.107-.607-.143l.035-.037-.285-.035c-.893-.858-2.179-1.643-2.143-2.893.464-.429.928-1.107 1.607-1.072.464.5 1 1.072 1.07 1.715.323-.18.716-.357.93-.678-.75-.143-.964-1.036-1.464-1.5 0-.107-.072-.251.035-.287.536-.178 1-1.143 1.715-.678.678.893 1.927 1.82 1.677 2.893.25-.25.822-.393.893-.858-1.25-1.32-2.143-2.927-3.393-4.177m14.11 2.176a43 43 0 0 0 3.642 2l-.822 1.68c-1.393-.68-2.678-1.357-3.82-2.071zm51.536 0 .963 1.609a42 42 0 0 1-3.82 2.035l-.822-1.68a39 39 0 0 0 3.68-1.964zm11.533 1.502-3 3.25c1.178.179 1.75 1.32 2.678 2.035.465.857 1.822 1.287 1.607 2.465.572-.357.858-.821 1.393-1.25.465-1.178 2.965-1.892 1.607-3.428-.142.393-.178.82-.392 1.178-.68.572-1.072 1.678-2.072 1.714-.464-.393-1.356-.786-1.213-1.5.286-.536.677-.964 1.285-1.142a1.82 1.82 0 0 0-.893-.75c0 .714-.822 1.142-1.107 1.463-.465-.178-1.036-.82-1.393-1.356.071-.5.321-.929.75-1.25.5-.5 1.107-.894 1.82-.644a1.86 1.86 0 0 0-1.07-.786M75 129c.786.286 2.286.786 4 1.393l-.607 1.787c-1.75-.608-3.25-1.109-4.035-1.43zm39.93 0 .643 1.75c-.821.286-2.285.822-4.035 1.43l-.608-1.787c1.714-.607 3.214-1.107 4-1.393m-54.717 1.787c-2.643 1.071.466 3.75-1.177 5.286-.75.286-1.18-.214-1.715-.678-.25-.643-.715-1.465-.215-2.215-.357.107-.678.428-1 .678l.393 1.357c.82 1 1.858 2.25 3.322 1.68 1.679-1.143.393-3.18.465-4.715.107-.358.427-.465.713-.572.536.107 1 .393 1.287.857.393.68.178 1.536.107 2.215.286-.393 1.214-.5.928-1.25-.607-1.179-1.536-2.75-3.108-2.643m21.072.393c1.393.5 2.786.963 4.036 1.39l-.608 1.788c-1.25-.428-2.643-.928-4.035-1.393zm27.357 0 .606 1.785c-1.393.465-2.785.965-4.035 1.393l-.608-1.787c1.25-.428 2.644-.927 4.037-1.391m19.678.535c-.428.465-1.07.893-1.285 1.357 1 .358 1.07 1.679 1.32 2.643.036.5.394 1.072.108 1.5-1.321-.285-2.465-1.178-3.608-1.785-.25-.18 0-.393 0-.572-.714.286-1.356 1.036-1.892 1.464l.892-.035c1.964.821 3.824 1.965 5.788 2.715-.18-2.536-1.358-4.822-1.323-7.287m-26 1.643.608 1.785c-.715.25-1.25.465-1.535.572a19 19 0 0 0-2.145 1.143l-.963-1.608c.928-.57 1.714-.999 2.393-1.285.32-.143.892-.357 1.642-.607m-14.715.072c.714.25 1.287.462 1.608.605.679.25 1.465.679 2.43 1.286l-1 1.609c-.894-.536-1.608-.93-2.18-1.18-.285-.107-.821-.32-1.5-.57zm8.643 3.178 1.072 1.535c-.678.464-1.286.928-1.715 1.25l-.535.392-2.357-1.605 1.035-1.537 1.25.857c.357-.286.786-.57 1.25-.892m-31.605.214c-.393.072-.643.5-.607.893.07.393.25.786.607 1 .428.036.856-.071 1.07-.357.143-.321.216-.893-.07-1.178a1.25 1.25 0 0 0-1-.357m6.785 1.625c-.514-.018-1.044.09-1.392.518-.5 1.286.464 2.534 1.25 3.57.07.535.357 1.215-.215 1.608-.25.178-.714.215-1 .037-1.071-.465-1.57-1.608-1.57-2.715-.322.286-.608.607-.715 1 .32 1.072 1.322 2.034 2.322 2.355.786.108 1.892.286 2.428-.535.393-1.536-.714-2.75-1.428-4-.143-.322-.215-.855.178-1.07.285-.178.75-.178 1.035 0 .929.536 1.393 1.393 1.322 2.465.321-.322.643-.822.75-1.322-.679-.678-1.499-1.537-2.463-1.858a4 4 0 0 0-.502-.053m51.18.409c-.286-.036-.393.321-.607.392-.071.393-.144.93.285 1.18.285.178.68.179.93-.035.286-.286.464-.607.392-1.072-.25-.392-.678-.358-1-.465m-5.787 1.002c-.392 2.072-.142 4-.285 6.287l-.322.57c.572-.107 1.072-.464 1.607-.678-.321-.179-.607-.607-.5-1.072.679-.82 1.893-1.143 2.893-1.535.429.214.785.715.535 1.215l.107-.18c.786-.035 1.464-.714 2-1.178-.464.178-.964-.072-1.357-.357-1.643-.93-3.178-2.18-4.678-3.072m-3.928 1.392c-.679.107-1.356.43-1.892.75l.498.395c.75 1.786 1.18 3.463 1.787 5.285-.072.178-.322.357-.215.5.643-.358 1.393-.608 2-1-1-.143-1.07-1.322-1.463-2.072-.286-1.25-1.394-2.537-.715-3.858m4.536.43c.642.142 1.285.608 1.642 1.143-.535.25-1.214 1.215-1.785.68.035-.68-.143-1.252.143-1.823m-38.912.186a3.7 3.7 0 0 0-1.196.17c-1.142.677-2.033 1.822-1.89 3.322.178 1.107.857 2.034 1.785 2.677.893.357 1.964.537 2.892.145.286-.393.573-.929.608-1.5h-.18c-.536.821-1.393 1.035-2.215 1-.75-.215-1.355-.86-1.64-1.61-.25-.784-.037-1.677.32-2.32.571-.679 1.393-1.464 2.357-1.25.857.18 1.822.856 2.036 1.785.214-.286.32-.643.427-1-.91-.83-2.102-1.398-3.304-1.42zm31.234.382a.88.88 0 0 0-.57.215 76 76 0 0 1-4.895 1.25c-.072.393-.179.857.107 1.143.143-.464.607-.571 1-.678.5-.036 1.107-.321 1.5.215l.893 3.678c.25.536.035 1.213-.393 1.427.607.036 1.037-.213 1.608-.213.25-.107.679 0 .75-.322-.321.072-.572-.107-.68-.357-.571-1.107-.641-2.428-.963-3.643-.036-.428-.357-.927 0-1.32.572-.322 1.43-.68 2.072-.215-.143-.358-.143-.859-.43-1.18M84.5 143.5c.714.93.035 2.072-.108 3.108-.357 1.107-.356 2.392-1.285 3.142.857.18 1.75.357 2.357.393l-.5-.463c.036-1.75.536-3.358.893-4.965.107-.357.572-.608.75-.822zm18.785.606c-.607 0-1.143.18-1.715.287l.215.105c.893.68.571 1.858.714 2.858.036.214-.07.465-.285.465-1.107-.857-2-2.037-3-3.073-1.035-.393-1.75.038-2.857.073.322.322.892.071 1.178.607.214 1.464.214 3.035.214 4.607-.107.357-.393.607-.68.75.716.178 1.538-.037 2.145-.037-1.57-.964-.644-2.928-.93-4.535l.286-.285c1.429 1.535 2.965 3.036 4.43 4.643h.285c0-1.892-.214-3.466-.356-5.323.142-.32-.073-.82.356-1.142m-14.105.107.355.322c.357 1.643-.179 3.108-.215 4.786 0 .572-.462 1.143-.855 1.322 1.786.036 3.713.357 5.427.393.286-.5.788-1.072.823-1.5-1.035 1.178-2.787.784-4.073.57l-.357-.285c-.179-.535-.141-1.393.18-1.965.893 0 1.856-.107 2.535.572.036-.429.213-.858.07-1.322-.75.464-1.82.106-2.605-.108 0-.643-.18-1.57.427-2 1.107.214 2.857-.32 3.393 1.038.214-.143.037-.466.18-.68-.071-.321-.002-.714-.43-.643l.035-.035c-1.714 0-3.283-.25-4.89-.465m-40.045 1.16a10.3 10.3 0 0 1 2.222.164 8.37 8.37 0 0 1 4.285 3c1.464 1.964 1.893 4.964 1 7.25-1 2.893-3.891 4.82-6.962 4.82-3.286 0-6.288-2.142-7.36-5.07-.714-2.465-.533-5.32 1.11-7.285 1.419-1.928 3.502-2.793 5.705-2.879m92.268.07c2.202.086 4.285.95 5.705 2.878 1.643 1.929 1.822 4.786 1.107 7.25-1.107 2.929-4.107 5.072-7.357 5.072-3.071-.036-5.965-1.93-6.965-4.822-.893-2.285-.43-5.284 1-7.213a8.37 8.37 0 0 1 4.287-3 10.3 10.3 0 0 1 2.223-.164m-92.152.768a5.6 5.6 0 0 0-1 .147c-2.214.357-4.25 2.178-5.07 4.285-.644 1.964-.43 4.25.712 5.928 1.178 1.679 2.965 2.893 5.037 3 2.607.286 4.999-1.07 6.356-3.14 1.393-2.073 1.001-5.038-.106-7.11-1.407-1.906-3.607-3.237-5.93-3.11m92.035 0c-2.323-.128-4.522 1.2-5.928 3.074-1.107 2.071-1.5 5.036-.108 7.108 1.357 2.07 3.75 3.463 6.358 3.142 2.072-.072 3.856-1.322 5.035-3 1.143-1.643 1.358-3.963.715-5.927-.786-2.071-2.822-3.893-5.072-4.25a5.6 5.6 0 0 0-1-.147m-91.617 1.082c.355.004.716.029 1.082.065l.214.213c.072 1.215-.535 2.251-.785 3.394-.715-.143-1.643.642-2.072-.215-.536-.857-1.25-1.644-1.428-2.715.91-.59 1.922-.755 2.989-.742m91.207 0c1.074-.013 2.098.153 2.982.742-.178 1.035-.893 1.858-1.428 2.715-.429.857-1.322.072-2.072.215-.286-1.143-.858-2.18-.787-3.394l.215-.213q.55-.056 1.09-.065m-91.29.791c-.448-.036-.897.158-1.406.131-.358.107-.428.572-.214.893.25.5.535 1.572 1.392 1.072.786-.25.535-1.322.678-1.965a1.1 1.1 0 0 0-.45-.13m91.366 0c-.15.013-.3.05-.452.131.143.607-.107 1.715.643 1.965.893.5 1.178-.572 1.428-1.072.215-.321.144-.786-.213-.893-.509.027-.958-.167-1.406-.13m-88.277.4c.162.02.29.14.396.301-.107.643-.64 1.252-1.213 1.645-.428.214-.536.748-.928.855v-.355l1.57-2.43a.4.4 0 0 1 .175-.015m85.217 0a.5.5 0 0 1 .18.016l1.572 2.43v.355c-.393-.107-.535-.641-.928-.855-.571-.393-1.108-.967-1.215-1.644a.51.51 0 0 1 .39-.301m-92.16.684a.44.44 0 0 1 .304.117l1.823 2.358c-.357.107-.643-.43-.928-.5-.608-.464-1.287-.857-1.787-1.393.08-.214.301-.568.588-.582m99.09 0c.272.014.502.368.609.582-.5.536-1.18.964-1.787 1.393-.286.07-.57.643-.928.5l1.82-2.357a.4.4 0 0 1 .286-.118m-90.605 1.262c.572 0 .5.678.75 1 .107 1.071.25 2.464-.358 3.285-1.107-.357-2.215-.644-3.287-1.072l.072-1.678c.964-.464 1.823-1.143 2.823-1.535m82.143 0c1 .392 1.857 1.071 2.822 1.535l.07 1.678c-1.107.428-2.213.715-3.285 1.072-.607-.82-.464-2.214-.357-3.285.25-.322.179-1 .75-1m-92.215.75c1.214.214 2.321.677 3.464 1.07l.035 1.57c-.857.537-1.821.893-2.642 1.465-.93.464-.75-.855-1.18-1.32-.035-.857-.214-2.035.322-2.785zm102.21.035c.536.75.393 1.893.357 2.75-.393.465-.215 1.749-1.215 1.356-.82-.607-1.785-.927-2.642-1.463l.035-1.573c1.143-.393 2.25-.855 3.465-1.07m-92.437.309a.4.4 0 0 0-.135.011c-.536.571-2.143.144-1.715 1.536.25.643 1.358.358 2 .68.286-.43.286-1.107.215-1.643-.219-.125-.11-.552-.365-.584m82.754.023c-.287.01-.202.434-.39.559-.071.536-.07 1.178.216 1.642.643-.32 1.714-.034 2-.677.429-1.392-1.18-.964-1.68-1.5a.5.5 0 0 0-.146-.024m-91.506.862a1.3 1.3 0 0 0-.489.162c-.25.429-.072 1 .035 1.464.357.893 1.144-.071 1.68-.214.536-.142.392-.643.285-1.036-.429-.241-.998-.442-1.511-.377zm100.21.006c-.506-.057-1.06.156-1.516.37-.107.358-.25.894.285 1.036.536.143 1.32 1.108 1.678.215.072-.43.287-1 .037-1.465a1.2 1.2 0 0 0-.484-.156m-95.914.326c.04-.01.094.009.148.045 0 .07-.001.144-.072.18-.072.035-.107-.072-.143-.108 0-.072.026-.108.067-.117m91.639 0c.035.009.064.045.082.117-.036.036-.074.143-.145.107-.072-.035-.07-.108-.07-.18.053-.035.097-.053.133-.044m-89.813 1.58c.964.465 1.964.966 2.785 1.644.072.322-.177.428-.356.535-.678.036-.965-.785-1.43-1.035-.285-.393-1.071-.536-1-1.144m88 .037c.035.572-.715.75-1 1.142-.465.214-.75 1.071-1.428 1-.214-.107-.429-.214-.358-.5.857-.679 1.82-1.213 2.786-1.642m-90.928.072c-.321.821-1.178 1.534-1.428 2.463-.18.321-.536.357-.822.25-.25-.143-.251-.392-.215-.642.82-.714 1.608-1.429 2.465-2.07m93.857.035c.857.643 1.642 1.392 2.464 2.07 0 .215 0 .465-.25.608-.286.107-.609.072-.787-.213-.25-.929-1.105-1.643-1.427-2.465m-1.42.2c.276-.005.543.013.775.12.465 1 .68 2.144.895 3.25-.678.786-2 .537-3 .323-.393-.321-1.252-.179-1.18-.965l1.68-2.713c.268.018.553-.01.83-.015m-91.053.013c.276.01.56.038.828.002l1.68 2.713c.106.786-.787.644-1.18.965-1 .214-2.321.462-3-.323.215-1.107.43-2.215.894-3.25.233-.107.5-.116.778-.107m.578.787c-.392.036-.821-.036-1.035.32.035.644-.5 1.36-.036 1.895.714 0 1.572.071 1.965-.465-.107-.643-.608-1.143-.894-1.75m89.895 0c-.285.607-.787 1.107-.895 1.75.393.572 1.25.465 1.965.465.5-.536-.071-1.251-.035-1.894-.214-.357-.642-.285-1.035-.32z"/><path fill="#ffcb05" d="M95 6.25C45.964 6.25 6.25 46 6.25 95c0 49.036 39.714 88.786 88.75 88.75 49 0 88.75-39.714 88.75-88.75 0-49-39.714-88.75-88.75-88.75m0 4.93c46.286 0 83.82 37.534 83.82 83.82S141.286 178.82 95 178.82 11.18 141.286 11.18 95 48.714 11.215 95 11.18m-6.785 2.5-.5.5c-2.25.464-4.572.713-6.858 1.07-1.107.107-2.392.535-3.427.285-.108.893.463 1.644.32 2.608h.18c.214-.643.464-1.463 1.285-1.463.857 0 2.429-1.037 2.965.213l1.677 11.465c-.036.5-.678.463-.75.892 1.322-.286 2.715-.287 4.108-.465v-.177c-.178-.036-.287-.144-.43-.108-.572-.214-.605-.786-.855-1.25l-1.395-9.642c0-.607-.284-1.251.145-1.715 1.035-.214 2.142-.573 3.25-.358.357.214.462.895.89.68-.035-.857-.427-1.535-.427-2.357zm1.105.32c-.107.036-.284.07-.213.285-.036.285.285.214.428.285 1.321 1.93 2.821 3.465 3.75 5.536 1.75 1.964.859 4.822 1.18 7.322l-.322.535c-.214.322-.787.036-.858.465 1.571-.286 3.214-.036 4.785-.143-.25-.393-1.034-.072-1.213-.715l-.072-5.785c1.643-2.357 2.821-4.643 4.75-6.857.214-.215.75-.143.75-.465a32 32 0 0 0-3.678 0c.25.25.964.429.786 1-.857 1.643-1.822 3.25-3.036 4.75h-.214c-1.5-1.607-2.463-3.213-3.428-5.07-.178-.393.321-.644.392-.965A26 26 0 0 0 89.32 14m-13.213 2.035c-1.357.428-2.892.465-4.177 1.073v.107c.32-.071.642.179 1 .25 1.285 2.572 1.498 5.571 2.39 8.285l.072.715c.071 1.465 1.788 3.357.038 4.393V31c1.32-.036 2.464-.57 3.785-.785.215-.178.715-.036.715-.465-.5-.107-1.18.037-1.395-.57-1.143-4.072-2.141-8.18-3.105-12.322.107-.357.427-.715.713-.787zm39.15.697a8 8 0 0 0-1.007.053c-2.571.071-4.787 1.929-5.965 4.108-1.036 2.07-.822 4.749.285 6.713 1.108 1.857 3.073 3.285 5.144 3.642l-.035.037c1.142.321 2.5.285 3.678.035.179-.214.428.216.463-.177 2.358-.464 4.358-2.394 5.25-4.608 1.072-2.715 0-5.572-1.89-7.5-1.689-1.219-3.623-2.273-5.923-2.302m-.07 1.165a4.6 4.6 0 0 1 1.742.316h.39c.573.393 1.18.75 1.788 1.215 1.75 1.964 1.964 4.606 1.322 7.07-.393 1.321-1.573 2.68-2.86 3.145-1.57.714-3.713.428-5-.75-2.07-1.572-2.498-4.144-2.14-6.573.428-1.607 1.392-3.501 3.07-4.072.483-.232 1.08-.347 1.688-.352zm-47.295.673-.072.358c-.178.392-.571.536-1 .465-2.142-.464-4 .535-5.32 2.177-.68 1.143-.93 2.966 0 4.073.285.536.713 1 1.142 1.177 2.393 1.893 6.287.716 8.322 3.323.215.357.356.856.106 1.213-.357.964-1.32 1.286-2.178 1.464-2.143.43-3.679-1.428-5-2.714l-.107.107c.357 1.143 1.107 2.143 1.5 3.215.143.285.108.785.43.892l.392-.357c2.072.036 4.321-.32 6.035-1.643.75-.964 1.287-2.071 1.037-3.392-1.072-3.215-4.75-2.965-7.43-3.75-1.07-.536-2.75-.964-2.857-2.535.071-.964.93-1.645 1.787-1.895 2.035-.429 3.964.788 5.25 2.395.214-.572-.323-1.144-.61-1.68-.606-.893-.677-2.143-1.427-2.893m59.428 2.145c-.178.465.393.57.465.928-1.43 3.893-3.393 7.536-4.965 11.357-.25.643-1 .643-1.5.607.858.572 1.966.82 2.86 1.428.5.214.926.607 1.39.607-.285-.464-.857-.82-.785-1.463.643-1.643 1.358-3.287 2.322-4.787.857.25 1.678.571 2.463 1 .68.536 2 .894 1.715 2.037l1.644-2.465.036-.322c-.178-.036-.287.036-.395.143-1.785.214-3.39-.856-4.713-1.928.072-1.393 1.107-2.57 1.5-3.893 1.322-1.714 2.75.535 4.108.82 1.072.608 1.427 1.93 1.427 2.823l.5-.678c.214-.608.787-1.143.715-1.822-2.928-1.607-5.787-2.964-8.787-4.393zM54.8 25.383c-3.208.088-5.724 3.19-8.336 4.902l.928-.035c2.678 3.25 5.32 6.713 7.892 10.07.393.393-.072.93 0 1.287 1.143-.893 1.822-1.464 2.965-2.25l-.57.035c-1.215-1.286-1.966-2.642-3.11-3.963l-.212-.537c.357-.322.748-.642 1.177-.785 1.893 1.143 3.466 1.929 5.68 2.393 1.465-.107 3.355.43 4.07-1.035-.286-.321-.535.179-.892 0-2.714-.25-4.965-1.536-7.073-3.215l-.07-.215c.571-.643 1.108-1.43 1.358-2.25.322-1.107-.037-1.964-.465-2.928l-1-1c-.824-.355-1.602-.495-2.342-.474m-1.537 1.67c.812.006 1.389.215 2.166.804.714.893 1.39 1.822 1.105 3.036-.25 1.357-1.606 2.177-2.642 2.892h-.5c-1.25-1.536-2.286-2.857-3.393-4.5.214-1.072 1.5-1.641 2.358-2.177a8 8 0 0 1 .906-.055m89.27 2.482c.358.464.895 1.035.895 1.75-1.965 2.535-3.535 5.179-5.714 7.608-.821.928-1.751 2.713-3.215 2.427l.035.18a15.4 15.4 0 0 1 2.644 1.965l.32.07c-.356-.393-.536-.856-.429-1.428 1.822-2.428 3.715-5 5.715-7.357.107-.143.322-.036.322.107-.714 3.822-1.427 7.68-2.142 11.5l.105.178c1.75-.286 3.323-1.178 5.037-1.642.643-.25 1.392-.393 1.928-.786 1.107-.214 2.071-.677 3.107-.892l.108.142c-1.821 2.143-4.037 4.393-6.215 6.25-.536.143-1.072-.072-1.5-.322.857 1.107 2 2.073 2.965 3.145l-.215-.715c2.82-2.964 5.859-6.25 8.93-9.035.607-.572 1.034.32 1.57.32-.536-.964-1.393-1.75-2.215-2.535l-.535-.035c-3.18 1.107-6.286 2.428-9.465 3.5-.285.107-.677.357-.89 0 .606-3.822 1.463-7.643 2.07-11.5-.786-1.25-2.144-1.931-3.215-2.895zM95 31.43c-35.107 0-63.57 28.46-63.57 63.568S59.893 158.57 95 158.57s63.57-28.463 63.57-63.57S130.107 31.43 95 31.43m-51.465.463c-2.25 2.07-4.356 4.25-6.428 6.427v.285c.357-.07.785-.32 1.213-.142 2.965 2.643 5.61 5.573 8.36 8.43l.177.892c-.036.393-.608.784-.215 1.07 2.071-2.036 4.751-4.142 7.037-6.177l-.394-2.215c-.857 1.036-1.355 2.607-2.57 3.607-.643.608-1.43 1.43-2.395 1l-3.285-3.214v-.286c.785-.964 1.68-1.642 2.644-2.535.464-.215.928.178 1.25.285v-.177c-.822-.75-1.537-1.644-2.144-2.43-.036.286.035.535.107.785-.822 1.071-1.893 2.43-3.072 3.107l-3.5-3.57-.07-.357c1.32-1.643 2.963-3.358 5.07-3.143-.428-.607-1.035-1.428-1.785-1.642m51.195 1.554c.392.025.733.266 1.055.588a60 60 0 0 1 12.465 1.428c.536-.285 1.036-.321 1.357.215.036.035.036.071.072.107 3.892.928 7.607 2.285 11.178 3.928.464-.143.823-.108.858.392a63 63 0 0 1 9.215 5.573c.57-.108 1.035-.072 1 .25 0 .107-.073.213-.18.32a63 63 0 0 1 7.93 7.18c1.035.035 1.857.5 1.785 1.82 0 .036-.035.109-.035.145a58.7 58.7 0 0 1 6.285 8.785c.715.178 1.178.465 1.035.965-.036.143-.143.285-.25.427a61 61 0 0 1 4.535 10.5c.428.036.821.143.75.75-.036.25-.141.429-.32.608a61 61 0 0 1 2.035 9.57h.107c.143 0 .178.037.178.037.214.071.429.214.358.5-.072.285-.25.572-.463.858.214 2.178.355 4.392.355 6.642 0 33.678-27.322 61.001-60.965 60.965-33.713 0-61.035-27.32-61.035-61.037 0-2.214.144-4.393.358-6.535-.464-.322-.678-.75-.213-1.322.142-.143.284-.286.427-.393a60.5 60.5 0 0 1 2.678-11.357.7.7 0 0 1-.105-.357c0-.214.177-.393.427-.57a59.7 59.7 0 0 1 4.678-10.036c0-.072-.035-.179-.035-.25-.036-.429.25-.643.643-.75 1.786-2.964 3.857-5.75 6.107-8.357-.321-.607-.108-.894.535-1.18.25-.107.5-.213.75-.285a64.3 64.3 0 0 1 8.535-7.642c-.035-.358.038-.644.36-.823.285-.143.642-.177 1-.142 3.07-2.178 6.39-4.036 9.855-5.608.071-.25.216-.428.395-.607.357-.286.784-.285 1.213-.106a63.5 63.5 0 0 1 10.072-3.18c.143-.32.355-.57.82-.534a1.2 1.2 0 0 1 .572.25 59.4 59.4 0 0 1 10.463-1.143c.215-.25.465-.466.75-.537q.215-.066.41-.051zm-.15 1.203c-.23.028-.483.224-.76.67-.892 1.822-1.892 4.11-2 6.395a33 33 0 0 1 3.25-.145 19 19 0 0 1 2.86.11c-.25-1.715-1.073-3.395-1.823-4.895-.348-.777-.837-2.216-1.527-2.135m13.67 2.065c-1.821 1.715-3.144 3.965-4.215 6 2.07.572 4.036 1.286 5.93 2.215.25-2.393-.286-4.645-.786-6.86-.286-.464-.215-1.39-.93-1.355zm-25.45.299c-.1-.014-.22.094-.3.2-.43 2.144-1.5 4.715-.393 6.929 1.5-.68 3.07-1.18 4.678-1.573-1.143-1.82-2.5-3.785-3.893-5.5a.13.13 0 0 0-.092-.056m-46.192 2.271c-.857.893-1.823 1.75-2.573 2.713.5-.036 1.035-.499 1.5-.178a170 170 0 0 1 4.858 8.573c-.072.143-.215.142-.323.213l-7.14-1.426.035-.035-2.678-.643c-.75-.25.071-.75-.215-1.18-.5.25-.713.893-1.07 1.358-.464.75-1.287 1.464-1.43 2.25.286-.143.608-.25.893-.393 4.642 1 9.57 1.785 14.248 2.785l-.033.034h.785l-.18-.643-6.642-11.643-.213-.715c0-.393.463-.713.177-1.07zm34.477.658c-.112-.013-.21.04-.264.202.215 1.82.536 3.643.5 5.607.322 1.321.821 2.893 1.892 3.75a28 28 0 0 1 3.858-2.822c-1.392-2.286-3.143-5.178-5.643-6.535-.107-.107-.232-.188-.344-.202m48.523 1.557c-2 1.393-3.678 3-5.25 4.93-.107.214-.428.535-.428.785a31 31 0 0 1 3.855 3c.321-.428.609-.858.823-1.358.714-1.75 1.25-4.642 1.322-7.177-.036-.18-.215-.18-.322-.18m39.107 4.106c.215.536.142 1.214-.465 1.572-3.071 2.32-5.929 5.034-9.036 7.32-.535.143-1.071-.07-1.464-.392a104 104 0 0 1 2.464 3.464l.286.108c.07-.465-.393-1.072.18-1.393l9.14-7.392c.572-.607.965.284 1.5.212v-.177a62 62 0 0 1-2.463-3.323zm-63.645.681c-8.785 0-16.68 3.857-22.072 10h44.145c-5.393-6.143-13.286-10-22.072-10zm-34.494.223c-.157-.01-.292.044-.292.24.607 1.18.894 2.036 1.215 3.75.43 2.393 1.571 4.892 4 5.785h1.5a36 36 0 0 1 2.5-3.177c-.5-.357-1.179-.714-1.75-.893-2.786-1.321-3.786-4.608-6.75-5.572a1.1 1.1 0 0 0-.424-.133m68.316.847c-2.857 1.393-5.287 4.18-7.715 6.358.678.822 1.358 1.677 1.965 2.57h2.927c.75-.465.678-1.071 1.035-1.785.643-2.321.965-4.75 1.858-6.93zM26.32 52.535c-.857 1.035-1.427 2.321-2.106 3.5.429.107.643-.678 1.25-.392 1.322.57 2.535 1.392 3.856 2.035 2.286 1.535 4.822 2.784 7 4.57.25.286-.25.501 0 .787.786-.965 1.25-2.216 1.964-3.287v-.285c-.215 0-.286.286-.5.357-.322.072-.75.142-1-.072A231 231 0 0 1 26.43 53.57c-.215-.357.107-.714 0-1.035zm134.93 1.145a7 7 0 0 0-1.075.033c-2.715.286-5.394 2.036-6.61 4.5-1.177 2.357-.783 5.286.93 7.215 1.144.785 2.144 2.499 3.68 1.57.607-.429 1.427-.5 1.963-1.07-.286-.25-.606 0-.892 0-1.75.214-3.393-.572-4.25-2.143-.357-1.072-.751-2.5.035-3.5 1.82-3.036 5.071-4.643 8.535-4.072 1.286.322 2.143 1.464 2.572 2.642.178 1.643-.142 3.5-1.463 4.75.928-.214 1.749-.75 2.641-1.142.608-1.607.11-3.57-.463-5.07-1.125-2.126-3.153-3.595-5.603-3.713m-21.97.713c-1.714.32-3.642 1.25-4.964 2.357l2.18 2.07 3-2.785c.356-.357.5-.677.68-1.105.034-.536-.574-.43-.895-.538zm-87.651.216c-.482-.02-.894.088-1.17.391.107 1.036 2.25 2.786 3.357 3.643l2.143-2.036c-.83-.696-2.887-1.934-4.33-1.998m-28.918 4.07c-.464 1-1.035 2.07-1.5 3.106 1.143-1.179 2.393.286 3.5.465 1.75.964 3.714 1.465 5.464 2.43.25.142.607.32.678.64-3.071 1.43-6.321 2.144-9.5 3.323-1.071.357-2.178.643-3.178 1.214-.358 1-.929 2.072-1.072 3.036.5-.5.928-1.25 1.678-1.108 2.107.607 4 1.215 6.107 1.858 1.428.464 2.75 1.106 4.25 1.392l-.035.035c.286.036.643.002.857.36.68.035.785.82.928 1.213.25-1.18.75-2.5.928-3.463-.321.285-.535.714-1 .785-3-.643-5.784-1.822-8.64-2.715l-.288-.32c.393-.43 1.143-.502 1.678-.86.858-.178 1.823-.462 2.644-.89 1.857-.393 3.607-1.143 5.393-1.75 1.25-.393 2.57-.752 3.678-1.395.143-.215.108-.536-.178-.715-2-.785-3.858-1.748-5.787-2.64-.357-.143-.784-.358-1.106-.5-1.714-.393-3.144-1.501-4.822-2.037l-.463-.393zm147.14 6.07c-.286.178-.107.5-.393.644-3.285 1.607-7.143 2.643-10.607 4.25-.643.07-1.678.963-2.143.07.357 1.215.822 2.607 1.5 3.643.107-.036.035-.142.07-.213-.106-.536.215-.965.608-1.18 1.643-.535 3.251-1.464 4.822-1.75.18.143.285.286.32.5.75 2.179 1.68 4.285 2.215 6.535-1.893.714-3.785 1.644-5.892 1.715-.286-.214-.536-.393-.678-.75-.072.036-.215-.035-.215.072.607 1.214.606 2.607 1.07 3.893h.215c-.214-1.465 1.5-.893 2.143-1.572 1.571-.25 3.143-.928 4.75-1.286l.215-.215c1.643-.25 3.142-1.07 4.785-1.212.678-.214.857.462 1.393.712-.143-1.393-.75-2.57-1-3.892-.286.036-.143.536-.465.607-1.464.786-3.107 1.035-4.678 1.535l-.213-.177c-.858-2.322-1.68-4.607-2.287-7.035 1.357-.964 3-1.288 4.5-1.895.428-.107.857.108 1.178.465l.11-.143c-.537-1.07-.751-2.322-1.323-3.322zm-125.37.001c-.322 0-.617.054-.778.25 1.107 1.429 2.571 2.57 4.285 3.143 3.321.964 5.607 3.894 8.786 5.322.25 0 .893.393 2 .465v-1.895c0-1-.142-1.927-.356-2.855-1.179-.536-4.965-2.18-6.75-2.787-.322-.214-4.5-1.358-6.25-1.573-.268-.017-.616-.07-.937-.07m100.72.25c-1.821.214-3.536.5-5.286.965v.105c-1.929.215-3.5 1.251-5.357 1.537-.428.18-1.678 0-2.5.143-.464 1.321-.785 2.75-.785 4.25v3.32c1.035-.142 2.713-.89 3.57-1.355 1.536-1.285 2.715-2.787 4.215-4.145 2.572-1.32 5.25-2.392 7.535-4.25l.107-.355c-.464-.143-1-.144-1.5-.215m-72.07 6.93a5.44 5.44 0 0 0-.178 3.285c-.393.072-.536.322-.858.465-.928.392.071 1.82-1.037 1.963-.214.32-.606.929-.213 1.214l4.463.036.215-.143c.214-.57-.463-.75-.57-1.25.215-.214.572-.214.715-.5 0-.357.25-.75 0-1.07-.286-.465-.716-.859-1.323-.68.143-.75.073-1.356-.142-2.035-.357-.464-.466-1.071-1.073-1.285m21.387.853c-.594.034-1.211 1.108-1.457 1.574-.071.572-.392 1.25.072 1.713l1.857.037c.357-.214.213-.822.57-1.072-.82-.357.25-.965-.285-1.5-.223-.57-.488-.767-.757-.752M41.298 74.98q-.502.016-1.024.056c-.5.035-1.106.107-1.285.535a16 16 0 0 0 2.393 1.537c4.893 2.572 9.928 5.715 17.465 5.823v-5.11l-1.428.286c-4.715.643-8.895-1.822-13.145-2.858v.002c-1.018-.24-1.974-.301-2.977-.271zm-24.666.091c-.322.893-.535 1.967-.678 2.895l.785-.5c2.607.143 5.144 1.179 7.715 1.75.179.25.643-.072.715.285 1.178.429 2.605 1 3.105 2.357.285.75.18 1.5-.105 2.213-.43.715-1.037 1.252-1.787 1.395-3.607.536-7.43-.143-11.072-.5-.428-.107-.286-.643-.536-.785-.322 1.214-.285 2.534-.464 3.713l.464-.463c2.75.25 5.252.498 8.073.64l-.037.037c1.929-.107 3.965.43 5.5-.892 1.5-1.214 1.858-3.001 1.75-4.822.036-1.536-1.178-2.787-2.32-3.573-3.358-1.357-6.965-2.106-10.5-3.07-.394-.036-.43-.537-.608-.68m75.393 1.536-.178.214c1.072.68 2.856.644 3.963.073-1.214-.25-2.572.07-3.786-.287m57.592.144c-1.847-.052-3.79.304-5.45.358-3.215.893-6.857 1.322-10.107 1.357-.678.072-2.108-.107-2.822 0v6.07l.895-.035c1.25-.071 2.25-.715 3.392-.965 1.857-1.286 4.177-1.605 6.32-2.355 2.857-.5 5.822-.824 8.143-2.61.571-.428 1.465-.855 1.43-1.605a9 9 0 0 0-1.801-.215m-33.295.623a1.4 1.4 0 0 0-.44.09c-1.286.072-2.428.821-2.963 2.035.964.714 2.428.715 3.678.68.464.607-.287 1.284-.608 1.82-.57.714-1.606 1.322-2.07 2.037.071.178.284 0 .39.143l-.07.07c.143-.07.465.072.358-.142 1.107.179 1.749-.713 2.678-.963.214.107.18.32.18.5-.536 1-.323 2.356.105 3.32.108.179.25.571.572.535.393-2.179.678-4.642 0-6.785.607-.75 1.572-1.5 1.572-2.465h-.857c-1 .219-1.563-.902-2.526-.875m-23.617.555c-.285.25-.252.678.105.892.715.25 1.573.215 2.36.143.213-.035.677-.107.5-.393h-.038c.178-.607-.429-.285-.75-.357-.607-.357-1.427-.25-2.177-.285m-20.24 1.54c-1.099-.03-2.207-.004-3.368.175-.143.143-.463.393-.177.607 1.5.786 3.465.178 5.072.535.929-.072 2.107.109 3-.177.286-.893-.965-.715-1.215-.965-1.125-.054-2.214-.143-3.312-.174m23.945.393c-.804.04-1.634.21-2.49.067-.073.142.177.391 0 .57-1.894.786-2.43 3-3.5 4.5-.5 1.143-2.072.43-2.965.395-.143.07-.429.214-.536 0 1.75-1.822 2.928-4.143 5.32-5.25.465-.036.93-.037 1.43-.108v-.142c-1 0-1.966-.072-2.787.5-1.75 1.714-3.286 3.57-5 5.07l.178.18c4.465.607 9.251.248 13.609.355 1.357-.143 2.962.071 4.105-.393-.322-.32-.713-.75-1.177-.964l-3.858-4.073c-.75-.66-1.526-.749-2.33-.709zm-.215.311c.69-.014 1.42.514 2.01.863 1.321.785 2.178 2.287 3.285 3.323.286.322.856.212.892.712l-.177.11c-1.107.142-2.144.248-3.215.14-.93-1.785-1.858-3.57-3.465-4.927.214-.152.44-.216.67-.221m-1.39.197c.786-.023 1.255 1.394 1.864 1.916.321.964 1.071 1.715 1.5 2.608.035.214-.036.393-.215.464l-3.285-.037c-.108-1.464.535-2.89 0-4.355-.429 0-.216.499-.36.678-.213.964-.533 1.822-.57 2.822-.106.393.286.786-.107 1-.75.072-1.75.143-2.535-.035.357-1.858 1.607-3.61 3.107-4.787.221-.188.418-.269.6-.274zm-22.95 1.121a2 2 0 0 0-.4.01c-.357.143-.108.465-.108.715.536.965.787 2.07 1.573 2.82.464-.643.214-1.713.285-2.427q1.073.321 2.25.642c.25-.429-.178-.82-.285-1.25-.393-.75-1.43-.429-2.215-.5-.321.107-.703.014-1.1-.01m102.53.44c-.214.357.001.89-.463 1.14-.893.18-1.965.537-2.822.537l.035.036a184 184 0 0 1-9.25 1.714l-.5-.357c-.286-.214-.178-.678-.535-.785.143 1.679.572 3.25.75 4.965h.035c.214-.465-.036-1.25.5-1.465 4.107-.821 8.072-1.5 12.215-2.25.607-.035.357.784.893.855l-.57-4.105zM74.42 84.217c-.25.572-.5 1.213-.215 1.855.822.072 1.537.536 2.323.5.07-.642-.107-1.32-.286-1.89-.5-.393-1.215-.286-1.822-.465m37.713.605c-.179.18-.572.179-.822.393-1.821.5-3.534 1.572-5.463 1.465a2.34 2.34 0 0 0-1.107.178c-3.964.286-7.68.356-11.68.392l-.141-.105c-2.286-.18-4.824-.108-7.11-.287l-.105-.143c-2.893-.214-5.573-.785-8.18-1.75-.429.643-.215 1.572.035 2.215.286.107.61-.18.93 0v.178l-.857.037c.25.893 1.32.213 1.892.677-.036.25-.392.25-.392.215l.037.035-.537.178c.32.286.894.216 1.322.145.107.036.321.106.285.285-.143.178-.357.142-.5.285.036.036.07.036.035.143.214.143.608-.072.786.142l-.356.465c.286-.035.571.037.785.18-.429.25-.857.142-1.25.392.571.143 1.43-.035 2 .108-.107.536-.785.142-.892.57.536.215 1.107-.5 1.5-.143-.107.322-.5.287-.608.573.357.214.93.035 1.358.177-.786.465-2 .572-2.893.215.286-.107.535-.287.856-.287-.357-.25-1.25.037-1.75-.142 0-.536-.713-.143-.856-.678.107-.215.356-.107.356-.285-.035-.036-.034-.037-.106-.037-.285.143-.68.037-.894-.213.108-.214.359-.108.537-.215 0-.358-.395 0-.573-.285-.036-.643-.857-.394-1-.858.357 0 .785-.142 1-.392-.286-.143-.748.106-.927-.215-.214-.965-1.359-.786-2.073-1.143-.107.107-.32.034-.355.213 1.25 2.071 3.606 3.93 5.463 5.357 1.107 1.322 2.608.322 4.072.643.322-.07.856-.036 1.106.107l-.213.358c.107.036.285-.036.392.035.607.143 1.32-.036 1.785.357-.929.572-2.14.144-3.07-.07-.035-.286.391-.071.32-.392-.786-.214-1.571-.074-2.392-.145 1.57 1.714 4.322.893 6.537 1.25l.32.287c-.036.107-.144.035-.215.035-.429.5-1.035-.25-1.392.215 1.678.393 3.68.464 5.322.393.607-.143 1.25.107 1.75-.215-.785-.143-1.822.036-2.572-.178-.75-.215-1.571.213-2.213-.18 1.5-.464 2.964.288 4.5-.212.785-.036 1.57-.18 2.213.142l-.143.178c-.429 0-.857.178-1.25.285 1.25.321 2.465-.179 3.68 0l.285-.285c-.32-.107-.752-.035-.93-.285.25-.18.501.036.715-.285l3.18-.18c.214-.035.714-.035.678-.285l-2.678-.285c-.5-.143-1.037.141-1.43-.288l.108-.142a36 36 0 0 0 4.357-.178l.143-.142c-.464-.143-1-.288-1.393-.645 1.68-.357 3.393-.035 5.143-.213l.177-.18c-.786-.214-1.57-.25-2.355-.392-.322-.035-.788-.036-.895-.465 1.571-.036 3.502-.035 5.145-.32.392-.25 1 .285 1.178-.215-1.25-.214-2.928.071-4-.715 2.214 0 4.5-.178 6.607-.535l.285-.285c-1.429-.25-3.107.178-4.107-1l.072-.073c.286.072.75-.142.893.18l2.892-.037-.07-.143h.39c.25-.214.715-.214.715-.607-.465-.286-.998-.141-1.57-.355.465-.143.999-.144 1.428-.465.286-.5-.392-.536-.535-.858.107-.07.214-.035.357-.035.393.071.464-.287.535-.537-.464-.321-1.036-.535-1.607-.678m3.787.145c-.822.072-1.072.927-1.25 1.57.5.428.929-.286 1.393-.465-.071-.392.392-.998-.143-1.105M40.277 86.82c-1.857.036-3.572.037-5.215.68 0 .071.074.108.11.18 1.142.714 2.426.926 3.855 1.355.464.071 1.145.322 1.573-.142.107-.572.322-1 .607-1.463.286-.643-.43-.61-.93-.61m4.615.456c-.868-.026-1.52.05-2.043.332-1.678.893-1.25 4.714-1.142 5.357.143.929.392.892 1.285.928 1 .07 2.357-.108 4.357-.073 1.286.036 3.535.002 4.428 1.145 1.535 2 .643 4.072.25 5.893-.25 1.214-.715 2.355.785 3.462 1.393.608 1.965-.962 1.965-1.855 0-2.607.179-3.357-1.285-6.357-.571-1.178-2.894-4.18-2.465-7.073.071-.536.18-.785.395-1.285-3.037-.112-5.083-.433-6.53-.475zm106.46.45c-1.232-.022-2.489.112-2.65.452l.928 2.642c1.75-.142 2.822-1.642 4.215-2.607-.054-.285-1.26-.464-2.493-.486m-92.58.024c-1.929 0-3.643.18-4 .18 1.535 1.607-.214 3.071 1.536 3.035.429.036 1.071.179 2.464.143zm85.832.426c-2.053.027-4.595.302-4.974.324-1.143.036-.535.393-.463 1.393.178 2.57-.965 4.679-1.822 7.037-.714 1.964-1.714 3.927-1.928 6.07-.072.786-.036 2.18.928 2.43 1.107.285 1.357-1.43 1.5-2.18.357-1.893-.357-4.108.322-5.93.428-1.107 1.427-2.141 2.57-2.427 1.321-.322 2.713-.143 4.07-.143.75 0 2.502.287 3.038-.32.572-.643.75-4.68-.643-5.93-.308-.268-1.366-.34-2.598-.324m-13.297.11c0 2.534 0 5.143.036 7.714 1.786-.464 6.18-1.893 6.18-2.607-2.573.07-3.216-.822-2.93-4.5-.286.036-2.5-.394-3.286-.608m37.941.591a7 7 0 0 0-1.332.088c-2.715.5-5.75 2.179-6.464 5.143-1.035 2.607.785 5 .785 7.607 1.107-.285 2.393-.145 3.43-.18.963.214 2.212.145 2.64 1.18.25-1.357.25-2.893.215-4.285-.25.5-.82.962-1.428.89-1.286-.142-2.715.037-3.787-.677-.75-.964-1.39-2.106-.963-3.428.572-1.393 1.963-2.395 3.285-2.93 2.928-.715 6.644-.892 8.715 1.715.93 1.036 1.18 2.464 1.072 3.893-.286 1.536-1.68 2.822-3.109 3.215 0 .214-.462.106-.605.285 1.036.036 2.213.287 3.105-.036 1.536-2.036 2.252-5 1.36-7.607-1.22-2.75-3.86-4.789-6.918-4.873zm-87.787 3.627c.58-.069 1.25.38 1.92.246-.786.071-1.608.285-2.465.035a.87.87 0 0 1 .545-.28m5.24.817c1.073.072 2.073.071 3.18.214v.073c-1.143.214-2.18.142-3.287-.108zm10.608.644c.215.143.536.143.68.393-.25.322-.573-.107-.823.107-2.108.357-4.965.107-7.143 0l-.572-.215c2.572.071 5.18-.356 7.858-.285m-72.246.254c-.103-.005-.183.03-.147.174 2.357 1.214 2.249 4.001 2.39 6.072-.177.5-.034 1.286-.677 1.643l-4.572.5c-.714-1.143-.499-2.643-.606-3.928 0-.286.465-.358.5-.572-.32-.143-.678.036-1 .072-.607.142-1.393-.11-1.857.213 1.179.143.785 1.537.963 2.322-.035.715.536 1.572-.07 2.215a30 30 0 0 1-4.07.5c-.216-.072-.324-.286-.395-.5-.107-2.143-.464-4.75 1.322-6.18l-.215-.107-.035.107-2.393.143c.036 3.25.106 6.215.57 9.465.072.322 0 .963.5.892-.035-.393-.034-.82.43-1.035 1.43-.25 2.929-.572 4.465-.715.535-.036 1.25-.106 1.75-.32 2.071 0 3.856-.716 5.963-.68.536.214.5.893.893 1.143l.107-.358c-.607-3-.18-6.32-.75-9.427l-2.785-1.573c-.054-.018-.179-.062-.282-.066m21.174.96c-1.036 0-5.251 0-6.18.071-1.5.071-1.928.787-1.928 1.965.714 30.786 25.893 55.143 56.857 55.143 30.714 0 55.713-24.144 56.82-54.572 0-.643-.428-1.32-1.428-1.355-1.036 0-6.035 0-6.892-.073-1-.07-1.035 1.571-1.07 2.178-1.643 24.75-22.251 44.5-47.43 44.5-25.607 0-46.464-20.248-47.5-45.605 0-2-.321-2.25-1.25-2.25zm43.965 2.106c-.321.214-.178.573.107.68 1.75.607 3.822.572 5.715.465-.143-.286-.679-.179-.965-.215-.178-.357.572-.535.643-.75-.535 0-1.25-.322-1.786.035-1.215-.143-2.464-.144-3.714-.215m-47.637.54c.342.04.702.326.992.46a1.77 1.77 0 0 1 .18 1.286c-.215.429-.68.428-1.108.464-.357 0-.679-.248-.893-.57a1.5 1.5 0 0 1 .25-1.357c.174-.241.373-.307.579-.283m104.39.318c.393-.036.75.071.964.357.071.321.177.857-.287 1-.393.071-1.035.215-1.142-.392-.071-.428.072-.93.465-.965M92.492 99.32l-.288.214c.43 1.25-.25 2.286-.892 3.215 1.036.68 2.394.787 3.68.715.857-.107 1.855-.035 2.462-.535-.857 0-1.643 0-2.5-.215.393-.678 1.18-.143 1.608-.535-.428 0-1.071.107-1.5-.215.215-.393.75-.18 1.072-.395-.286-.535-1.072-.32-1.607-.462-.107 0-.18-.107-.18-.178.607-.143 1.144-.36 1.787-.36.143-.142.106-.25-.037-.285l-1.355-.177-.18-.178.5-.322c-.785-.286-1.713-.18-2.57-.288m51.783 2.287c.357.072.857-.001 1.107.285-.714.25-1.393 1-1.5 1.75.071.393.108.858.537 1.037 1.821-.108 2.213-3.358 4.356-2.5.82.607 1.144 1.605.894 2.64-.072.786-.716 1.431-1.18 1.895l-.75-.215c.893-.57 1.537-1.5 1.43-2.642-.108-.321-.43-.571-.68-.75-2.07.179-2.463 3.822-4.785 2.107-.535-.321-.358-1.143-.43-1.785.144-.68.572-1.287 1-1.823zm17.035.57c-.142 1.357-.39 2.928-.606 4.25.322-.25.428-.571.785-.857 1.5-.142 2.715 1.07 3.965 1.927l-.715 3.715c-.357.715-.106 1.822-.892 2.25l-3.928.643c-.608 0-.358-.75-.715-.893-.32.857-.393 1.857-.75 2.75-.107.357-.535.68-.357 1.072l.607-.465a279 279 0 0 1 10.035-1.75c2.25-.392 4.713-.75 6.785-1.214-.179-.857-.713-1.607-1.32-2.25-3.071-2.036-6.571-4.07-9.857-6.213-.928-1.036-3.109-1.073-2.823-2.965zM40.2 102.5l.677.535c2.036.857 4.286 1.216 6.143 2.323l-.07.213c-1.678 1.75-3.644 2.966-4.715 4.894-.214 0-.43-.286-.465-.572-.107-.536-.213-1.144-.32-1.608.393.107.998-.107 1.32-.5.535-.5-.034-1.25-.07-1.892-.321-.607-.037-1.608-.823-1.858-.322 0-.606-.32-.892-.105-.286.107-.107.427-.393.463-.428-.322-.32-1.322-.392-1.893m49.605 1.035s-2.571.287-3.25 2.323c3.143 1.75 7.179 1.643 10.822 1.357.82-.178 1.75-.07 2.392-.5-.643-.214-1.642-.002-2.285-.394 1.143-.142 3.57-.535 3.785-1.178 0 0-2.464.822-3.642.072 1.82-.25 2.393-.644 3.214-1.144-.107-.607-.785-.214-1.177-.32-2.93 1.713-7.002 1.213-9.86-.215zM43.52 104.75c-.215.643.036 1.465.43 1.858.464-.321 1.106-.822 1.214-1.358-.465-.25-1.037-.464-1.644-.5M29.092 107c-.107.18-.038.572-.288.715-4.178 1-8.176 2.072-12.39 3-.359 0-.286-.608-.715-.394.393 1.215.284 2.75.927 3.822.5-.143.143-.856.75-1.035l3.573-.893c.322-.178.713.036.82.393.464 2 1.322 3.855 1.644 5.927-.572.535-1.358.68-2.072.895-1.07.25-2.144.928-3.215.678.357 1.143.788 2.25 1.323 3.322h.177c-.143-.393.178-.68.428-.895 3.68-1.393 7.36-2.89 11.145-4.07.5-.285.964.107 1.428.215-.143-.68-.606-1.25-.713-1.965-.215-.535-.251-1.251-.61-1.644-.177.358-.07.787-.5 1.037-1.891.643-3.712 1.392-5.64 1.963l-.287-.286a61 61 0 0 1-1.643-5.855l.5-.5 5.32-1.25c.5-.108.61.64.93.64.036-1.284-.644-2.464-.715-3.785zm119.79.358c.143.75 0 1.712-.358 2.427-.179-.679-1.07-.786-1.57-.465-.5.858-.787 1.86-.93 2.86.393.5.858 1.07 1.465.963.25.57-.43 1.32-.607 1.927-.393-1.892-2.465-2.927-3.608-4.427-.429-.18-.748-.679-.855-1.143 2.07-.643 4.176-.785 6.105-1.82zm18.107 1.14c.643.43 1.393.609 2 1.145.32 0 .393.356.68.463.891.536 1.82 1.107 2.712 1.75v.214c-2.036.43-4.142.822-6.213.965l-.18-.18.786-4zm-119.29.932c.357.75.606 1.678 1.035 2.5.32 1.142.892 2.714-.108 3.678-.822.429-1.57-.251-2.213-.465-1 1.25-1.642 2.965-.964 4.537-.571-.965-1.037-2.359-.68-3.68.035-1.07 1.714-1.858.607-2.965-.107-.357-.5-.571-.822-.392-.535.25-1.392.287-1.5 1.072-.25-.643-.642-1.357-.785-2.107.5.214 1.144.286 1.644.072 1.142-.536 2.464-.75 3.57-1.43.144-.25.145-.535.216-.82m97.965.355c-.572.178-1.217.107-1.61.535.286.465.787.931 1.287 1.145.322-.393.285-.893.428-1.357zm-98.098 1.88a.8.8 0 0 0-.225.05c-.5.143-1.143.322-1.428.75.285.715.392 1.5 1.035 2.035.43.25.893-.07 1.25-.25.357-.464.036-1.07.036-1.642-.157-.344-.204-.962-.668-.944m93.633.37c.286.071.57.144.785.358-.464.464-.821 1.143-1 1.857.964 1.25 2.536 1.464 3.857 2.143.5 0 1.106.322 1.463-.285.036.893-.64 1.642-.89 2.535-.18-.036-.108-.393-.215-.572-1.428-1.035-2.928-1.715-4.5-2.286-.393.035-.643.428-.75.785 0 .393-.216.645-.18 1.038l-.893-.393c1.036-1.571 1.573-3.466 2.323-5.18m-90.631 5.344c.2.004.416.032.595.014.892 1.75 1.928 3.463 2.928 5.142-.25.178-.393.359-.607.573-.357-.678-.786-1.465-1.32-2.108-1.5.321-2.716 1.287-3.966 2.108-.143.322-.715.535-.43.963-.535-.535-.785-1.321-1.142-2 .75.143 1.429-.357 2.108-.678.82-.68 1.929-.965 2.607-1.858-.25-.75-.572-1.464-1.287-2.035.125-.107.313-.125.514-.12m107.31.514c-.214-.036-.25.215-.286.322-.25.893-.892 1.714-.927 2.535.214-.286.57-.536.927-.607l3.428 1.287c1.75 1.071 4 1.14 5.535 2.463l-.177.178c-3.322 1.108-6.75 2.359-9.963 3.287l.035.035c-1.357.357-2.643.894-4 1.215-.321.143-.644.464-.608.857a39 39 0 0 0 4.25 2.07l-.037.073c2.68 1.357 5.537 2.357 8.073 4 .25.393 0 .857 0 1.25h.287c.464-1.143 1.357-2.108 1.785-3.287-.428 0-.5.679-1 .572-1.75-.572-3.322-1.5-4.965-2.25-1.107-.607-2.5-.963-3.43-1.928l.11-.107c4.32-1.678 8.392-2.787 12.785-4.287 1.179-1.035 1.393-2.642 1.965-4l-.11-.106c-.678.893-1.57 1.75-2.785 1.535-2.857-1.143-5.714-2.214-8.535-3.43-.75-.677-2.322-.391-2.358-1.677zm-19.428.5.285.465c1.536.893 3.071 1.713 4.68 2.392.25-.07.463-.178.75-.142-.287.5-.395 1.107-.86 1.572-1.392-1.286-3.249-1.894-4.89-2.86l-.68.073c.107-.572.43-1.036.715-1.5m-.96 3.488c.25.006.52.065.815.19l.215.359c.357.642-.215 1.607.535 2 1.393.357 2.859-.11 3.93-.645-.964 1.678-3.106 1.75-4.785 1.786-.285.322-.822.643-.786 1.18.678.32 1.535 1.642 2.57 1.07a20 20 0 0 1-1.25 1.75c-.142-1.25-1.606-1.642-2.392-2.5l-1.893-1.356c-.32.036-.43-.037-.68.07v-.214c1.22-1.156 1.973-3.733 3.722-3.69m-103.36.69c-.25.143-.106.465-.142.75-3.357 1.858-6.858 3.429-10.18 5.25-.25.143-.75.464-.928-.036-.357-1.322-2.072-2.536-1.107-4-.715.107-1.428.572-2.106.858l-.072.213c1.893 3.714 3.786 7.43 5.75 11.107.822-.25 1.642-.714 2.285-1.143-.357.108-.605-.143-.927-.215-1-1.178-1.43-2.57-2.18-3.892l.18-.358c3.465-1.643 6.855-3.606 10.32-5.177.357.07.57.785 1 .535v-.285c-.715-1.143-1.25-2.393-1.893-3.608zm102.64.322c-.714.428-1.356 1.215-1.642 2.037.321.607 1.07.999 1.643 1.14.678-.677 1.428-1.57 1.107-2.57-.214-.357-.643-.68-1.107-.607m-81.75 1.072c1.25 1.215 2.145 2.856 3.395 4.178-.072.464-.644.607-.894.857.25-1.036-1-2-1.678-2.892-.643-.536-1.107.428-1.643.642-.107.036-.071.179-.107.32.464.466.713 1.394 1.463 1.5-.214.323-.571.501-.928.68-.072-.643-.607-1.215-1.072-1.715-.678-.036-1.14.645-1.606 1.073-.035 1.25 1.286 2.035 2.143 2.892l.285.036-.035.035c.214.072.393.18.607.144a1.8 1.8 0 0 1-.894.143c-.214.107-.463.106-.713.142-1.036-1.57-2.322-2.786-3.215-4.464.786.393 1.572-.393 2.215-.786.893-.643 1.856-1.428 2.678-2.32zm77.286 3.57a1.85 1.85 0 0 1 1.072.786c-.714-.25-1.322.18-1.822.644-.428.357-.678.786-.75 1.25.322.536.93 1.178 1.394 1.356.286-.321 1.106-.75 1.106-1.463a2.03 2.03 0 0 1 .894.75c-.607.179-1 .606-1.285 1.142-.143.714.784 1.107 1.213 1.5 1-.036 1.394-1.143 2.072-1.714.18-.322.249-.75.356-1.143 1.358 1.57-1.142 2.25-1.57 3.393-.537.428-.821.857-1.393 1.25.179-1.215-1.144-1.643-1.608-2.465-.964-.714-1.5-1.821-2.68-2.035zM60.2 130.821c1.572-.142 2.498 1.43 3.105 2.609.286.75-.642.857-.928 1.285.107-.678.286-1.536-.107-2.215-.286-.464-.785-.714-1.285-.857-.286.107-.608.215-.715.572-.107 1.536 1.178 3.572-.465 4.715-1.464.571-2.5-.68-3.32-1.68l-.393-1.357c.322-.25.643-.535 1-.678-.536.715-.037 1.572.213 2.215.5.464.965.964 1.715.678 1.643-1.536-1.463-4.215 1.18-5.287m68.143.93c-.071 2.463 1.107 4.749 1.322 7.285-2-.786-3.822-1.893-5.75-2.75l-.895.035c.5-.428 1.18-1.177 1.895-1.463 0 .179-.25.43 0 .572 1.142.607 2.283 1.5 3.605 1.785.285-.428-.07-1-.105-1.5-.25-.964-.322-2.251-1.322-2.644.179-.464.822-.892 1.25-1.32m-63.715 5.107c.393-.036.75.072 1 .357.286.286.215.856.072 1.178-.214.32-.644.393-1.072.357-.357-.214-.537-.607-.608-1-.036-.357.215-.82.608-.892m6.804 1.656q.261.015.518.057c.929.25 1.749 1.108 2.428 1.822-.143.5-.428 1-.713 1.357.07-1.107-.394-1.965-1.323-2.465-.286-.179-.75-.179-1.037 0-.392.214-.32.752-.177 1.073.714 1.214 1.82 2.464 1.427 4-.5.822-1.606.642-2.427.535-1-.322-2-1.287-2.323-2.358.108-.357.393-.679.715-1 0 1.107.501 2.251 1.572 2.715.25.18.714.18 1-.035.572-.393.285-1.071.213-1.607-.82-1.036-1.75-2.252-1.25-3.573.349-.455.858-.548 1.377-.521m51.16.379c.322.07.75.072 1 .465.072.464-.106.786-.392 1.072-.25.178-.645.178-.93.035-.429-.25-.356-.787-.285-1.18.214-.072.321-.428.607-.392m-5.787.965c1.5.893 3.037 2.143 4.68 3.072.393.321.856.533 1.392.355-.536.5-1.213 1.145-2.035 1.18l-.107.178c.25-.5-.106-.999-.535-1.213-1 .392-2.216.714-2.895 1.535-.107.465.18.892.5 1.07-.535.214-1.033.573-1.605.68l.32-.572c.143-2.286-.107-4.213.285-6.285m-3.928 1.463c-.679 1.322.43 2.609.715 3.859.393.678.463 1.857 1.463 2.035-.607.393-1.357.606-2 1.035-.107-.143.143-.32.215-.5-.607-1.82-1.035-3.535-1.785-5.285l-.5-.394a4.9 4.9 0 0 1 1.892-.75m4.538.394c-.286.572-.11 1.141-.145 1.82.571.535 1.25-.427 1.785-.677-.357-.536-.998-1.036-1.64-1.143m-38.914.17c1.202.015 2.394.596 3.304 1.4-.107.357-.213.715-.427 1.036-.18-.964-1.179-1.608-2.036-1.786-.964-.215-1.786.535-2.357 1.25-.357.643-.57 1.537-.32 2.323a2.46 2.46 0 0 0 1.64 1.607c.822.072 1.68-.178 2.215-1h.18c-.035.572-.322 1.107-.608 1.5-.928.393-2 .214-2.892-.144-.928-.642-1.607-1.571-1.785-2.678-.143-1.5.748-2.643 1.89-3.322a3.6 3.6 0 0 1 1.195-.186zm31.234.4c.286.321.25.787.43 1.18-.644-.464-1.501-.143-2.073.215-.357.357-.036.891 0 1.32.322 1.214.392 2.536.963 3.643.108.25.394.428.68.357-.071.321-.5.214-.75.32-.571 0-1 .25-1.608.215.428-.25.643-.927.393-1.427l-.893-3.678c-.393-.5-.964-.25-1.5-.215-.393.107-.893.214-1 .678-.286-.322-.143-.75-.107-1.143a76 76 0 0 0 4.894-1.25 1.6 1.6 0 0 1 .57-.214m-25.25 1.215 2.107.393c-.178.214-.643.465-.678.787-.393 1.642-.86 3.213-.894 4.963l.5.465c-.643-.036-1.499-.214-2.356-.393.928-.75.928-2.072 1.285-3.144.072-1 .786-2.178.036-3.07m18.715.68c-.357.25-.144.75-.286 1.07.142 1.893.356 3.464.356 5.32v.073h-.356c-1.429-1.607-2.965-3.143-4.43-4.643l-.284.285c.25 1.607-.645 3.536.927 4.536-.572 0-1.428.18-2.142.037.32-.178.571-.393.68-.75 0-1.536 0-3.144-.215-4.608-.25-.536-.86-.321-1.18-.607 1.143-.036 1.821-.464 2.857-.072 1 1.036 1.893 2.179 3 3.072.214 0 .322-.249.287-.463-.143-1 .179-2.18-.714-2.86l-.215-.105c.57-.107 1.107-.285 1.714-.285zm-14.072.035c1.607.215 3.177.5 4.892.465l-.035.035c.393-.07.322.357.43.643-.143.214.034.534-.18.677-.536-1.357-2.286-.82-3.393-1.035-.607.43-.427 1.357-.427 2 .785.214 1.855.572 2.605.108.143.464-.034.893-.07 1.322-.678-.715-1.607-.572-2.535-.572-.322.536-.394 1.428-.18 1.963l.357.287c1.357.25 3.073.641 4.108-.573-.035.428-.536.964-.858 1.5-1.714-.036-3.642-.356-5.427-.392.428-.18.89-.75.855-1.322.035-1.678.572-3.179.215-4.786zm25.572 14.57a2.95 2.95 0 0 1-1.145.715c-1.714-.036-3.57-.036-4.89.892-.716.464-1.323 1.287-2.18 1.358-.286.857-.358 1.821-.608 2.607.428-.964 1.358-1.642 2.358-1.927 1.57-.25 3.107-.322 4.5-1 .429.535-.287 1.141-.465 1.677-.643 2.214-1.68 4.322-1.75 6.75.07 1.572.18 3.142 1.43 4.178.857-.215 1.498-.965 2.105-1.643-1-.214-.82-1.393-1.105-2.107-.428-3.822.322-8.072 1.75-11.5m-37.072.572c-1.214.643-2.358 1.43-3.573 2v.143c.25-.036.61.035.86.285-.858 3.357-1.609 6.75-2.68 10.035-.143.536-.714.5-1.107.572v.108c1.214.464 2.607.68 3.857.965-.143-.393-.75-.465-.715-.965l2.965-11c.429-.536.32-1.356.5-2.035zm9.865 1.604c-1.59 0-3.14.61-4.078 1.86-.358.857-.394 2.179.32 2.822.393.57 1.035 1.071 1.32 1.714-1.392.714-3.177.75-4.177 2.213-.536 1.143-.429 2.68.357 3.715.571.535 1.036 1.107 1.75 1.357 1.643 1.143 4.357 1.857 6.393 1.143 1-.429 1.965-1.25 2.322-2.25.465-2.179-1.109-3.892-2.645-5.178.143-.607.859-.463 1.323-.642 1-.643 2.57-1.252 2.392-2.823.107-1.5-1.429-2.642-2.5-3.285a6.24 6.24 0 0 0-2.777-.646m12.998.344c-.106-.034-.265.015-.506.193-.571.714-1.608 1.393-2.18 2.107.358.107.68.215.965.537.464 3.178.394 6.75.715 10.035l-.108.715c-.107.321-.464.606-.822.535v.178c1.393-.036 2.824-.106 4.11-.32-.393.07-.715-.251-.965-.537-.285-4-.608-8.178-.858-12.178-.187-.321-.033-1.165-.351-1.266zm-12.61.505c1.062-.004 1.903.698 2.497 1.51.393.608.465 1.36.287 2.11-.393 1.035-1.5 1.57-2.465 1.82-1.214.214-2.072-1-2.644-1.93-.214-.75-.356-1.677.11-2.32.427-.571 1-1.107 1.75-1.143q.239-.045.466-.047m-2.038 6.475.677.215c1.285 1.107 2.857 2.357 2.75 4.25-.072.893-.605 1.787-1.427 2.215-1.428.357-2.608-.18-3.858-.645-1.07-.964-1.213-2.428-.785-3.785.393-1.25 1.536-1.822 2.643-2.25"/></g></svg>