<svg xmlns="http://www.w3.org/2000/svg" xml:space="preserve" width="120.187" height="123.361" viewBox="0 0 120.187 123.361"><defs><clipPath id="a" clipPathUnits="userSpaceOnUse"><path d="M0 0h792v1224H0Z"/></clipPath><clipPath id="b" clipPathUnits="userSpaceOnUse"><path d="M0 0h792v1224H0Z"/></clipPath><clipPath id="c" clipPathUnits="userSpaceOnUse"><path d="M0 0h792v1224H0Z"/></clipPath><clipPath id="d" clipPathUnits="userSpaceOnUse"><path d="M0 0h792v1224H0Z"/></clipPath><clipPath id="e" clipPathUnits="userSpaceOnUse"><path d="M0 0h792v1224H0Z"/></clipPath><clipPath id="f" clipPathUnits="userSpaceOnUse"><path d="M0 0h792v1224H0Z"/></clipPath><clipPath id="g" clipPathUnits="userSpaceOnUse"><path d="M0 0h792v1224H0Z"/></clipPath></defs><g clip-path="url(#a)" transform="matrix(1.33333 0 0 -1.33333 -398.35 1402.313)"><path d="M0 0c0 .094.007.434 0 1.005-.008.247-.037.406-.174.406-.065 0-.173-.022-.29-.059l-.506-.166c-.028-.007-.057-.007-.07.022l-.058.13c-.015.029-.009.058.043.088l1.496.86c.035.021.065.043.102.043.043 0 .05-.043.05-.102 0-.064-.022-1.2-.022-2.133v-.303l.008-1.714c.007-.376.037-.427.504-.427h.261c.052 0 .073-.022.073-.057v-.167c0-.044-.015-.058-.065-.058-.065 0-1.048.022-1.113.022s-1.085-.022-1.122-.022-.057.014-.057.058v.18c0 .037.044.044.1.044h.334c.469 0 .483.022.498.405C0-1.851 0-.391 0-.26Z" style="fill:#231f20;fill-opacity:1;fill-rule:nonzero;stroke:none" transform="translate(339.12 1035.065)"/><path d="M0 0c0 .621.326.99.94 1.388-.541.304-.99.68-.99 1.236 0 .63.521 1.389 1.548 1.389.666 0 1.23-.455 1.23-.933 0-.686-.232-1.005-.998-1.54.577-.275 1.018-.644 1.018-1.301 0-.564-.549-1.273-1.422-1.273C.332-1.034 0-.462 0 0m2.227.094c0 .585-.477.853-1.047 1.156C.716.99.456.571.456.115c0-.629.492-.904.911-.904.521 0 .86.282.86.883M.514 2.798c0-.521.339-.73.975-1.106.356.225.731.651.761 1.134.02.53-.369.891-.869.891-.511 0-.867-.413-.867-.919" style="fill:#231f20;fill-opacity:1;fill-rule:nonzero;stroke:none" transform="translate(340.792 1033.38)"/><path d="M0 0c0 .621.327.99.94 1.388-.543.304-.99.68-.99 1.236 0 .63.521 1.389 1.548 1.389.666 0 1.23-.455 1.23-.933 0-.686-.232-1.005-1-1.54.579-.275 1.02-.644 1.02-1.301 0-.564-.549-1.273-1.424-1.273C.334-1.034 0-.462 0 0m2.227.094c0 .585-.477.853-1.048 1.156C.716.99.456.571.456.115c0-.629.492-.904.911-.904.521 0 .86.282.86.883M.514 2.798c0-.521.339-.73.975-1.106.356.225.731.651.76 1.134.023.53-.368.891-.868.891-.511 0-.867-.413-.867-.919" style="fill:#231f20;fill-opacity:1;fill-rule:nonzero;stroke:none" transform="translate(344.12 1033.38)"/><path d="M0 0c0 1.656.688 2.77 1.613 2.77 1.063 0 1.554-1.382 1.554-2.481 0-1.656-.614-2.567-1.548-2.567C.447-2.278 0-.876 0 0m2.322-1.504c.159.347.224.896.224 1.952 0 1.063-.361 2.061-.977 2.061-.282 0-.486-.108-.651-.434C.658 1.569.629.723.629.123c0-.687.087-1.194.247-1.525.224-.479.498-.616.752-.616.223 0 .499.086.694.514" style="fill:#231f20;fill-opacity:1;fill-rule:nonzero;stroke:none" transform="translate(347.265 1034.625)"/></g><path d="m0 0-1.132 1.94 1.299.095.18-.306-.913-.066.321-.551.799.06L.73.871l-.8-.058L.386.03Z" style="fill:#231f20;fill-opacity:1;fill-rule:nonzero;stroke:none" transform="matrix(1.33333 0 0 -1.33333 78.433 113.223)"/><path d="m0 0-1.299-.271-1.088 1.874 1.295.27.172-.295-.925-.194.287-.493.82.171.167-.291-.818-.17.291-.499.926.193z" style="fill:#231f20;fill-opacity:1;fill-rule:nonzero;stroke:none" transform="matrix(1.33333 0 0 -1.33333 83.412 112.604)"/><g clip-path="url(#b)" transform="matrix(1.33333 0 0 -1.33333 -398.35 1402.313)"><path d="M0 0a.4.4 0 0 0-.172.15l-.219.286c-.143.183-.255.187-.42.127l-.222-.082.345-.735-.327-.122-.89 1.888.656.244c.413.152.715.06.893-.317.137-.296.03-.519-.19-.624l.002-.007c.182.037.31-.005.45-.18L.17.297A.6.6 0 0 1 .359.133Zm-1.165.763.31.115c.206.075.266.204.171.406-.087.185-.236.255-.445.177l-.31-.116z" style="fill:#231f20;fill-opacity:1;fill-rule:nonzero;stroke:none" transform="translate(363.376 967.962)"/><path d="m0 0-.568-.31.157-.548-.267-.147-.617 2.187.33.18L.69-.259.412-.411zm-.668.017.419.228-.304.306c-.26.257-.417.452-.417.452L-.98.998S-.888.77-.788.426z" style="fill:#231f20;fill-opacity:1;fill-rule:nonzero;stroke:none" transform="translate(365.22 969.582)"/></g><path d="m0 0-1.063 1.508-.353-.326-.198.284.931.856.199-.282-.357-.327L.222.205Z" style="fill:#231f20;fill-opacity:1;fill-rule:nonzero;stroke:none" transform="matrix(1.33333 0 0 -1.33333 90.913 108.698)"/><g clip-path="url(#c)" transform="matrix(1.33333 0 0 -1.33333 -398.35 1402.313)"><path d="M0 0c-.466.19-.616.509-.594.841-.401.268-.513.737-.267 1.309.283.665.791.887 1.352.648.557-.239.751-.76.467-1.422C.703.775.262.536-.232.675-.154.482.03.342.239.272Zm-.484 1.987c-.19-.446-.129-.795.225-.945.354-.152.653.045.842.489.192.449.125.8-.229.95-.351.148-.648-.047-.838-.494" style="fill:#231f20;fill-opacity:1;fill-rule:nonzero;stroke:none" transform="translate(334.786 962.8)"/><path d="m0 0-.431-1.382c-.167-.543-.614-.6-1.038-.468-.419.131-.756.431-.588.974l.429 1.382.374-.115-.397-1.282c-.109-.348-.02-.558.277-.651.301-.094.493.031.599.375L-.374.117z" style="fill:#231f20;fill-opacity:1;fill-rule:nonzero;stroke:none" transform="translate(338.306 964.483)"/></g><path d="m0 0 .382-.087.472 2.107-.383.085Z" style="fill:#231f20;fill-opacity:1;fill-rule:nonzero;stroke:none" transform="matrix(1.33333 0 0 -1.33333 53.006 119.349)"/><g clip-path="url(#d)" transform="matrix(1.33333 0 0 -1.33333 -398.35 1402.313)"><path d="m0 0-.332.685c-.109.222-.144.367-.144.367l-.015.002s.015-.129 0-.383L-.558-.486l-.39.024.125 2.155.427-.025.428-.935C.115.548.139.448.139.448L.154.446s.031.097.14.27l.529.88.416-.023-.124-2.156-.392.024L.79.596C.805.85.831.977.831.977H.816S.768.837.633.628L.227-.013Z" style="fill:#231f20;fill-opacity:1;fill-rule:nonzero;stroke:none" transform="translate(341.904 962.236)"/></g><path d="m0 0-1.369-.043-.07 2.157 1.371.043.011-.341-.98-.03.019-.567.864.026.012-.334-.865-.026.017-.574.978.03z" style="fill:#231f20;fill-opacity:1;fill-rule:nonzero;stroke:none" transform="matrix(1.33333 0 0 -1.33333 62.099 120.008)"/><g clip-path="url(#e)" transform="matrix(1.33333 0 0 -1.33333 -398.35 1402.313)"><path d="M0 0a.37.37 0 0 0-.122.199L-.24.544c-.081.224-.197.257-.391.239L-.893.756l.08-.834-.389-.037-.209 2.147.777.075c.489.048.771-.124.811-.554.033-.336-.164-.535-.436-.585V.962C-.055.952.063.875.142.663l.15-.406A.6.6 0 0 1 .426.042Zm-.925 1.079.367.035c.246.023.356.136.336.367-.023.212-.15.32-.399.297l-.367-.037Z" style="fill:#231f20;fill-opacity:1;fill-rule:nonzero;stroke:none" transform="translate(347.338 961.89)"/><path d="m0 0 .297-1.417c.117-.556-.245-.823-.679-.914-.431-.09-.87.009-.987.563l-.299 1.417.384.081.276-1.313c.075-.355.255-.497.559-.434.309.067.416.267.342.62L-.384-.082z" style="fill:#231f20;fill-opacity:1;fill-rule:nonzero;stroke:none" transform="translate(349.699 964.497)"/></g><path d="m0 0 .696-2.042-.37-.127-.697 2.044z" style="fill:#231f20;fill-opacity:1;fill-rule:nonzero;stroke:none" transform="matrix(1.33333 0 0 -1.33333 69.266 115.865)"/><path d="m0 0-.763 1.649-.558-.257-.143.311 1.477.681.144-.311-.566-.26.76-1.651Z" style="fill:#231f20;fill-opacity:1;fill-rule:nonzero;stroke:none" transform="matrix(1.33333 0 0 -1.33333 71.828 117.931)"/><g clip-path="url(#f)" transform="matrix(1.33333 0 0 -1.33333 -398.35 1402.313)"><path d="m0 0 1.638 1.644.32-.519c.249-.404.167-.766-.163-1.098-.333-.336-.66-.353-.882.005L.756.284.182-.294Zm1.002.529.135-.218c.13-.212.284-.174.459.001q.284.288.108.573l-.133.217Z" style="fill:#231f20;fill-opacity:1;fill-rule:nonzero;stroke:none" transform="translate(318.617 971.689)"/><path d="m0 0-.593.566-.475-.257-.281.269L.566 1.586l.346-.331L.075-.788l-.29.277Zm-.309.724L.127.307l.162.376c.133.322.254.524.254.524l-.01.008S.346 1.082.048.918z" style="fill:#231f20;fill-opacity:1;fill-rule:nonzero;stroke:none" transform="translate(321.026 969.897)"/></g><path d="m0 0-1.13-1.439.654-.449-.212-.271-.931.64L-.279.19z" style="fill:#231f20;fill-opacity:1;fill-rule:nonzero;stroke:none" transform="matrix(1.33333 0 0 -1.33333 32.666 108.803)"/><g clip-path="url(#g)" transform="matrix(1.33333 0 0 -1.33333 -398.35 1402.313)"><path d="m0 0 .035.718c.012.235.05.379.05.379L.074 1.1S.023.977-.108.743L-.719-.324l-.333.114L.085 1.78l.364-.126L.377.68A1.6 1.6 0 0 0 .336.386L.349.382s.073.084.254.221l.879.699.356-.12L.701-.808l-.332.114L.978.372c.134.234.217.346.217.346l-.013.005S1.073.603.856.439L.194-.067Z" style="fill:#231f20;fill-opacity:1;fill-rule:nonzero;stroke:none" transform="translate(324.392 967.876)"/><path d="m0 0-.786.018-.409-.502-.369.008L.082 1.528l.457-.012L.324-.521l-.384.01Zm-.546.322L.033.309.08.688c.037.322.097.549.097.549l-.012.002s-.15-.222-.404-.54z" style="fill:#231f20;fill-opacity:1;fill-rule:nonzero;stroke:none" transform="translate(327.457 967.278)"/><path d="m0 0-.047.608c-.016.198.005.33.005.33L-.055.937S-.09.818-.199.581L-.7-.501l-.355-.013.935 2.017.387.015.04-.833C.315.521.299.429.299.429l.013.002s.067.092.234.264l.823.866.377.013L.811-.442.457-.456.958.626c.11.237.182.357.182.357h-.011S1.028.848.826.641L.204.008Z" style="fill:#231f20;fill-opacity:1;fill-rule:nonzero;stroke:none" transform="translate(329.497 967.278)"/><path d="M0 0c-.594-.099-1.519.138-2.207.94a2.82 2.82 0 0 0-.658 1.806c-.021 1.002.429 1.578.892 1.973.345.296.856.611 1.602.62a2.79 2.79 0 0 0 2.159-1c.344-.401.574-.927.618-1.556.046-.732-.162-1.48-.92-2.13C1.217.423.663.102 0 0m1.287 3.835c-1.028 1.203-2.494 1.178-3.103.656-.084-.07-.513-.324-.593-1.067-.065-.668.229-1.377.614-1.828C-.559.15.885.5 1.352.9c1.209 1.035.352 2.445-.065 2.935" style="fill:#231f20;fill-opacity:1;fill-rule:nonzero;stroke:none" transform="translate(319.236 1034.342)"/><path d="M0 0c-.172.269-.733 1.12-.778 1.194-.073.115-.199.121-.364.016l-.354-.225c-.023-.015-.05-.015-.065.01l-.105.164c-.015.025-.005.05.018.065.037.023.115.063.256.153.143.083.355.209.647.396.104.067 2.248 1.424 2.326 1.517.085-.091.793-.798.937-.929.02-.021.021-.037.015-.052l-.084-.112c-.013-.018-.035-.013-.075.012a10 10 0 0 1-.748.312.9.9 0 0 1-.609.015C.84 2.474-.14 1.875-.324 1.758-.274 1.679.503.449.74.078l.193-.305c.085.053.715.48.78.539.118.11.162.215.097.439-.02.073-.077.217-.131.337-.008.029-.008.055.017.071l.125.071c.025.015.049.005.064-.019.055-.111.377-.617.432-.704.14-.218.344-.5.434-.614.02-.03.015-.05-.011-.075l-.101-.099c-.025-.025-.045-.011-.07.015a4 4 0 0 1-.257.257c-.135.119-.257.146-.402.078-.309-.146-.755-.43-.853-.492l.145-.226c.115-.183.775-1.203.835-1.294.103-.166.153-.176.362-.044l.297.191q.054.034.079-.002l.096-.153c.024-.037.02-.056-.016-.08-.062-.039-.317-.176-.842-.51-.475-.302-.696-.469-.786-.527q-.036-.026-.067.018l-.103.165c-.015.025 0 .043.023.058l.276.175c.158.101.192.157.126.271-.065.129-.542.905-1.21 1.954z" style="fill:#231f20;fill-opacity:1;fill-rule:nonzero;stroke:none" transform="translate(322.048 1040.216)"/><path d="M0 0c-.103.026-.152.029-.185.016-.04-.017-.047-.074-.06-.158-.01-.091-.04-.111-.087-.131-.04-.017-.085.003-.104.082-.043.178-.33 1.053-.392 1.255-.01.044.005.049.03.059l.104.036c.026.01.045.004.061-.036.097-.211.202-.426.565-.674.33-.23.772-.257 1.14-.103.4.167.804.626.554 1.226-.287.688-.888.734-1.499.698-.239-.012-.788-.046-1.2.134-.313.128-.558.395-.742.836-.14.333-.07.747.057 1.026.145.327.441.56.8.711.38.159.721.167.856.162.077-.008.107.012.125.06l.054.116c.023.04.036.063.07.076.033.015.077-.031.102-.091.097-.232.467-.877.536-1.022.015-.033.013-.05-.012-.067l-.072-.053q-.025-.022-.048.003c-.134.17-.331.395-.723.568-.262.118-.533.113-.847-.017-.594-.249-.624-.778-.48-1.119.076-.187.208-.39.447-.494.277-.113.711-.103.93-.082.521.045.942.088 1.305-.105.259-.135.49-.345.673-.785.329-.787.13-1.662-.749-2.031C.74-.099.354-.095 0 0" style="fill:#231f20;fill-opacity:1;fill-rule:nonzero;stroke:none" transform="translate(329.323 1040.906)"/><path d="M0 0c-.574.17-1.305.787-1.574 1.808a2.83 2.83 0 0 0 .195 1.912C-.96 4.631-.304 4.952.284 5.107a2.43 2.43 0 0 0 1.713-.142 2.79 2.79 0 0 0 1.506-1.841 2.65 2.65 0 0 0-.122-1.669C3.102.777 2.589.193 1.624-.06A3.2 3.2 0 0 0 0 0m2.831 2.889c-.4 1.533-1.729 2.149-2.505 1.945-.106-.028-.603-.069-.999-.704-.352-.57-.395-1.338-.245-1.911C-.434.38 1.017.064 1.611.221c1.538.404 1.384 2.045 1.22 2.668" style="fill:#231f20;fill-opacity:1;fill-rule:nonzero;stroke:none" transform="translate(333.403 1042.629)"/><path d="M0 0c-.511.137-.8.422-.968.861-.124.314-.209.792-.319 1.733l-.2 1.71c-.031.252-.092.36-.316.335l-.337-.04c-.045-.005-.052.009-.059.059l-.018.158c-.003.044.002.059.058.065.072.009.428.029.987.094.561.065.903.127.982.135.056.008.065-.006.07-.035l.022-.185c.003-.037-.004-.052-.052-.058l-.359-.042c-.209-.024-.316-.176-.312-.335.001-.065.053-.569.095-.936l.057-.474c.043-.381.18-1.289.213-1.519.047-.329.142-.66.336-.885C.192.284.668.209 1.083.257c.411.049.812.234 1.032.521.246.335.287.776.227 1.309L2.16 3.624c-.063.546-.127.96-.168 1.139-.044.184-.176.299-.359.277l-.319-.037c-.042-.005-.052.016-.055.052l-.02.172c-.005.037 0 .051.043.057.072.008.406.027.887.082.497.058.722.106.786.113.065.009.075-.02.078-.042l.019-.157c.005-.044.001-.073-.035-.078l-.292-.033c-.268-.032-.266-.236-.278-.324-.006-.074.114-1.095.126-1.195s.143-1.359.155-1.642c.027-.594-.079-1.065-.441-1.457C2.032.252 1.613.035.988-.038.614-.082.249-.073 0 0" style="fill:#231f20;fill-opacity:1;fill-rule:nonzero;stroke:none" transform="translate(339.361 1043.643)"/><path d="m0 0-.18.01c-.232.012-.862.045-1.147-.027-.331-.085-.571-.578-.686-.804-.015-.036-.039-.042-.074-.032l-.128.042c-.022.008-.044.016-.025.059.085.256.385 1.176.404 1.254.02.092.05.112.08.112a.12.12 0 0 0 .083-.035l.09-.07c.126-.1.197-.125.404-.143C-.796.332-.492.287.185.252L.533.234c.788-.042 1.1-.028 1.454-.032a.7.7 0 0 1 .382.082l.14.079c.038.02.06.026.089.024.036-.001.05-.023.058-.118.012-.089.1-.99.144-1.311.003-.036-.01-.051-.047-.056l-.119-.022c-.028-.007-.036.002-.055.053-.05.14-.239.706-.47.835-.211.12-.89.17-1.244.188l-.202.011-.105-2.059C.551-2.194.446-4.216.447-4.339c.005-.182.057-.293.231-.302l.454-.023c.067-.004.072-.025.07-.076l-.008-.151c-.002-.036-.01-.058-.074-.055-.073.005-.304.037-1.013.075-.691.036-.997.03-1.097.035-.058.002-.063.031-.063.075l.008.137c.002.051.012.072.055.07l.489-.025c.145-.007.237.074.249.162.032.207.148 2.425.155 2.562z" style="fill:#231f20;fill-opacity:1;fill-rule:nonzero;stroke:none" transform="translate(345.365 1048.733)"/><path d="M0 0c.093.44.285 1.396.309 1.511.077.36.05.469-.214.525l-.332.071c-.035.009-.04.024-.03.067l.037.169c.006.036.031.044.066.038.142-.03.364-.101.987-.234.551-.119.81-.152.945-.18.05-.011.068-.023.063-.052l-.04-.184c-.01-.042-.028-.053-.068-.043l-.361.077c-.242.051-.302-.061-.364-.344-.02-.1-.235-1.03-.319-1.426l-.026-.12C.646-.16.663-.187.726-.199l2.618-.562c.103-.023.142-.016.162.076l.015.071c.088.403.275 1.39.297 1.475.047.227.048.366-.157.411l-.369.079c-.033.007-.047.024-.038.06l.038.183c.007.029.017.041.053.034.147-.03.448-.119.929-.222.481-.102.776-.142.908-.172.05-.01.055-.026.045-.069l-.035-.17C5.18.953 5.165.948 5.122.957l-.316.07c-.205.043-.252-.072-.307-.328-.022-.098-.292-1.29-.349-1.552l-.05-.241a313 313 0 0 1-.402-1.977c-.055-.255-.005-.368.207-.414l.31-.067c.05-.01.062-.027.054-.062l-.035-.171c-.01-.043-.027-.053-.07-.043-.132.028-.369.102-.887.212-.614.132-.846.159-1.058.204-.029.006-.037.03-.032.058l.038.177c.007.037.025.047.065.038l.446-.095c.172-.037.221.092.262.283.08.332.336 1.467.391 1.721l.022.1c.016.077-.017.092-.136.118L.684-.458c-.076.017-.101.002-.113-.05l-.03-.146C.499-.846.272-1.937.174-2.433c-.03-.171.026-.257.173-.288l.347-.075c.042-.01.054-.026.047-.062l-.038-.177C.696-3.07.678-3.081.636-3.072c-.135.029-.377.103-.886.212-.608.131-.827.155-.989.191q-.05.007-.04.058l.04.184c.007.03.032.038.06.031l.418-.087c.175-.04.232.127.268.296.079.331.388 1.699.428 1.883z" style="fill:#231f20;fill-opacity:1;fill-rule:nonzero;stroke:none" transform="translate(349.538 1046.42)"/><path d="M0 0c.055-.021.786-.271.873-.29.207-.041.284-.008.426.177.045.061.125.186.18.311.013.033.039.038.065.028l.167-.071c.034-.014.037-.046.019-.071-.064-.106-.278-.659-.318-.761a10 10 0 0 1-.23-.718c-.012-.033-.032-.041-.06-.038l-.157.037c-.035.006-.042.033-.03.081.018.094.04.265.048.348.015.157-.021.287-.188.374-.306.157-.77.337-.878.378l-.162-.418c-.141-.365-.381-1.025-.431-1.16-.13-.354-.013-.553.18-.675.124-.079.312-.175.481-.24.115-.044.456-.167.603-.209.12-.03.445-.071.676.01.108.036.674.375.829.495.034.026.064.045.097.009l.084-.102c.026-.033.018-.054-.022-.1l-.743-.854c-.042-.053-.107-.076-.187-.044-.033.013-.178.077-.581.24-.405.156-1.058.416-2.11.822-.25.096-.442.163-.576.215-.145.048-.235.075-.297.098-.04.016-.055.037-.042.072l.072.182c.01.027.032.025.08.007l.269-.104c.312-.12.356-.083.452.167l.616 1.6.257.661c.216.56.528 1.409.546 1.479.057.226.009.3-.242.395l-.242.095c-.033.012-.05.027-.035.067l.069.184c.01.019.026.027.061.015.149-.058.376-.169.823-.341l.296-.115c.669-.258 1.34-.509 2.008-.768.107-.041.242-.076.276-.09.033-.013.041-.031.04-.055-.01-.105-.07-1.143-.075-1.219-.004-.03-.01-.05-.044-.053L2.821.036c-.025-.006-.045.025-.046.042-.004.031-.254.865-.378 1.03a1.15 1.15 0 0 1-.442.38l-1.19.49z" style="fill:#231f20;fill-opacity:1;fill-rule:nonzero;stroke:none" transform="translate(356.916 1044.445)"/><path d="M0 0c.257.469.481.875.576 1.062.108.212.093.362-.067.449l-.252.14c-.033.018-.028.04-.013.064l.085.16c.02.031.033.04.065.022.055-.031.242-.157.773-.451.355-.196.955-.501 1.068-.565.526-.288.858-.678.974-1.039.096-.317.06-.668-.069-.903-.437-.792-.963-.891-1.871-.62l-.007-.013a.75.75 0 0 0 .16-.402c.03-.124.124-1.019.127-1.128-.001-.082.085-.881.157-1.036.082-.168.219-.262.397-.359.045-.024.037-.054.024-.079l-.077-.139c-.022-.038-.04-.053-.082-.029-.051.028-.205.137-.484.292-.183.1-.426.217-.524.263-.035.102-.057.394-.067.507-.008.105-.02.895-.023.963 0 .058-.054.682-.08.813-.057.287-.114.541-.483.744-.057.031-.12.065-.219.095l-.197-.355a80 80 0 0 1-.636-1.184c-.058-.14-.071-.282.024-.335l.399-.219c.045-.025.04-.047.021-.079l-.075-.14c-.026-.044-.04-.052-.101-.018-.071.038-.217.145-.82.476-.576.319-.735.379-.802.417-.051.028-.041.047-.023.079l.079.146c.02.032.03.05.06.034l.26-.144c.14-.078.272-.092.366.079.357.62.688 1.217 1.018 1.818zm.224-.942c.085-.071.15-.115.272-.181 1.152-.637 1.809.034 1.956.3.161.291.181.644.081.896-.137.333-.363.581-.89.872a.47.47 0 0 1-.244.068c-.062-.008-.132-.06-.187-.162Z" style="fill:#231f20;fill-opacity:1;fill-rule:nonzero;stroke:none" transform="translate(361.562 1043.074)"/><path d="M0 0c.259.339.232.659.03.825l-.232.185c-.028.022-.015.049-.003.066l.115.15c.016.023.032.029.06.008s.07-.064.155-.13C.207 1.033.329.931.524.781.72.633.85.551.918.499a.25.25 0 0 0 .11-.202c.002-.057.009-2.356.01-2.486.002-.128.064-2.06.06-2.348l.024-.019.524.685c.391.51.599.796.808 1.091.164.229.568.814.608.939.063.178.015.342-.144.465l-.185.141q-.037.024-.004.066l.114.149q.027.035.06.008c.08-.061.251-.22.618-.5.345-.263.497-.353.572-.41.04-.03.034-.051.015-.075l-.11-.143c-.018-.023-.041-.032-.065-.014l-.155.119c-.154.118-.287.065-.466-.144a32 32 0 0 1-1.038-1.31L.631-5.637c-.06-.08-.11-.133-.134-.116-.068.054-.066.162-.066.198.001.016-.01.7-.025 1.42-.02.808-.035 1.657-.042 1.718-.02.105-.062 2.24-.06 2.312l-.037.027-.975-1.275a39 39 0 0 1-1.155-1.629c-.149-.241-.197-.377-.042-.495l.172-.132c.04-.031.034-.053.008-.087l-.098-.127c-.027-.034-.04-.042-.08-.011-.06.044-.389.325-.544.443-.121.092-.531.379-.59.423-.02.017-.018.033.004.062l.115.15c.013.016.032.03.06.008l.195-.15c.167-.127.282-.107.526.153.095.101.608.747 1.391 1.768z" style="fill:#231f20;fill-opacity:1;fill-rule:nonzero;stroke:none" transform="translate(367.214 1040.852)"/><path d="M0 0c.165.698.765 1.336 1.366 1.684.584.336 1.293.495 2.03.319.522-.123 1.142-.517 1.537-1.2a3 3 0 0 0 .384-1.464c-.002-.11.022-.139.074-.125l.21.055c.045.01.053-.004.085-.06s.027-.077-.06-.127c-.119-.069-.968-.726-1.127-.858-.027-.024-.055-.033-.075-.011l-.082.079c-.022.028-.022.044.015.091.157.208.377.518.496.937.117.42.139.874-.149 1.369-.646 1.121-1.903.996-2.813.463C1.528.942.885.421.629-.379.399-1.08.554-1.466.798-1.886a2.21 2.21 0 0 1 1.689-1.087c.042 0 .054-.01.047-.04l-.015-.117c-.001-.025-.007-.045-.05-.045C1.708-3.114.85-2.8.337-1.917-.088-1.177-.127-.574 0 0" style="fill:#231f20;fill-opacity:1;fill-rule:nonzero;stroke:none" transform="translate(375.769 1026.556)"/><path d="M0 0c-.195 0-1.362-.042-1.516-.066-.05-.012-.123-.025-.157-.039-.093-.037-.115-.14-.056-.287l.128-.316c.018-.047.013-.072-.02-.086l-.155-.061c-.047-.02-.067-.005-.082.029-.038.093-.129.377-.289.773-.195.49-.275.629-.312.722-.015.035-.007.052.033.069l.161.065c.035.013.058-.008.07-.035l.093-.235c.082-.201.212-.257.466-.264C-1.509.266-.072.276.558.302.71.309 2.372.347 2.576.359c.075.007.175.008.23.085.02.031.042.072.069.083.02.007.052.006.085-.036.117-.172.436-.386.559-.423.047-.02.082-.029.097-.062.015-.04-.02-.069-.085-.12-.371-.297-1.665-1.425-2.04-1.726C1.028-2.205-.043-3.144-.2-3.317c-.176-.202-.184-.409-.119-.576l.089-.222c.018-.04.003-.062-.024-.072l-.168-.068c-.034-.014-.055.001-.074.048-.048.12-.087.27-.304.813-.225.558-.339.784-.402.938q-.019.052.04.079l.154.062c.041.016.055-.002.071-.042l.067-.169c.077-.187.167-.22.336-.098.22.152.968.772 1.2.975zm.875-1.472c.177.141 1.634 1.36 1.721 1.434.04.039.08.071.072.091-.01.027-.067.036-.13.034C2.439.085.464.03.277.01Z" style="fill:#231f20;fill-opacity:1;fill-rule:nonzero;stroke:none" transform="translate(379.777 1022.07)"/><path d="M0 0c.447.112 1.189.31 1.315.348.179.059.241.111.189.321L1.422 1c-.01.043.024.058.059.067l.153.038c.035.009.052.005.062-.037.018-.077.06-.335.204-.918.168-.681.262-.971.279-1.034.013-.056-.007-.069-.042-.077l-.16-.041c-.036-.008-.061 0-.074.057l-.105.421c-.053.218-.13.229-.334.178C1.372-.368.307-.609-.184-.73l-.604-.15c-.119-.03-1.638-.404-1.92-.496.023-.158.356-1.552.436-1.763.165-.399 1.112-.612 1.41-.642.032-.007.049-.019.042-.05l-.013-.122c-.01-.024-.017-.027-.06-.03-.055.009-1.284.003-1.483-.002-.015.094-.143.643-.298 1.269-.147.626-.318 1.315-.411 1.694-.069.272-.125.474-.162.623-.042.139-.07.22-.082.27-.012.049 0 .059.033.069l.179.043c.035.009.05.004.06-.036l.084-.338c.063-.26.173-.278.263-.255.134.032 1.889.444 2.318.549z" style="fill:#231f20;fill-opacity:1;fill-rule:nonzero;stroke:none" transform="translate(382.735 1017.471)"/><path d="M0 0c.174.024 1.459.229 1.564.252.171.039.231.12.194.392l-.059.416q-.01.056.036.064l.191.027c.029.004.047-.015.051-.044.013-.085.043-.454.138-1.12.09-.637.145-.863.159-.964.005-.036-.015-.053-.044-.057l-.178-.026c-.037-.004-.052.015-.059.052l-.048.335c-.02.144-.092.243-.235.222C1.638-.461.052-.665-.033-.678l-.551-.077-1.803-.28c-.222-.032-.242-.144-.211-.372l.044-.294c.005-.037-.007-.059-.044-.065l-.187-.027q-.04-.006-.05.059c-.013.086-.031.375-.12.998-.097.681-.164.986-.175 1.064q-.006.055.036.063l.193.028q.043.004.05-.052l.058-.4c.02-.144.063-.291.254-.292.11.001 1.657.199 2.038.253z" style="fill:#231f20;fill-opacity:1;fill-rule:nonzero;stroke:none" transform="translate(383.575 1012.493)"/><path d="M0 0c.317.012 1.336.065 1.421.068.138.005.207.111.2.305l-.018.419c0 .029.013.051.043.053l.194.006c.028.002.045-.02.046-.048 0-.043-.001-.13.004-.296-.002-.168.001-.413.013-.76.007-.123.095-2.66.137-2.775a36 36 0 0 1-1.275-.338q-.042-.01-.051.014l-.056.127c-.007.021.005.036.048.06.114.07.374.267.648.489.16.128.277.306.319.517.038.184.013 1.333.006 1.55C1.584-.613.132-.661-.309-.678l-.362-.015c.005-.1.055-.858.073-.945.035-.157.104-.248.329-.305.075-.019.229-.042.359-.059.029-.006.052-.02.052-.048L.14-2.195c.002-.029-.02-.045-.05-.046-.122.01-.723-.013-.821-.016a10 10 0 0 1-.753-.065c-.035-.002-.05.011-.059.048l-.035.135c-.008.037.014.045.049.054.058.009.274.068.352.093.172.057.254.147.27.307.031.341.011.869.005.984l-.267-.01-1.539-.066c-.195-.008-.23-.045-.22-.291l.013-.354q.003-.065-.04-.067l-.18-.007c-.045-.001-.06.013-.062.055-.002.074.008.363-.015.985-.022.564-.055.837-.058.945q-.004.044.05.046l.193.008c.029 0 .039-.02.039-.051l.013-.325c.007-.187.038-.244.169-.245.145-.011 1.055.01 2.298.058z" style="fill:#231f20;fill-opacity:1;fill-rule:nonzero;stroke:none" transform="translate(384.137 1009.294)"/><path d="M0 0c.362.48 1.192.951 2.242.846a2.8 2.8 0 0 0 1.726-.847c.708-.709.782-1.436.721-2.041-.046-.453-.198-1.034-.729-1.556a2.79 2.79 0 0 0-2.25-.772 2.65 2.65 0 0 0-1.523.696c-.539.496-.907 1.18-.808 2.174.035.352.214.967.621 1.5m1.723-3.659c1.576-.157 2.616.874 2.696 1.673.008.107.145.589-.312 1.179-.414.528-1.117.838-1.706.896C.506.276-.292-.973-.354-1.585c-.155-1.583 1.437-2.01 2.077-2.074" style="fill:#231f20;fill-opacity:1;fill-rule:nonzero;stroke:none" transform="translate(381.32 1004.791)"/><path d="M0 0c.518-.137.965-.255 1.169-.302.232-.055.372-.002.42.172l.075.279c.007.036.031.038.059.03l.175-.047c.035-.009.047-.019.037-.054-.013-.063-.095-.274-.249-.861-.105-.392-.257-1.048-.29-1.174-.154-.58-.453-.995-.772-1.193-.287-.172-.636-.221-.894-.153-.875.233-1.099.719-1.054 1.664l-.015.005a.74.74 0 0 0-.35-.252 19 19 0 0 0-1.067-.398c-.079-.017-.832-.295-.965-.4-.145-.121-.202-.278-.252-.474-.015-.049-.044-.049-.072-.041l-.154.04c-.043.012-.061.024-.048.074.015.055.084.232.167.539.053.203.107.465.128.573.091.058.369.148.478.188.097.033.863.234.926.254.056.015.648.217.77.275.264.124.498.242.606.647.015.063.035.133.04.237l-.39.103c-.413.11-1.201.311-1.306.332-.15.025-.292.002-.319-.103l-.115-.441c-.015-.048-.037-.05-.072-.04l-.153.04c-.049.014-.062.024-.044.094.02.077.089.246.266.909.168.637.188.804.21.88.015.056.037.05.072.042l.16-.043c.035-.01.055-.015.047-.05l-.077-.287c-.04-.153-.023-.284.165-.335C-2 .531-1.344.357-.678.18Zm-.86-.446a1.4 1.4 0 0 1-.11-.306c-.339-1.273.471-1.749.763-1.827.322-.085.669-.02.89.138.289.216.476.494.631 1.075.02.084.032.178.008.253-.025.058-.092.113-.202.143Z" style="fill:#231f20;fill-opacity:1;fill-rule:nonzero;stroke:none" transform="translate(383.661 998.927)"/><path d="M0 0c.396-.162.698-.052.805.186l.118.271c.014.034.044.029.064.022L1.16.407c.027-.011.037-.023.024-.056C1.172.317 1.142.265 1.1.165a8 8 0 0 1-.208-.469C.798-.531.753-.677.721-.758a.25.25 0 0 0-.167-.157c-.053-.017-2.272-.623-2.397-.658-.124-.035-1.973-.596-2.252-.668l-.012-.028.798-.326c.595-.245.923-.373 1.264-.497.265-.1.933-.337 1.065-.344.189-.015.334.074.411.262l.088.214q.014.04.064.02l.173-.071q.04-.017.024-.057c-.039-.094-.147-.299-.323-.727-.167-.402-.212-.571-.247-.657-.018-.047-.041-.045-.068-.035l-.169.07c-.025.011-.04.031-.028.059l.075.181c.072.18-.013.294-.262.412-.437.211-1.1.483-1.533.661l-2.504 1.027c-.092.039-.157.074-.147.1.035.081.139.107.174.117.017.002.673.192 1.366.393.774.228 1.591.464 1.647.488.097.046 2.147.642 2.219.66l.015.04-1.484.61c-.623.256-1.735.651-1.873.692-.272.08-.416.092-.491-.088l-.082-.201c-.02-.046-.043-.045-.082-.029l-.148.061c-.04.017-.05.029-.03.075.028.067.212.459.285.641.059.141.227.61.256.677.01.026.026.028.061.015l.172-.072c.02-.009.039-.024.024-.057l-.094-.227c-.08-.195-.028-.301.286-.469.122-.065.878-.392 2.068-.882Z" style="fill:#231f20;fill-opacity:1;fill-rule:nonzero;stroke:none" transform="translate(383.01 993.461)"/><path d="M0 0a83 83 0 0 1 1.359-.815c.155-.081.254-.057.401.176l.22.355q.032.047.068.027l.166-.104c.025-.016.025-.043.01-.066-.045-.074-.261-.374-.616-.945-.343-.546-.446-.755-.5-.84-.018-.03-.045-.032-.07-.017l-.153.097q-.043.03-.012.075l.18.289c.076.122.084.246-.038.322l-1.477.95-.473.296c-.062.036-1.489.905-1.556.947-.192.118-.279.046-.402-.151l-.155-.25q-.03-.05-.076-.023l-.158.099q-.037.024-.003.079c.046.073.218.307.551.84.365.583.51.858.554.926q.028.046.066.027l.166-.104c.023-.016.026-.043.006-.073l-.215-.342c-.077-.124-.139-.264.005-.388A74 74 0 0 1-.427.267z" style="fill:#231f20;fill-opacity:1;fill-rule:nonzero;stroke:none" transform="translate(379.59 988.383)"/><path d="M0 0c-.107.165-.771 1.126-.873 1.244-.037.036-.089.088-.117.11-.083.058-.182.022-.274-.109l-.197-.276C-1.489.928-1.514.918-1.544.94l-.135.096c-.042.029-.04.056-.02.085.058.083.25.311.497.659.306.429.381.573.439.655.022.029.042.032.077.007l.142-.101c.03-.02.023-.052.006-.076l-.146-.206c-.126-.177-.102-.318.026-.535.067-.108.85-1.315 1.211-1.83.088-.125 1.016-1.504 1.136-1.671.047-.06.104-.143.197-.148.035 0 .084.003.106-.014.018-.011.033-.041.016-.09-.083-.19-.091-.576-.055-.699.01-.05.02-.085-.001-.115-.025-.035-.069-.022-.147.008-.449.152-2.097.633-2.555.788-.555.192-1.924.591-2.153.629-.267.039-.446-.065-.551-.212l-.139-.193c-.025-.035-.05-.035-.073-.019l-.147.105c-.03.022-.03.047 0 .089.077.105.182.217.521.693.347.489.477.709.574.844q.034.045.085.009l.137-.097c.035-.023.029-.047.002-.082l-.104-.147c-.117-.165-.096-.26.097-.335.246-.105 1.172-.401 1.468-.486zm-.771-1.529c.215-.074 2.026-.645 2.137-.678.055-.012.103-.03.116-.012.017.022-.008.075-.043.127C1.384-2.008.274-.374.155-.227z" style="fill:#231f20;fill-opacity:1;fill-rule:nonzero;stroke:none" transform="translate(376.797 985.907)"/><path d="M0 0c.102-.518-.03-.903-.351-1.247-.227-.249-.619-.534-1.417-1.047l-1.449-.93c-.214-.137-.282-.242-.162-.43l.184-.286c.023-.037.015-.05-.027-.078l-.135-.085c-.035-.024-.052-.025-.085.023-.039.06-.211.371-.516.845-.304.475-.509.756-.553.823-.03.05-.023.063.002.078l.157.102c.031.018.048.022.075-.022l.195-.304c.114-.176.296-.207.436-.131.06.028.489.295.801.495l.403.258c.32.207 1.078.727 1.27.858.276.187.531.419.648.691.185.437.043.896-.184 1.249-.22.347-.564.627-.92.699-.407.073-.824-.082-1.275-.371L-4.205.354a13 13 0 0 1-.949-.651c-.146-.12-.193-.289-.093-.446l.174-.269c.023-.036.008-.053-.022-.073l-.147-.094c-.032-.02-.047-.021-.072.015-.037.061-.198.353-.461.76-.268.421-.412.604-.447.659s-.015.077.005.089l.134.085c.036.023.065.033.083.002l.16-.249c.146-.225.326-.134.413-.105.068.027.931.581 1.016.636.087.055 1.161.726 1.409.86.523.283.992.397 1.505.243.38-.1.759-.382 1.098-.911C-.197.589-.043.257 0 0" style="fill:#231f20;fill-opacity:1;fill-rule:nonzero;stroke:none" transform="translate(312.936 986.04)"/><path d="M0 0c-.387-.175-.516-.471-.416-.711L-.3-.985c.015-.032-.01-.05-.029-.06l-.172-.077c-.027-.012-.042-.011-.057.022-.013.033-.031.088-.076.188-.039.102-.097.25-.197.474-.101.224-.177.356-.214.436a.26.26 0 0 0 0 .229C-1.02.279.067 2.306.127 2.42c.058.114.923 1.843 1.063 2.096l-.013.027-.785-.354a31 31 0 0 1-1.23-.578c-.255-.122-.886-.446-.98-.536-.142-.127-.179-.294-.093-.478l.095-.211q.018-.039-.03-.06l-.171-.077q-.04-.018-.056.021c-.044.092-.117.313-.308.734-.178.397-.268.546-.307.631-.021.046-.005.062.022.074l.165.074c.027.012.052.007.064-.019l.08-.178c.08-.179.222-.194.479-.094.452.172 1.107.466 1.534.66l2.468 1.109c.091.041.16.065.172.039.036-.08-.017-.175-.034-.207-.01-.011-.324-.621-.654-1.261-.366-.72-.755-1.475-.777-1.531C.798 2.198-.18.299-.215.235l.018-.04 1.464.66c.614.276 1.665.813 1.79.885.245.141.354.238.274.417l-.089.197c-.022.047-.005.062.035.079l.144.066c.041.017.056.017.078-.029.029-.066.187-.471.267-.649.062-.138.287-.585.316-.651.013-.026.003-.038-.03-.053L3.88 1.04c-.019-.009-.042-.012-.057.021l-.1.225c-.087.191-.199.228-.538.115-.13-.042-.888-.368-2.063-.897Z" style="fill:#231f20;fill-opacity:1;fill-rule:nonzero;stroke:none" transform="translate(306.834 988.188)"/><path d="M0 0a100 100 0 0 1-1.503-.506c-.16-.065-.207-.157-.125-.419l.127-.4q.016-.052-.025-.069l-.185-.058c-.027-.009-.049.008-.057.035-.027.083-.115.44-.319 1.083-.193.614-.285.828-.315.925-.012.033.005.054.033.063l.172.054c.035.011.055-.005.067-.039l.102-.325c.043-.137.131-.224.268-.18.069.022 1.6.483 1.683.509l.531.168 1.731.57c.214.068.216.182.147.403l-.09.282c-.01.034-.003.06.032.071l.178.057q.04.012.06-.05c.027-.082.094-.364.284-.965.207-.655.321-.945.346-1.02Q3.158.135 3.118.12L2.93.062q-.04-.013-.059.042L2.75.489c-.044.139-.111.277-.298.247C2.344.718.848.267.482.152Z" style="fill:#231f20;fill-opacity:1;fill-rule:nonzero;stroke:none" transform="translate(305.575 994.35)"/><path d="M0 0c-.035-.007-.05-.003-.06.039C-.075.11-.102.348-.219.9c-.123.595-.21.91-.223.973-.014.064.005.076.033.081l.165.034c.035.008.064.007.075-.043l.07-.34q.064-.297.248-.259c.055.012.138.036.233.078.247.097 1.035.534 1.404.745a66 66 0 0 1 1.782 1.059l-.004.014c-.362.079-1.938.327-2.112.349-.205.032-1.076.13-1.41.172-.189.019-.324.035-.424.014-.085-.017-.154-.083-.116-.259l.039-.186c.007-.028-.014-.04-.057-.048l-.162-.034c-.035-.007-.052-.003-.06.032-.013.064-.06.394-.154.84-.106.517-.165.689-.178.754-.009.042.003.052.04.059l.177.037c.028.006.052.003.06-.039l.04-.191c.048-.233.19-.345.381-.445.265-.137 1.834-.4 2.157-.459.252-.037 2.694-.479 2.773-.499.061-.017.105-.045.111-.08.012-.057-.051-.1-.138-.155a535 535 0 0 1-2.334-1.418l-.225-.122C1.506 1.29.548.743.354.606.205.501.15.416.18.267L.219.084C.225.055.205.043.177.037Z" style="fill:#231f20;fill-opacity:1;fill-rule:nonzero;stroke:none" transform="translate(302.945 995.738)"/><path d="M0 0c-.005.057-.092.827-.114.913-.051.206-.111.259-.34.307-.075.016-.22.034-.359.032-.037-.003-.052.018-.053.046l-.007.181c-.005.036.023.053.053.047.126-.012.716.033.823.041.254.019.598.074.748.1.037.002.052-.011.062-.039l.033-.157c.01-.035-.011-.052-.061-.064a4 4 0 0 1-.333-.104C.306 1.249.202 1.16.194.972.184.63.222.133.23.018l.448.033C1.067.08 1.766.147 1.91.158c.374.036.504.228.532.454.017.146.022.356.01.537-.01.123-.043.482-.07.633-.023.121-.127.433-.3.609-.079.081-.628.445-.801.534-.037.018-.069.038-.049.083l.055.121c.019.038.04.038.099.021l1.09-.302c.067-.017.113-.063.12-.15.003-.036.008-.195.033-.629.032-.433.077-1.132.162-2.258.02-.267.044-.467.054-.612.02-.151.033-.244.038-.309.002-.044-.01-.065-.047-.069l-.193-.015c-.029-.001-.039.019-.042.07l-.022.288c-.025.332-.076.357-.344.337L.526-.628-.18-.681c-.6-.045-1.499-.127-1.571-.14-.229-.047-.274-.122-.254-.389l.02-.261c.003-.035-.003-.057-.047-.06l-.195-.015c-.02-.002-.037.012-.04.047-.012.16-.008.413-.045.89l-.024.317c-.053.713-.115 1.427-.166 2.141-.01.115-.035.251-.039.288-.002.035.012.052.032.06.098.037 1.063.428 1.133.455.029.01.05.012.067-.016l.067-.104c.015-.021-.005-.051-.018-.06-.027-.016-.673-.601-.768-.783a1.13 1.13 0 0 1-.154-.562l.069-1.286z" style="fill:#231f20;fill-opacity:1;fill-rule:nonzero;stroke:none" transform="translate(304.081 1002.795)"/><path d="M0 0c-.536.028-.997.053-1.207.057-.237.005-.364-.075-.374-.256l-.015-.288c-.003-.036-.025-.043-.053-.041l-.181.01c-.036.002-.05.009-.048.046.003.065.037.288.068.894.024.404.035 1.077.042 1.207.032.6.237 1.066.511 1.328.245.225.578.345.843.332C.491 3.24.808 2.811.96 1.876h.015c.075.169.21.264.292.317.099.083.862.556.96.608.073.033.755.46.863.592.117.146.14.311.15.513.004.052.032.057.062.056l.159-.009c.043-.002.065-.011.062-.061-.004-.058-.034-.244-.052-.562-.01-.21-.01-.477-.009-.586-.076-.076-.332-.221-.429-.282-.088-.053-.796-.407-.854-.44a11 11 0 0 1-.697-.427c-.233-.176-.439-.339-.459-.758a1 1 0 0 1 .009-.239l.404-.021A46 46 0 0 1 2.78.521c.152.005.285.057.29.165l.025.454c.002.052.024.057.06.055l.159-.008c.052-.003.065-.011.062-.083-.005-.079-.035-.258-.072-.945-.035-.656-.022-.824-.027-.904-.002-.058-.023-.056-.06-.055l-.167.01c-.037.002-.057.002-.055.039l.017.296c.006.158-.037.285-.232.295-.715.051-1.393.087-2.079.123Zm.748.613c.028.107.04.186.048.323C.865 2.25-.025 2.551-.329 2.568c-.33.016-.658-.119-.841-.319-.239-.269-.364-.581-.396-1.181A.47.47 0 0 1-1.521.82c.034-.054.112-.094.226-.1Z" style="fill:#231f20;fill-opacity:1;fill-rule:nonzero;stroke:none" transform="translate(303.365 1007.107)"/><path d="M0 0c-.078-.075-.107-.114-.114-.15-.008-.043.037-.08.102-.135.07-.056.07-.093.062-.142C.043-.471.002-.501-.073-.472c-.174.058-1.069.285-1.271.341-.042.015-.038.029-.035.058l.027.105c.005.029.02.041.063.033.231-.032.468-.058.872.115.372.157.632.517.697.908.074.429-.096 1.015-.739 1.126-.735.125-1.095-.357-1.392-.894-.117-.206-.383-.689-.757-.941C-2.883.184-3.239.12-3.71.2c-.357.061-.667.343-.836.598-.199.299-.237.673-.172 1.057.069.407.244.7.322.811.047.059.045.095.015.137l-.068.107c-.022.04-.033.065-.028.1.006.037.068.048.131.037.249-.044.994-.075 1.151-.094.035-.006.05-.016.051-.047l.007-.088q.005-.034-.028-.038a1.75 1.75 0 0 1-.868-.308c-.241-.157-.381-.39-.439-.725-.109-.635.323-.942.687-1.006.199-.033.441-.031.658.115.242.172.468.545.566.74.242.466.431.845.788 1.048.254.147.553.229 1.025.147C.092 2.648.724 2.012.564 1.07.479.571.27.247 0 0" style="fill:#231f20;fill-opacity:1;fill-rule:nonzero;stroke:none" transform="translate(306.77 1011.743)"/><path d="M0 0c-.167.045-1.431.36-1.536.381-.172.031-.26-.02-.332-.286l-.107-.405q-.015-.055-.058-.044l-.189.049c-.028.008-.037.033-.028.061.023.084.138.434.312 1.084.167.622.203.85.23.949.01.034.035.042.062.036l.175-.047q.05-.014.034-.068l-.087-.329c-.039-.141-.01-.259.13-.297L.299.609.836.466C.905.447 2.524.037 2.603.017c.215-.059.278.037.339.261l.076.286q.012.054.064.044l.182-.05q.04-.01.025-.074C3.265.401 3.17.127 3.008-.481c-.177-.664-.235-.97-.257-1.047q-.014-.053-.056-.045l-.189.05q-.043.015-.027.067l.104.393c.038.14.055.292-.119.368C2.362-.653.86-.229.489-.13z" style="fill:#231f20;fill-opacity:1;fill-rule:nonzero;stroke:none" transform="translate(304.908 1016.443)"/><path d="m0 0-.065-.169c-.082-.216-.307-.804-.327-1.098-.022-.34.374-.724.554-.901.028-.027.027-.051.008-.081l-.08-.108c-.017-.019-.032-.035-.065-.007-.219.16-.998.731-1.068.773-.082.047-.092.082-.082.109a.13.13 0 0 0 .057.071l.095.064c.135.088.182.148.263.341.151.353.286.627.528 1.261l.125.324c.282.736.366 1.037.479 1.374a.7.7 0 0 1 .04.388l-.031.158a.15.15 0 0 0 .003.092c.013.034.038.04.132.02.087-.018.972-.21 1.29-.27.036-.005.045-.026.039-.061l-.015-.118c-.004-.03-.012-.035-.067-.037-.149-.005-.746-.008-.942-.189C.694 1.771.437 1.142.31.811L.239.621l1.925-.736c.095-.037 1.985-.76 2.103-.798.174-.051.296-.035.357.127l.164.425c.023.06.045.06.093.041l.141-.054c.035-.013.053-.027.028-.088-.025-.067-.129-.276-.381-.939-.25-.647-.337-.94-.372-1.034-.022-.054-.052-.049-.093-.034l-.127.048c-.049.02-.065.034-.05.074l.177.459c.051.136 0 .248-.079.285-.187.095-2.26.888-2.389.939z" style="fill:#231f20;fill-opacity:1;fill-rule:nonzero;stroke:none" transform="translate(304.419 1020.987)"/><path d="M0 0c.249-.135.671-.341.745-.373.213-.093.283-.008.375.157l.135.247c.024.045.042.034.069.02l.145-.08c.039-.02.059-.03.033-.075-.041-.077-.195-.313-.487-.847-.314-.569-.402-.777-.439-.848-.015-.025-.042-.027-.072-.01l-.153.084c-.025.014-.042.031-.019.068l.169.311c.09.165.053.252-.037.309-.087.055-.579.343-1.17.665l-.367.203c-.211.006-2.576-.067-2.899-.13a.54.54 0 0 1-.332-.246l-.087-.159c-.021-.038-.045-.033-.07-.02l-.165.09c-.025.014-.033.028-.012.066.03.057.212.345.424.732.358.653.464.892.5.955.021.039.036.037.056.027l.157-.087c.034-.017.055-.037.034-.075l-.116-.21c-.103-.19-.06-.246.106-.304.111-.037 1.916-.01 2.382-.018-.241.437-1.074 2.046-1.174 2.135-.093.084-.217.192-.36-.074l-.096-.172c-.02-.038-.041-.034-.08-.013l-.153.083c-.025.014-.034.027-.014.066.036.063.196.313.429.737.204.375.263.526.294.583.024.044.039.044.065.029l.152-.083c.039-.021.054-.038.03-.083l-.086-.158a.5.5 0 0 1-.03-.388C-2.068 2.922-1.047.887-.83.455Z" style="fill:#231f20;fill-opacity:1;fill-rule:nonzero;stroke:none" transform="translate(310.108 1024.958)"/><path d="M0 0c-.756-.013-1.429.332-1.623-.023-.182-.421.264-.875.833-1.254.204.372.496.843.79 1.277m17.038-.144-.045.121c-.202.367-.916-.017-1.708.026.287-.46.578-.963.773-1.37q.242.158.451.334c.449.379.574.671.529.889m3.072-4.724c-.593.659-1.892 2.511-2.631 3.833-.623-.861-2.092-1.514-2.745-1.755-1.572-.582-3.874-1.147-6.838-1.115-2.592-.028-7.298.486-9.49 2.334a2.8 2.8 0 0 0-.533.576 27.3 27.3 0 0 0-2.567-3.79c-.329-.515-.022-1.495 1.22-2.225 2.354-1.379 7.09-2.774 11.476-2.774 4.626 0 8.479 1.388 10.844 2.774 1.177.691 1.514 1.608 1.264 2.142M30.494 6.614l-.095.126c-.131-2.677-2.838-5.226-5.803-5.887-2.329-.519-3.878-.768-6.099.409-1.11.589-2.379 1.518-3.644.655-.397-.273-.484-.543-.312-.795l.053-.072a1 1 0 0 1 .069-.068c.864-.788 2.298.529 2.951-.666.05-.096.089-.186.112-.279.362-.865 1.539-2.656 2.356-3.743 3.722-1.461 8.393.047 11.38 2.409.857.676 2.352 2.369 2.266 3.808-.096 1.24-3.276 3.888-3.234 4.103m-1.656-1.901c-.09-.145-.256-.436-.444-.516l.137-.15c.255.315.472.651.651.995-.456.447-.827 1.021-1.186 1.544-.21-.624-.587-1.007-1.023-1.187l.147-.102c.355-.022.571.027.925.212-.259-.407-.364-.544-.504-.524l.113-.092c.274-.065.543.045.8.211-.09-.147-.257-.441-.448-.518l.077-.073c.234.008.506.025.755.2M.696.968l.059.072c.679.72-1.054 1.529-2.137 1.099C-2.664 1.626-3.683.803-5.078.536-6.549.254-7.803.538-9.222.853c-2.962.659-5.664 3.204-5.8 5.88 0 0-3.41-2.848-3.342-4.376.07-1.527 1.439-3.015 2.269-3.674 2.973-2.349 7.609-3.85 11.32-2.426.867 1.139 1.777 2.519 2.49 3.968l.035.076C-1.594 1.504-.172.207.696.968m-13.317 5.62c-.361-.523-.73-1.099-1.185-1.546q.268-.52.652-1l.137.155c-.178.06-.334.225-.417.426l-.068.163.172-.043c.078-.022.173-.04.272-.059.102-.021.205-.041.292-.061q.09-.022.135-.037c-.095.112-.229.264-.305.447l-.067.162.17-.043a7 7 0 0 1 .272-.057c.102-.022.206-.042.292-.062q.086-.018.132-.035a1.16 1.16 0 0 0-.369.653c.077-.08.563-.142.815-.207-.397.194-.735.566-.93 1.144m40.672-3.074c-.56.665-1.33 1.301-2.534 1.917-1.016.482-1.739 1.808-.784 3.479 1.038 1.816 3.525 2.614 5.02.234q.198-.319.335-.643c.86-1.553 2.501-3.339 3.641-4.367 1.835-1.902-.3-4.778-1.828-5.985-2.933-2.323-7.33-3.813-11.1-2.827.404-1.028-.409-2.245-1.598-2.941-2.464-1.444-6.439-2.872-11.201-2.872-4.498 0-9.361 1.423-11.833 2.872-1.187.696-1.995 1.901-1.606 2.923-3.768-.985-8.164.507-11.095 2.825-1.528 1.208-3.279 3.776-1.827 5.988.968 1.474 2.067 2.285 3.114 3.746.143.2.729 1.06.868 1.282 1.496 2.381 3.983 1.581 5.02-.234 1-1.751.157-3.121-.945-3.519 0 0-1.833-1.232-2.372-1.879a7.44 7.44 0 0 1 3.607-1.97c2.157-.481 3.551-.748 5.61.343 1.387.735 2.799 1.69 4.373.615.648-.441 1.069-1.282.299-2.017A18 18 0 0 1-.182-1.639c.461-.244.895-.424 1.065-.488 1.496-.552 4.134-1.103 7.01-1.072 1.973-.02 5.359.353 7.553 1.476-.328.696-1.034 1.815-1.396 2.319-1.157 1.309 1.127 2.93 2.967 2.199 2.302-.919 2.894-1.969 5.704-1.595.674.087 1.265.242 1.723.343a7.5 7.5 0 0 1 3.607 1.971m1.378 4.715c-.085.16-.167.32-.237.474l-.039.065c-2.12 3.379-5.803-1.589-3.329-2.7.797-.357 1.797.438 1.526 1.474l-.427 1.647c.309-.394.945-1.141 1.31-1.693.393-.561.773-1.219 1.243-1.743.267.826.277 1.681-.047 2.476m-43.531-2.474c.473.527.852 1.188 1.252 1.752.381.563.944 1.224 1.304 1.683l-.429-1.646c-.272-1.038.731-1.831 1.528-1.476 2.472 1.112-1.212 6.08-3.331 2.702a15 15 0 0 0-.287-.566c-.312-.788-.299-1.633-.037-2.449" style="fill:#231f20;fill-opacity:1;fill-rule:nonzero;stroke:none" transform="translate(335.602 969.705)"/><path d="M0 0c-.434.397-.334.466-.344.649 0 0-.524-.397.09-.848 0 0 .271-.18.523-.09C.411-.239.189-.172 0 0" style="fill:#231f20;fill-opacity:1;fill-rule:nonzero;stroke:none" transform="translate(333.255 966.614)"/><path d="M0 0c-.432.396-.331.466-.342.648 0 0-.524-.396.09-.848 0 0 .27-.181.522-.091C.412-.239.19-.172 0 0" style="fill:#231f20;fill-opacity:1;fill-rule:nonzero;stroke:none" transform="translate(332.712 965.857)"/><path d="M0 0c-.432.396-.332.466-.344.648 0 0-.522-.396.09-.848 0 0 .272-.179.524-.089C.412-.239.19-.172 0 0" style="fill:#231f20;fill-opacity:1;fill-rule:nonzero;stroke:none" transform="translate(332.19 965.1)"/><path d="M0 0c-.434.396-.332.466-.344.648 0 0-.524-.396.09-.847 0 0 .271-.18.523-.09C.411-.239.189-.174 0 0" style="fill:#231f20;fill-opacity:1;fill-rule:nonzero;stroke:none" transform="translate(331.667 964.315)"/><path d="M0 0c-.434.396-.332.467-.344.649 0 0-.522-.397.09-.848 0 0 .271-.18.524-.09C.411-.239.189-.172 0 0" style="fill:#231f20;fill-opacity:1;fill-rule:nonzero;stroke:none" transform="translate(333.732 967.417)"/><path d="M0 0c.432.396.332.466.344.648 0 0 .522-.398-.09-.848 0 0-.272-.181-.523-.09-.143.051.079.116.269.29" style="fill:#231f20;fill-opacity:1;fill-rule:nonzero;stroke:none" transform="translate(353.316 966.55)"/><path d="M0 0c.434.396.332.466.344.648 0 0 .522-.396-.09-.848 0 0-.271-.179-.523-.091C-.412-.239-.19-.172 0 0" style="fill:#231f20;fill-opacity:1;fill-rule:nonzero;stroke:none" transform="translate(353.857 965.792)"/><path d="M0 0c.432.396.331.466.342.648 0 0 .524-.396-.088-.847 0 0-.272-.18-.524-.09-.142.05.08.117.27.289" style="fill:#231f20;fill-opacity:1;fill-rule:nonzero;stroke:none" transform="translate(354.381 965.034)"/><path d="M0 0c.434.396.331.466.344.649 0 0 .521-.397-.09-.848 0 0-.272-.18-.523-.09-.143.05.079.117.269.289" style="fill:#231f20;fill-opacity:1;fill-rule:nonzero;stroke:none" transform="translate(354.904 964.25)"/><path d="M0 0c.434.396.331.466.342.648 0 0 .524-.398-.09-.848 0 0-.269-.181-.522-.091-.142.052.08.117.27.291" style="fill:#231f20;fill-opacity:1;fill-rule:nonzero;stroke:none" transform="translate(352.839 967.353)"/><path d="M0 0c.16.352.087.513.073.694 0 0 .511-.298.233-.788 0 0-.112-.181-.421-.362C-.245-.531-.164-.359 0 0" style="fill:#231f20;fill-opacity:1;fill-rule:nonzero;stroke:none" transform="translate(366.11 975.06)"/><path d="M0 0c.162.351.087.511.075.693 0 0 .511-.299.234-.788 0 0-.114-.182-.423-.362-.13-.076-.05.096.114.457" style="fill:#231f20;fill-opacity:1;fill-rule:nonzero;stroke:none" transform="translate(366.727 974.355)"/><path d="M0 0c.16.351.085.513.075.693 0 0 .509-.299.23-.788 0 0-.111-.18-.419-.361C-.245-.533-.165-.359 0 0" style="fill:#231f20;fill-opacity:1;fill-rule:nonzero;stroke:none" transform="translate(367.401 973.622)"/><path d="M0 0c.162.351.087.511.073.695 0 0 .511-.301.234-.79 0 0-.113-.182-.424-.361C-.244-.533-.165-.359 0 0" style="fill:#231f20;fill-opacity:1;fill-rule:nonzero;stroke:none" transform="translate(368.029 972.939)"/><path d="M0 0c.162.351.109.611.097.793 0 0 .487-.399.21-.888 0 0-.112-.181-.422-.361C-.245-.531-.164-.359 0 0" style="fill:#231f20;fill-opacity:1;fill-rule:nonzero;stroke:none" transform="translate(368.583 972.046)"/><path d="M0 0c-.162.351-.087.513-.075.695 0 0-.511-.299-.232-.79 0 0 .113-.18.42-.361C.244-.531.164-.359 0 0" style="fill:#231f20;fill-opacity:1;fill-rule:nonzero;stroke:none" transform="translate(320.352 975.168)"/><path d="M0 0c-.162.352-.087.513-.075.694 0 0-.509-.298-.23-.788 0 0 .111-.181.418-.362C.245-.531.165-.359 0 0" style="fill:#231f20;fill-opacity:1;fill-rule:nonzero;stroke:none" transform="translate(319.732 974.462)"/><path d="M0 0c-.162.351-.087.511-.075.693 0 0-.511-.299-.232-.788 0 0 .113-.182.421-.361C.244-.532.165-.361 0 0" style="fill:#231f20;fill-opacity:1;fill-rule:nonzero;stroke:none" transform="translate(319.06 973.73)"/><path d="M0 0c-.162.352-.087.512-.075.694 0 0-.511-.298-.232-.788 0 0 .112-.181.422-.362C.244-.531.164-.359 0 0" style="fill:#231f20;fill-opacity:1;fill-rule:nonzero;stroke:none" transform="translate(318.432 973.046)"/><path d="M0 0c-.162.351-.109.609-.095.793 0 0-.489-.399-.21-.888 0 0 .113-.182.42-.361C.245-.533.165-.359 0 0" style="fill:#231f20;fill-opacity:1;fill-rule:nonzero;stroke:none" transform="translate(317.876 972.154)"/><path d="M0 0c-.272-.285-.419-.433-.735-.614 0 0-.482-.212-.843.072l-.622.363C-2.568-.93-.352-3.68.444-3.724c-.047.698-.631 1.613.067 2.187C2.509.113 4.843 1.386 6.846 3.118c-.888.379-1.115.874-1.245 1.783l-.24-.186c-.62-.529-3.49-2.768-4.672-4.03C.689.685.147.163 0 0m-.755.927a19 19 0 0 0-.804-.635c.36-.206.664-.41.803.014.053.161.055.383.001.621m9.101 2.617C7.232 2.383 4-.144 1.758-1.568a2.5 2.5 0 0 0 .519-.481C6.133-7.789 8.654-14.116 8.511-21.6c-.152-7.953-1.98-14.539-6.387-20.335-.381-.546-1.411-2.337-2.423-2.982 1.842-1.412 4.384-4.008 5.21-5.542.601-.899 1.239-1.152 2.389-.277.488.469.808 1.021 1.246 1.515 5.621 7.194 9.534 16.892 9.729 27.089.181 9.437-3.016 18.274-7.799 25.617-.444.604-1.294.579-2.13.059M1.099-3.033l.59.586c-.661.753-1.076.357-.709-.305q.074-.134.119-.281m-59.736 7.536c2.052-1.208 4.163-2.407 5.923-4.027.12.555.426 1.033.801 1.457C-45.691 8.966-36.609 13.7-26.347 13.7c10.025 0 19.304-4.267 25.532-11.301.451-.427.7-.942.78-1.431 1.714 1.684 4.823 4.29 6.038 5.095.494.676 1.207 1.151.628 1.931-7.951 9.712-19.835 15.192-32.975 15.192-13.692 0-25.063-6.055-33.004-15.798-1.054-1.294.005-2.102.711-2.885m57.308-50.106c1.154-1.913 2.533-3.656 4.24-5.122.151.249.436.666.812.795-1.461 2.038-4.676 4.622-4.783 4.699 0 0-.594.421-.68.538-.359.499-.359 1.19-.065 1.96.049.127.104.235.154.324.048.081.045.133.042.153-.715.426-2.082-1.82-2.082-2.756 0-.726.148-1.336.504-1.613l.104-.072c.626-.333 1.323 0 1.345.476l.194.99.097-.167c.105-.168.118-.205.118-.205m1.21 1.754c-.245.259-.614.653-.941 1.007-.172-.436-.401-.883-.224-1.237.342-.679.818-.152 1.165.23m3.162-11.714c1.76-.132 2.568 1.883.915 2.982-2.606 1.734-4.536 4.444-5.274 5.561-.252-.296-.699-.485-1.013-.488 2.21-3.215 3.833-7.94 5.372-8.055m-53.303 8.456c-.346.018-.876.222-1.123.594-.814-.86-4.116-4.075-5.892-5.122-.569-.334-.758-1.541.479-2.382.523-.356 1.319-.621 1.76-.254.42.353 1.292 2.853 4.776 7.164m-4.257 45.499c-1.751.941-4.262 2.449-5.469 3.702q-.058.05-.117.112c-.494.534-.938 1.11-1.698 1.269-.504.105-1.032-.21-1.294-.611-10.33-15.86-9.839-36.896 1.91-51.921 1.129-1.252 2.174-.755 3.017-.342 1.589 1.537 3.916 3.793 5.855 5.06-.513.245-1.052.758-1.55 1.499-4.39 5.784-6.819 13.001-6.971 20.96-.139 7.253 2.062 14.073 6.08 20.057q.117.124.237.215m2.945 2.827.681-.414c.364-.225.773-.48 1.033-.657l.141-.098c.302-.345.312-.957.011-1.709-.397-.993-1.809-3.081-3.088-3.094a.8.8 0 0 0-.306.053.6.6 0 0 0-.205.145c-.399.3-1.152.811-1.648 1.12-3.329-5.384-5.307-11.627-5.175-18.43.15-7.83 2.544-14.917 6.846-20.573q.118-.172.232-.324l1.349 1.282c.326.394 1.034.555 1.716.079.598-.417 1.788-1.738 1.788-3.207 0-.756-.138-1.823-.934-2.284-.264-.267-1.646-1.883-2.763-3.476-.696-.995-1.246-2.071-1.795-3.15-.686-1.342-1.242-1.946-2.876-1.469-.985.289-1.73.957-1.905 1.932-.204 1.13.243 1.863 1.372 2.49l.115.065c.002.116-.219.658-.282.755-1.402-1.208-3.37-.987-4.462.235-11.945 15.267-12.461 36.639-1.96 52.76 1.006 1.545 2.631.986 3.643-.067.136-.142.26-.31.385-.424l.09-.075c.182-.126.366-.096.588.334.047.091.205.471.163.601-1.467 1.091-2.255 2.771-1.078 4.215 8.065 9.898 19.631 16.06 33.552 16.06 13.347 0 25.444-5.581 33.538-15.472 1.046-1.408-.271-1.917-.737-2.832l-.048-.105a1.2 1.2 0 0 1-.102-.495c0-.567.124-.841.65-1.13.158-.086.26-.151.422-.13 1.007.843 2.736 1.471 3.684.147 4.845-7.434 8.104-16.415 7.92-26.023-.2-10.372-4.187-20.23-9.901-27.534-.463-.524-.803-1.098-1.321-1.592-1.592-1.221-2.661-.713-3.442.43-.085.131-.145.224-.204.322-.369-.116-.544-.378-.633-.684.87-.654 1.762-1.339 2.064-2.369.689-2.364-3.284-4.058-4.534-1.179-.095.217-.713 1.404-1.443 2.693-.863 1.523-1.796 3.646-3.138 4.832-.701.49-.828 1.492-.828 2.215 0 1.305 1.763 4.21 3.125 3.399a.8.8 0 0 0 .277-.261c.337-.37.953-1.025 1.334-1.429.434.576.805 1.201 1.219 1.792 4.295 5.645 6.095 12.08 6.247 19.924.133 7.051-2.141 13.046-5.713 18.541L1.033-4.092C.88-4.364.596-4.515.167-4.386-1.037-4.026-3.9-.595-2.658.376c.558.376 1.127.812 1.605 1.224a2 2 0 0 1-.266.306c-6.095 6.889-15.198 11.086-25.028 11.086-10.037 0-18.935-4.629-25.036-11.527a2 2 0 0 1-.189-.246m-.349-46.067s-3.135-2.368-4.813-4.396c.182-.235.315-.563.387-.843.725.521 1.418 1.157 2.085 1.698.959.774 1.959 1.894 2.857 2.879l.245.269.236.252.04-.834c.023-.468.738-.807 1.372-.471.436.232.608.891.608 1.686 0 .803-1.398 3.426-2.177 2.741-.216-.19.377-1.324.377-1.324.082-.273.127-.539-.038-.746-.214-.27-1.179-.911-1.179-.911m-5.83 48.01-.372.22a2 2 0 0 0-.798-1.313c2.972-2.522 6.738-2.595 6.139-6.087.812.166 3.085 2.788 2.612 3.521-.477-.207-1.183-.412-1.183-.412-.755-.309-1.321.297-1.321.297-.123.165-.416.489-.331.39-.36.425-2.18 1.761-2.18 1.761s-1.861 1.153-2.566 1.623m3.176-5.999c.317-.199.742-.479 1.121-.742.04.264.111.517.167.69.254.8-.516 1.015-.915.621q-.188-.284-.373-.569m3.661 2.823c-.354.222-.737.456-.987.606-.127-.316-.187-.624-.115-.803l.13-.139c.149-.063.411-.003.828.254zm-.802-42.455-.864-.823c1.026-.979 1.697-.415.864.823" style="fill:#231f20;fill-opacity:1;fill-rule:nonzero;stroke:none" transform="translate(369.912 1027.84)"/><path d="M0 0c.377-.574.202-.754.16-.932 0 0 .623.441.124 1.097 0 0-.19.306-.686.334C-.551.508-.252.387 0 0" style="fill:#231f20;fill-opacity:1;fill-rule:nonzero;stroke:none" transform="translate(375.703 1035.347)"/><path d="M0 0c.376-.573.2-.753.159-.932 0 0 .622.441.123 1.096 0 0-.19.307-.684.335C-.553.508-.254.387 0 0" style="fill:#231f20;fill-opacity:1;fill-rule:nonzero;stroke:none" transform="translate(374.987 1034.742)"/><path d="M0 0c.376-.574.202-.754.16-.932 0 0 .621.44.122 1.096 0 0-.19.307-.684.335C-.551.508-.252.387 0 0" style="fill:#231f20;fill-opacity:1;fill-rule:nonzero;stroke:none" transform="translate(374.26 1034.164)"/><path d="M0 0c.374-.574.2-.753.159-.932 0 0 .622.441.123 1.097 0 0-.19.306-.684.334C-.553.508-.254.387 0 0" style="fill:#231f20;fill-opacity:1;fill-rule:nonzero;stroke:none" transform="translate(373.557 1033.534)"/><path d="M0 0c.374-.574.2-.755.159-.932 0 0 .622.441.123 1.096 0 0-.19.307-.684.335C-.553.507-.252.387 0 0" style="fill:#231f20;fill-opacity:1;fill-rule:nonzero;stroke:none" transform="translate(372.815 1032.934)"/><path d="M0 0c.376-.574.202-.755.16-.932 0 0 .623.44.122 1.097 0 0-.19.306-.683.334C-.551.508-.252.387 0 0" style="fill:#231f20;fill-opacity:1;fill-rule:nonzero;stroke:none" transform="translate(372.087 1032.31)"/><path d="M0 0c.374-.573.202-.753.159-.932 0 0 .622.441.123 1.097 0 0-.188.306-.684.334C-.551.508-.254.387 0 0" style="fill:#231f20;fill-opacity:1;fill-rule:nonzero;stroke:none" transform="translate(371.38 1031.721)"/><path d="M0 0c.376-.573.202-.754.159-.932 0 0 .624.44.123 1.096 0 0-.19.307-.684.335C-.553.507-.252.386 0 0" style="fill:#231f20;fill-opacity:1;fill-rule:nonzero;stroke:none" transform="translate(370.672 1031.135)"/><path d="M0 0c.374-.573.2-.754.159-.932 0 0 .622.44.121 1.096 0 0-.188.308-.682.335C-.553.507-.252.387 0 0" style="fill:#231f20;fill-opacity:1;fill-rule:nonzero;stroke:none" transform="translate(369.964 1030.547)"/><path d="M0 0c-.563.862-.302 1.133-.239 1.4 0 0-.933-.661-.183-1.648 0 0 .285-.461 1.026-.502C.831-.762.381-.582 0 0" style="fill:#231f20;fill-opacity:1;fill-rule:nonzero;stroke:none" transform="translate(374.311 1030.916)"/><path d="M0 0c-.563.862-.302 1.133-.24 1.401 0 0-.935-.661-.184-1.649 0 0 .287-.46 1.028-.502C.83-.762.379-.583 0 0" style="fill:#231f20;fill-opacity:1;fill-rule:nonzero;stroke:none" transform="translate(375.178 1031.583)"/><path d="M0 0c-.564.862-.302 1.133-.239 1.401 0 0-.936-.662-.185-1.648 0 0 .285-.461 1.028-.503C.831-.762.381-.582 0 0" style="fill:#231f20;fill-opacity:1;fill-rule:nonzero;stroke:none" transform="translate(373.446 1030.14)"/><path d="M0 0c-.564.863-.302 1.133-.242 1.401 0 0-.933-.662-.184-1.65 0 0 .286-.459 1.03-.501C.828-.762.379-.583 0 0" style="fill:#231f20;fill-opacity:1;fill-rule:nonzero;stroke:none" transform="translate(372.6 1029.473)"/><path d="M0 0c-.564.862-.302 1.132-.24 1.4 0 0-.935-.662-.184-1.649 0 0 .285-.459 1.028-.501C.83-.763.381-.583 0 0" style="fill:#231f20;fill-opacity:1;fill-rule:nonzero;stroke:none" transform="translate(371.715 1028.77)"/><path d="M0 0c-.28.431-.356.713-.354.923.003.209-.27.416-.411.181-.172-.289-.379-.415.343-1.353 0 0 .36-.541 1.153-.595C.957-.86.381-.583 0 0" style="fill:#231f20;fill-opacity:1;fill-rule:nonzero;stroke:none" transform="translate(369.044 1026.678)"/><path d="M0 0c-.564.863-.302 1.134-.24 1.401 0 0-.935-.661-.186-1.648 0 0 .162-.391.905-.434C.703-.693.381-.581 0 0" style="fill:#231f20;fill-opacity:1;fill-rule:nonzero;stroke:none" transform="translate(369.966 1027.344)"/><path d="M0 0c-.563.863-.302 1.134-.239 1.401 0 0-.935-.661-.183-1.648 0 0 .193-.427.938-.469C.741-.728.381-.581 0 0" style="fill:#231f20;fill-opacity:1;fill-rule:nonzero;stroke:none" transform="translate(370.83 1028.047)"/><path d="M0 0c-.244.245.09.669.321.371 0 0 .4-.368.302-1.106C.594-.958.487-.494 0 0" style="fill:#231f20;fill-opacity:1;fill-rule:nonzero;stroke:none" transform="translate(314.252 980.074)"/><path d="M0 0c-.255.24-.048.836.322.371 0 0 .399-.368.302-1.106C.594-.958.506-.477 0 0" style="fill:#231f20;fill-opacity:1;fill-rule:nonzero;stroke:none" transform="translate(313.433 979.348)"/><path d="M0 0c-.329.326-.075.911.322.371 0 0 .399-.368.301-1.104C.594-.958.494-.489 0 0" style="fill:#231f20;fill-opacity:1;fill-rule:nonzero;stroke:none" transform="translate(315.175 980.779)"/><path d="M0 0c-.538.447-.177.978.324.371 0 0 .397-.368.302-1.104C.594-.957.534-.442 0 0" style="fill:#231f20;fill-opacity:1;fill-rule:nonzero;stroke:none" transform="translate(315.988 981.487)"/><path d="M0 0c-.509.494-.013.783.322.371 0 0 .401-.368.302-1.106C.594-.958.501-.484 0 0" style="fill:#231f20;fill-opacity:1;fill-rule:nonzero;stroke:none" transform="translate(316.844 982.224)"/><path d="M0 0c-.314.407-.81.91-1.007.977-.198.065-.304.394-.036.449.332.065.732-.022 1.379-1.012 0 0 .572-.915.253-1.706C.506-1.503.422-.551 0 0" style="fill:#231f20;fill-opacity:1;fill-rule:nonzero;stroke:none" transform="translate(319.522 984.5)"/><path d="M0 0a4.5 4.5 0 0 1-.494.476c-.114.095.249.509.345.441Q.038.787.205.561S.623.177.459-.548C.406-.768.404-.449 0 0" style="fill:#231f20;fill-opacity:1;fill-rule:nonzero;stroke:none" transform="translate(318.89 983.401)"/><path d="M0 0c-.264.255-.03.815.324.369 0 0 .382-.272.285-1.01C.579-.863.501-.482 0 0" style="fill:#231f20;fill-opacity:1;fill-rule:nonzero;stroke:none" transform="translate(317.717 982.959)"/><path d="M0 0c.257.23-.05.673-.299.387 0 0-.421-.34-.369-1.083.015-.225.149.232.668.696" style="fill:#231f20;fill-opacity:1;fill-rule:nonzero;stroke:none" transform="translate(372.538 979.148)"/><path d="M0 0c.269.224.099.831-.3.389 0 0-.421-.342-.368-1.084C-.651-.92-.534-.446 0 0" style="fill:#231f20;fill-opacity:1;fill-rule:nonzero;stroke:none" transform="translate(373.31 978.373)"/><path d="M0 0c.347.304.13.905-.299.389 0 0-.421-.342-.369-1.084C-.651-.92-.523-.458 0 0" style="fill:#231f20;fill-opacity:1;fill-rule:nonzero;stroke:none" transform="translate(371.658 979.907)"/><path d="M0 0c.566.412.235.967-.301.389 0 0-.417-.342-.367-1.083C-.651-.92-.561-.411 0 0" style="fill:#231f20;fill-opacity:1;fill-rule:nonzero;stroke:none" transform="translate(370.889 980.663)"/><path d="M0 0c.538.461.062.78-.299.389 0 0-.421-.342-.367-1.084.017-.227.138.243.666.695" style="fill:#231f20;fill-opacity:1;fill-rule:nonzero;stroke:none" transform="translate(370.079 981.452)"/><path d="M0 0c.339.389.863.86 1.067.915.2.053.325.374.062.446-.326.085-.732.023-1.438-.925 0 0-.629-.88-.357-1.69.072-.213.21.73.666 1.254" style="fill:#231f20;fill-opacity:1;fill-rule:nonzero;stroke:none" transform="translate(367.545 983.884)"/><path d="M0 0q.27.261.521.446C.639.533.305.968.205.906Q.009.786-.172.573S-.613.214-.491-.519c.037-.224.06.095.491.519" style="fill:#231f20;fill-opacity:1;fill-rule:nonzero;stroke:none" transform="translate(368.11 982.75)"/><path d="M0 0c.279.24.078.811-.299.391 0 0-.399-.249-.347-.992.015-.225.117.15.646.601" style="fill:#231f20;fill-opacity:1;fill-rule:nonzero;stroke:none" transform="translate(369.253 982.236)"/><path d="M0 0c.105.195.117.28.159.419.158.516.637.487.414-.306C.538-.012.536-.066.444-.209c0 0-.245-.484-.982-.589C-.761-.83-.327-.611 0 0" style="fill:#231f20;fill-opacity:1;fill-rule:nonzero;stroke:none" transform="translate(313.06 1030.194)"/><path d="M0 0c.095.174.159.325.204.455.182.548.509.118.432-.241a1.4 1.4 0 0 0-.19-.424S.199-.694-.538-.8c-.223-.031.211.187.538.8" style="fill:#231f20;fill-opacity:1;fill-rule:nonzero;stroke:none" transform="translate(312.14 1030.785)"/><path d="M0 0q.124.23.187.41C.396.992.866.977.623.174a1.5 1.5 0 0 0-.179-.385S.199-.694-.536-.8c-.225-.032.207.186.536.8" style="fill:#231f20;fill-opacity:1;fill-rule:nonzero;stroke:none" transform="translate(313.99 1029.497)"/><path d="M0 0c.094.174.139.275.182.404.185.551.673.521.419-.291A1.2 1.2 0 0 0 .444-.21S.2-.693-.536-.8c-.225-.031.209.187.536.8" style="fill:#231f20;fill-opacity:1;fill-rule:nonzero;stroke:none" transform="translate(314.89 1028.905)"/><path d="M0 0c.112.209.13.237.172.384.142.492.527-.08.386-.399C.511-.119.519-.092.444-.211c0 0-.245-.484-.982-.59C-.761-.833-.329-.614 0 0" style="fill:#231f20;fill-opacity:1;fill-rule:nonzero;stroke:none" transform="translate(315.901 1028.376)"/><path d="M0 0c.244.453.296.742.274.95-.02.207.235.439.395.215C.865.892.796.426.444-.211c0 0-.314-.571-1.098-.693-.224-.034.325.29.654.904" style="fill:#231f20;fill-opacity:1;fill-rule:nonzero;stroke:none" transform="translate(318.537 1026.197)"/><path d="M0 0q.081.148.134.277C.24.558.726.382.626.181.568.068.531-.072.442-.21c0 0-.125-.404-.861-.509C-.643-.751-.331-.613 0 0" style="fill:#231f20;fill-opacity:1;fill-rule:nonzero;stroke:none" transform="translate(317.605 1026.877)"/><path d="M0 0q.102.195.164.352C.409.979.967.918.561.011A1.5 1.5 0 0 0 .442-.21S.284-.652-.451-.758C-.674-.79-.331-.612 0 0" style="fill:#231f20;fill-opacity:1;fill-rule:nonzero;stroke:none" transform="translate(316.79 1027.678)"/><path d="M0 0c-.319-.606-.129-.77-.068-.942 0 0-.663.379-.228 1.08 0 0 .161.323.648.398C.503.557.215.411 0 0" style="fill:#231f20;fill-opacity:1;fill-rule:nonzero;stroke:none" transform="translate(310.981 1034.342)"/><path d="M0 0c-.319-.606-.129-.77-.07-.943 0 0-.661.38-.226 1.08 0 0 .159.324.648.397C.501.558.215.409 0 0" style="fill:#231f20;fill-opacity:1;fill-rule:nonzero;stroke:none" transform="translate(311.754 1033.808)"/><path d="M0 0c-.319-.607-.128-.769-.068-.942 0 0-.663.38-.227 1.079 0 0 .16.323.647.398C.501.558.215.41 0 0" style="fill:#231f20;fill-opacity:1;fill-rule:nonzero;stroke:none" transform="translate(312.532 1033.302)"/><path d="M0 0c-.319-.607-.129-.769-.07-.942 0 0-.661.379-.225 1.08 0 0 .158.322.647.397C.501.558.215.409 0 0" style="fill:#231f20;fill-opacity:1;fill-rule:nonzero;stroke:none" transform="translate(313.293 1032.742)"/><path d="M0 0c-.319-.606-.129-.77-.07-.942 0 0-.661.38-.227 1.08 0 0 .16.322.649.398C.501.558.214.411 0 0" style="fill:#231f20;fill-opacity:1;fill-rule:nonzero;stroke:none" transform="translate(314.088 1032.214)"/><path d="M0 0c-.319-.606-.129-.769-.07-.943 0 0-.661.38-.227 1.08 0 0 .16.324.649.398C.501.558.215.41 0 0" style="fill:#231f20;fill-opacity:1;fill-rule:nonzero;stroke:none" transform="translate(314.87 1031.661)"/><path d="M0 0c-.319-.607-.13-.77-.072-.942 0 0-.659.379-.225 1.079 0 0 .16.323.649.397C.501.558.214.41 0 0" style="fill:#231f20;fill-opacity:1;fill-rule:nonzero;stroke:none" transform="translate(315.632 1031.145)"/><path d="M0 0c-.317-.608-.129-.77-.07-.943 0 0-.661.379-.225 1.08 0 0 .16.323.649.397C.503.558.215.409 0 0" style="fill:#231f20;fill-opacity:1;fill-rule:nonzero;stroke:none" transform="translate(316.392 1030.628)"/><path d="M0 0c-.319-.607-.129-.769-.068-.942 0 0-.663.379-.229 1.08 0 0 .162.324.649.397C.501.558.215.41 0 0" style="fill:#231f20;fill-opacity:1;fill-rule:nonzero;stroke:none" transform="translate(317.153 1030.11)"/><path d="M0 0c.506-.466.711-.324.893-.312 0 0-.537-.541-1.102.062 0 0-.27.237-.215.729C-.409.628-.341.312 0 0" style="fill:#231f20;fill-opacity:1;fill-rule:nonzero;stroke:none" transform="translate(310.081 979.042)"/><path d="M0 0c.504-.466.711-.324.893-.312 0 0-.536-.541-1.102.062 0 0-.27.237-.215.727C-.407.628-.339.314 0 0" style="fill:#231f20;fill-opacity:1;fill-rule:nonzero;stroke:none" transform="translate(310.798 979.65)"/><path d="M0 0c.504-.464.71-.324.893-.312 0 0-.537-.539-1.103.062 0 0-.269.237-.216.729C-.409.628-.341.314 0 0" style="fill:#231f20;fill-opacity:1;fill-rule:nonzero;stroke:none" transform="translate(311.489 980.271)"/><path d="M0 0c.504-.464.711-.322.893-.31 0 0-.537-.541-1.102.06 0 0-.27.238-.217.729C-.409.629-.339.314 0 0" style="fill:#231f20;fill-opacity:1;fill-rule:nonzero;stroke:none" transform="translate(312.225 980.86)"/><path d="M0 0c.503-.464.709-.322.891-.311 0 0-.535-.54-1.1.061 0 0-.27.237-.217.729C-.409.629-.341.314 0 0" style="fill:#231f20;fill-opacity:1;fill-rule:nonzero;stroke:none" transform="translate(312.941 981.492)"/><path d="M0 0c.503-.464.71-.324.893-.312 0 0-.537-.539-1.102.062 0 0-.27.237-.215.729C-.409.628-.341.314 0 0" style="fill:#231f20;fill-opacity:1;fill-rule:nonzero;stroke:none" transform="translate(313.677 982.106)"/><path d="M0 0c.503-.464.711-.322.893-.311 0 0-.537-.54-1.102.061 0 0-.27.238-.215.729C-.409.629-.341.314 0 0" style="fill:#231f20;fill-opacity:1;fill-rule:nonzero;stroke:none" transform="translate(314.373 982.707)"/><path d="M0 0c.503-.464.711-.322.893-.31 0 0-.537-.541-1.102.06 0 0-.27.238-.217.729C-.409.629-.341.314 0 0" style="fill:#231f20;fill-opacity:1;fill-rule:nonzero;stroke:none" transform="translate(315.07 983.308)"/><path d="M0 0c.504-.464.711-.322.893-.31 0 0-.537-.541-1.102.06 0 0-.27.238-.217.731C-.409.629-.341.314 0 0" style="fill:#231f20;fill-opacity:1;fill-rule:nonzero;stroke:none" transform="translate(315.766 983.909)"/><path d="M0 0c-.509-.459-.714-.316-.896-.301 0 0 .53-.547 1.101.047 0 0 .274.236.226.728C.416.623.344.309 0 0" style="fill:#231f20;fill-opacity:1;fill-rule:nonzero;stroke:none" transform="translate(376.366 977.692)"/><path d="M0 0c-.509-.459-.714-.316-.896-.3 0 0 .532-.548 1.101.046 0 0 .276.236.226.728C.417.623.344.309 0 0" style="fill:#231f20;fill-opacity:1;fill-rule:nonzero;stroke:none" transform="translate(375.792 978.443)"/><path d="M0 0c-.511-.459-.714-.315-.896-.302 0 0 .53-.546 1.103.048 0 0 .27.234.224.728C.416.624.344.309 0 0" style="fill:#231f20;fill-opacity:1;fill-rule:nonzero;stroke:none" transform="translate(375.226 979.19)"/><path d="M0 0c-.509-.457-.715-.314-.897-.301 0 0 .531-.545 1.102.049 0 0 .274.234.226.728C.416.624.342.31 0 0" style="fill:#231f20;fill-opacity:1;fill-rule:nonzero;stroke:none" transform="translate(374.64 979.93)"/><path d="M0 0c-.509-.459-.713-.315-.896-.301 0 0 .532-.547 1.101.047 0 0 .274.236.226.728C.417.623.346.309 0 0" style="fill:#231f20;fill-opacity:1;fill-rule:nonzero;stroke:none" transform="translate(374.039 980.625)"/><path d="M0 0c-.508-.459-.713-.316-.897-.302 0 0 .531-.546 1.104.048 0 0 .272.236.224.728C.416.623.342.309 0 0" style="fill:#231f20;fill-opacity:1;fill-rule:nonzero;stroke:none" transform="translate(373.383 981.248)"/><path d="M0 0c-.509-.457-.714-.314-.896-.301 0 0 .53-.547 1.101.049 0 0 .274.235.226.726C.416.624.344.31 0 0" style="fill:#231f20;fill-opacity:1;fill-rule:nonzero;stroke:none" transform="translate(372.685 981.919)"/><path d="M0 0c-.509-.459-.714-.316-.896-.301 0 0 .53-.547 1.101.047 0 0 .274.236.226.728C.417.624.344.311 0 0" style="fill:#231f20;fill-opacity:1;fill-rule:nonzero;stroke:none" transform="translate(371.995 982.475)"/><path d="M0 0c-.509-.457-.713-.314-.896-.301 0 0 .532-.545 1.103.049 0 0 .274.235.224.728C.417.624.344.31 0 0" style="fill:#231f20;fill-opacity:1;fill-rule:nonzero;stroke:none" transform="translate(371.27 983.12)"/><path d="M0 0c-.993-.127-.242-.533.104-.464 0 0 .654.075.767.805C.903.556.663.085 0 0" style="fill:#231f20;fill-opacity:1;fill-rule:nonzero;stroke:none" transform="translate(368.23 979.477)"/><path d="M0 0c-.99-.127-.24-.533.105-.464 0 0 .655.075.766.805C.906.556.664.085 0 0" style="fill:#231f20;fill-opacity:1;fill-rule:nonzero;stroke:none" transform="translate(368.607 978.8)"/><path d="M0 0c-.99-.127-.24-.531.105-.462 0 0 .655.075.766.803C.906.556.664.085 0 0" style="fill:#231f20;fill-opacity:1;fill-rule:nonzero;stroke:none" transform="translate(368.89 978.07)"/><path d="M0 0c-.99-.127-.242-.532.104-.464 0 0 .652.075.766.805C.903.556.663.085 0 0" style="fill:#231f20;fill-opacity:1;fill-rule:nonzero;stroke:none" transform="translate(369.258 977.366)"/><path d="M0 0c-.99-.127-.239-.533.107-.464 0 0 .654.075.766.803C.906.556.666.083 0 0" style="fill:#231f20;fill-opacity:1;fill-rule:nonzero;stroke:none" transform="translate(369.647 976.677)"/><path d="M0 0c-.992-.127-.24-.531.105-.464 0 0 .655.077.766.805C.903.556.664.085 0 0" style="fill:#231f20;fill-opacity:1;fill-rule:nonzero;stroke:none" transform="translate(370.027 975.946)"/><path d="M0 0c-.99-.127-.239-.533.107-.464 0 0 .653.077.766.805C.906.556.666.085 0 0" style="fill:#231f20;fill-opacity:1;fill-rule:nonzero;stroke:none" transform="translate(370.391 975.296)"/><path d="M0 0c-.99-.129-.24-.533.105-.466 0 0 .655.077.766.805C.905.556.664.083 0 0" style="fill:#231f20;fill-opacity:1;fill-rule:nonzero;stroke:none" transform="translate(370.812 974.553)"/><path d="M0 0c-.99-.127-.239-.531.105-.462 0 0 .653.075.766.803C.905.556.664.085 0 0" style="fill:#231f20;fill-opacity:1;fill-rule:nonzero;stroke:none" transform="translate(371.271 973.889)"/><path d="M0 0c-.99-.127-.24-.533.105-.464 0 0 .653.075.766.803C.905.556.664.085 0 0" style="fill:#231f20;fill-opacity:1;fill-rule:nonzero;stroke:none" transform="translate(371.867 973.268)"/><path d="M0 0c-1.17-.154-.284-.629.124-.548 0 0 .774.092.909.952C1.072.659.788.104 0 0" style="fill:#231f20;fill-opacity:1;fill-rule:nonzero;stroke:none" transform="translate(372.538 972.614)"/><path d="M0 0c.975-.217.19-.552-.147-.452 0 0-.644.135-.691.869C-.851.636-.653.145 0 0" style="fill:#231f20;fill-opacity:1;fill-rule:nonzero;stroke:none" transform="translate(319.12 980.35)"/><path d="M0 0c.975-.217.19-.551-.145-.452 0 0-.646.133-.691.869C-.85.636-.653.145 0 0" style="fill:#231f20;fill-opacity:1;fill-rule:nonzero;stroke:none" transform="translate(318.68 979.71)"/><path d="M0 0c.975-.217.192-.553-.147-.454 0 0-.644.135-.689.871C-.85.636-.654.144 0 0" style="fill:#231f20;fill-opacity:1;fill-rule:nonzero;stroke:none" transform="translate(318.332 979.01)"/><path d="M0 0c.975-.217.192-.553-.147-.452 0 0-.643.133-.689.869C-.851.636-.653.144 0 0" style="fill:#231f20;fill-opacity:1;fill-rule:nonzero;stroke:none" transform="translate(317.904 978.341)"/><path d="M0 0c.973-.215.192-.551-.147-.452 0 0-.644.135-.689.871C-.851.636-.654.145 0 0" style="fill:#231f20;fill-opacity:1;fill-rule:nonzero;stroke:none" transform="translate(317.452 977.689)"/><path d="M0 0c.975-.215.192-.551-.147-.452 0 0-.643.135-.689.869C-.85.636-.653.145 0 0" style="fill:#231f20;fill-opacity:1;fill-rule:nonzero;stroke:none" transform="translate(317.008 976.996)"/><path d="M0 0c.973-.217.19-.553-.147-.452 0 0-.644.133-.691.869C-.851.636-.654.144 0 0" style="fill:#231f20;fill-opacity:1;fill-rule:nonzero;stroke:none" transform="translate(316.587 976.383)"/><path d="M0 0c.975-.217.192-.553-.147-.452 0 0-.644.133-.691.869C-.85.634-.654.144 0 0" style="fill:#231f20;fill-opacity:1;fill-rule:nonzero;stroke:none" transform="translate(316.101 975.68)"/><path d="M0 0c.977-.217.192-.551-.145-.452 0 0-.645.133-.691.869C-.85.636-.653.145 0 0" style="fill:#231f20;fill-opacity:1;fill-rule:nonzero;stroke:none" transform="translate(315.582 975.06)"/><path d="M0 0c.975-.217.192-.553-.147-.454 0 0-.644.135-.691.871C-.85.636-.653.144 0 0" style="fill:#231f20;fill-opacity:1;fill-rule:nonzero;stroke:none" transform="translate(315.096 974.442)"/><path d="M0 0c1.154-.257.227-.651-.172-.534 0 0-.763.16-.818 1.032C-1.007.755-.773.174 0 0" style="fill:#231f20;fill-opacity:1;fill-rule:nonzero;stroke:none" transform="translate(314.61 973.769)"/><path d="m0 0-2.23-.003c-.264 0-.488.011-.553.31-.085.388.28.466.28.466-.03-.024-.121-.195-.05-.372.066-.161.197-.137.418-.137L.359.267C.359.024 0 0 0 0" style="fill:#231f20;fill-opacity:1;fill-rule:nonzero;stroke:none" transform="translate(335.806 1000.445)"/><path d="M0 0h-1.083c-.186 0-.353.035-.421.239-.082.245.192.304.192.304-.022-.018-.059-.097-.007-.221.045-.113.149-.107.304-.107L.254.208C.254-.001 0 0 0 0" style="fill:#231f20;fill-opacity:1;fill-rule:nonzero;stroke:none" transform="translate(335.203 990.755)"/><path d="M0 0c.371.332.708.911.474 1.726l-.01.025c-.003.009-.369.915-.052 1.927l.107.334-.349-.043c-.05-.006-.457-.071-.955-.57-.412.836-1.202 1.46-2.021 1.87.3-.959.34-1.312.093-1.721a2.55 2.55 0 0 1-1.274.627l-.395.054.16-.365c.254-.585.055-.991-.177-1.463-.17-.348-.364-.742-.364-1.227 0-.636.326-1.044.629-1.266a1.07 1.07 0 0 1-.35-.793c0-.402.205-.751.517-.925.101-.314.321-.572.606-.724l.359-7.211a.96.96 0 0 1 .094-1.896l.145-2.89c0-.429.347-.774.776-.774.446 0 .772.347.775.766l.13 2.9a.97.97 0 0 1 .862.956.96.96 0 0 1-.777.942l.321 7.195c.304.15.536.419.638.748.312.183.512.546.512.92A1.08 1.08 0 0 1 0 0m-.124 3.362a3.6 3.6 0 0 1 .167-1.771C.302.669-.396.242-.549.159l-.022.005h-.701c.437.571.788 1.32.788 1.988a3 3 0 0 1-.062.579l-.057.196c.177.205.343.347.479.435m-2.02 1.029c.55-.444 1.227-1.279 1.229-2.239 0-.867-.743-1.862-.921-1.99a1.7 1.7 0 0 0-.324.97c-.002.715.349 1.134.349 1.134s-.518-.333-.593-.995c-.037-.323.033-.662.254-1.109h-.314c-.085.135-.69.89-.185 1.742.083.14.462.689.51.799.059.135.052.262.052.262-.062-.102-.17-.224-.17-.224-.11-.12-.481-.504-.596-.646-.723-.876-.02-1.852.013-1.935h-.294c-.322.369-.429.727-.397 1.267.074 1.212 1.533 1.364 1.387 2.964m-2.168-3.215c0 .38.153.694.317 1.028.199.405.421.854.314 1.423a2 2 0 0 0 .704-.45c-.145-.177-.305-.349-.394-.456-.614-.729-.851-1.599-.192-2.569h-.095a1.065 1.065 0 0 0-.654 1.024m2.668-15.7a.34.34 0 0 0-.343-.349.35.35 0 0 0-.345.349l-.144 2.878h.18l.102-2.783c0-.21.099-.254.099-.254l-.054 3.037.636.002zm.993 3.841a.535.535 0 0 0-.528-.529l-1.624-.002a.529.529 0 1 0-.002 1.057l1.623.003a.53.53 0 0 0 .531-.529M-2.92-2.669s.109-.016.292-.03l.259-7.025h-.2zm.609-.05a7.3 7.3 0 0 1 1.199.048l-.317-7.052-.755-.001zm1.079.474-1.541-.002a.82.82 0 0 0-.651.319l2.84.004a.81.81 0 0 0-.648-.321m.733.751-3.01-.005c-.286 0-.543.245-.543.615 0 .354.261.612.541.612l3.01.003c.281 0 .543-.27.543-.61 0-.341-.262-.615-.541-.615" style="fill:#231f20;fill-opacity:1;fill-rule:nonzero;stroke:none" transform="translate(336.632 1001.708)"/><path d="m0 0-2.232-.003c-.262 0-.486.011-.553.31-.082.388.284.466.284.466-.032-.024-.122-.195-.052-.372.066-.161.197-.137.416-.137L.361.266C.361.024 0 0 0 0" style="fill:#231f20;fill-opacity:1;fill-rule:nonzero;stroke:none" transform="translate(353.809 1000.445)"/><path d="M0 0h-1.085c-.185 0-.351.035-.419.239-.082.245.19.304.19.304-.022-.018-.057-.097-.007-.221.047-.113.147-.107.303-.107L.252.208C.254-.001 0 0 0 0" style="fill:#231f20;fill-opacity:1;fill-rule:nonzero;stroke:none" transform="translate(353.208 990.755)"/><path d="M0 0c.369.332.709.911.476 1.726l-.01.025a3.1 3.1 0 0 0-.054 1.927l.107.334-.347-.043c-.05-.006-.459-.071-.957-.57-.412.836-1.202 1.459-2.021 1.87.3-.959.34-1.311.093-1.72a2.57 2.57 0 0 1-1.272.626l-.396.054.159-.365c.254-.585.055-.991-.177-1.463-.17-.348-.364-.742-.364-1.227 0-.636.324-1.044.631-1.268a1.07 1.07 0 0 1-.352-.791c0-.402.205-.751.516-.925.102-.314.322-.572.607-.724l.359-7.211a.962.962 0 0 1 .094-1.896l.143-2.89c0-.429.349-.774.777-.774.449 0 .773.347.778.766l.128 2.9a.966.966 0 0 1 .862.956.96.96 0 0 1-.777.942l.321 7.195c.304.15.537.419.639.748.312.183.513.546.513.92A1.08 1.08 0 0 1 0 0m-.124 3.362a3.6 3.6 0 0 1 .169-1.771C.3.669-.396.242-.549.159l-.022.005h-.699c.437.571.786 1.32.786 1.988a3 3 0 0 1-.06.579l-.059.196c.177.205.344.347.479.435m-2.018 1.029c.549-.444 1.225-1.279 1.225-2.239 0-.867-.739-1.862-.919-1.99a1.7 1.7 0 0 0-.324.97c-.002.715.349 1.134.349 1.134s-.516-.333-.593-.995c-.035-.323.033-.662.254-1.109h-.314c-.084.135-.69.89-.185 1.742.085.14.462.689.51.799.057.135.052.262.052.262-.062-.102-.17-.224-.17-.224-.109-.12-.479-.504-.598-.646-.723-.876-.018-1.852.017-1.935h-.294c-.322.369-.431.727-.397 1.267.072 1.212 1.531 1.364 1.387 2.964m-2.17-3.215c0 .38.155.694.317 1.028.2.405.421.854.314 1.423.21-.079.476-.221.704-.45-.147-.177-.305-.349-.394-.456-.614-.729-.849-1.599-.192-2.569h-.093a1.06 1.06 0 0 0-.656 1.024m2.669-15.7a.34.34 0 0 0-.345-.349.35.35 0 0 0-.344.349l-.142 2.878h.178l.104-2.784c0-.209.097-.253.097-.253l-.054 3.037.636.002zm.992 3.841a.534.534 0 0 0-.529-.529l-1.623-.002a.529.529 0 1 0-.002 1.057l1.623.003a.53.53 0 0 0 .531-.529m-2.271 8.014s.111-.016.294-.03l.261-7.025h-.202zm.611-.05a7.3 7.3 0 0 1 1.199.048l-.315-7.052-.757-.001zm1.081.474-1.545-.002a.81.81 0 0 0-.649.319l2.84.004a.8.8 0 0 0-.646-.321m.731.751-3.01-.005c-.286 0-.543.245-.544.615 0 .354.26.612.541.612l3.011.003c.281 0 .543-.27.544-.61 0-.341-.263-.615-.542-.615" style="fill:#231f20;fill-opacity:1;fill-rule:nonzero;stroke:none" transform="translate(354.635 1001.708)"/><path d="M0 0c.457.385 1.043 1.14.698 2.351l-.008.024C.683 2.388.16 3.683.613 5.106l.107.334-.349-.043c-.029-.004-.63-.087-1.343-.838-.686 1.43-2.156 2.317-2.237 2.364l-.541.318.216-.588c.087-.24.272-.97.092-1.473a2.4 2.4 0 0 0-.186-.402c-.768.764-1.743.9-1.786.906l-.394.052.16-.365c.368-.844.084-1.426-.247-2.098-.243-.497-.497-1.011-.494-1.66 0-.895.476-1.453.897-1.737a1.38 1.38 0 0 1-.541-1.098c0-.546.317-1.016.774-1.244.08-.462.384-.845.798-1.033l.466-10.12a1.23 1.23 0 0 1-1.015-1.209 1.23 1.23 0 0 1 1.125-1.222l.187-4.07c0-.574.471-1.043 1.045-1.042a1.04 1.04 0 0 1 1.042 1.034l.187 4.078a1.225 1.225 0 0 1 .114 2.442l.465 10.126c.436.194.755.585.823 1.038.441.234.742.697.742 1.23C.72-.692.427-.237 0 0m.072 4.815a4.83 4.83 0 0 1 .195-2.6C.613.988-.209.36-.531.165a1 1 0 0 1-.14.007l-1.09-.001c.471.572 1.145 1.623 1.137 2.95a3.3 3.3 0 0 1-.161.972c.331.388.635.605.857.722m-3.09.213c.138.384.113.826.056 1.173.687-.53 1.877-1.653 1.887-3.084.01-1.451-.932-2.573-1.291-2.946L-2.429.17a2.4 2.4 0 0 0-.441 1.335c0 .992.483 1.573.483 1.573s-.715-.464-.82-1.38c-.05-.446.045-.914.344-1.528h-.434c-.135.207-.942 1.239-.252 2.404.117.196.641.954.708 1.109.081.188.071.364.071.364-.085-.143-.237-.312-.237-.312-.15-.167-.664-.698-.826-.895-.982-1.191-.065-2.516.017-2.671l-.488-.002c-1.364 1.781.074 3.19.137 3.252l.015.016q.14.158.271.296c.35.379.651.706.863 1.297m-2.924-3.415c0 .546.218.99.45 1.462.302.613.609 1.242.397 2.07a2.9 2.9 0 0 0 1.207-.743c-.1-.122-.209-.239-.324-.365l-.274-.301C-4.621 3.6-6.08 2.06-4.843.15a1 1 0 0 1-.154-.03c-.14.058-.941.431-.945 1.493m2.373-5.235.417-9.976-.394-.001-.459 9.981q.057-.005.117-.005zm1.507-16.496a.59.59 0 0 0-.591-.595.6.6 0 0 0-.594.605l-.187 4.055h.366l.153-3.964c0-.29.135-.35.135-.35l-.068 4.314.975.001zm1.371 5.295a.78.78 0 0 0-.78-.778l-2.309-.003a.778.778 0 0 0-.003 1.554l2.312.003a.78.78 0 0 0 .78-.776m-1.07 1.226-1.155-.001-.124 9.976 1.574.003q.084 0 .165.009zm.295 10.428-2.422-.003a.95.95 0 0 0-.867.568q.057-.005.111-.005l3.978.005q.068 0 .133.006c-.15-.33-.517-.571-.933-.571m.798 1.015-3.976-.005a.94.94 0 0 0-.94.937c0 .518.42.938.936.94l3.977.004A1 1 0 0 0-.467-.3l.005-.009.01.005a.94.94 0 0 0 .722-.911.94.94 0 0 0-.938-.939" style="fill:#231f20;fill-opacity:1;fill-rule:nonzero;stroke:none" transform="translate(346.438 1000.959)"/><path d="M0 0c-.113.286.03.561.082.599 0 0-.563-.097-.426-.722.104-.48.436-.531.861-.53l3.6.004s.421-.039.581.359L.671-.294C.317-.295.103-.26 0 0" style="fill:#231f20;fill-opacity:1;fill-rule:nonzero;stroke:none" transform="translate(341.575 999.723)"/><path d="M0 0c-.09.225.025.442.064.472 0 0-.443-.076-.336-.57.083-.379.344-.418.679-.418l1.962.003s.332-.031.457.283L.529-.234C.25-.234.082-.205 0 0" style="fill:#231f20;fill-opacity:1;fill-rule:nonzero;stroke:none" transform="translate(342.47 986.11)"/><path d="m0 0-.074 1.301a44 44 0 0 1-.435 3.753l-.145.876q-.123.694-.278 1.4l-.085.393-.385-.114c-.014-.003-.636-.18-1.685-.355l-2.544-.289a24 24 0 0 0-5.937.331l-.893.176-.046.009c-.019.005-.735.157-1.827.527l-1.187.441a22 22 0 0 0-3.985 2.092l-1.165.846a16 16 0 0 0-.648.538l-.258.225-.249-.235a9 9 0 0 0-.615-.516l-1.19-.858a22.7 22.7 0 0 0-4.01-2.1l-1.185-.443a23 23 0 0 0-1.81-.542l-.05-.012-1.03-.224a21.5 21.5 0 0 0-3.898-.345c-.676 0-1.322.026-1.927.07l-2.55.295c-1.007.162-1.63.319-1.642.321l-.378.096-.084-.38a33 33 0 0 1-.22-1.124l-.196-1.138a43 43 0 0 1-.417-3.676L-43.101.03a44 44 0 0 1-.046-1.848l.01-1.269c.071-3.566.496-6.025.53-6.223.04-.303.794-6.045 3.647-12.967 2.685-6.499 7.817-15.395 17.06-21.003l.401-.242.401.242c9.23 5.631 14.338 14.542 17.003 21.048C-1.257-15.302-.516-9.557-.479-9.255c.032.197.446 2.627.516 6.157l.006 1.262A49 49 0 0 1 0 0m-9.945-9.385-.097.363c-1.327-.356-2.273-.523-2.98-.524h-.011c-1.226 0-3.13.157-5.269.906-.583.203-1.279.426-2.03.553a6.9 6.9 0 0 1-2.132.053c-.89-.116-1.703-.377-2.381-.615a16.1 16.1 0 0 0-5.278-.919h-.007c-1.048 0-2.507.377-3.796.747l-.104-.363.102.363q-.555.157-1.082.314l-.422.122c-.763.222-2.037.388-2.967.388h-.011a7.4 7.4 0 0 1-3.508-.859c-.028.19-.068.46-.112.801a7.56 7.56 0 0 0 3.618.936h.015c.856 0 2.063-.156 2.755-.358l1.504-.438.107.363-.106-.363c1.414-.402 2.875-.776 4.007-.776h.007c1.282.003 3.278.172 5.527.962.645.228 1.414.474 2.224.577l.736.055h.045l1.137-.1c.701-.12 1.356-.331 1.902-.522a16.9 16.9 0 0 1 5.51-.949h.019c.773 0 1.753.171 3.173.55.585.157 1.169.33 1.727.495l.619.182c.678.201 1.936.364 2.804.366h.01c1.271 0 2.52-.327 3.632-.935a27 27 0 0 0-.109-.771 7.7 7.7 0 0 1-3.523.828h-.01c-.817-.002-2.17-.15-3.014-.396l-.628-.185c-.551-.163-1.127-.334-1.7-.488zm-20.121 2.313h.006a17 17 0 0 1 3.578.41c.619.139 1.27.315 1.948.554.643.227 1.411.473 2.222.575l.79.056 1.13-.101c.711-.122 1.389-.343 1.901-.522.83-.291 1.625-.494 2.363-.639a16.7 16.7 0 0 1 3.153-.309h.012c.776 0 1.754.17 3.173.551.598.16 1.197.337 1.768.505l.578.171c.686.2 1.945.364 2.803.364h.007a8.36 8.36 0 0 0 3.748-.909q-.04-.451-.081-.836a8.34 8.34 0 0 1-3.723.88h-.011c-.826-.002-2.179-.15-3.017-.396l-.619-.183a72 72 0 0 0-1.706-.489c-.848-.226-2.075-.508-2.999-.525-1.223 0-3.121.159-5.262.907-.265.093-.574.196-.908.292a10 10 0 0 1-1.122.262c-.432.075-.838.11-1.243.11a6.5 6.5 0 0 1-.887-.062v.002a9 9 0 0 1-1.33-.277c-.374-.105-.73-.222-1.052-.337a16.2 16.2 0 0 0-5.277-.919h-.007c-1.04 0-2.504.378-3.798.746l-1.504.437c-.761.222-2.033.388-2.965.388h-.017a8.3 8.3 0 0 1-3.711-.878q-.04.37-.078.8c1.132.599 2.519.942 3.853.945h.008c.86 0 2.069-.157 2.761-.359l1.506-.437.104.362-.104-.362c1.413-.404 2.878-.777 4.009-.777m8.552 2.348-.003-.056v.056a7 7 0 0 1-.888-.06v-.001c-.882-.111-1.698-.372-2.381-.612a16.2 16.2 0 0 0-4.72-.908A8.004 8.004 0 0 0-21.554.618h.012c3.996 0 7.39-2.99 7.953-6.898a16.2 16.2 0 0 0-4.655.891c-.54.19-1.26.422-2.026.555l-.007-.027.005.027c-.436.074-.841.11-1.242.11m11.626-1.409-.099.363c-.799-.214-1.944-.494-2.841-.52a8.7 8.7 0 0 1-.586 2.18l12.698.956a50 50 0 0 0-.107-2.392 9.2 9.2 0 0 1-3.811.843h-.007c-.818-.001-2.17-.15-3.013-.395l-.58-.171c-.566-.167-1.16-.344-1.751-.501Zm9.182 4.197-12.912-1.725a8 8 0 0 1-.318.609L-.75-.164c.025-.611.042-1.205.044-1.772m-.513 6.66c.192-1.249.322-2.467.401-3.631l-13.359-3.744a9 9 0 0 1-.776 1.013zm-3.354 1.571c1.403.142 2.456.361 2.987.49.048-.24.09-.478.135-.718l-13.793-7.382q-.211.218-.437.422zm-6.973.23a25 25 0 0 1 4.307-.368c.177 0 .346.006.516.01L-16-.627a9 9 0 0 1-1.192.826zm-3.17.81a20 20 0 0 1 1.761-.524L-17.696.474a9 9 0 0 1-.741.322zm-4.902 2.373a22.6 22.6 0 0 1 3.778-1.952L-18.96.972a8.7 8.7 0 0 1-1.791.362zm-1.946 1.432c.277-.234.559-.454.843-.668l-.506-9.115c-.107.004-.209.014-.315.014h-.014c-.11 0-.217-.01-.327-.015l-.504 9.131c.364.271.643.498.823.653m-1.955-1.432 1.134-8.376A9 9 0 0 1-24.2.96l-3.125 6.793a23 23 0 0 1 3.806 1.955m-4.928-2.377 3.724-6.545a9 9 0 0 1-.739-.325l-4.736 6.332q.919.248 1.751.538m-7.167-1.208c1.431.001 2.78.121 4.035.356l5.618-6.292a8.5 8.5 0 0 1-1.202-.84l-9.276 6.788c.271-.006.543-.014.825-.012m-5.925.618a28 28 0 0 1 2.93-.461l11.133-7.201a9 9 0 0 1-.435-.42l-13.761 7.366c.045.24.083.476.133.716m-.362-2.054 13.708-6.35a9 9 0 0 1-.725-.952l-13.37 3.747c.078 1.141.203 2.332.387 3.555m-.453-4.821 13.196-2.889a8 8 0 0 1-.324-.621l-12.915 1.726c.002.571.017 1.172.043 1.784M-29.686-4.1a9 9 0 0 1-.579-2.21c-1.024.041-2.386.392-3.603.737l-1.504.439c-.761.221-2.035.388-2.968.388h-.012a9.3 9.3 0 0 1-3.918-.885 49 49 0 0 0-.115 2.487zm24.885-17.866c-2.623-6.399-7.643-15.155-16.698-20.675-9.07 5.494-14.115 14.241-16.754 20.632-2.431 5.886-3.318 10.885-3.541 12.354 1.082.608 2.163.905 3.384.905h.01c.856 0 2.065-.156 2.758-.358l.42-.122q.53-.158 1.087-.315v-.001c1.341-.383 2.863-.774 4.005-.774h.01c1.28.001 3.279.168 5.526.96.639.226 1.402.47 2.22.577l.738.054.045.001 1.142-.103c.695-.119 1.349-.329 1.898-.52a16.9 16.9 0 0 1 5.519-.949h.012c.775.001 1.781.177 3.172.552v-.002c.579.156 1.164.329 1.719.493l.625.185c.688.2 1.946.363 2.808.365h.006a7 7 0 0 0 3.405-.875c-.216-1.44-1.086-6.465-3.516-12.384" style="fill:#231f20;fill-opacity:1;fill-rule:nonzero;stroke:none" transform="translate(365.348 1018.366)"/><path d="m0 0 .025.022L-.003.01Q-.003.005 0 0" style="fill:#231f20;fill-opacity:1;fill-rule:nonzero;stroke:none" transform="translate(357.173 983.067)"/><path d="M0 0c-.124.333-.466.571-.913.644a4.27 4.27 0 0 1-1.842 2.547 3.86 3.86 0 0 1-2.113.616 4 4 0 0 1-1.16-.166c-.156.12-.476.326-.88.326-.297 0-.579-.109-.837-.325a1.4 1.4 0 0 1-.407.062.86.86 0 0 1-.648-.26c-.22-.234-.315-.612-.282-1.123a20 20 0 0 0-.03-2.96c-.088-1.127-.205-2.588.883-3.66-.076-.367-.048-.957.391-1.384a23.4 23.4 0 0 0-1.664-3.11c-.495-.04-.935-.087-1.341-.148.336.611.918 1.781 1.082 2.801.167 1.048-.511 1.984-.539 2.023l-.456.616.082-.76c.035-.341-.055-1.01-.087-1.231-.015-.107-.175-1.089-1.322-2.491-.561-.69-1-1.287-1.241-1.625.029.223.037.458 0 .652-.148.767-.582 1.168-.599 1.185l-.312.284-.035-.419c-.002-.014-.126-1.405-.651-2.357-.304-.553-.536-.947-.778-1.365-.202-.343-.408-.692-.66-1.141l-.145-.259c-.461-.808-.801-1.406-.581-2.332a6 6 0 0 1-.452.023l-.067.002c-1.952 0-2.82-1.541-3.287-2.369q-.103-.185-.182-.314c-.342-.533-1.591-.87-2.064-.958-.467-.134-1.035-.154-1.334-.154-.155 0-.253.005-.257.005l-.11.005-1.013-1.344.267-.093q.241-.083.638-.084c.305 0 .572.039.571.039.966.07 2.31.317 3.135.711.541.259 1.172.3 1.83.125.143-.038.242-.075.333-.112.196-.073.364-.137.758-.137a1.42 1.42 0 0 1 1.019.453l.327.38-.501-.038c-.18-.015-.332.092-.533.23-.183.125-.392.269-.669.351a4 4 0 0 1-.467.093c.335.179.707.219 1.277.141.649-.089 1.13-.561 1.258-1.234.119-.615-.459-1.259-.465-1.266l-.588-.649.816.316c.615.238 1.353.799 1.411 1.606.037.492-.033.821-.249 1.175.267-.11.54-.189.778-.189q.038 0 .074.002c.786.058 1.282.689 1.304.716l.242.314-.398.02c-.284.015-1.105.1-1.472.32l-.012.009a4.9 4.9 0 0 1 1.96.198c.77.239 1.336 1.124 1.361 1.162l.352.56-.611-.259c-.828-.351-1.144-.362-1.907-.394l-.095-.005a5 5 0 0 0-.839.027c.307.207.833.532 1.333.712.845.304 1.803.546 1.813.548l.471.117-.409.26c-.02.012-.254.156-.637.259q.46.477.878.928l.036-.043c.164-.242.573-.97.511-1.431l-.088-.658.449.491c.033.037.798.887.547 1.648a3 3 0 0 1-.355.86c.374-.094.86-.166 1.317-.082 1.264.232 1.775 1.125 1.876 1.616l.074.357-.344-.118a18 18 0 0 0-1.19-.367 2.7 2.7 0 0 0-.957-.061q.278.358.524.691c.885.09 1.633.314 2.363.707 1.494.804 1.637 2.318 1.697 2.964l.062.65-.424-.494c-.01-.01-.86-.997-1.329-1.396l-.08-.07c-.269-.234-.543-.472-1.147-.653.785 1.296 1.089 2.135 1.182 2.436.476.023.865.32 1.112.608a3 3 0 0 1 .427-.029c1.496 0 2.267 1.095 3.012 2.154l.159.223c.626.88 1.255 1.563 1.672 1.98C.134-.645.078-.212 0 0m-6.22 3.26c-1.351-5.173-.267-5.883-.267-5.883-.217 2.454.572 5.455.696 5.898.197.052.522.116.923.116.684 0 1.32-.184 1.89-.55A3.9 3.9 0 0 0-1.411.85c-.284-.853-1.766-2.942-1.781-2.965-1.372-1.978-2.411-2.509-3.038-2.606-.52-.08-.792.125-.808.137-1.438 1.068-.793 6.008-.406 7.932a.87.87 0 0 0 .536.205c.384 0 .681-.286.688-.293M-8.698-.672l.032.398c.053.882.055 1.739 0 2.621-.027.388.032.668.169.812q.12.131.345.13c.102 0 .197-.02.267-.039-.207-1.094-.891-5.178-.062-7.237-.936.945-.838 2.235-.751 3.315m2.241-7.462c.263.224.624.607.911.922-.157-.753-.506-1.492-1.386-1.965-.993-.534-1.979-.738-3.407-.702-1.424.029-2.517-.804-2.564-.84l-.556-.433.703.064c.005 0 .491.043 1.25.007.499-.023.88-.099 1.216-.166.546-.11 1.018-.204 1.722-.035.221.052.546.152.808.237-.21-.364-.637-.775-1.394-.913-.774-.142-1.467.177-1.712.264-.247.085-.765.111-.765.111s.177-.166.528-.442c.415-.329.656-1.21.657-1.215l.009-.027c.086-.252-.017-.559-.157-.813-.149.561-.506 1.09-.531 1.13-.918 1.154-2.134 1.319-3.518.481-1.614-.98-1.537-2.139-1.455-2.532a6 6 0 0 1-.521-.381l-.025-.022-.004.01c-.245.845.037 1.342.505 2.16l.146.261c.251.446.456.795.653 1.135.247.42.479.816.788 1.375.359.654.543 1.47.63 1.994.076-.149.15-.337.195-.568.07-.362-.085-1.011-.152-1.232l-.185-.626.514.403c1.167.914 2.217 1.137 4.125 1.288 1.915.152 2.412.585 2.893 1.002zm-4.389-2.593q-.286.043-.64.061a13 13 0 0 1-.482.013c.374.173.875.339 1.442.357a30 30 0 0 0-.32-.431m.637-.113-.178.035q.184.248.372.51.188.001.366.008a35 35 0 0 0-.444-.576zm-2.704-1.517a1.7 1.7 0 0 0 .604-.144 24 24 0 0 0-1.364-1.409c.229.695.695 1.446.76 1.553m-2.798-2.412c-.027.335.052.993.855 1.642-.197-.412-.421-.95-.531-1.472a9 9 0 0 1-.324-.17m1.563 2.098q.378.195.724.269c-.224-.389-.606-1.109-.739-1.73a7 7 0 0 1-.74-.25c.229.783.666 1.559.755 1.711m1.01-1.3c.282.277.701.704 1.191 1.257q.083-.063.164-.136a49 49 0 0 0-1.058-1.113zm4.158 5.23c.526.856 1.033 1.79 1.478 2.788l.303-.109c-.126-.364-.485-1.268-1.335-2.612a8 8 0 0 0-.446-.067m-2.781.496c.925 1.132 1.339 2.16 1.412 2.698.02.148.042.32.06.497.104-.295.176-.656.115-1.025-.182-1.15-.969-2.568-1.2-2.963a6 6 0 0 1-1.345-.443c.243.331.569.76.958 1.236m-2.413-9.72a1.4 1.4 0 0 0-.689-.265c-.427-.027-1.162.386-1.583.659q-.094.074-.202.139l-.01.006-.001-.001c-.401.235-.925.359-1.553.359q-.25-.002-.454-.02c.344.329.656.379.907.379.343 0 .711-.114 1.101-.236l.134-.041c.19-.094.589-.303 1.155-.643.314-.189.823-.286 1.195-.336m.084 1.548.097.003c.521.022.868.035 1.32.164-.183-.176-.412-.344-.656-.419a4.5 4.5 0 0 0-1.335-.206 5.7 5.7 0 0 0-1.057.107 7 7 0 0 0-.646.169l-.105.05-.009-.017-.053.019c-.421.13-.82.253-1.225.253-.63 0-1.132-.305-1.581-.958l-.298-.432.515.113c.001 0 .405.087.911.087.399 0 .905-.053 1.311-.279.028-.02.108-.077.22-.152q.076-.058.142-.13c.621-.683.736-.943.691-1.557-.025-.334-.217-.612-.452-.824.098.258.16.558.101.864-.16.841-.792 1.457-1.611 1.569-.2.027-.375.04-.539.04-.604 0-1.077-.19-1.487-.601l-.327-.329.464-.025c.006 0 .576-.032.905-.13.213-.064.385-.181.552-.294.095-.067.194-.134.299-.187a.9.9 0 0 0-.376-.082c-.319 0-.434.045-.609.112-.1.037-.212.08-.376.124-.753.202-1.484.15-2.115-.152-.776-.371-2.06-.605-3.001-.673-.002 0-.251-.035-.526-.035q-.11 0-.201.006l.508.675.168-.002c.391 0 .959.03 1.431.166.072.013 1.805.345 2.316 1.138.058.09.122.204.195.334.454.806 1.215 2.157 2.925 2.157h.06c.87-.015 1.212-.174 1.572-.337.401-.184.81-.374 1.882-.329m.337 1.544c-.83-.297-1.679-.937-1.718-.963l.015-.02c-.12.043-.23.093-.344.145-.111.052-.23.105-.367.155a6.6 6.6 0 0 0 2.326 1.082 2.7 2.7 0 0 0 1.334-.003c-.354-.1-.815-.241-1.246-.396m6.523 9.274c-.52.242-.616.678-.615.976a4.4 4.4 0 0 1 .651-.384A6 6 0 0 1-6.147-5.4c-.249-.218-.626-.413-1.083-.199M-.684-.875a16 16 0 0 1-1.717-2.033l-.16-.225c-.716-1.017-1.392-1.978-2.673-1.978q-.258 0-.544.055l-.022.013c.927.302 1.917 1.204 2.947 2.69.053.075 1.133 1.6 1.638 2.611l.113-.008c.354-.026.633-.181.713-.394.077-.205-.028-.464-.295-.731" style="fill:#231f20;fill-opacity:1;fill-rule:nonzero;stroke:none" transform="translate(373.817 998.471)"/><path d="m0 0-.11-.005c-.004 0-.102-.005-.257-.005-.297 0-.867.02-1.354.157-.453.085-1.7.421-2.044.955q-.079.13-.183.314c-.466.828-1.334 2.367-3.284 2.367H-7.3a7 7 0 0 1-.453-.023c.221.926-.12 1.524-.581 2.332l-.147.257c-.25.449-.455.799-.657 1.142a57 57 0 0 0-.78 1.365c-.524.952-.65 2.342-.65 2.358l-.035.419-.312-.284c-.016-.017-.451-.418-.599-1.186a2 2 0 0 1-.008-.585c-.226.367-.62.966-1.162 1.631-.93 1.136-1.451 2.283-1.64 3.606l-.077.53-.3-.444c-.027-.039-.648-.97-.501-2.013.157-1.119.72-2.103 1.102-2.666-.384.058-.796.098-1.245.121A23.4 23.4 0 0 0-17 13.436c.439.427.466 1.018.391 1.385 1.088 1.071.971 2.533.881 3.66l-.028.39a20 20 0 0 0-.002 2.569c.034.511-.06.889-.28 1.123a.86.86 0 0 1-.648.262 1.5 1.5 0 0 1-.406-.063q-.391.324-.838.325c-.402 0-.726-.206-.881-.328a4 4 0 0 1-1.159.167 3.84 3.84 0 0 1-2.113-.616 4.3 4.3 0 0 1-1.843-2.546c-.446-.073-.788-.312-.913-.644-.079-.212-.132-.646.392-1.169.417-.418 1.045-1.1 1.671-1.981l.159-.223c.746-1.059 1.517-2.154 3.011-2.154q.209 0 .428.03c.247-.289.637-.585 1.113-.609.095-.306.411-1.174 1.229-2.513-.79.187-1.172.512-1.496.791l-.04.035c-.468.399-1.319 1.386-1.327 1.396l-.426.494.06-.649c.072-.727.528-2.156 1.459-2.902.825-.659 1.781-1.075 3.339-1.424l.045-.059c-.381-.091-.683-.121-.998-.046-.391.092-1.805.609-1.818.614l-.548.2.296-.5c.41-.692 1.235-1.498 2.325-1.682.519-.086 1.179.002 1.648.094a4.4 4.4 0 0 1-.477-.876c-.263-.765.512-1.625.545-1.662l.448-.489-.089.658c-.063.461.349 1.189.503 1.417l.047.057c.337-.367.694-.746 1.08-1.135a2.2 2.2 0 0 1-.636-.422l-.413-.424.588.075c.007 0 .693.083 1.496-.206.501-.18 1.025-.506 1.334-.714a5 5 0 0 0-.84-.025l-.095.005c-.763.03-1.079.043-1.908.394l-.61.259.354-.561c.024-.037.588-.922 1.359-1.161a4.9 4.9 0 0 1 1.962-.198l-.014-.009c-.367-.222-1.188-.307-1.474-.32l-.397-.02.245-.314c.02-.028.516-.659 1.302-.716q.037-.004.074-.004c.237 0 .511.079.778.191-.217-.354-.286-.685-.249-1.177.059-.805.795-1.367 1.409-1.605l.823-.318-.594.652c-.005.007-.583.648-.466 1.266.129.673.611 1.145 1.259 1.234.571.078.943.038 1.28-.141a3 3 0 0 1-.469-.095C-6.439.397-6.648.255-6.83.13c-.202-.138-.355-.245-.536-.23l-.499.038.326-.381c.017-.018.396-.453 1.02-.453.395 0 .563.065.758.138.093.037.19.073.334.112.657.174 1.287.132 1.829-.125.823-.394 2.169-.643 3.122-.711.01-.002.279-.039.585-.039.262 0 .477.028.637.084l.267.093zm-13.723 6.157c-.02-.03-.374-.558-.522-1.117-.137.252-.242.558-.157.808.001.007.237.629.771 1.212l.494.539-.704-.2c-.012-.003-1.262-.354-2.055-.219-.68.114-1.242.509-1.641.95.442-.155.986-.342 1.222-.397.606-.143 1.12.01 1.973.264l1 .297-.856.156c-2.394.435-3.363.912-4.147 1.54-.581.464-.957 1.234-1.152 1.88.278-.301.611-.65.854-.858l.04-.035c.48-.412 1.136-.975 2.942-1.036.73-.025 1.359-.091 1.922-.207l.005-.005.005.003c.976-.202 1.744-.555 2.445-1.104l.514-.403-.187.625c-.065.22-.22.871-.15 1.233.044.228.119.417.196.565.086-.525.268-1.338.629-1.992.307-.558.541-.954.786-1.376.201-.34.403-.687.653-1.133q.076-.135.15-.262c.463-.813.746-1.311.504-2.147a4 4 0 0 1-.535.472c.068.461.031 1.53-1.473 2.441-1.382.838-2.597.671-3.526-.494m-3.612 7.009a24 24 0 0 1 1.484-2.8 6 6 0 0 0-.428.038c-.868 1.366-1.233 2.285-1.36 2.653zm4.808-6.55q.288.13.602.145c.07-.112.531-.861.758-1.552-.229.217-.724.699-1.36 1.407m-.526-.347q.082.071.163.133c.489-.551.907-.978 1.189-1.254l-.297.007q-.561.574-1.055 1.114m2.37-1.247c-.14.614-.512 1.313-.731 1.696q.348-.075.726-.271c.08-.12.521-.813.73-1.596a4.3 4.3 0 0 1-.725.171m1.192-.356c-.09.476-.272.932-.445 1.291.681-.566.814-1.134.814-1.485a4 4 0 0 1-.369.194m-5.3 8.28c-.062.444.047.875.17 1.195.262-1.141.795-2.191 1.616-3.196.424-.52.758-1.004.987-1.359-.451.229-.94.401-1.491.524-.27.352-1.095 1.511-1.282 2.836m-1.549 9.333c.135-.145.193-.426.17-.813a20 20 0 0 1 .03-3.019c.087-1.083.189-2.379-.76-3.324.838 2.06.152 6.151-.053 7.247.068.019.165.039.267.039q.224 0 .346-.13m-5.52-.318c.568.364 1.206.55 1.89.55.399 0 .725-.066.923-.116.124-.445.914-3.444.697-5.898 0 0 1.083.71-.267 5.883.006.007.305.292.687.292a.87.87 0 0 0 .534-.204c.389-1.924 1.032-6.863-.41-7.937-.002-.003-.272-.207-.78-.136-.633.089-1.676.615-3.062 2.611-.013.022-1.497 2.113-1.781 2.965.179.51.606 1.373 1.569 1.99m-.417-5.974-.16.225a16.4 16.4 0 0 1-1.716 2.032c-.267.267-.373.526-.296.731.079.214.359.369.711.394l.116.008c.504-1.011 1.582-2.535 1.636-2.609 1.031-1.488 2.02-2.391 2.948-2.691l-.022-.013a3 3 0 0 0-.546-.056c-1.279 0-1.955.962-2.671 1.979m4.631-1.874q.369.177.655.386c.003-.299-.091-.735-.617-.979-.459-.214-.836-.019-1.083.199a6 6 0 0 1 1.045.394m6.563-9.866a4.2 4.2 0 0 1-.979.22c.272.121.643.214 1.097.174a3.98 3.98 0 0 0 2.342-1.06c-.158-.055-.29-.115-.417-.172a4 4 0 0 0-.344-.147l.015.022c-.037.026-.886.664-1.714.963M-9.977.89c-.278.02-.515.142-.689.265.376.049.883.147 1.197.336.564.34.963.549 1.152.643l.137.04c.389.121.758.237 1.1.237.25 0 .564-.052.908-.379q-.206.018-.456.02c-.626 0-1.15-.125-1.552-.359v.001l-.01-.008a1.5 1.5 0 0 1-.197-.133C-8.81 1.277-9.549.865-9.977.89M.109-1.107c-.274 0-.525.035-.541.037-.929.068-2.212.302-2.987.673-.631.302-1.362.352-2.115.152a3 3 0 0 1-.377-.126c-.174-.065-.289-.11-.608-.11a.9.9 0 0 0-.376.082c.105.053.202.12.299.185.165.115.337.232.551.296.329.097.901.128.907.13l.464.025-.329.329c-.409.409-.882.601-1.486.601q-.244 0-.539-.04c-.82-.112-1.453-.728-1.611-1.57-.06-.307.001-.605.103-.863-.239.212-.429.49-.454.824-.045.612.072.874.69 1.557q.068.072.143.13c.11.074.187.131.217.151.408.225.915.28 1.312.28.506 0 .91-.087.915-.088l.513-.112-.297.432c-.449.653-.952.958-1.583.958-.406 0-.803-.123-1.224-.255q-.027-.007-.055-.017l-.007.017-.105-.052a5.7 5.7 0 0 0-1.704-.275c-.446 0-.882.068-1.334.207-.244.075-.471.242-.656.419.451-.129.798-.142 1.32-.164l.097-.003c1.072-.045 1.481.145 1.882.327.36.165.701.322 1.572.337l.062.002c1.708 0 2.467-1.351 2.922-2.157.075-.13.138-.244.197-.334C-3.604.085-1.87-.247-1.816-.257c.49-.139 1.058-.169 1.449-.169q.1 0 .168.002l.51-.676a3 3 0 0 0-.202-.007" style="fill:#231f20;fill-opacity:1;fill-rule:nonzero;stroke:none" transform="translate(338.685 979.353)"/></g></svg>